<svg width="50" height="50" viewBox="0 0 50 50" fill="none" xmlns="http://www.w3.org/2000/svg">
<path fill-rule="evenodd" clip-rule="evenodd" d="M25.013 4.00787L24.95 4L24.887 4.00787C18.9744 4.02529 13.6367 6.49329 9.83914 10.4469L11.2815 11.8324C13.5021 9.52057 16.302 7.77151 19.448 6.81865C18.4348 7.70407 17.4417 8.77948 16.5312 10.0207C14.0568 13.3937 12.0946 18.1096 11.8922 23.9578H6.02591C6.10382 22.4579 6.35598 21.0052 6.76216 19.619L4.84286 19.0566C4.38389 20.623 4.1031 22.2646 4.02347 23.9578H4V24.9578V25.9578H4.02345C4.54438 37.043 13.6806 45.8747 24.887 45.9077L24.95 45.9156L25.013 45.9077C30.9307 45.8903 36.2726 43.418 40.0707 39.4584L38.6274 38.0739C36.4054 40.3903 33.6022 42.1428 30.452 43.0969C31.4652 42.2115 32.4583 41.1361 33.3688 39.8949C35.8432 36.5219 37.8054 31.806 38.0078 25.9578H43.8741C43.7934 27.5108 43.5259 29.0133 43.094 30.4437L45.0087 31.0218C45.4964 29.4066 45.7941 27.7098 45.8765 25.9578H45.9V24.9578V23.9578H45.8766C45.3556 12.8725 36.2194 4.04086 25.013 4.00787ZM30.4524 6.81899C31.4655 7.70435 32.4584 8.77964 33.3688 10.0207C35.8432 13.3937 37.8054 18.1096 38.0078 23.9578H43.8741C43.4523 15.846 37.9295 9.08418 30.4524 6.81899ZM19.4476 43.0966C18.4345 42.2112 17.4416 41.1359 16.5312 39.8949C14.0568 36.5219 12.0946 31.806 11.8922 25.9578H6.02593C6.44767 34.0695 11.9705 40.8314 19.4476 43.0966ZM17.6 25.9578H13.8935C14.0945 31.3558 15.9067 35.6624 18.1438 38.7119C20.083 41.3553 22.274 42.9727 23.95 43.6169V32.3078V31.3078H25.95V32.3078V43.6169C27.626 42.9727 29.817 41.3553 31.7562 38.7119C33.9933 35.6624 35.8055 31.3558 36.0065 25.9578H32.3H31.3V23.9578H32.3H36.0065C35.8055 18.5598 33.9933 14.2532 31.7562 11.2037C29.817 8.56029 27.626 6.9429 25.95 6.29865V17.6078V18.6078H23.95V17.6078V6.29865C22.274 6.9429 20.083 8.56029 18.1438 11.2037C15.9067 14.2532 14.0945 18.5598 13.8935 23.9578H17.6H18.6V25.9578H17.6Z" fill="#333333"/>
<path d="M10.95 15.4578C10.95 16.8385 9.83066 17.9578 8.44995 17.9578C7.06924 17.9578 5.94995 16.8385 5.94995 15.4578C5.94995 14.0771 7.06924 12.9578 8.44995 12.9578C9.83066 12.9578 10.95 14.0771 10.95 15.4578ZM42.5569 32.3188C43.7526 33.0091 44.1623 34.5381 43.4719 35.7338C42.7816 36.9296 41.2526 37.3393 40.0569 36.6489C38.8611 35.9586 38.4515 34.4296 39.1418 33.2338C39.8322 32.0381 41.3611 31.6284 42.5569 32.3188ZM24.95 20.9578C27.1591 20.9578 28.95 22.7486 28.95 24.9578C28.95 27.1669 27.1591 28.9578 24.95 28.9578C22.7408 28.9578 20.95 27.1669 20.95 24.9578C20.95 22.7486 22.7408 20.9578 24.95 20.9578Z" stroke="#0077FF" stroke-width="2"/>
</svg>
