<svg width="50" height="50" viewBox="0 0 50 50" fill="none" xmlns="http://www.w3.org/2000/svg">
<path d="M3.625 29.4648C2.99219 29.4648 2.5 28.9727 2.5 28.3398C2.5 27.707 2.99219 27.2148 3.625 27.2148C4.1875 27.2148 4.75 27.707 4.75 28.3398C4.75 28.9727 4.1875 29.4648 3.625 29.4648ZM46.9375 15.9648C47.2188 15.9648 47.5 16.2461 47.5 16.5273V17.6523C47.5 18.0039 47.2188 18.2148 46.9375 18.2148L43 18.2852V31.7148H46.9375C47.2188 31.7148 47.5 31.9961 47.5 32.2773V33.4023C47.5 33.7539 47.2188 33.9648 46.9375 33.9648H43C41.7344 33.9648 40.75 32.9805 40.75 31.7852H37.3047C37.2344 32.418 37.0234 33.0508 36.6016 33.543L35.8984 34.3867C34.7031 35.8633 32.875 35.8633 31.6797 35.2305L30.1328 37.1289C29.4297 38.043 28.375 38.5352 27.25 38.5352C26.4062 38.5352 25.5625 38.1836 24.8594 37.6914L24.3672 37.1992C22.3281 38.8867 19.375 38.957 17.2656 37.2695L11.5703 31.7852H9.17969C9.17969 32.9805 8.19531 33.9648 7 33.9648H3.0625C2.71094 33.9648 2.5 33.7539 2.5 33.4023V32.2773C2.5 31.9961 2.71094 31.7148 3.0625 31.7148H7V18.2148H3.0625C2.71094 18.2148 2.5 18.0039 2.5 17.6523V16.5273C2.5 16.2461 2.71094 15.9648 3.0625 15.9648H11.0078L14.5234 12.4492C15.1563 11.8164 16 11.4648 16.9141 11.4648H21.7656C22.5391 11.4648 23.2422 11.7461 23.875 12.2383C24.4375 11.8164 25.1406 11.5352 25.8438 11.5352H32.9453C33.8594 11.5352 34.7031 11.8867 35.3359 12.5195L38.9219 16.0352L46.9375 15.9648ZM34.8438 32.1367C35.1953 31.6445 35.125 30.9414 34.6328 30.5898L25.8438 23.418L24.2266 24.8945C21.5547 27.3555 18.3906 25.668 17.4063 24.543C15.6484 22.6445 15.7188 19.5508 17.6875 17.7227L21.8359 13.9258C21.8359 13.7852 21.8359 13.9258 21.7656 13.7148H16.9141C16.6328 13.7148 16.2813 13.8555 16.0703 14.0664L11.9219 18.2148H9.25V29.5352H12.4844L18.7422 35.582C20.1484 36.6367 22.2578 36.4258 23.4531 35.0195L24.1562 34.1055L26.3359 35.9336C26.8984 36.4258 27.8828 36.3555 28.375 35.7227L31.3281 32.1367L32.5938 33.1211C33.0859 33.543 33.7891 33.4023 34.1406 32.9805L34.8438 32.1367ZM40.75 29.5352V18.2148H38.0078L33.7188 14.0664C33.5078 13.8555 33.2266 13.7852 32.9453 13.7852H25.8438C25.5625 13.7852 25.2813 13.8555 25.0703 14.0664L19.2344 19.4102C18.1797 20.3945 18.1094 22.0117 19.0938 23.0664C20.0078 24.0508 21.6953 24.1211 22.6797 23.207L27.9531 18.3555C28.4453 17.9336 29.1484 18.0039 29.5703 18.4258C29.9922 18.918 29.9922 19.6211 29.5 20.043L27.5313 21.8711L36.1094 28.832C36.3203 29.043 36.5313 29.2539 36.6719 29.5352H40.75ZM46.375 27.2148C46.9375 27.2148 47.5 27.707 47.5 28.3398C47.5 28.9727 46.9375 29.4648 46.375 29.4648C45.7422 29.4648 45.25 28.9727 45.25 28.3398C45.25 27.7773 45.7422 27.2148 46.375 27.2148Z" fill="#333333"/>
<path d="M3.625 29.4648C2.99219 29.4648 2.5 28.9727 2.5 28.3398C2.5 27.707 2.99219 27.2148 3.625 27.2148C4.1875 27.2148 4.75 27.707 4.75 28.3398C4.75 28.9727 4.1875 29.4648 3.625 29.4648ZM46.375 27.2148C46.9375 27.2148 47.5 27.707 47.5 28.3398C47.5 28.9727 46.9375 29.4648 46.375 29.4648C45.7422 29.4648 45.25 28.9727 45.25 28.3398C45.25 27.7773 45.7422 27.2148 46.375 27.2148Z" fill="#0077FF"/>
<path d="M9.17969 31.7852C9.17969 32.9805 8.19531 33.9648 7 33.9648H3.0625C2.71094 33.9648 2.5 33.7539 2.5 33.4023V32.2773C2.5 31.9961 2.71094 31.7148 3.0625 31.7148H7V18.2148H3.0625C2.71094 18.2148 2.5 18.0039 2.5 17.6523V16.5273C2.5 16.2461 2.71094 15.9648 3.0625 15.9648H9.25V18.2148V29.5352V31.7852H9.17969Z" fill="#0077FF"/>
<path d="M46.9375 15.9648C47.2188 15.9648 47.5 16.2461 47.5 16.5273V17.6523C47.5 18.0039 47.2188 18.2148 46.9375 18.2148L43 18.2852V31.7148H46.9375C47.2188 31.7148 47.5 31.9961 47.5 32.2773V33.4023C47.5 33.7539 47.2188 33.9648 46.9375 33.9648H43C41.7344 33.9648 40.75 32.9805 40.75 31.7852V29.5352V18.2148V15.9648H46.9375Z" fill="#0077FF"/>
<path d="M3.625 29.4648C2.99219 29.4648 2.5 28.9727 2.5 28.3398C2.5 27.707 2.99219 27.2148 3.625 27.2148C4.1875 27.2148 4.75 27.707 4.75 28.3398C4.75 28.9727 4.1875 29.4648 3.625 29.4648ZM46.375 27.2148C46.9375 27.2148 47.5 27.707 47.5 28.3398C47.5 28.9727 46.9375 29.4648 46.375 29.4648C45.7422 29.4648 45.25 28.9727 45.25 28.3398C45.25 27.7773 45.7422 27.2148 46.375 27.2148Z" fill="#0077FF"/>
</svg>
