<svg width="13" height="13" viewBox="0 0 13 13" fill="none" xmlns="http://www.w3.org/2000/svg">
<path d="M12.1484 0.5C12.3359 0.5 12.5 0.664062 12.5 0.851562L12.4766 4.67188C12.4766 4.85938 12.3359 5 12.1484 5H11.375V5.02344C11.1875 5.02344 11.0234 4.85938 11.0234 4.67188L11.0938 2.9375L11.0469 2.89062L4.50781 9.42969C4.46094 9.47656 4.39062 9.52344 4.32031 9.52344C4.22656 9.52344 4.15625 9.47656 4.10938 9.42969L3.57031 8.89062C3.52344 8.84375 3.47656 8.77344 3.47656 8.67969C3.47656 8.60938 3.52344 8.53906 3.57031 8.49219L10.1094 1.95312L10.0625 1.90625L8.32812 1.97656C8.14062 1.97656 8 1.8125 8 1.625V0.851562C8 0.664062 8.14062 0.523438 8.32812 0.523438L12.1484 0.5ZM10.625 7.25C10.8125 7.25 11 7.4375 11 7.625V11.375C11 12.0078 10.4844 12.5 9.875 12.5H1.625C0.992188 12.5 0.5 12.0078 0.5 11.375V3.125C0.5 2.51562 0.992188 2 1.625 2H5.375C5.5625 2 5.75 2.1875 5.75 2.375V2.75C5.75 2.96094 5.5625 3.125 5.375 3.125H1.76562C1.67188 3.125 1.625 3.19531 1.625 3.26562V11.2344C1.625 11.3281 1.67188 11.375 1.76562 11.375H9.73438C9.80469 11.375 9.875 11.3281 9.875 11.2344V7.625C9.875 7.4375 10.0391 7.25 10.25 7.25H10.625Z" fill="#0077FF"/>
</svg>
