<svg width="15" height="15" viewBox="0 0 15 15" fill="none" xmlns="http://www.w3.org/2000/svg">
<path d="M7.5 0.109863C11.5137 0.109863 14.7656 3.36182 14.7656 7.37549C14.7656 11.3892 11.5137 14.6411 7.5 14.6411C3.48633 14.6411 0.234375 11.3892 0.234375 7.37549C0.234375 3.36182 3.48633 0.109863 7.5 0.109863ZM11.0449 9.30908L9.14062 7.37549L11.0449 5.47119C11.1914 5.354 11.1914 5.11963 11.0449 4.97314L9.90234 3.83057C9.75586 3.68408 9.52148 3.68408 9.4043 3.83057L7.5 5.73486L5.5957 3.83057C5.44922 3.68408 5.21484 3.68408 5.09766 3.83057L3.92578 4.97314C3.7793 5.11963 3.7793 5.354 3.92578 5.47119L5.85938 7.37549L3.92578 9.27979C3.7793 9.42627 3.7793 9.66064 3.92578 9.77783L5.06836 10.9497C5.21484 11.0962 5.44922 11.0962 5.56641 10.9497L7.5 9.01611L9.4043 10.9497C9.52148 11.0962 9.75586 11.0962 9.90234 10.9497L11.0449 9.80713C11.1914 9.66064 11.1914 9.42627 11.0449 9.30908Z" fill="#999999"/>
</svg>
