<svg width="15" height="15" viewBox="0 0 15 15" fill="none" xmlns="http://www.w3.org/2000/svg">
<path d="M14.7656 7.37524C14.7656 11.3889 11.4844 14.6409 7.5 14.6409C3.48633 14.6409 0.234375 11.3889 0.234375 7.37524C0.234375 3.39087 3.48633 0.109619 7.5 0.109619C11.4844 0.109619 14.7656 3.39087 14.7656 7.37524ZM6.65039 11.2424L12.041 5.85181C12.2168 5.67603 12.2168 5.35376 12.041 5.17798L11.3672 4.53345C11.1914 4.32837 10.8984 4.32837 10.7227 4.53345L6.32812 8.92798L4.24805 6.8772C4.07227 6.67212 3.7793 6.67212 3.60352 6.8772L2.92969 7.52173C2.75391 7.69751 2.75391 8.01978 2.92969 8.19556L5.97656 11.2424C6.15234 11.4182 6.47461 11.4182 6.65039 11.2424Z" fill="#0077FF"/>
</svg>
