<svg width="15" height="16" viewBox="0 0 15 16" fill="none" xmlns="http://www.w3.org/2000/svg">
<path d="M7.5 0.609375C11.4844 0.609375 14.7656 3.89062 14.7656 7.875C14.7656 11.8887 11.4844 15.1406 7.5 15.1406C3.48633 15.1406 0.234375 11.8887 0.234375 7.875C0.234375 3.89062 3.48633 0.609375 7.5 0.609375ZM7.5 13.7344C10.7227 13.7344 13.3594 11.127 13.3594 7.875C13.3594 4.65234 10.7227 2.01562 7.5 2.01562C4.24805 2.01562 1.64062 4.65234 1.64062 7.875C1.64062 11.127 4.24805 13.7344 7.5 13.7344ZM10.6348 6.26367C10.6348 8.22656 8.49609 8.25586 8.49609 8.98828V9.16406C8.49609 9.36914 8.34961 9.51562 8.14453 9.51562H6.82617C6.62109 9.51562 6.47461 9.36914 6.47461 9.16406V8.92969C6.47461 7.875 7.26562 7.46484 7.85156 7.11328C8.37891 6.82031 8.70117 6.64453 8.70117 6.26367C8.70117 5.73633 8.05664 5.41406 7.5293 5.41406C6.85547 5.41406 6.5332 5.73633 6.09375 6.29297C5.97656 6.43945 5.74219 6.46875 5.5957 6.35156L4.77539 5.73633C4.62891 5.61914 4.59961 5.41406 4.7168 5.26758C5.39062 4.24219 6.26953 3.65625 7.64648 3.65625C9.08203 3.65625 10.6348 4.79883 10.6348 6.26367ZM8.73047 11.1562C8.73047 11.8594 8.17383 12.3867 7.5 12.3867C6.79688 12.3867 6.26953 11.8594 6.26953 11.1562C6.26953 10.4824 6.79688 9.92578 7.5 9.92578C8.17383 9.92578 8.73047 10.4824 8.73047 11.1562Z" fill="#0077FF"/>
</svg>
