<svg width="80" height="80" viewBox="0 0 80 80" fill="none" xmlns="http://www.w3.org/2000/svg">
<g clip-path="url(#clip0_5540_35363)">
<path d="M48.75 30.625V34.375C48.75 35.4062 47.9062 36.25 46.875 36.25H36.25V46.875C36.25 47.9062 35.4062 48.75 34.375 48.75H30.625C29.5938 48.75 28.75 47.9062 28.75 46.875V36.25H18.125C17.0938 36.25 16.25 35.4062 16.25 34.375V30.625C16.25 29.5938 17.0938 28.75 18.125 28.75H28.75V18.125C28.75 17.0938 29.5938 16.25 30.625 16.25H34.375C35.4062 16.25 36.25 17.0938 36.25 18.125V28.75H46.875C47.9062 28.75 48.75 29.5938 48.75 30.625ZM79.4531 75.9219L75.9219 79.4531C75.1875 80.1875 74 80.1875 73.2656 79.4531L54.2969 60.4844C53.9375 60.125 53.75 59.6562 53.75 59.1562V57.0938C48.0469 62.0156 40.625 65 32.5 65C14.5469 65 0 50.4531 0 32.5C0 14.5469 14.5469 0 32.5 0C50.4531 0 65 14.5469 65 32.5C65 40.625 62.0156 48.0469 57.0938 53.75H59.1562C59.6562 53.75 60.125 53.9531 60.4844 54.2969L79.4531 73.2656C80.1875 74 80.1875 75.1875 79.4531 75.9219ZM57.5 32.5C57.5 18.6875 46.3125 7.5 32.5 7.5C18.6875 7.5 7.5 18.6875 7.5 32.5C7.5 46.3125 18.6875 57.5 32.5 57.5C46.3125 57.5 57.5 46.3125 57.5 32.5Z" fill="white"/>
</g>
<defs>
<clipPath id="clip0_5540_35363">
<rect width="80" height="80" fill="white"/>
</clipPath>
</defs>
</svg>
