<svg width="455" height="356" viewBox="0 0 455 356" fill="none" xmlns="http://www.w3.org/2000/svg">
<path d="M108.948 329.84H346.753" stroke="#0077FF" stroke-width="2.10446"/>
<g filter="url(#filter0_f_39_98517)">
<path d="M108.948 329.84H346.753" stroke="#0077FF" stroke-width="2.10446"/>
</g>
<path d="M192.971 152.401L355.691 283.371" stroke="#0077FF" stroke-width="2.10446"/>
<g filter="url(#filter1_f_39_98517)">
<path d="M192.971 152.401L355.691 283.371" stroke="#0077FF" stroke-width="2.10446"/>
</g>
<path d="M443.902 305.346L443.905 305.347C445.934 306.517 446.713 307.911 446.715 309.091C446.716 310.271 445.94 311.663 443.92 312.833L443.916 312.835L388.433 345.259C388.433 345.259 388.433 345.259 388.433 345.259C386.407 346.434 383.694 347.052 380.925 347.052C378.155 347.052 375.442 346.434 373.416 345.259L372.888 346.169L373.416 345.259L317.645 312.901C317.645 312.901 317.645 312.901 317.645 312.901C315.614 311.722 314.835 310.327 314.835 309.148C314.835 307.969 315.614 306.575 317.645 305.396L317.648 305.395L373.114 272.987C373.115 272.987 373.115 272.987 373.115 272.986C375.141 271.812 377.854 271.194 380.623 271.194C383.392 271.194 386.106 271.812 388.131 272.987L388.659 272.078L388.131 272.987L443.902 305.346Z" stroke="#0077FF" stroke-width="2.10446"/>
<g filter="url(#filter2_f_39_98517)">
<path d="M443.902 305.346L443.905 305.347C445.934 306.517 446.713 307.911 446.715 309.091C446.716 310.271 445.94 311.663 443.92 312.833L443.916 312.835L388.433 345.259C388.433 345.259 388.433 345.259 388.433 345.259C386.407 346.434 383.694 347.052 380.925 347.052C378.155 347.052 375.442 346.434 373.416 345.259L372.888 346.169L373.416 345.259L317.645 312.901C317.645 312.901 317.645 312.901 317.645 312.901C315.614 311.722 314.835 310.327 314.835 309.148C314.835 307.969 315.614 306.575 317.645 305.396L317.648 305.395L373.114 272.987C373.115 272.987 373.115 272.987 373.115 272.986C375.141 271.812 377.854 271.194 380.623 271.194C383.392 271.194 386.106 271.812 388.131 272.987L388.659 272.078L388.131 272.987L443.902 305.346Z" stroke="#0077FF" stroke-width="2.10446"/>
</g>
<path opacity="0.4" d="M377.92 288.14L340.673 266.52C339.158 265.65 339.358 264.11 341.089 263.09L377.47 241.972C379.218 240.951 381.866 240.851 383.381 241.721L420.611 263.324C422.126 264.194 421.926 265.734 420.195 266.754L383.814 287.889C382.066 288.91 379.435 289.01 377.92 288.14Z" fill="#1F204A"/>
<path d="M332.736 287.895C333.423 288.291 333.924 288.751 334.239 289.275C334.555 289.796 334.712 290.354 334.712 290.951C334.712 291.22 334.677 291.457 334.607 291.663C334.536 291.866 334.421 292.017 334.261 292.115C334.103 292.215 333.892 292.244 333.628 292.203C333.363 292.16 333.037 292.026 332.649 291.802L332.165 291.523L332.165 293.708L331.037 293.057L331.037 286.914L332.736 287.895ZM332.678 288.928L332.165 288.632L332.165 290.456L332.536 290.67C332.747 290.792 332.93 290.865 333.086 290.891C333.241 290.916 333.361 290.884 333.446 290.796C333.531 290.708 333.573 290.556 333.573 290.34C333.573 290.037 333.5 289.771 333.355 289.542C333.209 289.309 332.984 289.105 332.678 288.928ZM340.546 295.464C340.546 295.938 340.495 296.34 340.393 296.67C340.292 296.998 340.136 297.242 339.928 297.401C339.721 297.562 339.459 297.627 339.141 297.595C338.824 297.56 338.448 297.417 338.013 297.167C337.579 296.916 337.203 296.625 336.885 296.293C336.567 295.958 336.304 295.591 336.095 295.19C335.889 294.791 335.735 294.367 335.633 293.919C335.531 293.471 335.48 293.009 335.48 292.533C335.48 291.897 335.57 291.395 335.75 291.028C335.932 290.66 336.211 290.454 336.587 290.411C336.963 290.367 337.441 290.513 338.021 290.847C338.598 291.18 339.072 291.584 339.444 292.059C339.817 292.535 340.094 293.062 340.273 293.639C340.455 294.217 340.546 294.826 340.546 295.464ZM336.663 293.224C336.663 293.652 336.709 294.049 336.801 294.413C336.896 294.775 337.043 295.098 337.242 295.381C337.441 295.661 337.698 295.892 338.013 296.074C338.334 296.259 338.593 296.326 338.792 296.276C338.991 296.222 339.135 296.068 339.225 295.811C339.317 295.553 339.363 295.21 339.363 294.782C339.363 294.137 339.259 293.57 339.05 293.08C338.842 292.59 338.499 292.207 338.021 291.931C337.703 291.748 337.443 291.682 337.242 291.734C337.043 291.784 336.896 291.938 336.801 292.194C336.709 292.449 336.663 292.792 336.663 293.224ZM345.922 295.503L344.273 298.896C344.125 299.203 343.967 299.449 343.8 299.636C343.632 299.819 343.42 299.912 343.163 299.915C342.906 299.915 342.569 299.795 342.151 299.554C342.02 299.479 341.878 299.385 341.725 299.275C341.573 299.167 341.431 299.054 341.3 298.937L341.3 297.819C341.421 297.942 341.552 298.057 341.693 298.163C341.836 298.268 341.97 298.357 342.097 298.43C342.262 298.525 342.395 298.57 342.497 298.565C342.599 298.559 342.68 298.519 342.741 298.445C342.801 298.37 342.852 298.278 342.894 298.167L341.052 292.693L342.246 293.382L343.239 296.615C343.261 296.683 343.289 296.775 343.323 296.89C343.359 297.003 343.395 297.119 343.429 297.237C343.465 297.353 343.493 297.453 343.512 297.537L343.552 297.56C343.572 297.501 343.597 297.432 343.629 297.352C343.663 297.271 343.698 297.189 343.734 297.106C343.771 297.021 343.803 296.944 343.833 296.877L344.757 294.831L345.922 295.503ZM348.644 303.216L347.516 302.565L347.516 297.506L346.071 296.673L346.071 295.589L350.089 297.907L350.089 298.991L348.644 298.157L348.644 303.216ZM353.972 306.29L350.907 304.522L350.907 298.38L353.972 300.148L353.972 301.215L352.036 300.098L352.036 301.446L353.837 302.486L353.837 303.553L352.036 302.514L352.036 304.098L353.972 305.215L353.972 306.29ZM356.785 301.771C357.472 302.167 357.973 302.627 358.288 303.151C358.603 303.672 358.761 304.23 358.761 304.827C358.761 305.096 358.726 305.333 358.656 305.539C358.585 305.742 358.47 305.893 358.31 305.991C358.152 306.09 357.941 306.12 357.677 306.079C357.412 306.036 357.086 305.902 356.698 305.678L356.214 305.399L356.214 307.584L355.085 306.933L355.085 300.79L356.785 301.771ZM356.727 302.804L356.214 302.508L356.214 304.332L356.585 304.546C356.796 304.668 356.979 304.741 357.134 304.767C357.29 304.792 357.41 304.76 357.495 304.672C357.58 304.584 357.622 304.432 357.622 304.216C357.622 303.913 357.549 303.647 357.404 303.418C357.258 303.185 357.032 302.981 356.727 302.804Z" fill="white"/>
<path d="M447.534 292.014L447.517 265.341L413.984 269.842L388.875 255.268C384.463 252.707 377.337 252.707 372.924 255.268L369.012 257.761L314.565 265.057V292.031C314.565 292.048 314.565 292.065 314.565 292.081V292.215H314.582C314.649 293.838 315.731 295.461 317.862 296.7L373.224 328.811C377.636 331.372 384.763 331.372 389.175 328.811L444.237 296.633C446.368 295.395 447.451 293.788 447.517 292.165H447.551V292.014H447.534Z" fill="url(#paint0_linear_39_98517)"/>
<path d="M444.221 260.522L388.875 228.41C384.463 225.85 377.337 225.85 372.925 228.41L317.879 260.572C313.467 263.132 313.467 267.266 317.879 269.826L373.224 301.937C377.637 304.498 384.763 304.498 389.175 301.937L444.237 269.759C448.633 267.215 448.633 263.065 444.221 260.522Z" fill="url(#paint1_radial_39_98517)"/>
<path d="M444.194 268.106L444.195 268.106C446.034 267.04 447.088 265.695 447.4 264.308L447.503 264.309C447.908 266.28 446.84 268.307 444.264 269.803L389.202 301.982L389.202 301.982C386.986 303.268 384.091 303.909 381.2 303.909C378.308 303.909 375.414 303.268 373.198 301.982L317.853 269.887L317.853 269.887C315.277 268.391 314.192 266.364 314.614 264.392L314.717 264.392C315.013 265.762 316.066 267.107 317.906 268.173L317.906 268.173L373.251 300.284C375.447 301.559 378.322 302.197 381.2 302.197C384.078 302.197 386.953 301.559 389.149 300.284L444.194 268.106ZM444.194 268.106L389.149 300.284L444.194 268.106Z" fill="white" stroke="white" stroke-width="0.105223"/>
<path d="M396.618 309.065L393.987 310.587V307.542L396.618 306.019V309.065Z" fill="#0077FF"/>
<path d="M402.096 305.885L399.465 307.408V304.362L402.096 302.84V305.885Z" fill="#0077FF"/>
<path d="M407.573 302.705L404.959 304.228V301.183L407.573 299.66V302.705Z" fill="#0077FF"/>
<path d="M403.094 311.457L400.463 312.98V309.934L403.094 308.428V311.457Z" fill="#0077FF"/>
<path d="M407.923 308.663L405.292 310.186V307.141L407.923 305.618V308.663Z" fill="#0077FF"/>
<path d="M425.156 292.498L422.542 294.021V290.976L425.156 289.453V292.498Z" fill="#0077FF"/>
<path d="M440.258 283.73L437.644 285.253V282.224L440.258 280.701V283.73Z" fill="#0077FF"/>
<path d="M413.051 299.525L410.437 301.031V298.003L413.051 296.48V299.525Z" fill="#0077FF"/>
<g filter="url(#filter3_f_39_98517)">
<path d="M396.618 309.065L393.987 310.587V307.542L396.618 306.019V309.065Z" fill="#0077FF"/>
<path d="M402.096 305.885L399.465 307.408V304.362L402.096 302.84V305.885Z" fill="#0077FF"/>
<path d="M407.573 302.705L404.959 304.228V301.183L407.573 299.66V302.705Z" fill="#0077FF"/>
<path d="M403.094 311.457L400.463 312.98V309.934L403.094 308.428V311.457Z" fill="#0077FF"/>
<path d="M407.923 308.663L405.292 310.186V307.141L407.923 305.618V308.663Z" fill="#0077FF"/>
<path d="M425.156 292.498L422.542 294.021V290.976L425.156 289.453V292.498Z" fill="#0077FF"/>
<path d="M440.258 283.73L437.644 285.253V282.224L440.258 280.701V283.73Z" fill="#0077FF"/>
<path d="M413.051 299.525L410.437 301.031V298.003L413.051 296.48V299.525Z" fill="#0077FF"/>
</g>
<path d="M324.181 280.835C323.965 280.711 323.773 280.649 323.606 280.651C323.441 280.651 323.301 280.709 323.187 280.825C323.076 280.943 322.991 281.114 322.933 281.338C322.874 281.562 322.845 281.835 322.845 282.157C322.845 282.591 322.891 282.989 322.984 283.35C323.078 283.71 323.224 284.028 323.42 284.304C323.617 284.577 323.87 284.803 324.181 284.982C324.397 285.107 324.613 285.204 324.829 285.272C325.047 285.342 325.284 285.399 325.538 285.442L325.538 286.535C325.303 286.511 325.071 286.457 324.843 286.373C324.615 286.292 324.359 286.169 324.075 286.006C323.527 285.689 323.076 285.298 322.722 284.834C322.37 284.367 322.109 283.85 321.939 283.281C321.769 282.71 321.684 282.109 321.684 281.479C321.684 281.014 321.739 280.62 321.848 280.296C321.957 279.972 322.117 279.73 322.328 279.569C322.54 279.408 322.8 279.34 323.111 279.365C323.421 279.39 323.778 279.519 324.181 279.751C324.445 279.904 324.71 280.096 324.974 280.327C325.241 280.556 325.496 280.808 325.739 281.083L325.375 281.932C325.176 281.708 324.975 281.497 324.774 281.299C324.573 281.102 324.375 280.947 324.181 280.835ZM331.005 283.777L331.005 287.752C331.005 288.175 330.923 288.51 330.761 288.758C330.601 289.004 330.357 289.133 330.029 289.143C329.704 289.154 329.294 289.017 328.799 288.731C328.096 288.325 327.559 287.809 327.191 287.181C326.822 286.554 326.637 285.898 326.637 285.215L326.637 281.257L327.762 281.906L327.762 285.666C327.762 286.173 327.852 286.581 328.031 286.889C328.211 287.197 328.477 287.453 328.828 287.656C329.076 287.798 329.276 287.865 329.429 287.855C329.584 287.846 329.698 287.761 329.771 287.599C329.844 287.436 329.88 287.197 329.88 286.88L329.88 283.128L331.005 283.777ZM335.448 290.778C335.448 291.142 335.372 291.414 335.219 291.595C335.066 291.776 334.843 291.854 334.549 291.83C334.258 291.808 333.904 291.677 333.487 291.436C333.302 291.329 333.122 291.211 332.944 291.081C332.77 290.952 332.601 290.814 332.439 290.667C332.278 290.519 332.126 290.362 331.98 290.197L331.98 288.987C332.232 289.261 332.494 289.528 332.766 289.789C333.038 290.049 333.307 290.257 333.574 290.411C333.758 290.517 333.906 290.574 334.018 290.583C334.132 290.592 334.215 290.563 334.266 290.494C334.316 290.426 334.342 290.328 334.342 290.202C334.342 290.048 334.297 289.891 334.207 289.73C334.118 289.569 333.994 289.395 333.836 289.209C333.681 289.024 333.505 288.82 333.308 288.598C333.185 288.459 333.05 288.3 332.904 288.121C332.759 287.939 332.621 287.74 332.49 287.524C332.359 287.309 332.251 287.077 332.166 286.829C332.083 286.58 332.042 286.315 332.042 286.035C332.042 285.668 332.115 285.396 332.26 285.22C332.406 285.043 332.613 284.964 332.883 284.982C333.154 284.999 333.475 285.114 333.843 285.326C334.12 285.486 334.383 285.676 334.633 285.896C334.885 286.114 335.149 286.372 335.423 286.671L335.059 287.473C334.814 287.217 334.594 287.002 334.4 286.828C334.206 286.652 334.008 286.506 333.807 286.389C333.666 286.308 333.546 286.266 333.447 286.261C333.347 286.254 333.272 286.284 333.221 286.35C333.17 286.413 333.145 286.506 333.145 286.629C333.145 286.775 333.181 286.919 333.254 287.062C333.329 287.203 333.441 287.363 333.589 287.541C333.739 287.72 333.926 287.936 334.149 288.188C334.421 288.493 334.653 288.782 334.844 289.055C335.038 289.327 335.187 289.602 335.292 289.881C335.396 290.157 335.448 290.456 335.448 290.778ZM338.465 294.224L337.337 293.573L337.337 288.515L335.892 287.681L335.892 286.597L339.91 288.915L339.91 289.999L338.465 289.166L338.465 294.224ZM345.558 295.237C345.558 295.711 345.507 296.113 345.406 296.443C345.304 296.771 345.148 297.015 344.94 297.174C344.733 297.335 344.471 297.4 344.154 297.368C343.836 297.333 343.46 297.19 343.025 296.94C342.591 296.689 342.215 296.398 341.897 296.066C341.579 295.731 341.316 295.364 341.107 294.963C340.901 294.564 340.747 294.14 340.645 293.692C340.543 293.244 340.492 292.782 340.492 292.306C340.492 291.67 340.582 291.168 340.762 290.801C340.944 290.433 341.223 290.227 341.599 290.184C341.975 290.14 342.453 290.286 343.033 290.62C343.61 290.953 344.084 291.357 344.456 291.832C344.829 292.308 345.106 292.835 345.285 293.412C345.467 293.99 345.558 294.599 345.558 295.237ZM341.675 292.997C341.675 293.425 341.721 293.822 341.814 294.186C341.908 294.548 342.055 294.871 342.254 295.154C342.453 295.434 342.71 295.665 343.025 295.847C343.346 296.032 343.605 296.099 343.804 296.049C344.003 295.995 344.148 295.841 344.237 295.584C344.33 295.326 344.376 294.983 344.376 294.555C344.376 293.91 344.271 293.343 344.063 292.853C343.854 292.363 343.511 291.98 343.033 291.704C342.715 291.521 342.455 291.455 342.254 291.507C342.055 291.557 341.908 291.711 341.814 291.967C341.721 292.222 341.675 292.565 341.675 292.997ZM348.914 300.253L347.633 294.695L347.6 294.676C347.605 294.793 347.612 294.971 347.622 295.209C347.634 295.446 347.645 295.697 347.655 295.964C347.664 296.23 347.669 296.468 347.669 296.678L347.669 299.535L346.661 298.953L346.661 292.81L348.197 293.697L349.456 299.121L349.478 299.133L350.814 295.206L352.349 296.093L352.349 302.235L351.298 301.629L351.298 298.721C351.298 298.528 351.3 298.306 351.305 298.057C351.312 297.809 351.321 297.575 351.33 297.353C351.34 297.129 351.347 296.961 351.352 296.849L351.319 296.83L349.947 300.849L348.914 300.253ZM356.757 304.778L353.692 303.01L353.692 296.867L356.757 298.635L356.757 299.703L354.821 298.586L354.821 299.934L356.622 300.974L356.622 302.041L354.821 301.002L354.821 302.586L356.757 303.703L356.757 304.778ZM359.421 300.173C359.903 300.451 360.301 300.748 360.614 301.063C360.93 301.379 361.164 301.718 361.317 302.078C361.47 302.437 361.546 302.825 361.546 303.239C361.546 303.519 361.5 303.738 361.408 303.895C361.316 304.052 361.194 304.16 361.044 304.218C360.893 304.277 360.731 304.302 360.556 304.294L362.121 307.874L360.869 307.151L359.599 304.061L358.999 303.715L358.999 306.072L357.87 305.421L357.87 299.278L359.421 300.173ZM359.341 301.194L358.999 300.996L358.999 302.656L359.362 302.866C359.736 303.081 360.003 303.164 360.163 303.114C360.326 303.062 360.407 302.896 360.407 302.616C360.407 302.324 360.32 302.067 360.145 301.843C359.973 301.62 359.705 301.404 359.341 301.194ZM363.62 302.596L363.471 304.728L362.754 304.315L362.605 302.01L363.62 302.596ZM367.919 309.513C367.919 309.877 367.842 310.149 367.689 310.33C367.536 310.511 367.313 310.589 367.02 310.566C366.728 310.543 366.374 310.412 365.957 310.171C365.773 310.064 365.592 309.946 365.415 309.816C365.24 309.687 365.071 309.549 364.909 309.402C364.749 309.254 364.596 309.097 364.45 308.932L364.45 307.722C364.703 307.996 364.965 308.264 365.236 308.524C365.508 308.784 365.777 308.992 366.044 309.146C366.229 309.252 366.377 309.309 366.488 309.318C366.602 309.328 366.685 309.298 366.736 309.229C366.787 309.161 366.812 309.063 366.812 308.937C366.812 308.783 366.767 308.626 366.678 308.465C366.588 308.304 366.464 308.13 366.306 307.944C366.151 307.759 365.975 307.555 365.779 307.333C365.655 307.194 365.52 307.035 365.375 306.856C365.229 306.674 365.091 306.475 364.96 306.259C364.829 306.044 364.721 305.812 364.636 305.564C364.553 305.315 364.512 305.05 364.512 304.77C364.512 304.403 364.585 304.131 364.73 303.955C364.876 303.778 365.083 303.699 365.353 303.717C365.625 303.734 365.945 303.849 366.314 304.062C366.59 304.221 366.853 304.411 367.103 304.631C367.356 304.849 367.619 305.107 367.893 305.406L367.529 306.208C367.284 305.952 367.065 305.737 366.87 305.563C366.676 305.387 366.479 305.241 366.277 305.125C366.136 305.043 366.016 305.001 365.917 304.996C365.817 304.99 365.742 305.019 365.691 305.085C365.64 305.148 365.615 305.241 365.615 305.364C365.615 305.51 365.651 305.654 365.724 305.797C365.799 305.938 365.911 306.098 366.059 306.276C366.209 306.455 366.396 306.671 366.619 306.923C366.891 307.228 367.123 307.517 367.314 307.79C367.509 308.062 367.658 308.337 367.762 308.616C367.866 308.892 367.919 309.191 367.919 309.513ZM331.339 301.113L329.906 300.285L327.591 294.303L327.558 294.284C327.568 294.483 327.576 294.682 327.584 294.883C327.591 295.083 327.598 295.283 327.606 295.484C327.613 295.681 327.62 295.88 327.627 296.08L327.627 298.971L326.619 298.389L326.619 292.246L328.042 293.067L330.353 299.002L330.379 299.016C330.374 298.823 330.368 298.631 330.361 298.439C330.353 298.247 330.346 298.055 330.339 297.863C330.334 297.673 330.329 297.482 330.324 297.292L330.324 294.384L331.339 294.97L331.339 301.113ZM335.747 303.656L332.682 301.888L332.682 295.745L335.747 297.513L335.747 298.58L333.811 297.463L333.811 298.812L335.612 299.851L335.612 300.918L333.811 299.879L333.811 301.463L335.747 302.58L335.747 303.656ZM338.913 305.483L337.785 304.832L337.785 299.773L336.34 298.939L336.34 297.855L340.358 300.173L340.358 301.257L338.913 300.424L338.913 305.483ZM347.713 304.417L346.359 309.779L345.074 309.038L344.354 305.395C344.339 305.325 344.32 305.22 344.296 305.08C344.271 304.94 344.246 304.788 344.219 304.624C344.192 304.457 344.168 304.302 344.146 304.158C344.127 304.012 344.114 303.898 344.106 303.815C344.099 303.89 344.084 303.986 344.063 304.105C344.043 304.226 344.02 304.352 343.993 304.486C343.969 304.62 343.945 304.745 343.921 304.859C343.896 304.974 343.877 305.061 343.862 305.12L343.146 307.925L341.864 307.186L340.507 300.26L341.617 300.9L342.298 304.646C342.317 304.758 342.339 304.891 342.363 305.045C342.39 305.2 342.415 305.362 342.439 305.53C342.466 305.697 342.489 305.857 342.509 306.011C342.53 306.164 342.546 306.295 342.556 306.404C342.568 306.305 342.584 306.19 342.603 306.062C342.623 305.93 342.643 305.797 342.665 305.664C342.689 305.53 342.714 305.407 342.738 305.295C342.762 305.183 342.784 305.093 342.803 305.026L343.579 302.032L344.645 302.647L345.42 306.536C345.437 306.621 345.457 306.734 345.478 306.876C345.503 307.016 345.527 307.167 345.551 307.33C345.575 307.492 345.597 307.65 345.617 307.804C345.638 307.957 345.654 308.088 345.664 308.197C345.681 308.067 345.704 307.911 345.733 307.729C345.765 307.545 345.797 307.364 345.831 307.185C345.868 307.007 345.899 306.858 345.926 306.739L346.603 303.777L347.713 304.417ZM353.212 310.653C353.212 311.127 353.161 311.529 353.059 311.859C352.957 312.187 352.802 312.431 352.593 312.59C352.387 312.752 352.125 312.816 351.807 312.784C351.489 312.749 351.113 312.606 350.679 312.356C350.245 312.105 349.869 311.814 349.551 311.482C349.233 311.147 348.97 310.78 348.761 310.379C348.555 309.98 348.401 309.556 348.299 309.108C348.197 308.66 348.146 308.198 348.146 307.722C348.146 307.086 348.236 306.585 348.415 306.218C348.597 305.849 348.876 305.643 349.252 305.6C349.628 305.556 350.106 305.702 350.686 306.036C351.264 306.369 351.738 306.773 352.109 307.248C352.483 307.724 352.759 308.251 352.939 308.828C353.121 309.406 353.212 310.015 353.212 310.653ZM349.329 308.413C349.329 308.841 349.375 309.238 349.467 309.602C349.562 309.964 349.708 310.287 349.907 310.57C350.106 310.85 350.364 311.081 350.679 311.263C350.999 311.448 351.259 311.515 351.458 311.465C351.657 311.411 351.801 311.257 351.891 311C351.983 310.742 352.029 310.399 352.029 309.971C352.029 309.327 351.925 308.759 351.716 308.269C351.508 307.779 351.164 307.396 350.686 307.12C350.368 306.937 350.109 306.871 349.907 306.923C349.708 306.973 349.562 307.127 349.467 307.383C349.375 307.638 349.329 307.981 349.329 308.413ZM355.865 309.121C356.348 309.4 356.746 309.696 357.059 310.011C357.374 310.328 357.608 310.666 357.761 311.026C357.914 311.386 357.99 311.773 357.99 312.188C357.99 312.468 357.944 312.686 357.852 312.843C357.76 313 357.639 313.108 357.488 313.167C357.338 313.226 357.175 313.251 357.001 313.243L358.565 316.822L357.313 316.1L356.043 313.01L355.443 312.663L355.443 315.02L354.315 314.369L354.315 308.226L355.865 309.121ZM355.785 310.142L355.443 309.945L355.443 311.604L355.807 311.814C356.18 312.03 356.447 312.112 356.607 312.062C356.77 312.01 356.851 311.844 356.851 311.564C356.851 311.273 356.764 311.015 356.589 310.791C356.417 310.568 356.149 310.352 355.785 310.142ZM363.515 319.678L362.234 318.939L360.84 315.546L360.363 315.666L360.363 317.859L359.235 317.208L359.235 311.065L360.363 311.716L360.363 314.527C360.438 314.45 360.512 314.373 360.585 314.294C360.658 314.216 360.732 314.138 360.807 314.061L362.248 312.804L363.5 313.527L361.644 315.174L363.515 319.678Z" fill="white"/>
<path opacity="0.4" d="M377.838 288.14L340.591 266.52C339.076 265.65 339.276 264.11 341.007 263.09L377.388 241.972C379.136 240.951 381.784 240.851 383.299 241.721L420.529 263.324C422.044 264.194 421.844 265.734 420.113 266.754L383.732 287.889C381.984 288.91 379.353 289.01 377.838 288.14Z" fill="#1F204A"/>
<path d="M447.453 242.008L447.436 215.335L413.903 219.836L388.794 205.261C384.382 202.701 377.256 202.701 372.843 205.261L368.931 207.755L314.484 215.05V242.025C314.484 242.041 314.484 242.058 314.484 242.075V242.209H314.501C314.568 243.832 315.65 245.455 317.781 246.693L373.143 278.805C377.555 281.365 384.682 281.365 389.094 278.805L444.156 246.626C446.287 245.388 447.37 243.782 447.436 242.159H447.47V242.008H447.453Z" fill="url(#paint2_linear_39_98517)"/>
<path d="M444.139 210.246L388.793 178.134C384.381 175.574 377.255 175.574 372.843 178.134L317.797 210.296C313.385 212.856 313.385 216.989 317.797 219.549L373.142 251.661C377.555 254.221 384.681 254.221 389.093 251.661L444.155 219.483C448.551 216.939 448.551 212.789 444.139 210.246Z" fill="url(#paint3_radial_39_98517)"/>
<path d="M444.113 217.829L444.113 217.829C445.953 216.763 447.006 215.418 447.318 214.031L447.421 214.032C447.827 216.003 446.758 218.031 444.183 219.527L389.12 251.705L389.12 251.705C386.904 252.991 384.01 253.632 381.118 253.632C378.227 253.632 375.333 252.991 373.117 251.705L317.771 219.61L317.771 219.61C315.196 218.114 314.11 216.087 314.533 214.115L314.636 214.115C314.931 215.485 315.984 216.83 317.824 217.896L317.824 217.896L373.169 250.008C375.366 251.282 378.241 251.921 381.118 251.921C383.996 251.921 386.871 251.282 389.067 250.008L444.113 217.829ZM444.113 217.829L389.067 250.008L444.113 217.829Z" fill="white" stroke="white" stroke-width="0.105223"/>
<path d="M396.536 258.79L393.906 260.313V257.267L396.536 255.744V258.79Z" fill="#0077FF"/>
<path d="M402.014 255.61L399.383 257.133V254.087L402.014 252.565V255.61Z" fill="#0077FF"/>
<path d="M407.492 252.431L404.877 253.954V250.908L407.492 249.385V252.431Z" fill="#0077FF"/>
<path d="M403.014 261.182L400.383 262.705V259.66L403.014 258.154V261.182Z" fill="#0077FF"/>
<path d="M407.841 258.389L405.21 259.911V256.866L407.841 255.343V258.389Z" fill="#0077FF"/>
<path d="M425.075 242.224L422.46 243.746V240.701L425.075 239.178V242.224Z" fill="#0077FF"/>
<path d="M440.176 233.455L437.562 234.978V231.949L440.176 230.427V233.455Z" fill="#0077FF"/>
<path d="M412.97 249.251L410.356 250.757V247.728L412.97 246.205V249.251Z" fill="#0077FF"/>
<g filter="url(#filter4_f_39_98517)">
<path d="M396.536 258.79L393.906 260.313V257.267L396.536 255.744V258.79Z" fill="#0077FF"/>
<path d="M402.014 255.61L399.383 257.133V254.087L402.014 252.565V255.61Z" fill="#0077FF"/>
<path d="M407.492 252.431L404.878 253.954V250.908L407.492 249.385V252.431Z" fill="#0077FF"/>
<path d="M403.014 261.182L400.383 262.705V259.66L403.014 258.154V261.182Z" fill="#0077FF"/>
<path d="M407.842 258.389L405.211 259.912V256.866L407.842 255.343V258.389Z" fill="#0077FF"/>
<path d="M425.075 242.224L422.46 243.746V240.701L425.075 239.178V242.224Z" fill="#0077FF"/>
<path d="M440.177 233.455L437.562 234.978V231.949L440.177 230.427V233.455Z" fill="#0077FF"/>
<path d="M412.97 249.251L410.356 250.757V247.728L412.97 246.205V249.251Z" fill="#0077FF"/>
</g>
<path d="M365.841 259.063L368.472 260.586V257.54L365.841 256.017V259.063Z" fill="#0077FF"/>
<path d="M360.364 256.153L362.995 257.676V254.63L360.364 253.107V256.153Z" fill="#0077FF"/>
<path d="M354.536 258.661L357.167 260.184V257.139L354.536 255.616V258.661Z" fill="#0077FF"/>
<path d="M359.364 261.455L361.995 262.978V259.932L359.364 258.426V261.455Z" fill="#0077FF"/>
<path d="M331.32 245.372L333.951 246.895V243.849L331.32 242.326V245.372Z" fill="#0077FF"/>
<path d="M354.886 252.704L357.5 254.226V251.181L354.886 249.658V252.704Z" fill="#0077FF"/>
<path d="M348.075 254.749L350.706 256.271V253.226L348.075 251.72V254.749Z" fill="#0077FF"/>
<path d="M343.246 251.955L345.877 253.477V250.432L343.246 248.909V251.955Z" fill="#0077FF"/>
<path d="M337.303 242.496L339.917 244.019V240.974L337.303 239.451V242.496Z" fill="#0077FF"/>
<path d="M322.201 233.728L324.815 235.251V232.222L322.201 230.699V233.728Z" fill="#0077FF"/>
<path d="M349.408 249.524L352.022 251.03V248.001L349.408 246.478V249.524Z" fill="#0077FF"/>
<g filter="url(#filter5_f_39_98517)">
<path d="M365.841 259.063L368.472 260.586V257.54L365.841 256.017V259.063Z" fill="#0077FF"/>
<path d="M360.364 256.153L362.995 257.676V254.63L360.364 253.107V256.153Z" fill="#0077FF"/>
<path d="M354.536 258.661L357.167 260.184V257.139L354.536 255.616V258.661Z" fill="#0077FF"/>
<path d="M359.364 261.455L361.995 262.978V259.932L359.364 258.426V261.455Z" fill="#0077FF"/>
<path d="M331.32 245.372L333.951 246.895V243.849L331.32 242.326V245.372Z" fill="#0077FF"/>
<path d="M354.886 252.704L357.5 254.226V251.181L354.886 249.658V252.704Z" fill="#0077FF"/>
<path d="M348.075 254.749L350.706 256.271V253.226L348.075 251.72V254.749Z" fill="#0077FF"/>
<path d="M343.246 251.955L345.877 253.477V250.432L343.246 248.909V251.955Z" fill="#0077FF"/>
<path d="M337.303 242.496L339.917 244.019V240.974L337.303 239.451V242.496Z" fill="#0077FF"/>
<path d="M322.201 233.728L324.815 235.251V232.222L322.201 230.699V233.728Z" fill="#0077FF"/>
<path d="M349.408 249.524L352.022 251.03V248.001L349.408 246.478V249.524Z" fill="#0077FF"/>
</g>
<path opacity="0.4" d="M397.089 205.104C388.175 199.958 373.73 199.958 364.816 205.104C355.902 210.251 355.902 218.591 364.816 223.737C373.73 228.884 388.175 228.884 397.089 223.737C406.003 218.591 406.003 210.251 397.089 205.104ZM390.843 208.711C393.966 210.514 393.966 213.519 390.843 215.322C387.655 217.163 382.514 217.126 379.391 215.322C376.203 213.482 376.203 210.551 379.391 208.711C382.514 206.908 387.655 206.87 390.843 208.711ZM368.46 221.634C364.621 219.417 362.864 216.449 363.319 213.557C366.833 212.956 370.867 213.407 373.665 215.022C373.795 215.097 373.86 215.21 373.99 215.36C374.576 215.999 375.292 216.562 376.268 217.126C377.179 217.652 378.22 218.102 379.261 218.403C379.521 218.478 379.716 218.516 379.912 218.628C382.644 220.206 383.425 222.535 382.384 224.564C377.374 224.827 372.234 223.812 368.46 221.634Z" fill="url(#paint4_linear_39_98517)"/>
<path d="M137.352 305.346L137.354 305.347C139.383 306.517 140.163 307.911 140.164 309.091C140.166 310.271 139.39 311.663 137.37 312.833L137.366 312.835L81.8831 345.259C81.883 345.259 81.8828 345.259 81.8827 345.259C79.8572 346.434 77.1438 347.052 74.3745 347.052C71.6049 347.052 68.8914 346.434 66.8658 345.259L66.3377 346.169L66.8658 345.259L11.0952 312.901C11.0952 312.901 11.0952 312.901 11.0951 312.901C9.06331 311.722 8.28465 310.327 8.28465 309.148C8.28465 307.969 9.06332 306.575 11.0952 305.396L11.0979 305.395L66.5638 272.987C66.5642 272.987 66.5646 272.987 66.565 272.986C68.5905 271.812 71.3035 271.194 74.0725 271.194C76.842 271.194 79.5555 271.812 81.5811 272.987L82.1087 272.078L81.5811 272.987L137.352 305.346Z" stroke="#0077FF" stroke-width="2.10446"/>
<g filter="url(#filter6_f_39_98517)">
<path d="M137.352 305.346L137.354 305.347C139.383 306.517 140.163 307.911 140.164 309.091C140.166 310.271 139.39 311.663 137.37 312.833L137.366 312.835L81.8831 345.259C81.883 345.259 81.8828 345.259 81.8827 345.259C79.8572 346.434 77.1438 347.052 74.3745 347.052C71.6049 347.052 68.8914 346.434 66.8658 345.259L66.3377 346.169L66.8658 345.259L11.0952 312.901C11.0952 312.901 11.0952 312.901 11.0951 312.901C9.06331 311.722 8.28465 310.327 8.28465 309.148C8.28465 307.969 9.06332 306.575 11.0952 305.396L11.0979 305.395L66.5638 272.987C66.5642 272.987 66.5646 272.987 66.565 272.986C68.5905 271.812 71.3035 271.194 74.0725 271.194C76.842 271.194 79.5555 271.812 81.5811 272.987L82.1087 272.078L81.5811 272.987L137.352 305.346Z" stroke="#0077FF" stroke-width="2.10446"/>
</g>
<path d="M141.685 292.014L141.669 265.341L108.135 269.842L83.0266 255.268C78.6143 252.707 71.4881 252.707 67.0758 255.268L63.163 257.761L8.7168 265.057V292.031C8.7168 292.048 8.7168 292.065 8.7168 292.081V292.215H8.73345C8.80005 293.838 9.88231 295.461 12.0135 296.7L67.3755 328.811C71.7878 331.372 78.914 331.372 83.3263 328.811L138.389 296.633C140.52 295.395 141.602 293.788 141.669 292.165H141.702V292.014H141.685Z" fill="url(#paint5_linear_39_98517)"/>
<path d="M138.373 260.522L83.0273 228.41C78.615 225.85 71.4888 225.85 67.0765 228.41L12.0309 260.572C7.6186 263.132 7.6186 267.266 12.0309 269.826L67.3762 301.937C71.7885 304.498 78.9147 304.498 83.327 301.937L138.389 269.759C142.785 267.215 142.785 263.065 138.373 260.522Z" fill="url(#paint6_radial_39_98517)"/>
<path d="M138.346 268.106L138.346 268.106C140.186 267.04 141.239 265.695 141.551 264.308L141.654 264.308C142.06 266.28 140.991 268.307 138.415 269.803L83.3533 301.981L83.3532 301.982C81.1371 303.267 78.2428 303.909 75.3513 303.909C72.4598 303.909 69.5655 303.267 67.3495 301.982L12.0042 269.887L12.0042 269.887C9.42879 268.391 8.3429 266.363 8.7657 264.392L8.86857 264.392C9.16421 265.762 10.2172 267.106 12.057 268.172L12.057 268.172L67.4023 300.284C69.5986 301.558 72.4735 302.197 75.3513 302.197C78.229 302.197 81.104 301.559 83.3002 300.284L138.346 268.106ZM138.346 268.106L83.3004 300.284L138.346 268.106Z" fill="white" stroke="white" stroke-width="0.105223"/>
<path d="M90.7694 309.065L88.1387 310.587V307.542L90.7694 306.019V309.065Z" fill="#0077FF"/>
<path d="M96.2469 305.885L93.6162 307.408V304.362L96.2469 302.84V305.885Z" fill="#0077FF"/>
<path d="M101.724 302.705L99.1104 304.228V301.183L101.724 299.66V302.705Z" fill="#0077FF"/>
<path d="M97.246 311.457L94.6152 312.98V309.934L97.246 308.428V311.457Z" fill="#0077FF"/>
<path d="M102.075 308.663L99.4438 310.186V307.141L102.075 305.618V308.663Z" fill="#0077FF"/>
<path d="M119.307 292.498L116.693 294.021V290.976L119.307 289.453V292.498Z" fill="#0077FF"/>
<path d="M134.409 283.73L131.795 285.253V282.224L134.409 280.701V283.73Z" fill="#0077FF"/>
<path d="M107.202 299.525L104.588 301.031V298.003L107.202 296.48V299.525Z" fill="#0077FF"/>
<g filter="url(#filter7_f_39_98517)">
<path d="M90.7694 309.065L88.1387 310.587V307.542L90.7694 306.019V309.065Z" fill="#0077FF"/>
<path d="M96.2469 305.885L93.6162 307.408V304.362L96.2469 302.84V305.885Z" fill="#0077FF"/>
<path d="M101.724 302.705L99.1104 304.228V301.183L101.724 299.66V302.705Z" fill="#0077FF"/>
<path d="M97.246 311.457L94.6152 312.98V309.934L97.246 308.428V311.457Z" fill="#0077FF"/>
<path d="M102.075 308.663L99.4438 310.186V307.141L102.075 305.618V308.663Z" fill="#0077FF"/>
<path d="M119.307 292.498L116.693 294.021V290.976L119.307 289.453V292.498Z" fill="#0077FF"/>
<path d="M134.409 283.73L131.795 285.253V282.224L134.409 280.701V283.73Z" fill="#0077FF"/>
<path d="M107.202 299.525L104.588 301.031V298.003L107.202 296.48V299.525Z" fill="#0077FF"/>
</g>
<path d="M35.7502 293.142C35.7502 293.834 35.6349 294.346 35.4044 294.678C35.1764 295.009 34.8452 295.166 34.4109 295.151C33.9766 295.133 33.4537 294.947 32.8423 294.595L31.3356 293.725L31.3356 287.582L33.0061 288.546C33.5641 288.868 34.0482 289.262 34.4582 289.729C34.8682 290.192 35.1861 290.713 35.4117 291.291C35.6373 291.867 35.7502 292.484 35.7502 293.142ZM34.5783 292.5C34.5783 292.046 34.5201 291.64 34.4036 291.281C34.2896 290.921 34.1197 290.606 33.8941 290.336C33.6709 290.067 33.3943 289.837 33.0643 289.647L32.4638 289.301L32.4638 293.301L32.9479 293.58C33.4986 293.898 33.9074 293.964 34.1743 293.779C34.4436 293.596 34.5783 293.169 34.5783 292.5ZM41.2674 296.326C41.2674 297.017 41.1522 297.529 40.9217 297.861C40.6936 298.192 40.3624 298.35 39.9281 298.334C39.4938 298.316 38.971 298.131 38.3596 297.778L36.8529 296.909L36.8529 290.766L38.5233 291.73C39.0814 292.052 39.5654 292.446 39.9754 292.912C40.3855 293.375 40.7033 293.896 40.929 294.475C41.1546 295.05 41.2674 295.667 41.2674 296.326ZM40.0955 295.683C40.0955 295.229 40.0373 294.823 39.9209 294.465C39.8068 294.105 39.637 293.79 39.4113 293.519C39.1881 293.25 38.9115 293.021 38.5816 292.83L37.9811 292.484L37.9811 296.484L38.4651 296.763C39.0159 297.081 39.4247 297.147 39.6916 296.962C39.9609 296.779 40.0955 296.352 40.0955 295.683ZM44.39 297.808L46.5008 299.026L46.5008 302.211C46.2218 302.156 45.9318 302.074 45.631 301.965C45.3301 301.853 44.9892 301.687 44.6083 301.467C44.0794 301.162 43.6306 300.783 43.2618 300.329C42.893 299.876 42.6128 299.358 42.4211 298.777C42.2294 298.196 42.1336 297.562 42.1336 296.876C42.1336 296.231 42.2403 295.736 42.4538 295.388C42.6698 295.042 42.984 294.859 43.3964 294.84C43.8113 294.821 44.3172 294.984 44.914 295.329C45.1955 295.491 45.4733 295.686 45.7474 295.915C46.0216 296.143 46.2703 296.377 46.4935 296.618L46.1187 297.444C45.9561 297.255 45.7705 297.068 45.5618 296.883C45.3532 296.698 45.1348 296.54 44.9068 296.409C44.5792 296.22 44.2941 296.142 44.0515 296.176C43.8113 296.211 43.6245 296.347 43.4911 296.583C43.36 296.819 43.2945 297.148 43.2945 297.571C43.2945 297.971 43.3418 298.354 43.4365 298.72C43.5311 299.083 43.6803 299.411 43.8841 299.705C44.0879 299.996 44.3536 300.236 44.6811 300.425C44.8412 300.518 44.9759 300.587 45.0851 300.633C45.1967 300.678 45.301 300.719 45.3981 300.755L45.3981 299.474L44.39 298.892L44.39 297.808ZM25.4909 301.353L24.057 300.525L21.7423 294.543L21.7096 294.524C21.7193 294.723 21.7278 294.922 21.7351 295.123C21.7423 295.323 21.7496 295.523 21.7569 295.724C21.7642 295.921 21.7714 296.12 21.7787 296.32L21.7787 299.211L20.7706 298.629L20.7706 292.486L22.1936 293.307L24.5046 299.242L24.5301 299.256C24.5252 299.063 24.5192 298.871 24.5119 298.679C24.5046 298.487 24.4973 298.295 24.49 298.103C24.4852 297.913 24.4803 297.722 24.4755 297.532L24.4755 294.624L25.4909 295.21L25.4909 301.353ZM29.8981 303.896L26.8338 302.128L26.8338 295.985L29.8981 297.753L29.8981 298.82L27.962 297.703L27.962 299.052L29.7634 300.091L29.7634 301.158L27.962 300.119L27.962 301.703L29.8981 302.82L29.8981 303.896ZM33.0643 305.723L31.9361 305.072L31.9361 300.013L30.4913 299.179L30.4913 298.095L34.5092 300.413L34.5092 301.497L33.0643 300.664L33.0643 305.723ZM41.8643 304.657L40.5104 310.019L39.2257 309.278L38.5052 305.635C38.4906 305.565 38.4712 305.46 38.4469 305.32C38.4227 305.18 38.3972 305.028 38.3705 304.864C38.3438 304.697 38.3195 304.542 38.2977 304.398C38.2783 304.252 38.265 304.138 38.2577 304.055C38.2504 304.13 38.2358 304.226 38.214 304.345C38.1946 304.466 38.1715 304.592 38.1449 304.725C38.1206 304.86 38.0963 304.985 38.0721 305.099C38.0478 305.214 38.0284 305.301 38.0138 305.36L37.2969 308.165L36.0158 307.426L34.6584 300.5L35.7684 301.14L36.4489 304.886C36.4683 304.998 36.4902 305.131 36.5144 305.285C36.5411 305.44 36.5666 305.602 36.5909 305.77C36.6175 305.937 36.6406 306.097 36.66 306.251C36.6818 306.404 36.6976 306.535 36.7073 306.644C36.7194 306.545 36.7352 306.43 36.7546 306.302C36.774 306.17 36.7947 306.037 36.8165 305.904C36.8408 305.77 36.865 305.647 36.8893 305.535C36.9135 305.423 36.9354 305.333 36.9548 305.266L37.73 302.272L38.7963 302.887L39.5715 306.776C39.5885 306.861 39.6079 306.974 39.6297 307.116C39.654 307.256 39.6782 307.407 39.7025 307.57C39.7268 307.732 39.7486 307.89 39.768 308.044C39.7898 308.197 39.8056 308.328 39.8153 308.437C39.8323 308.307 39.8553 308.151 39.8845 307.969C39.916 307.785 39.9488 307.604 39.9827 307.425C40.0191 307.247 40.0507 307.098 40.0773 306.979L40.7543 304.017L41.8643 304.657ZM47.3633 310.893C47.3633 311.367 47.3124 311.769 47.2105 312.099C47.1086 312.427 46.9533 312.671 46.7446 312.83C46.5384 312.991 46.2764 313.056 45.9585 313.024C45.6407 312.989 45.2646 312.846 44.8303 312.596C44.396 312.345 44.02 312.054 43.7021 311.722C43.3843 311.387 43.1211 311.02 42.9124 310.619C42.7062 310.22 42.5521 309.796 42.4502 309.348C42.3483 308.9 42.2973 308.438 42.2973 307.962C42.2973 307.326 42.3871 306.825 42.5667 306.458C42.7486 306.089 43.0276 305.883 43.4037 305.84C43.7798 305.796 44.2577 305.942 44.8376 306.276C45.4151 306.609 45.8894 307.013 46.2606 307.488C46.6342 307.964 46.9108 308.491 47.0904 309.068C47.2723 309.646 47.3633 310.255 47.3633 310.893ZM43.4801 308.653C43.4801 309.081 43.5262 309.478 43.6184 309.842C43.7131 310.204 43.8598 310.527 44.0588 310.81C44.2577 311.09 44.5149 311.321 44.8303 311.503C45.1506 311.688 45.4102 311.755 45.6092 311.705C45.8081 311.651 45.9525 311.497 46.0422 311.24C46.1344 310.982 46.1805 310.639 46.1805 310.211C46.1805 309.567 46.0762 308.999 45.8675 308.509C45.6589 308.019 45.3156 307.636 44.8376 307.36C44.5198 307.177 44.2602 307.111 44.0588 307.163C43.8598 307.213 43.7131 307.367 43.6184 307.623C43.5262 307.878 43.4801 308.221 43.4801 308.653ZM50.0164 309.361C50.4992 309.64 50.8971 309.936 51.2101 310.251C51.5255 310.568 51.7596 310.906 51.9125 311.266C52.0653 311.626 52.1418 312.013 52.1418 312.428C52.1418 312.708 52.0957 312.926 52.0035 313.083C51.9113 313.24 51.79 313.348 51.6395 313.407C51.4891 313.466 51.3266 313.491 51.1519 313.483L52.7168 317.062L51.4649 316.34L50.1947 313.25L49.5942 312.903L49.5942 315.26L48.466 314.609L48.466 308.466L50.0164 309.361ZM49.9363 310.382L49.5942 310.185L49.5942 311.844L49.9582 312.054C50.3318 312.27 50.5987 312.352 50.7588 312.302C50.9214 312.25 51.0027 312.084 51.0027 311.804C51.0027 311.513 50.9153 311.255 50.7406 311.031C50.5684 310.808 50.3003 310.592 49.9363 310.382ZM57.6663 319.918L56.3853 319.179L54.9914 315.786L54.5146 315.906L54.5146 318.099L53.3864 317.448L53.3864 311.305L54.5146 311.956L54.5146 314.767C54.5898 314.69 54.6638 314.613 54.7366 314.534C54.8094 314.456 54.8834 314.378 54.9586 314.301L56.3998 313.044L57.6517 313.767L55.7957 315.414L57.6663 319.918Z" fill="white"/>
<path opacity="0.4" d="M71.9895 288.14L34.743 266.52C33.2278 265.65 33.4276 264.11 35.1593 263.09L71.54 241.972C73.2882 240.951 75.9356 240.851 77.4508 241.721L114.681 263.324C116.196 264.194 115.996 265.734 114.264 266.754L77.8837 287.889C76.1354 288.91 73.5047 289.01 71.9895 288.14Z" fill="#1F204A"/>
<path d="M141.604 242.008L141.588 215.335L108.054 219.836L82.9456 205.261C78.5333 202.701 71.407 202.701 66.9947 205.261L63.0819 207.755L8.63574 215.05V242.025C8.63574 242.041 8.63574 242.058 8.63574 242.075V242.209H8.65239C8.71899 243.832 9.80126 245.455 11.9325 246.693L67.2944 278.805C71.7067 281.365 78.833 281.365 83.2453 278.805L138.308 246.626C140.439 245.388 141.521 243.782 141.588 242.159H141.621V242.008H141.604Z" fill="url(#paint7_linear_39_98517)"/>
<path d="M138.291 210.246L82.9453 178.134C78.533 175.574 71.4067 175.574 66.9944 178.134L11.9489 210.296C7.53657 212.856 7.53657 216.989 11.9489 219.549L67.2941 251.661C71.7064 254.221 78.8327 254.221 83.245 251.661L138.307 219.483C142.703 216.939 142.703 212.789 138.291 210.246Z" fill="url(#paint8_radial_39_98517)"/>
<path d="M138.265 217.831L138.265 217.831C140.105 216.765 141.158 215.42 141.47 214.033L141.573 214.034C141.979 216.005 140.91 218.032 138.334 219.528L83.2723 251.707L83.2721 251.707C81.0561 252.992 78.1618 253.634 75.2703 253.634C72.3788 253.634 69.4845 252.992 67.2684 251.707L11.9232 219.612L11.9232 219.612C9.34774 218.116 8.26185 216.088 8.68464 214.117L8.78751 214.117C9.08315 215.487 10.1362 216.832 11.976 217.898L11.976 217.898L67.3212 250.009C69.5175 251.284 72.3925 251.922 75.2703 251.922C78.148 251.922 81.0229 251.284 83.2192 250.009L138.265 217.831ZM138.265 217.831L83.2193 250.009L138.265 217.831Z" fill="white" stroke="white" stroke-width="0.105223"/>
<path d="M90.6879 258.79L88.0571 260.313V257.267L90.6879 255.744V258.79Z" fill="#0077FF"/>
<path d="M96.1659 255.61L93.5352 257.133V254.087L96.1659 252.565V255.61Z" fill="#0077FF"/>
<path d="M101.643 252.431L99.0293 253.954V250.908L101.643 249.385V252.431Z" fill="#0077FF"/>
<path d="M97.1649 261.182L94.5342 262.705V259.66L97.1649 258.154V261.182Z" fill="#0077FF"/>
<path d="M101.994 258.389L99.3628 259.911V256.866L101.994 255.343V258.389Z" fill="#0077FF"/>
<path d="M119.226 242.224L116.612 243.746V240.701L119.226 239.178V242.224Z" fill="#0077FF"/>
<path d="M134.327 233.455L131.713 234.978V231.949L134.327 230.427V233.455Z" fill="#0077FF"/>
<path d="M107.121 249.251L104.507 250.757V247.728L107.121 246.205V249.251Z" fill="#0077FF"/>
<g filter="url(#filter8_f_39_98517)">
<path d="M90.6879 258.79L88.0571 260.313V257.267L90.6879 255.744V258.79Z" fill="#0077FF"/>
<path d="M96.1659 255.61L93.5352 257.133V254.087L96.1659 252.565V255.61Z" fill="#0077FF"/>
<path d="M101.643 252.431L99.0293 253.954V250.908L101.643 249.385V252.431Z" fill="#0077FF"/>
<path d="M97.1649 261.182L94.5342 262.705V259.66L97.1649 258.154V261.182Z" fill="#0077FF"/>
<path d="M101.994 258.389L99.3628 259.912V256.866L101.994 255.343V258.389Z" fill="#0077FF"/>
<path d="M119.226 242.224L116.612 243.746V240.701L119.226 239.178V242.224Z" fill="#0077FF"/>
<path d="M134.328 233.455L131.714 234.978V231.949L134.328 230.427V233.455Z" fill="#0077FF"/>
<path d="M107.121 249.251L104.507 250.757V247.728L107.121 246.205V249.251Z" fill="#0077FF"/>
</g>
<path d="M59.9923 259.064L62.623 260.587V257.542L59.9923 256.019V259.064Z" fill="#0077FF"/>
<path d="M54.5148 256.154L57.1455 257.677V254.631L54.5148 253.109V256.154Z" fill="#0077FF"/>
<path d="M48.6867 258.663L51.3174 260.186V257.14L48.6867 255.618V258.663Z" fill="#0077FF"/>
<path d="M53.5148 261.457L56.1455 262.979V259.934L53.5148 258.428V261.457Z" fill="#0077FF"/>
<path d="M25.4708 245.374L28.1016 246.896V243.851L25.4708 242.328V245.374Z" fill="#0077FF"/>
<path d="M49.0363 252.705L51.6504 254.228V251.182L49.0363 249.66V252.705Z" fill="#0077FF"/>
<path d="M42.2257 254.75L44.8564 256.273V253.228L42.2257 251.722V254.75Z" fill="#0077FF"/>
<path d="M37.3966 251.956L40.0273 253.479V250.434L37.3966 248.911V251.956Z" fill="#0077FF"/>
<path d="M31.4543 242.498L34.0684 244.021V240.975L31.4543 239.453V242.498Z" fill="#0077FF"/>
<path d="M16.3527 233.73L18.9668 235.252V232.224L16.3527 230.701V233.73Z" fill="#0077FF"/>
<path d="M43.5588 249.525L46.1729 251.031V248.002L43.5588 246.48V249.525Z" fill="#0077FF"/>
<g filter="url(#filter9_f_39_98517)">
<path d="M59.9923 259.064L62.623 260.587V257.542L59.9923 256.019V259.064Z" fill="#0077FF"/>
<path d="M54.5148 256.154L57.1455 257.677V254.631L54.5148 253.109V256.154Z" fill="#0077FF"/>
<path d="M48.6867 258.663L51.3174 260.186V257.14L48.6867 255.618V258.663Z" fill="#0077FF"/>
<path d="M53.5148 261.457L56.1455 262.979V259.934L53.5148 258.428V261.457Z" fill="#0077FF"/>
<path d="M25.4708 245.374L28.1016 246.896V243.851L25.4708 242.328V245.374Z" fill="#0077FF"/>
<path d="M49.0363 252.705L51.6504 254.228V251.182L49.0363 249.66V252.705Z" fill="#0077FF"/>
<path d="M42.2257 254.75L44.8564 256.273V253.228L42.2257 251.722V254.75Z" fill="#0077FF"/>
<path d="M37.3966 251.956L40.0273 253.479V250.434L37.3966 248.911V251.956Z" fill="#0077FF"/>
<path d="M31.4543 242.498L34.0684 244.021V240.975L31.4543 239.453V242.498Z" fill="#0077FF"/>
<path d="M16.3527 233.73L18.9668 235.252V232.224L16.3527 230.701V233.73Z" fill="#0077FF"/>
<path d="M43.5588 249.525L46.1729 251.031V248.002L43.5588 246.48V249.525Z" fill="#0077FF"/>
</g>
<path opacity="0.4" fill-rule="evenodd" clip-rule="evenodd" d="M67.3908 198.622C54.4362 206.92 46.0954 220.807 54.3555 226.541C64.2802 231.306 88.3405 226.494 102.712 219.015C97.2572 214.715 94.6536 208.523 95.0971 203.019C85.1724 203.182 74.8444 201.768 67.3908 198.622ZM66.0602 211.914L64.7239 212.686L71.6073 216.228L69.6315 217.369L62.3852 213.185L60.4671 214.292L75.5645 223.009L77.4826 221.901L76.6301 221.409L87.2691 215.267L85.6044 208.413L73.9228 207.375L72.8745 207.98L83.1737 209.55L81.0827 210.757L71.5381 208.752L70.2709 209.483L79.1531 211.871L77.4884 212.832L68.8539 210.302L67.4945 211.086L75.3744 214.093L73.4908 215.18L66.0602 211.914Z" fill="url(#paint9_linear_39_98517)"/>
<path d="M219.109 129.132L219.111 129.133C221.14 130.303 221.92 131.697 221.921 132.877C221.923 134.057 221.147 135.45 219.126 136.619L219.123 136.621L163.64 169.045C163.64 169.046 163.64 169.046 163.64 169.046C161.614 170.221 158.901 170.838 156.131 170.838C153.362 170.838 150.648 170.221 148.623 169.045L148.095 169.956L148.623 169.045L92.852 136.687C92.852 136.687 92.852 136.687 92.852 136.687C90.8201 135.508 90.0415 134.114 90.0415 132.935C90.0415 131.756 90.8202 130.361 92.852 129.183L92.8547 129.181L148.321 96.7735C148.321 96.7733 148.321 96.773 148.322 96.7728C150.347 95.5979 153.06 94.9807 155.829 94.9807C158.599 94.9807 161.312 95.5982 163.338 96.7735L163.866 95.8642L163.338 96.7735L219.109 129.132Z" stroke="#0077FF" stroke-width="2.10446"/>
<g filter="url(#filter10_f_39_98517)">
<path d="M219.109 129.132L219.111 129.133C221.14 130.303 221.92 131.697 221.921 132.877C221.923 134.057 221.147 135.45 219.126 136.619L219.123 136.621L163.64 169.045C163.64 169.046 163.64 169.046 163.64 169.046C161.614 170.221 158.901 170.838 156.131 170.838C153.362 170.838 150.648 170.221 148.623 169.045L148.095 169.956L148.623 169.045L92.852 136.687C92.852 136.687 92.852 136.687 92.852 136.687C90.8201 135.508 90.0415 134.114 90.0415 132.935C90.0415 131.756 90.8202 130.361 92.852 129.183L92.8547 129.181L148.321 96.7735C148.321 96.7733 148.321 96.773 148.322 96.7728C150.347 95.5979 153.06 94.9807 155.829 94.9807C158.599 94.9807 161.312 95.5982 163.338 96.7735L163.866 95.8642L163.338 96.7735L219.109 129.132Z" stroke="#0077FF" stroke-width="2.10446"/>
</g>
<path d="M223.442 115.801L223.425 89.1278L189.892 93.6291L164.783 79.0542C160.371 76.494 153.245 76.494 148.833 79.0542L144.92 81.5475L90.4736 88.8433V115.818C90.4736 115.834 90.4736 115.851 90.4736 115.868V116.002H90.4903C90.5569 117.625 91.6391 119.248 93.7704 120.486L149.132 152.598C153.545 155.158 160.671 155.158 165.083 152.598L220.145 120.419C222.277 119.181 223.359 117.575 223.425 115.952H223.459V115.801H223.442Z" fill="url(#paint10_linear_39_98517)"/>
<path d="M220.128 84.3083L164.783 52.1967C160.371 49.6364 153.245 49.6364 148.832 52.1967L93.7868 84.3585C89.3745 86.9187 89.3745 91.0519 93.7868 93.6121L149.132 125.724C153.544 128.284 160.671 128.284 165.083 125.724L220.145 93.5452C224.541 91.0017 224.541 86.8518 220.128 84.3083Z" fill="url(#paint11_radial_39_98517)"/>
<path d="M220.103 91.8918L220.103 91.8917C221.942 90.8257 222.996 89.4809 223.308 88.0937L223.411 88.0946C223.817 90.0657 222.748 92.0931 220.172 93.5891L165.11 125.768L165.11 125.768C162.894 127.054 160 127.695 157.108 127.695C154.217 127.695 151.322 127.054 149.106 125.768L93.7611 93.6728L93.761 93.6728C91.1856 92.1769 90.0997 90.1495 90.5225 88.1779L90.6254 88.1778C90.921 89.5478 91.9741 90.8925 93.8138 91.9586L93.8139 91.9586L149.159 124.07C151.355 125.345 154.23 125.983 157.108 125.983C159.986 125.983 162.861 125.345 165.057 124.07L220.103 91.8918ZM220.103 91.8918L165.057 124.07L220.103 91.8918Z" fill="white" stroke="white" stroke-width="0.105223"/>
<path d="M172.526 132.851L169.896 134.373V131.328L172.526 129.805V132.851Z" fill="#0077FF"/>
<path d="M178.004 129.671L175.374 131.194V128.149L178.004 126.626V129.671Z" fill="#0077FF"/>
<path d="M183.482 126.492L180.868 128.014V124.969L183.482 123.446V126.492Z" fill="#0077FF"/>
<path d="M179.003 135.243L176.373 136.766V133.72L179.003 132.214V135.243Z" fill="#0077FF"/>
<path d="M183.832 132.449L181.201 133.972V130.927L183.832 129.404V132.449Z" fill="#0077FF"/>
<path d="M201.065 116.284L198.451 117.807V114.762L201.065 113.239V116.284Z" fill="#0077FF"/>
<path d="M216.166 107.516L213.552 109.039V106.01L216.166 104.488V107.516Z" fill="#0077FF"/>
<path d="M188.96 123.312L186.346 124.818V121.789L188.96 120.266V123.312Z" fill="#0077FF"/>
<g filter="url(#filter11_f_39_98517)">
<path d="M172.526 132.851L169.896 134.373V131.328L172.526 129.805V132.851Z" fill="#0077FF"/>
<path d="M178.004 129.671L175.374 131.194V128.149L178.004 126.626V129.671Z" fill="#0077FF"/>
<path d="M183.482 126.492L180.868 128.014V124.969L183.482 123.446V126.492Z" fill="#0077FF"/>
<path d="M179.003 135.243L176.373 136.766V133.72L179.003 132.214V135.243Z" fill="#0077FF"/>
<path d="M183.832 132.449L181.201 133.972V130.927L183.832 129.404V132.449Z" fill="#0077FF"/>
<path d="M201.065 116.284L198.451 117.807V114.762L201.065 113.239V116.284Z" fill="#0077FF"/>
<path d="M216.166 107.516L213.552 109.039V106.01L216.166 104.488V107.516Z" fill="#0077FF"/>
<path d="M188.96 123.312L186.346 124.818V121.789L188.96 120.266V123.312Z" fill="#0077FF"/>
</g>
<path d="M117.507 116.928C117.507 117.62 117.392 118.132 117.161 118.464C116.933 118.795 116.602 118.952 116.168 118.937C115.733 118.919 115.211 118.734 114.599 118.381L113.092 117.511L113.092 111.369L114.763 112.332C115.321 112.654 115.805 113.049 116.215 113.515C116.625 113.978 116.943 114.499 117.169 115.078C117.394 115.653 117.507 116.27 117.507 116.928ZM116.335 116.286C116.335 115.832 116.277 115.426 116.16 115.067C116.046 114.707 115.877 114.392 115.651 114.122C115.428 113.853 115.151 113.624 114.821 113.433L114.221 113.087L114.221 117.087L114.705 117.366C115.255 117.684 115.664 117.75 115.931 117.565C116.2 117.382 116.335 116.955 116.335 116.286ZM123.024 120.112C123.024 120.804 122.909 121.316 122.679 121.648C122.45 121.978 122.119 122.136 121.685 122.121C121.251 122.102 120.728 121.917 120.116 121.564L118.61 120.695L118.61 114.552L120.28 115.516C120.838 115.838 121.322 116.232 121.732 116.698C122.142 117.162 122.46 117.683 122.686 118.261C122.911 118.837 123.024 119.453 123.024 120.112ZM121.852 119.469C121.852 119.015 121.794 118.609 121.678 118.251C121.564 117.891 121.394 117.576 121.168 117.306C120.945 117.037 120.668 116.807 120.338 116.617L119.738 116.27L119.738 120.27L120.222 120.549C120.773 120.867 121.182 120.934 121.448 120.749C121.718 120.565 121.852 120.139 121.852 119.469ZM126.147 121.594L128.258 122.812L128.258 125.997C127.979 125.942 127.689 125.861 127.388 125.751C127.087 125.639 126.746 125.474 126.365 125.254C125.836 124.949 125.387 124.569 125.019 124.115C124.65 123.662 124.37 123.144 124.178 122.563C123.986 121.982 123.89 121.348 123.89 120.662C123.89 120.018 123.997 119.522 124.211 119.174C124.427 118.828 124.741 118.646 125.153 118.626C125.568 118.608 126.074 118.771 126.671 119.115C126.952 119.277 127.23 119.473 127.504 119.701C127.778 119.929 128.027 120.164 128.25 120.404L127.875 121.23C127.713 121.041 127.527 120.854 127.319 120.669C127.11 120.485 126.892 120.326 126.664 120.195C126.336 120.006 126.051 119.928 125.808 119.962C125.568 119.997 125.381 120.133 125.248 120.37C125.117 120.605 125.051 120.934 125.051 121.357C125.051 121.758 125.099 122.141 125.193 122.506C125.288 122.869 125.437 123.197 125.641 123.491C125.845 123.783 126.11 124.023 126.438 124.212C126.598 124.304 126.733 124.373 126.842 124.42C126.954 124.464 127.058 124.505 127.155 124.541L127.155 123.26L126.147 122.678L126.147 121.594ZM107.248 125.139L105.814 124.312L103.499 118.329L103.466 118.31C103.476 118.509 103.485 118.709 103.492 118.909C103.499 119.109 103.506 119.31 103.514 119.51C103.521 119.707 103.528 119.906 103.536 120.106L103.536 122.997L102.527 122.416L102.527 116.273L103.95 117.094L106.261 123.028L106.287 123.043C106.282 122.849 106.276 122.657 106.269 122.465C106.261 122.273 106.254 122.081 106.247 121.889C106.242 121.699 106.237 121.508 106.232 121.318L106.232 118.41L107.248 118.996L107.248 125.139ZM111.655 127.682L108.591 125.914L108.591 119.771L111.655 121.539L111.655 122.606L109.719 121.489L109.719 122.838L111.52 123.877L111.52 124.945L109.719 123.905L109.719 125.489L111.655 126.606L111.655 127.682ZM114.821 129.509L113.693 128.858L113.693 123.799L112.248 122.965L112.248 121.881L116.266 124.2L116.266 125.284L114.821 124.45L114.821 129.509ZM123.621 128.444L122.267 133.805L120.983 133.064L120.262 129.421C120.247 129.351 120.228 129.246 120.204 129.106C120.179 128.966 120.154 128.814 120.127 128.65C120.101 128.484 120.076 128.328 120.055 128.184C120.035 128.038 120.022 127.924 120.015 127.842C120.007 127.916 119.993 128.012 119.971 128.131C119.951 128.252 119.928 128.379 119.902 128.512C119.877 128.646 119.853 128.771 119.829 128.886C119.805 129.001 119.785 129.087 119.771 129.146L119.054 131.951L117.773 131.212L116.415 124.286L117.525 124.926L118.206 128.672C118.225 128.784 118.247 128.917 118.271 129.071C118.298 129.226 118.323 129.388 118.348 129.556C118.374 129.723 118.397 129.883 118.417 130.037C118.439 130.19 118.454 130.321 118.464 130.43C118.476 130.331 118.492 130.217 118.511 130.088C118.531 129.956 118.551 129.824 118.573 129.691C118.598 129.556 118.622 129.433 118.646 129.321C118.67 129.209 118.692 129.119 118.712 129.052L119.487 126.058L120.553 126.673L121.328 130.562C121.345 130.647 121.365 130.761 121.387 130.902C121.411 131.042 121.435 131.193 121.459 131.356C121.484 131.518 121.505 131.677 121.525 131.831C121.547 131.983 121.562 132.114 121.572 132.224C121.589 132.093 121.612 131.937 121.641 131.755C121.673 131.572 121.706 131.39 121.74 131.211C121.776 131.033 121.807 130.885 121.834 130.765L122.511 127.803L123.621 128.444ZM129.12 134.679C129.12 135.153 129.069 135.555 128.967 135.885C128.865 136.213 128.71 136.457 128.501 136.617C128.295 136.778 128.033 136.842 127.715 136.81C127.398 136.775 127.021 136.632 126.587 136.382C126.153 136.131 125.777 135.84 125.459 135.508C125.141 135.174 124.878 134.806 124.669 134.405C124.463 134.006 124.309 133.583 124.207 133.135C124.105 132.686 124.054 132.224 124.054 131.748C124.054 131.112 124.144 130.611 124.323 130.244C124.505 129.875 124.784 129.669 125.161 129.626C125.537 129.582 126.015 129.728 126.594 130.062C127.172 130.396 127.646 130.8 128.017 131.274C128.391 131.75 128.668 132.277 128.847 132.854C129.029 133.432 129.12 134.041 129.12 134.679ZM125.237 132.439C125.237 132.867 125.283 133.264 125.375 133.628C125.47 133.991 125.617 134.313 125.816 134.596C126.015 134.876 126.272 135.107 126.587 135.289C126.907 135.474 127.167 135.541 127.366 135.491C127.565 135.438 127.709 135.283 127.799 135.026C127.891 134.769 127.937 134.426 127.937 133.997C127.937 133.353 127.833 132.786 127.624 132.295C127.416 131.805 127.072 131.422 126.594 131.147C126.277 130.963 126.017 130.897 125.816 130.949C125.617 131 125.47 131.153 125.375 131.409C125.283 131.664 125.237 132.008 125.237 132.439ZM131.773 133.147C132.256 133.426 132.654 133.723 132.967 134.038C133.282 134.354 133.516 134.692 133.669 135.052C133.822 135.412 133.899 135.799 133.899 136.214C133.899 136.494 133.853 136.713 133.76 136.869C133.668 137.026 133.547 137.134 133.396 137.193C133.246 137.252 133.083 137.277 132.909 137.269L134.474 140.848L133.222 140.126L131.952 137.036L131.351 136.689L131.351 139.047L130.223 138.396L130.223 132.253L131.773 133.147ZM131.693 134.168L131.351 133.971L131.351 135.631L131.715 135.841C132.089 136.056 132.356 136.139 132.516 136.088C132.678 136.036 132.759 135.87 132.759 135.59C132.759 135.299 132.672 135.041 132.497 134.817C132.325 134.595 132.057 134.378 131.693 134.168ZM139.423 143.704L138.142 142.965L136.748 139.572L136.271 139.692L136.271 141.886L135.143 141.235L135.143 135.092L136.271 135.743L136.271 138.554C136.347 138.477 136.421 138.399 136.493 138.32C136.566 138.242 136.64 138.164 136.715 138.087L138.157 136.83L139.409 137.553L137.553 139.2L139.423 143.704Z" fill="white"/>
<path opacity="0.4" d="M153.746 111.926L116.5 90.3065C114.985 89.4363 115.184 87.8969 116.916 86.8761L153.297 65.7584C155.045 64.7377 157.692 64.6373 159.208 65.5074L196.437 87.1104C197.953 87.9805 197.753 89.52 196.021 90.5408L159.641 111.675C157.892 112.696 155.262 112.796 153.746 111.926Z" fill="#1F204A"/>
<path d="M223.361 65.794L223.344 39.1208L189.811 43.6221L164.702 29.0472C160.29 26.487 153.164 26.487 148.752 29.0472L144.839 31.5405L90.3926 38.8364V65.8108C90.3926 65.8275 90.3926 65.8442 90.3926 65.861V65.9948H90.4092C90.4758 67.618 91.5581 69.2411 93.6893 70.4794L149.051 102.591C153.464 105.151 160.59 105.151 165.002 102.591L220.064 70.4125C222.196 69.1742 223.278 67.5678 223.344 65.9446H223.378V65.794H223.361Z" fill="url(#paint12_linear_39_98517)"/>
<path d="M220.047 34.0318L164.702 1.92017C160.29 -0.640057 153.164 -0.640057 148.751 1.92017L93.7057 34.082C89.2934 36.6422 89.2934 40.7754 93.7057 43.3356L149.051 75.4472C153.463 78.0074 160.59 78.0074 165.002 75.4472L220.064 43.2687C224.46 40.7252 224.46 36.5753 220.047 34.0318Z" fill="url(#paint13_radial_39_98517)"/>
<path d="M220.021 41.6174L220.021 41.6173C221.861 40.5513 222.914 39.2065 223.226 37.8193L223.329 37.8202C223.735 39.7912 222.667 41.8186 220.091 43.3147L165.029 75.4932L165.028 75.4932C162.812 76.7791 159.918 77.4205 157.027 77.4205C154.135 77.4205 151.241 76.7791 149.025 75.4932L93.6795 43.3984L93.6795 43.3984C91.1041 41.9025 90.0182 39.875 90.441 37.9035L90.5439 37.9034C90.8395 39.2734 91.8925 40.6181 93.7323 41.6842L93.7323 41.6842L149.078 73.7958C151.274 75.0702 154.149 75.7089 157.027 75.7089C159.904 75.7089 162.779 75.0702 164.976 73.7959L220.021 41.6174ZM220.021 41.6174L164.976 73.7958L220.021 41.6174Z" fill="white" stroke="white" stroke-width="0.105223"/>
<path d="M172.444 82.5761L169.813 84.0989V81.0534L172.444 79.5306V82.5761Z" fill="#0077FF"/>
<path d="M177.922 79.3967L175.292 80.9195V77.874L177.922 76.3512V79.3967Z" fill="#0077FF"/>
<path d="M183.4 76.217L180.786 77.7398V74.6943L183.4 73.1715V76.217Z" fill="#0077FF"/>
<path d="M178.921 84.9687L176.291 86.4914V83.4459L178.921 81.9399V84.9687Z" fill="#0077FF"/>
<path d="M183.749 82.1748L181.119 83.6975V80.652L183.749 79.1293V82.1748Z" fill="#0077FF"/>
<path d="M200.983 66.0099L198.369 67.5326V64.4871L200.983 62.9644V66.0099Z" fill="#0077FF"/>
<path d="M216.084 57.2413L213.47 58.764V55.7353L216.084 54.2125V57.2413Z" fill="#0077FF"/>
<path d="M188.878 73.0372L186.264 74.5432V71.5144L188.878 69.9917V73.0372Z" fill="#0077FF"/>
<g filter="url(#filter12_f_39_98517)">
<path d="M172.444 82.5761L169.813 84.0989V81.0534L172.444 79.5306V82.5761Z" fill="#0077FF"/>
<path d="M177.922 79.3967L175.292 80.9195V77.874L177.922 76.3512V79.3967Z" fill="#0077FF"/>
<path d="M183.4 76.217L180.786 77.7398V74.6943L183.4 73.1715V76.217Z" fill="#0077FF"/>
<path d="M178.921 84.9687L176.291 86.4914V83.4459L178.921 81.9399V84.9687Z" fill="#0077FF"/>
<path d="M183.75 82.1748L181.119 83.6975V80.652L183.75 79.1293V82.1748Z" fill="#0077FF"/>
<path d="M200.983 66.0101L198.369 67.5329V64.4874L200.983 62.9646V66.0101Z" fill="#0077FF"/>
<path d="M216.084 57.2415L213.47 58.7643V55.7355L216.084 54.2128V57.2415Z" fill="#0077FF"/>
<path d="M188.878 73.0372L186.264 74.5432V71.5144L188.878 69.9917V73.0372Z" fill="#0077FF"/>
</g>
<path d="M141.749 82.8506L144.38 84.3733V81.3278L141.749 79.8051V82.8506Z" fill="#0077FF"/>
<path d="M136.271 79.9405L138.902 81.4633V78.4178L136.271 76.895V79.9405Z" fill="#0077FF"/>
<path d="M130.443 82.4492L133.074 83.9719V80.9264L130.443 79.4037V82.4492Z" fill="#0077FF"/>
<path d="M135.272 85.2431L137.903 86.7659V83.7204L135.272 82.2144V85.2431Z" fill="#0077FF"/>
<path d="M107.228 69.1599L109.859 70.6826V67.6371L107.228 66.1144V69.1599Z" fill="#0077FF"/>
<path d="M130.794 76.4914L133.408 78.0142V74.9687L130.794 73.4459V76.4914Z" fill="#0077FF"/>
<path d="M123.982 78.5363L126.613 80.0591V77.0136L123.982 75.5076V78.5363Z" fill="#0077FF"/>
<path d="M119.154 75.7422L121.785 77.2649V74.2194L119.154 72.6967V75.7422Z" fill="#0077FF"/>
<path d="M113.211 66.2843L115.825 67.807V64.7615L113.211 63.2388V66.2843Z" fill="#0077FF"/>
<path d="M98.1091 57.516L100.723 59.0387V56.0099L98.1091 54.4872V57.516Z" fill="#0077FF"/>
<path d="M125.316 73.3114L127.93 74.8174V71.7886L125.316 70.2659V73.3114Z" fill="#0077FF"/>
<g filter="url(#filter13_f_39_98517)">
<path d="M141.749 82.8506L144.38 84.3733V81.3278L141.749 79.8051V82.8506Z" fill="#0077FF"/>
<path d="M136.271 79.9405L138.902 81.4633V78.4178L136.271 76.895V79.9405Z" fill="#0077FF"/>
<path d="M130.443 82.4492L133.074 83.9719V80.9264L130.443 79.4037V82.4492Z" fill="#0077FF"/>
<path d="M135.272 85.2431L137.903 86.7659V83.7204L135.272 82.2144V85.2431Z" fill="#0077FF"/>
<path d="M107.228 69.1599L109.859 70.6826V67.6371L107.228 66.1144V69.1599Z" fill="#0077FF"/>
<path d="M130.794 76.4914L133.408 78.0142V74.9687L130.794 73.4459V76.4914Z" fill="#0077FF"/>
<path d="M123.982 78.5363L126.613 80.0591V77.0136L123.982 75.5076V78.5363Z" fill="#0077FF"/>
<path d="M119.154 75.7422L121.785 77.2649V74.2194L119.154 72.6967V75.7422Z" fill="#0077FF"/>
<path d="M113.211 66.2843L115.825 67.807V64.7615L113.211 63.2388V66.2843Z" fill="#0077FF"/>
<path d="M98.1091 57.516L100.723 59.0387V56.0099L98.1091 54.4872V57.516Z" fill="#0077FF"/>
<path d="M125.316 73.3114L127.93 74.8174V71.7886L125.316 70.2659V73.3114Z" fill="#0077FF"/>
</g>
<path opacity="0.4" fill-rule="evenodd" clip-rule="evenodd" d="M149.148 22.4082C136.193 30.7056 127.852 44.5934 136.112 50.3268C146.037 55.0925 170.097 50.2803 184.469 42.8009C179.014 38.5009 176.41 32.3085 176.854 26.8046C166.929 26.9676 156.601 25.5542 149.148 22.4082ZM147.817 35.7004L146.481 36.4719L153.364 40.0137L151.389 41.1544L144.142 36.9708L142.224 38.0782L157.322 46.7947L159.24 45.6873L158.387 45.195L169.026 39.0526L167.361 32.1985L155.68 31.1609L154.632 31.7661L164.931 33.3359L162.84 34.5431L153.295 32.5377L152.028 33.2693L160.91 35.6571L159.245 36.6183L150.611 34.0874L149.252 34.8723L157.131 37.8786L155.248 38.9661L147.817 35.7004Z" fill="url(#paint14_linear_39_98517)"/>
<defs>
<filter id="filter0_f_39_98517" x="101.933" y="321.772" width="251.834" height="16.1342" filterUnits="userSpaceOnUse" color-interpolation-filters="sRGB">
<feFlood flood-opacity="0" result="BackgroundImageFix"/>
<feBlend mode="normal" in="SourceGraphic" in2="BackgroundImageFix" result="shape"/>
<feGaussianBlur stdDeviation="3.50744" result="effect1_foregroundBlur_39_98517"/>
</filter>
<filter id="filter1_f_39_98517" x="185.297" y="144.567" width="178.069" height="146.639" filterUnits="userSpaceOnUse" color-interpolation-filters="sRGB">
<feFlood flood-opacity="0" result="BackgroundImageFix"/>
<feBlend mode="normal" in="SourceGraphic" in2="BackgroundImageFix" result="shape"/>
<feGaussianBlur stdDeviation="3.50744" result="effect1_foregroundBlur_39_98517"/>
</filter>
<filter id="filter2_f_39_98517" x="306.768" y="263.127" width="148.014" height="91.9917" filterUnits="userSpaceOnUse" color-interpolation-filters="sRGB">
<feFlood flood-opacity="0" result="BackgroundImageFix"/>
<feBlend mode="normal" in="SourceGraphic" in2="BackgroundImageFix" result="shape"/>
<feGaussianBlur stdDeviation="3.50744" result="effect1_foregroundBlur_39_98517"/>
</filter>
<filter id="filter3_f_39_98517" x="391.181" y="277.895" width="51.8829" height="37.8905" filterUnits="userSpaceOnUse" color-interpolation-filters="sRGB">
<feFlood flood-opacity="0" result="BackgroundImageFix"/>
<feBlend mode="normal" in="SourceGraphic" in2="BackgroundImageFix" result="shape"/>
<feGaussianBlur stdDeviation="1.40298" result="effect1_foregroundBlur_39_98517"/>
</filter>
<filter id="filter4_f_39_98517" x="391.1" y="227.621" width="51.8829" height="37.8905" filterUnits="userSpaceOnUse" color-interpolation-filters="sRGB">
<feFlood flood-opacity="0" result="BackgroundImageFix"/>
<feBlend mode="normal" in="SourceGraphic" in2="BackgroundImageFix" result="shape"/>
<feGaussianBlur stdDeviation="1.40298" result="effect1_foregroundBlur_39_98517"/>
</filter>
<filter id="filter5_f_39_98517" x="319.395" y="227.894" width="51.8829" height="37.8902" filterUnits="userSpaceOnUse" color-interpolation-filters="sRGB">
<feFlood flood-opacity="0" result="BackgroundImageFix"/>
<feBlend mode="normal" in="SourceGraphic" in2="BackgroundImageFix" result="shape"/>
<feGaussianBlur stdDeviation="1.40298" result="effect1_foregroundBlur_39_98517"/>
</filter>
<filter id="filter6_f_39_98517" x="0.217545" y="263.127" width="148.014" height="91.9917" filterUnits="userSpaceOnUse" color-interpolation-filters="sRGB">
<feFlood flood-opacity="0" result="BackgroundImageFix"/>
<feBlend mode="normal" in="SourceGraphic" in2="BackgroundImageFix" result="shape"/>
<feGaussianBlur stdDeviation="3.50744" result="effect1_foregroundBlur_39_98517"/>
</filter>
<filter id="filter7_f_39_98517" x="85.3327" y="277.895" width="51.8824" height="37.8905" filterUnits="userSpaceOnUse" color-interpolation-filters="sRGB">
<feFlood flood-opacity="0" result="BackgroundImageFix"/>
<feBlend mode="normal" in="SourceGraphic" in2="BackgroundImageFix" result="shape"/>
<feGaussianBlur stdDeviation="1.40298" result="effect1_foregroundBlur_39_98517"/>
</filter>
<filter id="filter8_f_39_98517" x="85.2512" y="227.621" width="51.8829" height="37.8905" filterUnits="userSpaceOnUse" color-interpolation-filters="sRGB">
<feFlood flood-opacity="0" result="BackgroundImageFix"/>
<feBlend mode="normal" in="SourceGraphic" in2="BackgroundImageFix" result="shape"/>
<feGaussianBlur stdDeviation="1.40298" result="effect1_foregroundBlur_39_98517"/>
</filter>
<filter id="filter9_f_39_98517" x="13.5466" y="227.895" width="51.8824" height="37.8905" filterUnits="userSpaceOnUse" color-interpolation-filters="sRGB">
<feFlood flood-opacity="0" result="BackgroundImageFix"/>
<feBlend mode="normal" in="SourceGraphic" in2="BackgroundImageFix" result="shape"/>
<feGaussianBlur stdDeviation="1.40298" result="effect1_foregroundBlur_39_98517"/>
</filter>
<filter id="filter10_f_39_98517" x="81.9744" y="86.9136" width="148.014" height="91.9917" filterUnits="userSpaceOnUse" color-interpolation-filters="sRGB">
<feFlood flood-opacity="0" result="BackgroundImageFix"/>
<feBlend mode="normal" in="SourceGraphic" in2="BackgroundImageFix" result="shape"/>
<feGaussianBlur stdDeviation="3.50744" result="effect1_foregroundBlur_39_98517"/>
</filter>
<filter id="filter11_f_39_98517" x="167.09" y="101.682" width="51.8829" height="37.8903" filterUnits="userSpaceOnUse" color-interpolation-filters="sRGB">
<feFlood flood-opacity="0" result="BackgroundImageFix"/>
<feBlend mode="normal" in="SourceGraphic" in2="BackgroundImageFix" result="shape"/>
<feGaussianBlur stdDeviation="1.40298" result="effect1_foregroundBlur_39_98517"/>
</filter>
<filter id="filter12_f_39_98517" x="167.008" y="51.4068" width="51.8829" height="37.8906" filterUnits="userSpaceOnUse" color-interpolation-filters="sRGB">
<feFlood flood-opacity="0" result="BackgroundImageFix"/>
<feBlend mode="normal" in="SourceGraphic" in2="BackgroundImageFix" result="shape"/>
<feGaussianBlur stdDeviation="1.40298" result="effect1_foregroundBlur_39_98517"/>
</filter>
<filter id="filter13_f_39_98517" x="95.3029" y="51.6812" width="51.8829" height="37.8906" filterUnits="userSpaceOnUse" color-interpolation-filters="sRGB">
<feFlood flood-opacity="0" result="BackgroundImageFix"/>
<feBlend mode="normal" in="SourceGraphic" in2="BackgroundImageFix" result="shape"/>
<feGaussianBlur stdDeviation="1.40298" result="effect1_foregroundBlur_39_98517"/>
</filter>
<linearGradient id="paint0_linear_39_98517" x1="306.577" y1="292.042" x2="400.333" y2="292.042" gradientUnits="userSpaceOnUse">
<stop stop-color="#0077FF"/>
<stop offset="1" stop-color="#171D7B"/>
</linearGradient>
<radialGradient id="paint1_radial_39_98517" cx="0" cy="0" r="1" gradientUnits="userSpaceOnUse" gradientTransform="translate(289.952 221.386) scale(209.377 210.425)">
<stop stop-color="#0077FF"/>
<stop offset="1" stop-color="#171D7B"/>
</radialGradient>
<linearGradient id="paint2_linear_39_98517" x1="306.496" y1="242.035" x2="400.252" y2="242.035" gradientUnits="userSpaceOnUse">
<stop stop-color="#0077FF"/>
<stop offset="1" stop-color="#171D7B"/>
</linearGradient>
<radialGradient id="paint3_radial_39_98517" cx="0" cy="0" r="1" gradientUnits="userSpaceOnUse" gradientTransform="translate(289.87 171.109) scale(209.377 210.425)">
<stop stop-color="#0096FF"/>
<stop offset="0.0001" stop-color="#0077FF"/>
<stop offset="1" stop-color="#171D7B"/>
</radialGradient>
<linearGradient id="paint4_linear_39_98517" x1="443.909" y1="214.563" x2="347.63" y2="270.15" gradientUnits="userSpaceOnUse">
<stop stop-color="white"/>
<stop offset="1" stop-color="white" stop-opacity="0.1"/>
</linearGradient>
<linearGradient id="paint5_linear_39_98517" x1="0.728197" y1="292.042" x2="94.4845" y2="292.042" gradientUnits="userSpaceOnUse">
<stop stop-color="#0077FF"/>
<stop offset="1" stop-color="#171D7B"/>
</linearGradient>
<radialGradient id="paint6_radial_39_98517" cx="0" cy="0" r="1" gradientUnits="userSpaceOnUse" gradientTransform="translate(-15.8961 221.386) scale(209.377 210.425)">
<stop stop-color="#0077FF"/>
<stop offset="1" stop-color="#171D7B"/>
</radialGradient>
<linearGradient id="paint7_linear_39_98517" x1="0.647143" y1="242.035" x2="94.4034" y2="242.035" gradientUnits="userSpaceOnUse">
<stop stop-color="#0077FF"/>
<stop offset="1" stop-color="#171D7B"/>
</linearGradient>
<radialGradient id="paint8_radial_39_98517" cx="0" cy="0" r="1" gradientUnits="userSpaceOnUse" gradientTransform="translate(-15.9782 171.109) scale(209.377 210.425)">
<stop stop-color="#0096FF"/>
<stop offset="0.0001" stop-color="#0077FF"/>
<stop offset="1" stop-color="#171D7B"/>
</radialGradient>
<linearGradient id="paint9_linear_39_98517" x1="141.091" y1="214.843" x2="42.4444" y2="271.796" gradientUnits="userSpaceOnUse">
<stop stop-color="white"/>
<stop offset="1" stop-color="white" stop-opacity="0.1"/>
</linearGradient>
<linearGradient id="paint10_linear_39_98517" x1="82.485" y1="115.829" x2="176.241" y2="115.829" gradientUnits="userSpaceOnUse">
<stop stop-color="#0077FF"/>
<stop offset="1" stop-color="#171D7B"/>
</linearGradient>
<radialGradient id="paint11_radial_39_98517" cx="0" cy="0" r="1" gradientUnits="userSpaceOnUse" gradientTransform="translate(65.8597 45.1724) scale(209.377 210.425)">
<stop stop-color="#0077FF"/>
<stop offset="1" stop-color="#171D7B"/>
</radialGradient>
<linearGradient id="paint12_linear_39_98517" x1="82.404" y1="65.8213" x2="176.16" y2="65.8213" gradientUnits="userSpaceOnUse">
<stop stop-color="#0077FF"/>
<stop offset="1" stop-color="#171D7B"/>
</linearGradient>
<radialGradient id="paint13_radial_39_98517" cx="0" cy="0" r="1" gradientUnits="userSpaceOnUse" gradientTransform="translate(65.7787 -5.10456) scale(209.377 210.425)">
<stop stop-color="#0096FF"/>
<stop offset="0.0001" stop-color="#0077FF"/>
<stop offset="1" stop-color="#171D7B"/>
</radialGradient>
<linearGradient id="paint14_linear_39_98517" x1="222.848" y1="38.6288" x2="124.201" y2="95.5825" gradientUnits="userSpaceOnUse">
<stop stop-color="white"/>
<stop offset="1" stop-color="white" stop-opacity="0.1"/>
</linearGradient>
</defs>
</svg>
