<svg width="524" height="360" viewBox="0 0 524 360" fill="none" xmlns="http://www.w3.org/2000/svg">
<path d="M94 305L211 126" stroke="#0077FF" stroke-width="1.60104"/>
<g filter="url(#filter0_f_39_98771)">
<path d="M94 305L211 126" stroke="#0077FF" stroke-width="1.60104"/>
</g>
<path d="M93 336L434 338.012" stroke="#0077FF" stroke-width="1.60104"/>
<g filter="url(#filter1_f_39_98771)">
<path d="M93 336L434 338.012" stroke="#0077FF" stroke-width="1.60104"/>
</g>
<path d="M272 127L434 304" stroke="#0077FF" stroke-width="1.60104"/>
<g filter="url(#filter2_f_39_98771)">
<path d="M272 127L434 304" stroke="#0077FF" stroke-width="1.60104"/>
</g>
<path d="M286 290L407 320" stroke="#0077FF" stroke-width="1.60104"/>
<g filter="url(#filter3_f_39_98771)">
<path d="M286 290L407 320" stroke="#0077FF" stroke-width="1.60104"/>
</g>
<path d="M255 242L243 142" stroke="#0077FF" stroke-width="1.60104"/>
<g filter="url(#filter4_f_39_98771)">
<path d="M255 242L243 142" stroke="#0077FF" stroke-width="1.60104"/>
</g>
<path d="M116 320L228 289" stroke="#0077FF" stroke-width="1.60104"/>
<g filter="url(#filter5_f_39_98771)">
<path d="M116 320L228 289" stroke="#0077FF" stroke-width="1.60104"/>
</g>
<path d="M294.683 107.428L294.685 107.429C296.373 108.403 297.022 109.562 297.023 110.544C297.024 111.525 296.379 112.684 294.698 113.657L294.694 113.659L248.537 140.633C248.537 140.634 248.536 140.634 248.536 140.634C246.851 141.611 244.594 142.125 242.29 142.125C239.986 142.125 237.729 141.611 236.044 140.633L235.604 141.39L236.044 140.633L189.647 113.713C187.956 112.733 187.308 111.573 187.308 110.592C187.308 109.611 187.956 108.451 189.647 107.47L189.649 107.469L235.792 80.5083C235.793 80.5082 235.793 80.508 235.793 80.5079C237.478 79.5304 239.735 79.0169 242.039 79.0169C244.343 79.0169 246.601 79.5306 248.286 80.5083L248.725 79.752L248.286 80.5084L294.683 107.428Z" stroke="#0077FF" stroke-width="1.75076"/>
<g filter="url(#filter6_f_39_98771)">
<path d="M294.683 107.428L294.685 107.429C296.373 108.403 297.022 109.562 297.023 110.544C297.024 111.525 296.379 112.684 294.698 113.657L294.694 113.659L248.537 140.633C248.537 140.634 248.536 140.634 248.536 140.634C246.851 141.611 244.594 142.125 242.29 142.125C239.986 142.125 237.729 141.611 236.044 140.633L235.604 141.39L236.044 140.633L189.647 113.713C187.956 112.733 187.308 111.573 187.308 110.592C187.308 109.611 187.956 108.451 189.647 107.47L189.649 107.469L235.792 80.5083C235.793 80.5082 235.793 80.508 235.793 80.5079C237.478 79.5304 239.735 79.0169 242.039 79.0169C244.343 79.0169 246.601 79.5306 248.286 80.5083L248.725 79.752L248.286 80.5084L294.683 107.428Z" stroke="#0077FF" stroke-width="1.75076"/>
</g>
<path d="M298.288 96.336L298.274 74.1459L270.377 77.8906L249.488 65.7654C245.818 63.6355 239.889 63.6355 236.218 65.7654L232.963 67.8396L187.668 73.9092V96.35C187.668 96.3639 187.668 96.3778 187.668 96.3917V96.5031H187.682C187.737 97.8534 188.638 99.2038 190.411 100.234L236.468 126.948C240.138 129.078 246.067 129.078 249.738 126.948L295.545 100.178C297.318 99.1481 298.219 97.8117 298.274 96.4613H298.302V96.336H298.288Z" fill="url(#paint0_linear_39_98771)"/>
<path d="M295.531 70.1369L249.488 43.4224C245.818 41.2925 239.889 41.2925 236.218 43.4224L190.424 70.1787C186.754 72.3086 186.754 75.7471 190.424 77.877L236.468 104.592C240.138 106.721 246.067 106.721 249.738 104.592L295.545 77.8213C299.202 75.7053 299.202 72.2529 295.531 70.1369Z" fill="url(#paint1_radial_39_98771)"/>
<path d="M295.509 76.4466L295.51 76.4466C297.04 75.5597 297.916 74.441 298.176 73.2869L298.262 73.2877C298.599 74.9274 297.71 76.614 295.568 77.8586L295.509 76.4466ZM295.509 76.4466L249.716 103.217L295.509 76.4466ZM249.76 104.629L295.567 77.8587L249.716 103.217C247.888 104.277 245.497 104.808 243.103 104.808C240.709 104.808 238.317 104.277 236.49 103.217L190.446 76.5023L190.446 76.5022C188.916 75.6154 188.04 74.4967 187.794 73.3569L187.708 73.3569C187.357 74.9972 188.26 76.6839 190.403 77.9283L190.403 77.9283L236.446 104.629C238.289 105.699 240.697 106.232 243.103 106.232C245.508 106.232 247.916 105.699 249.76 104.629L249.76 104.629Z" fill="white" stroke="white" stroke-width="0.087538"/>
<path d="M255.929 110.521L253.74 111.787V109.254L255.929 107.987V110.521Z" fill="#0077FF"/>
<path d="M260.486 107.876L258.298 109.143V106.61L260.486 105.343V107.876Z" fill="#0077FF"/>
<path d="M265.044 105.231L262.869 106.497V103.964L265.044 102.697V105.231Z" fill="#0077FF"/>
<path d="M261.317 112.509L259.128 113.776V111.242L261.317 109.989V112.509Z" fill="#0077FF"/>
<path d="M265.335 110.187L263.146 111.454V108.92L265.335 107.653V110.187Z" fill="#0077FF"/>
<path d="M279.671 96.7385L277.496 98.0053V95.4716L279.671 94.2048V96.7385Z" fill="#0077FF"/>
<path d="M292.234 89.4432L290.06 90.71V88.1903L292.234 86.9235V89.4432Z" fill="#0077FF"/>
<path d="M269.601 102.584L267.426 103.837V101.317L269.601 100.05V102.584Z" fill="#0077FF"/>
<g filter="url(#filter7_f_39_98771)">
<path d="M255.929 110.521L253.74 111.787V109.254L255.929 107.987V110.521Z" fill="#0077FF"/>
<path d="M260.486 107.876L258.298 109.143V106.61L260.486 105.343V107.876Z" fill="#0077FF"/>
<path d="M265.044 105.231L262.869 106.497V103.964L265.044 102.697V105.231Z" fill="#0077FF"/>
<path d="M261.317 112.509L259.128 113.776V111.242L261.317 109.989V112.509Z" fill="#0077FF"/>
<path d="M265.335 110.187L263.146 111.454V108.92L265.335 107.653V110.187Z" fill="#0077FF"/>
<path d="M279.671 96.7385L277.496 98.0053V95.4716L279.671 94.2048V96.7385Z" fill="#0077FF"/>
<path d="M292.234 89.4432L290.06 90.71V88.1903L292.234 86.9235V89.4432Z" fill="#0077FF"/>
<path d="M269.601 102.584L267.426 103.837V101.317L269.601 100.05V102.584Z" fill="#0077FF"/>
</g>
<path d="M210.199 95.7498C210.199 96.3164 210.105 96.7356 209.916 97.0075C209.729 97.2782 209.458 97.4073 209.102 97.3948C208.747 97.38 208.318 97.2281 207.818 96.9392L206.584 96.2273L206.584 91.1968L207.952 91.9861C208.409 92.2498 208.805 92.5726 209.141 92.9544C209.477 93.334 209.737 93.7606 209.922 94.2342C210.107 94.7055 210.199 95.2107 210.199 95.7498ZM209.239 95.2236C209.239 94.852 209.192 94.5194 209.096 94.2258C209.003 93.9311 208.864 93.673 208.679 93.4517C208.496 93.2316 208.27 93.0435 208 92.8876L207.508 92.6039L207.508 95.8796L207.904 96.1083C208.355 96.3685 208.69 96.4229 208.909 96.2714C209.129 96.1211 209.239 95.7719 209.239 95.2236ZM214.717 98.3567C214.717 98.9233 214.623 99.3426 214.434 99.6144C214.247 99.8852 213.976 100.014 213.62 100.002C213.265 99.9869 212.837 99.8351 212.336 99.5462L211.102 98.8343L211.102 93.8038L212.47 94.5931C212.927 94.8567 213.323 95.1795 213.659 95.5613C213.995 95.9409 214.255 96.3675 214.44 96.8411C214.625 97.3125 214.717 97.8177 214.717 98.3567ZM213.757 97.8305C213.757 97.4589 213.71 97.1263 213.614 96.8327C213.521 96.538 213.382 96.28 213.197 96.0587C213.014 95.8385 212.788 95.6505 212.518 95.4946L212.026 95.2108L212.026 98.4865L212.422 98.7152C212.873 98.9754 213.208 99.0298 213.427 98.8784C213.647 98.7281 213.757 98.3788 213.757 97.8305ZM217.274 99.5707L219.003 100.568L219.003 103.176C218.774 103.132 218.537 103.064 218.291 102.975C218.044 102.883 217.765 102.748 217.453 102.568C217.02 102.318 216.652 102.007 216.35 101.635C216.048 101.264 215.819 100.84 215.662 100.364C215.505 99.8883 215.426 99.3693 215.426 98.8073C215.426 98.2797 215.514 97.8737 215.689 97.5892C215.866 97.3058 216.123 97.1561 216.461 97.1399C216.8 97.1249 217.215 97.2584 217.703 97.5405C217.934 97.6734 218.161 97.8334 218.386 98.0203C218.61 98.2072 218.814 98.3992 218.997 98.5964L218.69 99.2727C218.557 99.1179 218.405 98.9648 218.234 98.8134C218.063 98.6621 217.884 98.5325 217.697 98.4248C217.429 98.27 217.196 98.2064 216.997 98.234C216.8 98.2627 216.647 98.374 216.538 98.5679C216.431 98.7606 216.377 99.0301 216.377 99.3765C216.377 99.7045 216.416 100.018 216.493 100.318C216.571 100.615 216.693 100.883 216.86 101.124C217.027 101.363 217.244 101.559 217.513 101.714C217.644 101.79 217.754 101.847 217.843 101.884C217.935 101.921 218.02 101.954 218.1 101.984L218.1 100.935L217.274 100.458L217.274 99.5707ZM201.797 102.466L200.623 101.788L198.728 96.8889L198.701 96.8734C198.709 97.0362 198.716 97.1997 198.722 97.3637C198.728 97.5277 198.734 97.6917 198.74 97.8557C198.746 98.0174 198.752 98.1803 198.758 98.3443L198.758 100.712L197.932 100.235L197.932 95.2048L199.097 95.8772L200.99 100.737L201.011 100.749C201.007 100.591 201.002 100.433 200.996 100.276C200.99 100.119 200.984 99.9615 200.978 99.8044C200.974 99.6484 200.97 99.4924 200.966 99.3364L200.966 96.9554L201.797 97.4351L201.797 102.466ZM205.407 104.548L202.897 103.1L202.897 98.0697L205.407 99.5176L205.407 100.392L203.821 99.4767L203.821 100.581L205.296 101.432L205.296 102.306L203.821 101.455L203.821 102.752L205.407 103.667L205.407 104.548ZM208 106.044L207.076 105.511L207.076 101.368L205.892 100.686L205.892 99.7979L209.183 101.696L209.183 102.584L208 101.901L208 106.044ZM215.206 105.172L214.097 109.562L213.045 108.955L212.455 105.972C212.443 105.915 212.427 105.829 212.407 105.714C212.388 105.6 212.367 105.475 212.345 105.341C212.323 105.205 212.303 105.077 212.285 104.959C212.269 104.84 212.258 104.746 212.252 104.679C212.246 104.74 212.235 104.819 212.217 104.916C212.201 105.015 212.182 105.119 212.16 105.228C212.14 105.338 212.12 105.44 212.1 105.534C212.081 105.628 212.065 105.699 212.053 105.747L211.466 108.044L210.417 107.439L209.305 101.767L210.214 102.291L210.771 105.359C210.787 105.45 210.805 105.559 210.825 105.686C210.847 105.813 210.868 105.945 210.887 106.083C210.909 106.219 210.928 106.351 210.944 106.477C210.962 106.602 210.975 106.709 210.983 106.799C210.993 106.717 211.006 106.624 211.022 106.518C211.037 106.41 211.054 106.302 211.072 106.193C211.092 106.083 211.112 105.982 211.132 105.89C211.152 105.798 211.17 105.725 211.185 105.67L211.82 103.218L212.694 103.722L213.328 106.906C213.342 106.976 213.358 107.069 213.376 107.185C213.396 107.3 213.416 107.424 213.436 107.557C213.455 107.69 213.473 107.819 213.489 107.945C213.507 108.07 213.52 108.178 213.528 108.267C213.542 108.16 213.561 108.033 213.585 107.883C213.61 107.733 213.637 107.585 213.665 107.438C213.695 107.292 213.721 107.171 213.743 107.073L214.297 104.647L215.206 105.172ZM219.709 110.278C219.709 110.666 219.667 110.995 219.584 111.266C219.501 111.534 219.373 111.734 219.202 111.865C219.034 111.997 218.819 112.05 218.559 112.023C218.298 111.995 217.991 111.878 217.635 111.672C217.279 111.467 216.971 111.229 216.711 110.957C216.451 110.683 216.235 110.382 216.064 110.054C215.895 109.727 215.769 109.38 215.686 109.013C215.602 108.646 215.561 108.268 215.561 107.878C215.561 107.357 215.634 106.946 215.781 106.646C215.93 106.344 216.159 106.176 216.467 106.14C216.775 106.104 217.166 106.223 217.641 106.497C218.114 106.77 218.502 107.101 218.806 107.49C219.112 107.88 219.339 108.311 219.486 108.783C219.635 109.257 219.709 109.755 219.709 110.278ZM216.529 108.444C216.529 108.795 216.567 109.119 216.642 109.417C216.72 109.714 216.84 109.979 217.003 110.21C217.166 110.44 217.377 110.629 217.635 110.778C217.897 110.929 218.11 110.984 218.273 110.943C218.436 110.899 218.554 110.772 218.627 110.563C218.703 110.351 218.741 110.07 218.741 109.72C218.741 109.192 218.655 108.727 218.484 108.326C218.313 107.925 218.032 107.611 217.641 107.385C217.381 107.235 217.168 107.181 217.003 107.224C216.84 107.265 216.72 107.391 216.642 107.601C216.567 107.809 216.529 108.09 216.529 108.444ZM221.882 109.024C222.277 109.252 222.603 109.495 222.859 109.753C223.118 110.012 223.309 110.289 223.435 110.584C223.56 110.878 223.622 111.195 223.622 111.535C223.622 111.764 223.585 111.943 223.509 112.072C223.434 112.2 223.334 112.289 223.211 112.337C223.088 112.385 222.955 112.406 222.812 112.399L224.093 115.33L223.068 114.739L222.028 112.208L221.536 111.924L221.536 113.855L220.612 113.322L220.612 108.291L221.882 109.024ZM221.816 109.86L221.536 109.698L221.536 111.057L221.834 111.229C222.14 111.406 222.359 111.473 222.49 111.432C222.623 111.39 222.689 111.254 222.689 111.024C222.689 110.786 222.618 110.575 222.475 110.391C222.334 110.209 222.114 110.032 221.816 109.86ZM228.146 117.669L227.097 117.063L225.956 114.285L225.565 114.383L225.565 116.18L224.642 115.646L224.642 110.616L225.565 111.149L225.565 113.451C225.627 113.388 225.688 113.324 225.747 113.26C225.807 113.196 225.867 113.132 225.929 113.069L227.109 112.04L228.134 112.631L226.615 113.981L228.146 117.669Z" fill="white"/>
<path opacity="0.4" d="M240.306 93.1146L209.32 75.1286C208.059 74.4047 208.225 73.1239 209.666 72.2747L239.932 54.7064C241.386 53.8572 243.589 53.7737 244.849 54.4975L275.822 72.4696C277.082 73.1935 276.916 74.4743 275.476 75.3234L245.209 92.9057C243.755 93.7549 241.566 93.8385 240.306 93.1146Z" fill="#1F204A"/>
<path d="M298.22 54.7366L298.206 32.5464L270.309 36.2912L249.42 24.1659C245.75 22.036 239.821 22.036 236.15 24.1659L232.895 26.2402L187.6 32.3097V54.7505C187.6 54.7644 187.6 54.7783 187.6 54.7922V54.9036H187.614C187.669 56.254 188.57 57.6043 190.343 58.6345L236.4 85.349C240.071 87.4789 245.999 87.4789 249.67 85.349L295.478 58.5788C297.251 57.5486 298.151 56.2122 298.206 54.8619H298.234V54.7366H298.22Z" fill="url(#paint2_linear_39_98771)"/>
<path d="M295.464 28.3119L249.421 1.59744C245.75 -0.53248 239.822 -0.53248 236.151 1.59744L190.357 28.3537C186.686 30.4836 186.686 33.9221 190.357 36.0521L236.4 62.7666C240.071 64.8965 246 64.8965 249.67 62.7666L295.478 35.9964C299.135 33.8804 299.135 30.4279 295.464 28.3119Z" fill="url(#paint3_radial_39_98771)"/>
<path d="M295.442 34.6217L295.442 34.6216C296.972 33.7348 297.849 32.616 298.108 31.4619L298.194 31.4627C298.531 33.1025 297.642 34.7891 295.5 36.0337L295.442 34.6217ZM295.442 34.6217L249.648 61.3918L295.442 34.6217ZM249.692 62.8039L295.5 36.0337L249.648 61.3919C247.821 62.452 245.429 62.9833 243.035 62.9833C240.641 62.9833 238.249 62.452 236.422 61.3918L190.379 34.6773L190.379 34.6773C188.848 33.7904 187.972 32.6717 187.726 31.5319L187.64 31.532C187.289 33.1722 188.192 34.8589 190.335 36.1034L190.335 36.1034L236.378 62.804C238.221 63.8737 240.629 64.4073 243.035 64.4073C245.44 64.4073 247.848 63.8737 249.692 62.8039L249.692 62.8039Z" fill="white" stroke="white" stroke-width="0.087538"/>
<path d="M255.862 68.6942L253.673 69.961V67.4273L255.862 66.1605V68.6942Z" fill="#0077FF"/>
<path d="M260.42 66.05L258.231 67.3168V64.7832L260.42 63.5164V66.05Z" fill="#0077FF"/>
<path d="M264.976 63.4037L262.802 64.6706V62.1369L264.976 60.8701V63.4037Z" fill="#0077FF"/>
<path d="M261.251 70.6829L259.062 71.9497V69.4161L261.251 68.1632V70.6829Z" fill="#0077FF"/>
<path d="M265.267 68.3605L263.079 69.6273V67.0937L265.267 65.8269V68.3605Z" fill="#0077FF"/>
<path d="M279.604 54.9117L277.429 56.1785V53.6449L279.604 52.3781V54.9117Z" fill="#0077FF"/>
<path d="M292.167 47.6172L289.993 48.8841V46.3644L292.167 45.0975V47.6172Z" fill="#0077FF"/>
<path d="M269.534 60.7579L267.359 62.0108V59.4911L269.534 58.2242V60.7579Z" fill="#0077FF"/>
<g filter="url(#filter8_f_39_98771)">
<path d="M255.862 68.694L253.673 69.9609V67.4272L255.862 66.1604V68.694Z" fill="#0077FF"/>
<path d="M260.42 66.0499L258.231 67.3167V64.7831L260.42 63.5162V66.0499Z" fill="#0077FF"/>
<path d="M264.977 63.4036L262.802 64.6704V62.1368L264.977 60.87V63.4036Z" fill="#0077FF"/>
<path d="M261.251 70.683L259.062 71.9498V69.4162L261.251 68.1633V70.683Z" fill="#0077FF"/>
<path d="M265.267 68.3604L263.079 69.6272V67.0936L265.267 65.8268V68.3604Z" fill="#0077FF"/>
<path d="M279.604 54.9119L277.429 56.1787V53.6451L279.604 52.3783V54.9119Z" fill="#0077FF"/>
<path d="M292.167 47.6171L289.993 48.8839V46.3642L292.167 45.0974V47.6171Z" fill="#0077FF"/>
<path d="M269.534 60.7578L267.359 62.0106V59.4909L269.534 58.2241V60.7578Z" fill="#0077FF"/>
</g>
<path d="M230.325 68.9258L232.513 70.1927V67.659L230.325 66.3922V68.9258Z" fill="#0077FF"/>
<path d="M225.767 66.5057L227.956 67.7725V65.2389L225.767 63.972V66.5057Z" fill="#0077FF"/>
<path d="M220.919 68.5922L223.108 69.859V67.3254L220.919 66.0586V68.5922Z" fill="#0077FF"/>
<path d="M224.936 70.9169L227.125 72.1837V69.6501L224.936 68.3972V70.9169Z" fill="#0077FF"/>
<path d="M201.606 57.5371L203.794 58.8039V56.2702L201.606 55.0034V57.5371Z" fill="#0077FF"/>
<path d="M221.21 63.6357L223.385 64.9025V62.3689L221.21 61.1021V63.6357Z" fill="#0077FF"/>
<path d="M215.543 65.3392L217.732 66.606V64.0723L215.543 62.8195V65.3392Z" fill="#0077FF"/>
<path d="M211.527 63.0129L213.715 64.2797V61.7461L211.527 60.4792V63.0129Z" fill="#0077FF"/>
<path d="M206.583 55.1445L208.757 56.4113V53.8777L206.583 52.6108V55.1445Z" fill="#0077FF"/>
<path d="M194.019 47.8492L196.194 49.116V46.5963L194.019 45.3295V47.8492Z" fill="#0077FF"/>
<path d="M216.652 60.9893L218.827 62.2422V59.7225L216.652 58.4557V60.9893Z" fill="#0077FF"/>
<g filter="url(#filter9_f_39_98771)">
<path d="M230.325 68.9258L232.513 70.1927V67.659L230.325 66.3922V68.9258Z" fill="#0077FF"/>
<path d="M225.767 66.5057L227.956 67.7725V65.2389L225.767 63.972V66.5057Z" fill="#0077FF"/>
<path d="M220.919 68.5922L223.108 69.859V67.3254L220.919 66.0586V68.5922Z" fill="#0077FF"/>
<path d="M224.936 70.9169L227.125 72.1837V69.6501L224.936 68.3972V70.9169Z" fill="#0077FF"/>
<path d="M201.606 57.5371L203.794 58.8039V56.2702L201.606 55.0034V57.5371Z" fill="#0077FF"/>
<path d="M221.21 63.6357L223.385 64.9025V62.3689L221.21 61.1021V63.6357Z" fill="#0077FF"/>
<path d="M215.543 65.3392L217.732 66.606V64.0723L215.543 62.8195V65.3392Z" fill="#0077FF"/>
<path d="M211.527 63.0129L213.715 64.2797V61.7461L211.527 60.4792V63.0129Z" fill="#0077FF"/>
<path d="M206.583 55.1445L208.757 56.4113V53.8777L206.583 52.6108V55.1445Z" fill="#0077FF"/>
<path d="M194.019 47.8492L196.194 49.116V46.5963L194.019 45.3295V47.8492Z" fill="#0077FF"/>
<path d="M216.652 60.9893L218.827 62.2422V59.7225L216.652 58.4557V60.9893Z" fill="#0077FF"/>
</g>
<path opacity="0.4" fill-rule="evenodd" clip-rule="evenodd" d="M236.481 18.6437C225.704 25.5466 218.765 37.1002 225.637 41.87C233.893 45.8346 253.91 41.8312 265.866 35.609C261.328 32.0317 259.162 26.8801 259.531 22.3012C251.274 22.4368 242.682 21.261 236.481 18.6437ZM235.375 29.7027L234.263 30.3445L239.989 33.2911L238.346 34.2401L232.317 30.7596L230.722 31.6808L243.282 38.9323L244.877 38.011L244.168 37.6015L253.019 32.4915L251.634 26.7894L241.916 25.9262L241.044 26.4297L249.612 27.7356L247.872 28.7399L239.932 27.0716L238.878 27.6802L246.267 29.6667L244.882 30.4663L237.699 28.3608L236.568 29.0138L243.123 31.5148L241.556 32.4196L235.375 29.7027Z" fill="url(#paint4_linear_39_98771)"/>
<path d="M514.38 317.428L514.383 317.43C516.071 318.403 516.719 319.562 516.72 320.544C516.722 321.526 516.076 322.684 514.395 323.657L514.392 323.659L468.235 350.633C468.234 350.634 468.234 350.634 468.233 350.634C466.548 351.611 464.292 352.125 461.988 352.125C459.684 352.125 457.427 351.611 455.741 350.633L455.741 350.633L409.344 323.714C407.654 322.733 407.006 321.573 407.006 320.592C407.006 319.611 407.654 318.451 409.344 317.47L409.347 317.469L455.49 290.508C455.49 290.508 455.491 290.508 455.491 290.508C457.176 289.531 459.433 289.017 461.737 289.017C464.041 289.017 466.298 289.531 467.983 290.508L467.983 290.508L514.38 317.428Z" stroke="#0077FF" stroke-width="1.75076"/>
<g filter="url(#filter10_f_39_98771)">
<path d="M514.38 317.428L514.383 317.43C516.071 318.403 516.719 319.562 516.72 320.544C516.722 321.526 516.076 322.684 514.395 323.657L514.392 323.659L468.235 350.633C468.234 350.634 468.234 350.634 468.233 350.634C466.548 351.611 464.292 352.125 461.988 352.125C459.684 352.125 457.427 351.611 455.741 350.633L455.741 350.633L409.344 323.714C407.654 322.733 407.006 321.573 407.006 320.592C407.006 319.611 407.654 318.451 409.344 317.47L409.347 317.469L455.49 290.508C455.49 290.508 455.491 290.508 455.491 290.508C457.176 289.531 459.433 289.017 461.737 289.017C464.041 289.017 466.298 289.531 467.983 290.508L467.983 290.508L514.38 317.428Z" stroke="#0077FF" stroke-width="1.75076"/>
</g>
<path d="M517.986 306.336L517.972 284.146L490.074 287.891L469.186 275.766C465.515 273.636 459.587 273.636 455.916 275.766L452.661 277.84L407.366 283.909V306.35C407.366 306.364 407.366 306.378 407.366 306.392V306.503H407.38C407.435 307.854 408.335 309.204 410.108 310.234L456.165 336.949C459.836 339.079 465.765 339.079 469.435 336.949L515.243 310.178C517.016 309.148 517.916 307.812 517.972 306.462H517.999V306.336H517.986Z" fill="url(#paint5_linear_39_98771)"/>
<path d="M515.23 280.137L469.186 253.423C465.516 251.293 459.587 251.293 455.916 253.423L410.123 280.179C406.452 282.309 406.452 285.748 410.123 287.877L456.166 314.592C459.837 316.722 465.765 316.722 469.436 314.592L515.243 287.822C518.9 285.706 518.9 282.253 515.23 280.137Z" fill="url(#paint6_radial_39_98771)"/>
<path d="M515.207 286.447L515.207 286.447C516.738 285.56 517.614 284.441 517.874 283.287L517.959 283.288C518.297 284.928 517.408 286.614 515.265 287.859L515.207 286.447ZM515.207 286.447L469.413 313.217L515.207 286.447ZM469.457 314.629L515.265 287.859L469.413 313.217C467.586 314.277 465.194 314.808 462.8 314.808C460.406 314.808 458.015 314.277 456.187 313.217L410.144 286.502L410.144 286.502C408.614 285.615 407.738 284.497 407.492 283.357L407.406 283.357C407.054 284.997 407.958 286.684 410.1 287.928L410.1 287.928L456.143 314.629C457.987 315.699 460.395 316.232 462.8 316.232C465.206 316.232 467.614 315.699 469.457 314.629L469.457 314.629Z" fill="white" stroke="white" stroke-width="0.0875379"/>
<path d="M475.627 320.52L473.438 321.787V319.254L475.627 317.987V320.52Z" fill="#0077FF"/>
<path d="M480.184 317.876L477.995 319.143V316.61L480.184 315.343V317.876Z" fill="#0077FF"/>
<path d="M484.742 315.23L482.567 316.497V313.963L484.742 312.697V315.23Z" fill="#0077FF"/>
<path d="M481.014 322.51L478.826 323.777V321.243L481.014 319.99V322.51Z" fill="#0077FF"/>
<path d="M485.032 320.187L482.843 321.454V318.92L485.032 317.653V320.187Z" fill="#0077FF"/>
<path d="M499.369 306.739L497.194 308.006V305.472L499.369 304.205V306.739Z" fill="#0077FF"/>
<path d="M511.932 299.444L509.757 300.711V298.191L511.932 296.924V299.444Z" fill="#0077FF"/>
<path d="M489.298 312.585L487.124 313.838V311.318L489.298 310.051V312.585Z" fill="#0077FF"/>
<g filter="url(#filter11_f_39_98771)">
<path d="M475.627 320.52L473.438 321.787V319.254L475.627 317.987V320.52Z" fill="#0077FF"/>
<path d="M480.184 317.876L477.995 319.143V316.61L480.184 315.343V317.876Z" fill="#0077FF"/>
<path d="M484.742 315.23L482.567 316.497V313.963L484.742 312.697V315.23Z" fill="#0077FF"/>
<path d="M481.014 322.51L478.826 323.777V321.243L481.014 319.99V322.51Z" fill="#0077FF"/>
<path d="M485.032 320.187L482.843 321.454V318.92L485.032 317.653V320.187Z" fill="#0077FF"/>
<path d="M499.369 306.739L497.194 308.006V305.472L499.369 304.205V306.739Z" fill="#0077FF"/>
<path d="M511.932 299.444L509.757 300.711V298.191L511.932 296.924V299.444Z" fill="#0077FF"/>
<path d="M489.298 312.585L487.124 313.838V311.318L489.298 310.051V312.585Z" fill="#0077FF"/>
</g>
<path d="M429.896 305.75C429.896 306.316 429.802 306.735 429.613 307.007C429.426 307.278 429.155 307.407 428.799 307.395C428.444 307.38 428.016 307.228 427.515 306.939L426.281 306.227L426.281 301.197L427.649 301.986C428.106 302.25 428.502 302.572 428.838 302.954C429.174 303.334 429.434 303.76 429.619 304.234C429.804 304.705 429.896 305.211 429.896 305.75ZM428.937 305.223C428.937 304.852 428.889 304.519 428.794 304.226C428.7 303.931 428.561 303.673 428.376 303.452C428.193 303.231 427.967 303.043 427.697 302.887L427.205 302.604L427.205 305.879L427.601 306.108C428.052 306.368 428.387 306.423 428.606 306.271C428.826 306.121 428.937 305.772 428.937 305.223ZM434.414 308.357C434.414 308.923 434.32 309.342 434.131 309.614C433.944 309.885 433.673 310.014 433.318 310.002C432.962 309.987 432.534 309.835 432.033 309.546L430.799 308.834L430.799 303.804L432.167 304.593C432.624 304.857 433.021 305.179 433.356 305.561C433.692 305.941 433.952 306.367 434.137 306.841C434.322 307.312 434.414 307.818 434.414 308.357ZM433.455 307.83C433.455 307.459 433.407 307.126 433.312 306.833C433.218 306.538 433.079 306.28 432.894 306.059C432.712 305.838 432.485 305.65 432.215 305.494L431.723 305.211L431.723 308.486L432.12 308.715C432.571 308.975 432.905 309.03 433.124 308.878C433.344 308.728 433.455 308.379 433.455 307.83ZM436.971 309.571L438.7 310.568L438.7 313.176C438.472 313.131 438.234 313.064 437.988 312.975C437.741 312.883 437.462 312.747 437.15 312.567C436.717 312.318 436.35 312.007 436.048 311.635C435.746 311.264 435.516 310.84 435.359 310.364C435.202 309.888 435.124 309.369 435.124 308.807C435.124 308.28 435.211 307.874 435.386 307.589C435.563 307.306 435.82 307.156 436.158 307.14C436.498 307.125 436.912 307.258 437.401 307.54C437.631 307.673 437.859 307.833 438.083 308.02C438.308 308.207 438.511 308.399 438.694 308.596L438.387 309.273C438.254 309.118 438.102 308.965 437.931 308.813C437.76 308.662 437.581 308.532 437.395 308.425C437.126 308.27 436.893 308.206 436.694 308.234C436.498 308.263 436.345 308.374 436.235 308.568C436.128 308.76 436.074 309.03 436.074 309.376C436.074 309.704 436.113 310.018 436.191 310.317C436.268 310.614 436.39 310.883 436.557 311.124C436.724 311.363 436.942 311.559 437.21 311.714C437.341 311.79 437.451 311.847 437.541 311.884C437.632 311.921 437.718 311.954 437.797 311.984L437.797 310.935L436.971 310.458L436.971 309.571ZM421.495 312.465L420.321 311.788L418.425 306.889L418.398 306.873C418.406 307.036 418.413 307.2 418.419 307.364C418.425 307.528 418.431 307.692 418.437 307.856C418.443 308.017 418.449 308.18 418.455 308.344L418.455 310.711L417.629 310.235L417.629 305.205L418.795 305.877L420.687 310.737L420.708 310.749C420.704 310.59 420.699 310.433 420.693 310.276C420.687 310.118 420.681 309.961 420.675 309.804C420.671 309.648 420.667 309.492 420.663 309.336L420.663 306.955L421.495 307.435L421.495 312.465ZM425.104 314.548L422.594 313.1L422.594 308.07L425.104 309.517L425.104 310.391L423.518 309.477L423.518 310.581L424.994 311.432L424.994 312.306L423.518 311.455L423.518 312.752L425.104 313.667L425.104 314.548ZM427.697 316.044L426.773 315.511L426.773 311.368L425.59 310.685L425.59 309.798L428.88 311.696L428.88 312.584L427.697 311.901L427.697 316.044ZM434.903 315.172L433.794 319.562L432.742 318.955L432.152 315.972C432.14 315.915 432.125 315.829 432.105 315.714C432.085 315.6 432.064 315.475 432.042 315.341C432.02 315.204 432 315.077 431.982 314.959C431.967 314.84 431.956 314.746 431.95 314.679C431.944 314.739 431.932 314.819 431.914 314.916C431.898 315.015 431.879 315.118 431.857 315.227C431.837 315.338 431.818 315.44 431.798 315.534C431.778 315.628 431.762 315.699 431.75 315.747L431.163 318.044L430.114 317.439L429.002 311.767L429.911 312.291L430.468 315.359C430.484 315.45 430.502 315.559 430.522 315.685C430.544 315.813 430.565 315.945 430.585 316.083C430.607 316.219 430.625 316.351 430.641 316.477C430.659 316.602 430.672 316.709 430.68 316.798C430.69 316.717 430.703 316.624 430.719 316.518C430.735 316.41 430.752 316.302 430.769 316.193C430.789 316.083 430.809 315.982 430.829 315.89C430.849 315.798 430.867 315.725 430.883 315.67L431.518 313.218L432.391 313.722L433.026 316.906C433.039 316.976 433.055 317.069 433.073 317.185C433.093 317.3 433.113 317.423 433.133 317.557C433.153 317.69 433.171 317.819 433.186 317.945C433.204 318.07 433.217 318.178 433.225 318.267C433.239 318.16 433.258 318.032 433.282 317.883C433.308 317.733 433.335 317.585 433.362 317.438C433.392 317.292 433.418 317.17 433.44 317.073L433.994 314.647L434.903 315.172ZM439.406 320.278C439.406 320.666 439.365 320.995 439.281 321.266C439.198 321.534 439.071 321.734 438.9 321.865C438.731 321.997 438.516 322.049 438.256 322.023C437.996 321.994 437.688 321.878 437.332 321.672C436.976 321.467 436.668 321.229 436.408 320.957C436.148 320.683 435.932 320.382 435.761 320.054C435.593 319.727 435.466 319.38 435.383 319.013C435.3 318.646 435.258 318.268 435.258 317.878C435.258 317.357 435.331 316.946 435.478 316.646C435.627 316.344 435.856 316.175 436.164 316.14C436.472 316.104 436.863 316.223 437.338 316.497C437.811 316.77 438.199 317.101 438.503 317.49C438.809 317.88 439.036 318.311 439.183 318.783C439.332 319.257 439.406 319.755 439.406 320.278ZM436.226 318.443C436.226 318.794 436.264 319.119 436.34 319.417C436.417 319.714 436.537 319.979 436.7 320.21C436.863 320.44 437.074 320.629 437.332 320.778C437.594 320.929 437.807 320.984 437.97 320.943C438.133 320.899 438.251 320.772 438.325 320.562C438.4 320.351 438.438 320.07 438.438 319.719C438.438 319.192 438.352 318.727 438.181 318.326C438.011 317.925 437.729 317.611 437.338 317.385C437.078 317.235 436.865 317.181 436.7 317.224C436.537 317.265 436.417 317.39 436.34 317.6C436.264 317.809 436.226 318.09 436.226 318.443ZM441.579 319.023C441.974 319.252 442.3 319.495 442.557 319.753C442.815 320.012 443.007 320.289 443.132 320.583C443.257 320.878 443.32 321.195 443.32 321.535C443.32 321.764 443.282 321.943 443.206 322.072C443.131 322.2 443.031 322.288 442.908 322.337C442.785 322.385 442.652 322.406 442.509 322.399L443.79 325.33L442.765 324.738L441.725 322.208L441.233 321.924L441.233 323.854L440.309 323.321L440.309 318.291L441.579 319.023ZM441.513 319.86L441.233 319.698L441.233 321.057L441.531 321.229C441.837 321.406 442.056 321.473 442.187 321.432C442.32 321.389 442.387 321.253 442.387 321.024C442.387 320.786 442.315 320.575 442.172 320.391C442.031 320.209 441.811 320.032 441.513 319.86ZM447.844 327.669L446.795 327.063L445.653 324.285L445.263 324.383L445.263 326.179L444.339 325.646L444.339 320.616L445.263 321.149L445.263 323.451C445.324 323.388 445.385 323.324 445.444 323.26C445.504 323.196 445.565 323.132 445.626 323.069L446.806 322.04L447.832 322.631L446.312 323.98L447.844 327.669Z" fill="white"/>
<path opacity="0.4" d="M460.004 303.115L429.018 285.129C427.757 284.405 427.924 283.124 429.364 282.275L459.63 264.706C461.085 263.857 463.287 263.774 464.548 264.498L495.52 282.47C496.78 283.194 496.614 284.474 495.174 285.324L464.908 302.906C463.453 303.755 461.265 303.839 460.004 303.115Z" fill="#1F204A"/>
<path d="M517.918 264.737L517.904 242.547L490.007 246.292L469.119 234.166C465.448 232.036 459.519 232.036 455.849 234.166L452.594 236.241L407.298 242.31V264.751C407.298 264.765 407.298 264.779 407.298 264.793V264.904H407.312C407.368 266.254 408.268 267.605 410.041 268.635L456.098 295.349C459.769 297.479 465.697 297.479 469.368 295.349L515.176 268.579C516.949 267.549 517.849 266.213 517.904 264.862H517.932V264.737H517.918Z" fill="url(#paint7_linear_39_98771)"/>
<path d="M515.161 238.312L469.118 211.597C465.447 209.468 459.519 209.468 455.848 211.597L410.054 238.354C406.384 240.484 406.384 243.922 410.054 246.052L456.097 272.766C459.768 274.896 465.697 274.896 469.367 272.766L515.175 245.996C518.832 243.88 518.832 240.428 515.161 238.312Z" fill="url(#paint8_radial_39_98771)"/>
<path d="M515.14 244.622L515.14 244.621C516.67 243.735 517.547 242.616 517.806 241.462L517.892 241.463C518.23 243.102 517.341 244.789 515.198 246.034L515.14 244.622ZM515.14 244.622L469.346 271.392L515.14 244.622ZM469.39 272.804L515.198 246.034L469.346 271.392C467.519 272.452 465.127 272.983 462.733 272.983C460.339 272.983 457.947 272.452 456.12 271.392L410.077 244.677L410.077 244.677C408.546 243.79 407.67 242.672 407.424 241.532L407.339 241.532C406.987 243.172 407.89 244.859 410.033 246.103L410.033 246.103L456.076 272.804C457.92 273.874 460.328 274.407 462.733 274.407C465.139 274.407 467.546 273.874 469.39 272.804L469.39 272.804Z" fill="white" stroke="white" stroke-width="0.0875379"/>
<path d="M475.56 278.694L473.371 279.961V277.427L475.56 276.161V278.694Z" fill="#0077FF"/>
<path d="M480.117 276.05L477.929 277.317V274.783L480.117 273.517V276.05Z" fill="#0077FF"/>
<path d="M484.675 273.404L482.5 274.671V272.137L484.675 270.871V273.404Z" fill="#0077FF"/>
<path d="M480.948 280.683L478.76 281.95V279.416L480.948 278.164V280.683Z" fill="#0077FF"/>
<path d="M484.965 278.36L482.776 279.627V277.093L484.965 275.827V278.36Z" fill="#0077FF"/>
<path d="M499.302 264.913L497.127 266.179V263.646L499.302 262.379V264.913Z" fill="#0077FF"/>
<path d="M511.865 257.617L509.69 258.884V256.364L511.865 255.098V257.617Z" fill="#0077FF"/>
<path d="M489.232 270.758L487.057 272.011V269.491L489.232 268.224V270.758Z" fill="#0077FF"/>
<g filter="url(#filter12_f_39_98771)">
<path d="M475.56 278.695L473.371 279.961V277.428L475.56 276.161V278.695Z" fill="#0077FF"/>
<path d="M480.117 276.05L477.928 277.317V274.784L480.117 273.517V276.05Z" fill="#0077FF"/>
<path d="M484.675 273.404L482.5 274.671V272.138L484.675 270.871V273.404Z" fill="#0077FF"/>
<path d="M480.948 280.684L478.76 281.95V279.417L480.948 278.164V280.684Z" fill="#0077FF"/>
<path d="M484.964 278.36L482.776 279.627V277.093L484.964 275.827V278.36Z" fill="#0077FF"/>
<path d="M499.302 264.913L497.127 266.18V263.646L499.302 262.379V264.913Z" fill="#0077FF"/>
<path d="M511.865 257.618L509.69 258.885V256.365L511.865 255.098V257.618Z" fill="#0077FF"/>
<path d="M489.232 270.758L487.057 272.011V269.491L489.232 268.224V270.758Z" fill="#0077FF"/>
</g>
<path d="M450.022 278.926L452.211 280.193V277.659L450.022 276.393V278.926Z" fill="#0077FF"/>
<path d="M445.464 276.505L447.653 277.772V275.238L445.464 273.972V276.505Z" fill="#0077FF"/>
<path d="M440.617 278.592L442.805 279.859V277.326L440.617 276.059V278.592Z" fill="#0077FF"/>
<path d="M444.634 280.916L446.822 282.183V279.65L444.634 278.397V280.916Z" fill="#0077FF"/>
<path d="M421.304 267.537L423.492 268.804V266.27L421.304 265.003V267.537Z" fill="#0077FF"/>
<path d="M440.907 273.636L443.082 274.902V272.369L440.907 271.102V273.636Z" fill="#0077FF"/>
<path d="M435.241 275.339L437.43 276.606V274.072L435.241 272.819V275.339Z" fill="#0077FF"/>
<path d="M431.224 273.013L433.413 274.28V271.747L431.224 270.48V273.013Z" fill="#0077FF"/>
<path d="M426.28 265.144L428.455 266.411V263.877L426.28 262.61V265.144Z" fill="#0077FF"/>
<path d="M413.717 257.849L415.892 259.116V256.596L413.717 255.33V257.849Z" fill="#0077FF"/>
<path d="M436.35 270.99L438.525 272.243V269.723L436.35 268.457V270.99Z" fill="#0077FF"/>
<g filter="url(#filter13_f_39_98771)">
<path d="M450.022 278.926L452.211 280.193V277.659L450.022 276.393V278.926Z" fill="#0077FF"/>
<path d="M445.464 276.505L447.653 277.772V275.238L445.464 273.972V276.505Z" fill="#0077FF"/>
<path d="M440.617 278.592L442.805 279.859V277.326L440.617 276.059V278.592Z" fill="#0077FF"/>
<path d="M444.634 280.916L446.822 282.183V279.65L444.634 278.397V280.916Z" fill="#0077FF"/>
<path d="M421.304 267.537L423.492 268.804V266.27L421.304 265.003V267.537Z" fill="#0077FF"/>
<path d="M440.907 273.636L443.082 274.902V272.369L440.907 271.102V273.636Z" fill="#0077FF"/>
<path d="M435.241 275.339L437.43 276.606V274.072L435.241 272.819V275.339Z" fill="#0077FF"/>
<path d="M431.224 273.013L433.413 274.28V271.747L431.224 270.48V273.013Z" fill="#0077FF"/>
<path d="M426.28 265.144L428.455 266.411V263.877L426.28 262.61V265.144Z" fill="#0077FF"/>
<path d="M413.717 257.849L415.892 259.116V256.596L413.717 255.33V257.849Z" fill="#0077FF"/>
<path d="M436.35 270.99L438.525 272.243V269.723L436.35 268.457V270.99Z" fill="#0077FF"/>
</g>
<path opacity="0.4" fill-rule="evenodd" clip-rule="evenodd" d="M456.178 228.644C445.401 235.547 438.462 247.1 445.334 251.87C453.591 255.835 473.607 251.831 485.563 245.609C481.025 242.032 478.859 236.88 479.228 232.301C470.971 232.437 462.379 231.261 456.178 228.644ZM455.072 239.703L453.961 240.345L459.687 243.291L458.043 244.24L452.015 240.76L450.419 241.681L462.979 248.932L464.575 248.011L463.866 247.602L472.717 242.492L471.332 236.79L461.613 235.926L460.741 236.43L469.309 237.736L467.57 238.74L459.63 237.072L458.575 237.68L465.965 239.667L464.58 240.466L457.396 238.361L456.266 239.014L462.821 241.515L461.254 242.42L455.072 239.703Z" fill="url(#paint9_linear_39_98771)"/>
<path d="M114.377 317.554L114.379 317.555C116.069 318.53 116.718 319.691 116.719 320.674C116.721 321.656 116.074 322.816 114.392 323.79L114.388 323.792L68.1767 350.798C68.1764 350.798 68.1761 350.799 68.1758 350.799C66.4888 351.777 64.2291 352.292 61.9228 352.292C59.616 352.292 57.3559 351.777 55.6688 350.798L55.2289 351.556L55.6688 350.798L9.2173 323.847C7.52496 322.865 6.87641 321.704 6.87641 320.722C6.87641 319.74 7.52496 318.578 9.2173 317.596L9.21958 317.595L55.4173 290.603C55.4176 290.603 55.4179 290.602 55.4182 290.602C57.1052 289.624 59.3649 289.11 61.6712 289.11C63.978 289.11 66.2381 289.624 67.9252 290.603L68.3648 289.845L67.9252 290.603L114.377 317.554Z" stroke="#0077FF" stroke-width="1.75281"/>
<g filter="url(#filter14_f_39_98771)">
<path d="M114.377 317.554L114.379 317.555C116.069 318.53 116.718 319.691 116.719 320.674C116.721 321.656 116.074 322.816 114.392 323.79L114.388 323.792L68.1767 350.798C68.1764 350.798 68.1761 350.799 68.1758 350.799C66.4888 351.777 64.2291 352.292 61.9228 352.292C59.616 352.292 57.3559 351.777 55.6688 350.798L55.2289 351.556L55.6688 350.798L9.2173 323.847C7.52496 322.865 6.87641 321.704 6.87641 320.722C6.87641 319.74 7.52496 318.578 9.2173 317.596L9.21958 317.595L55.4173 290.603C55.4176 290.603 55.4179 290.602 55.4182 290.602C57.1052 289.624 59.3649 289.11 61.6712 289.11C63.978 289.11 66.2381 289.624 67.9252 290.603L68.3648 289.845L67.9252 290.603L114.377 317.554Z" stroke="#0077FF" stroke-width="1.75281"/>
</g>
<path d="M117.986 306.449L117.972 284.233L90.0421 287.982L69.1292 275.843C65.4542 273.711 59.5187 273.711 55.8436 275.843L52.5847 277.92L7.23633 283.996V306.463C7.23633 306.477 7.23633 306.491 7.23633 306.505V306.617H7.2502C7.30567 307.969 8.20709 309.321 9.98219 310.352L56.0933 337.098C59.7683 339.23 65.7038 339.23 69.3788 337.098L115.24 310.296C117.015 309.265 117.917 307.927 117.972 306.575H118V306.449H117.986Z" fill="url(#paint10_linear_39_98771)"/>
<path d="M115.227 280.219L69.1296 253.473C65.4546 251.341 59.5191 251.341 55.8441 253.473L9.9965 280.261C6.32148 282.393 6.32148 285.836 9.9965 287.968L56.0937 314.714C59.7687 316.846 65.7042 316.846 69.3792 314.714L115.241 287.912C118.902 285.794 118.902 282.337 115.227 280.219Z" fill="url(#paint11_radial_39_98771)"/>
<path d="M115.204 286.537L115.204 286.537L69.3569 313.338C67.5276 314.4 65.133 314.932 62.7361 314.932C60.3392 314.932 57.9446 314.4 56.1153 313.338L10.0181 286.592L10.0181 286.592C8.48573 285.704 7.60866 284.584 7.36242 283.443L7.27674 283.443C6.92459 285.085 7.82903 286.774 9.9741 288.02L9.97412 288.02L56.0713 314.752C57.9171 315.823 60.3277 316.357 62.7361 316.357C65.1444 316.357 67.5551 315.823 69.4008 314.752L69.401 314.752L115.262 287.95C117.408 286.704 118.298 285.016 117.96 283.374L117.874 283.373C117.614 284.529 116.737 285.649 115.204 286.537Z" fill="white" stroke="white" stroke-width="0.0876407"/>
<path d="M75.5779 320.651L73.3867 321.919V319.382L75.5779 318.114V320.651Z" fill="#0077FF"/>
<path d="M80.1404 318.003L77.9492 319.272V316.735L80.1404 315.467V318.003Z" fill="#0077FF"/>
<path d="M84.7027 315.354L82.5254 316.623V314.086L84.7027 312.818V315.354Z" fill="#0077FF"/>
<path d="M80.9719 322.642L78.7808 323.91V321.373L80.9719 320.119V322.642Z" fill="#0077FF"/>
<path d="M84.9944 320.317L82.8032 321.585V319.048L84.9944 317.78V320.317Z" fill="#0077FF"/>
<path d="M99.3472 306.853L97.1699 308.121V305.584L99.3472 304.316V306.853Z" fill="#0077FF"/>
<path d="M111.926 299.549L109.749 300.817V298.294L111.926 297.026V299.549Z" fill="#0077FF"/>
<path d="M89.2652 312.705L87.0879 313.959V311.437L89.2652 310.168V312.705Z" fill="#0077FF"/>
<g filter="url(#filter15_f_39_98771)">
<path d="M75.5779 320.651L73.3867 321.919V319.382L75.5779 318.114V320.651Z" fill="#0077FF"/>
<path d="M80.1404 318.003L77.9492 319.272V316.735L80.1404 315.467V318.003Z" fill="#0077FF"/>
<path d="M84.7027 315.354L82.5254 316.623V314.086L84.7027 312.818V315.354Z" fill="#0077FF"/>
<path d="M80.9719 322.642L78.7808 323.91V321.373L80.9719 320.119V322.642Z" fill="#0077FF"/>
<path d="M84.9944 320.317L82.8032 321.585V319.048L84.9944 317.78V320.317Z" fill="#0077FF"/>
<path d="M99.3472 306.853L97.1699 308.121V305.584L99.3472 304.316V306.853Z" fill="#0077FF"/>
<path d="M111.926 299.549L109.749 300.817V298.294L111.926 297.026V299.549Z" fill="#0077FF"/>
<path d="M89.2652 312.705L87.0879 313.959V311.437L89.2652 310.168V312.705Z" fill="#0077FF"/>
</g>
<path d="M29.7938 305.854C29.7938 306.421 29.6993 306.841 29.5103 307.113C29.3233 307.384 29.0518 307.513 28.6957 307.501C28.3397 307.486 27.911 307.334 27.4097 307.045L26.1744 306.332L26.1744 301.295L27.544 302.086C28.0015 302.35 28.3984 302.673 28.7345 303.055C29.0707 303.435 29.3313 303.862 29.5163 304.336C29.7013 304.808 29.7938 305.314 29.7938 305.854ZM28.833 305.327C28.833 304.955 28.7853 304.622 28.6898 304.328C28.5963 304.033 28.457 303.775 28.272 303.553C28.089 303.333 27.8623 303.144 27.5917 302.988L27.0994 302.704L27.0994 305.984L27.4963 306.213C27.9478 306.473 28.283 306.528 28.5018 306.376C28.7226 306.226 28.833 305.876 28.833 305.327ZM34.3172 308.464C34.3172 309.031 34.2227 309.451 34.0338 309.723C33.8468 309.994 33.5753 310.123 33.2192 310.111C32.8631 310.096 32.4344 309.944 31.9332 309.655L30.6979 308.942L30.6979 303.905L32.0674 304.696C32.525 304.96 32.9218 305.283 33.258 305.665C33.5942 306.045 33.8547 306.472 34.0397 306.946C34.2247 307.418 34.3172 307.924 34.3172 308.464ZM33.3564 307.937C33.3564 307.565 33.3087 307.232 33.2132 306.938C33.1197 306.643 32.9805 306.385 32.7955 306.163C32.6125 305.943 32.3857 305.754 32.1152 305.598L31.6229 305.314L31.6229 308.594L32.0197 308.823C32.4712 309.083 32.8064 309.138 33.0252 308.986C33.246 308.836 33.3564 308.486 33.3564 307.937ZM36.8773 309.679L38.6079 310.678L38.6079 313.289C38.3792 313.244 38.1415 313.177 37.8948 313.088C37.6481 312.996 37.3687 312.86 37.0564 312.68C36.6227 312.429 36.2547 312.118 35.9524 311.746C35.65 311.374 35.4202 310.95 35.2631 310.474C35.1059 309.997 35.0274 309.478 35.0274 308.915C35.0274 308.387 35.1149 307.98 35.2899 307.695C35.467 307.412 35.7246 307.262 36.0628 307.246C36.4029 307.231 36.8177 307.364 37.307 307.647C37.5377 307.78 37.7655 307.94 37.9903 308.127C38.2151 308.314 38.419 308.506 38.602 308.704L38.2946 309.381C38.1614 309.226 38.0092 309.073 37.8381 308.921C37.667 308.769 37.488 308.64 37.301 308.532C37.0325 308.377 36.7988 308.313 36.5998 308.341C36.4029 308.37 36.2497 308.481 36.1403 308.675C36.0329 308.868 35.9792 309.138 35.9792 309.485C35.9792 309.813 36.018 310.127 36.0956 310.427C36.1732 310.724 36.2955 310.993 36.4626 311.235C36.6297 311.473 36.8475 311.67 37.116 311.825C37.2473 311.901 37.3577 311.958 37.4472 311.996C37.5387 312.032 37.6243 312.066 37.7038 312.095L37.7038 311.045L36.8773 310.568L36.8773 309.679ZM21.3824 312.567L20.2068 311.889L18.3091 306.984L18.2823 306.968C18.2902 307.131 18.2972 307.295 18.3031 307.459C18.3091 307.623 18.3151 307.787 18.3211 307.952C18.327 308.114 18.333 308.277 18.339 308.441L18.339 310.811L17.5124 310.334L17.5124 305.298L18.6791 305.971L20.5738 310.836L20.5947 310.848C20.5907 310.69 20.5858 310.532 20.5798 310.374C20.5738 310.217 20.5679 310.06 20.5619 309.903C20.5579 309.746 20.5539 309.59 20.55 309.434L20.55 307.05L21.3824 307.531L21.3824 312.567ZM24.9958 314.652L22.4835 313.202L22.4835 308.166L24.9958 309.615L24.9958 310.49L23.4084 309.574L23.4084 310.68L24.8854 311.533L24.8854 312.407L23.4084 311.555L23.4084 312.854L24.9958 313.77L24.9958 314.652ZM27.5917 316.15L26.6668 315.616L26.6668 311.468L25.4822 310.785L25.4822 309.896L28.7763 311.797L28.7763 312.685L27.5917 312.002L27.5917 316.15ZM34.8066 315.276L33.6966 319.672L32.6433 319.064L32.0525 316.078C32.0406 316.02 32.0247 315.934 32.0048 315.819C31.9849 315.705 31.964 315.58 31.9421 315.446C31.9202 315.309 31.9003 315.182 31.8824 315.063C31.8665 314.944 31.8556 314.85 31.8496 314.783C31.8437 314.843 31.8317 314.923 31.8138 315.02C31.7979 315.119 31.779 315.223 31.7571 315.332C31.7372 315.442 31.7173 315.545 31.6974 315.639C31.6776 315.733 31.6616 315.804 31.6497 315.852L31.0619 318.152L30.0116 317.546L28.8986 311.867L29.8087 312.392L30.3667 315.463C30.3826 315.555 30.4005 315.664 30.4204 315.791C30.4423 315.918 30.4631 316.051 30.483 316.188C30.5049 316.325 30.5238 316.457 30.5397 316.583C30.5576 316.708 30.5706 316.815 30.5785 316.905C30.5885 316.823 30.6014 316.73 30.6173 316.624C30.6332 316.516 30.6501 316.408 30.668 316.299C30.6879 316.188 30.7078 316.087 30.7277 315.995C30.7476 315.904 30.7655 315.83 30.7814 315.775L31.417 313.32L32.2912 313.825L32.9268 317.013C32.9407 317.083 32.9566 317.176 32.9745 317.292C32.9944 317.407 33.0143 317.531 33.0342 317.664C33.0541 317.797 33.072 317.927 33.0879 318.053C33.1058 318.178 33.1187 318.286 33.1267 318.375C33.1406 318.268 33.1595 318.14 33.1834 317.991C33.2092 317.841 33.2361 317.692 33.2639 317.545C33.2938 317.399 33.3196 317.277 33.3415 317.18L33.8965 314.751L34.8066 315.276ZM39.3151 320.389C39.3151 320.777 39.2733 321.107 39.1898 321.378C39.1062 321.646 38.9789 321.846 38.8079 321.977C38.6388 322.109 38.4239 322.162 38.1634 322.136C37.9028 322.107 37.5944 321.99 37.2384 321.785C36.8823 321.579 36.574 321.34 36.3134 321.068C36.0528 320.794 35.837 320.493 35.6659 320.164C35.4968 319.837 35.3705 319.49 35.287 319.122C35.2034 318.755 35.1616 318.376 35.1616 317.985C35.1616 317.464 35.2352 317.053 35.3824 316.752C35.5316 316.45 35.7604 316.281 36.0687 316.246C36.377 316.21 36.7689 316.329 37.2443 316.603C37.7178 316.877 38.1067 317.208 38.411 317.597C38.7173 317.987 38.9441 318.419 39.0913 318.892C39.2405 319.366 39.3151 319.865 39.3151 320.389ZM36.1314 318.552C36.1314 318.903 36.1692 319.228 36.2448 319.527C36.3223 319.824 36.4427 320.089 36.6058 320.321C36.7689 320.55 36.9798 320.74 37.2384 320.889C37.5009 321.04 37.7138 321.095 37.8769 321.054C38.04 321.01 38.1584 320.883 38.232 320.673C38.3076 320.462 38.3454 320.181 38.3454 319.829C38.3454 319.301 38.2598 318.836 38.0888 318.434C37.9177 318.032 37.6362 317.718 37.2443 317.492C36.9838 317.342 36.7709 317.288 36.6058 317.331C36.4427 317.372 36.3223 317.498 36.2448 317.708C36.1692 317.917 36.1314 318.198 36.1314 318.552ZM41.4903 319.133C41.8861 319.361 42.2124 319.604 42.469 319.863C42.7276 320.122 42.9195 320.399 43.0449 320.694C43.1702 320.989 43.2328 321.307 43.2328 321.647C43.2328 321.877 43.195 322.056 43.1194 322.184C43.0439 322.313 42.9444 322.401 42.8211 322.45C42.6977 322.498 42.5645 322.519 42.4212 322.512L43.7043 325.446L42.6778 324.854L41.6365 322.321L41.1442 322.037L41.1442 323.969L40.2192 323.436L40.2192 318.399L41.4903 319.133ZM41.4246 319.97L41.1442 319.808L41.1442 321.169L41.4425 321.341C41.7489 321.518 41.9677 321.585 42.099 321.544C42.2323 321.501 42.2989 321.365 42.2989 321.136C42.2989 320.897 42.2273 320.685 42.0841 320.502C41.9428 320.319 41.723 320.142 41.4246 319.97ZM47.7622 327.788L46.7119 327.182L45.5692 324.4L45.1783 324.499L45.1783 326.297L44.2533 325.763L44.2533 320.727L45.1783 321.261L45.1783 323.565C45.2399 323.502 45.3006 323.438 45.3603 323.374C45.42 323.31 45.4806 323.246 45.5423 323.183L46.7239 322.152L47.7503 322.745L46.2286 324.095L47.7622 327.788Z" fill="white"/>
<path opacity="0.4" d="M59.936 303.224L28.9133 285.217C27.6513 284.492 27.8178 283.21 29.26 282.36L59.5616 264.771C61.0177 263.92 63.2228 263.837 64.4847 264.561L95.4936 282.555C96.7556 283.279 96.5891 284.562 95.1469 285.412L64.8453 303.015C63.3892 303.865 61.198 303.949 59.936 303.224Z" fill="#1F204A"/>
<path d="M117.918 264.801L117.904 242.585L89.9743 246.334L69.0613 234.194C65.3863 232.062 59.4508 232.062 55.7758 234.194L52.5168 236.271L7.16846 242.348V264.815C7.16846 264.829 7.16846 264.843 7.16846 264.857V264.968H7.18233C7.2378 266.32 8.13922 267.672 9.91432 268.703L56.0254 295.449C59.7004 297.582 65.6359 297.582 69.3109 295.449L115.172 268.647C116.948 267.616 117.849 266.278 117.904 264.926H117.932V264.801H117.918Z" fill="url(#paint12_linear_39_98771)"/>
<path d="M115.158 238.345L69.0613 211.599C65.3862 209.467 59.4507 209.467 55.7757 211.599L9.92814 238.387C6.25312 240.519 6.25312 243.962 9.92814 246.094L56.0253 272.84C59.7004 274.972 65.6359 274.972 69.3109 272.84L115.172 246.038C118.833 243.92 118.833 240.463 115.158 238.345Z" fill="url(#paint13_radial_39_98771)"/>
<path d="M115.137 244.662L115.136 244.662L69.289 271.464C67.4597 272.525 65.0651 273.057 62.6682 273.057C60.2713 273.057 57.8767 272.525 56.0474 271.464L9.95023 244.718L9.95021 244.718C8.41786 243.83 7.54079 242.71 7.29455 241.569L7.20887 241.569C6.85672 243.211 7.76116 244.9 9.90623 246.146L9.90625 246.146L56.0035 272.877C57.8492 273.948 60.2599 274.483 62.6682 274.483C65.0766 274.483 67.4872 273.948 69.333 272.877L69.3331 272.877L115.194 246.076C117.34 244.83 118.23 243.141 117.892 241.499L117.806 241.499C117.546 242.654 116.669 243.774 115.137 244.662Z" fill="white" stroke="white" stroke-width="0.0876407"/>
<path d="M75.5105 278.774L73.3193 280.043V277.506L75.5105 276.238V278.774Z" fill="#0077FF"/>
<path d="M80.073 276.127L77.8818 277.396V274.859L80.073 273.591V276.127Z" fill="#0077FF"/>
<path d="M84.6358 273.478L82.4585 274.747V272.21L84.6358 270.942V273.478Z" fill="#0077FF"/>
<path d="M80.905 280.766L78.7139 282.034V279.498L80.905 278.243V280.766Z" fill="#0077FF"/>
<path d="M84.927 278.441L82.7358 279.709V277.172L84.927 275.904V278.441Z" fill="#0077FF"/>
<path d="M99.2803 264.977L97.103 266.245V263.708L99.2803 262.44V264.977Z" fill="#0077FF"/>
<path d="M111.858 257.673L109.681 258.942V256.419L111.858 255.151V257.673Z" fill="#0077FF"/>
<path d="M89.1983 270.829L87.021 272.083V269.561L89.1983 268.292V270.829Z" fill="#0077FF"/>
<g filter="url(#filter16_f_39_98771)">
<path d="M75.5105 278.774L73.3193 280.043V277.506L75.5105 276.238V278.774Z" fill="#0077FF"/>
<path d="M80.073 276.127L77.8818 277.396V274.859L80.073 273.591V276.127Z" fill="#0077FF"/>
<path d="M84.6358 273.478L82.4585 274.747V272.21L84.6358 270.942V273.478Z" fill="#0077FF"/>
<path d="M80.9055 280.766L78.7144 282.034V279.498L80.9055 278.243V280.766Z" fill="#0077FF"/>
<path d="M84.927 278.441L82.7358 279.709V277.172L84.927 275.904V278.441Z" fill="#0077FF"/>
<path d="M99.2808 264.977L97.1035 266.245V263.708L99.2808 262.44V264.977Z" fill="#0077FF"/>
<path d="M111.858 257.673L109.681 258.942V256.419L111.858 255.151V257.673Z" fill="#0077FF"/>
<path d="M89.1983 270.829L87.021 272.083V269.561L89.1983 268.292V270.829Z" fill="#0077FF"/>
</g>
<path d="M49.9426 279.007L52.1338 280.275V277.739L49.9426 276.47V279.007Z" fill="#0077FF"/>
<path d="M45.3801 276.583L47.5713 277.852V275.315L45.3801 274.047V276.583Z" fill="#0077FF"/>
<path d="M40.5266 278.673L42.7178 279.941V277.405L40.5266 276.136V278.673Z" fill="#0077FF"/>
<path d="M44.5481 281L46.7393 282.268V279.731L44.5481 278.477V281Z" fill="#0077FF"/>
<path d="M21.1902 267.604L23.3813 268.873V266.336L21.1902 265.068V267.604Z" fill="#0077FF"/>
<path d="M40.8174 273.71L42.9946 274.979V272.442L40.8174 271.174V273.71Z" fill="#0077FF"/>
<path d="M35.1438 275.416L37.335 276.684V274.147L35.1438 272.893V275.416Z" fill="#0077FF"/>
<path d="M31.1228 273.087L33.314 274.355V271.819L31.1228 270.551V273.087Z" fill="#0077FF"/>
<path d="M26.1728 265.208L28.3501 266.477V263.94L26.1728 262.672V265.208Z" fill="#0077FF"/>
<path d="M13.5942 257.905L15.7715 259.174V256.651L13.5942 255.383V257.905Z" fill="#0077FF"/>
<path d="M36.2549 271.062L38.4321 272.316V269.793L36.2549 268.525V271.062Z" fill="#0077FF"/>
<g filter="url(#filter17_f_39_98771)">
<path d="M49.9426 279.007L52.1338 280.275V277.739L49.9426 276.47V279.007Z" fill="#0077FF"/>
<path d="M45.3801 276.583L47.5713 277.852V275.315L45.3801 274.047V276.583Z" fill="#0077FF"/>
<path d="M40.5266 278.673L42.7178 279.941V277.405L40.5266 276.136V278.673Z" fill="#0077FF"/>
<path d="M44.5481 281L46.7393 282.268V279.731L44.5481 278.477V281Z" fill="#0077FF"/>
<path d="M21.1902 267.604L23.3813 268.873V266.336L21.1902 265.068V267.604Z" fill="#0077FF"/>
<path d="M40.8174 273.71L42.9946 274.979V272.442L40.8174 271.174V273.71Z" fill="#0077FF"/>
<path d="M35.1438 275.416L37.335 276.684V274.147L35.1438 272.893V275.416Z" fill="#0077FF"/>
<path d="M31.1228 273.087L33.314 274.355V271.819L31.1228 270.551V273.087Z" fill="#0077FF"/>
<path d="M26.1728 265.208L28.3501 266.477V263.94L26.1728 262.672V265.208Z" fill="#0077FF"/>
<path d="M13.5942 257.905L15.7715 259.174V256.651L13.5942 255.383V257.905Z" fill="#0077FF"/>
<path d="M36.2549 271.062L38.4321 272.316V269.793L36.2549 268.525V271.062Z" fill="#0077FF"/>
</g>
<path opacity="0.4" fill-rule="evenodd" clip-rule="evenodd" d="M56.1065 228.665C45.3166 235.576 38.3695 247.144 45.2494 251.919C53.5157 255.888 73.5556 251.88 85.5257 245.651C80.9823 242.069 78.8138 236.912 79.1832 232.327C70.9168 232.463 62.3147 231.286 56.1065 228.665ZM54.9987 239.737L53.8857 240.38L59.6189 243.33L57.9733 244.28L51.9378 240.795L50.3402 241.717L62.9149 248.977L64.5125 248.055L63.8024 247.645L72.6637 242.529L71.2771 236.82L61.5475 235.956L60.6744 236.46L69.2526 237.768L67.511 238.773L59.5613 237.103L58.5058 237.712L65.9038 239.701L64.5173 240.501L57.3256 238.394L56.1933 239.047L62.7565 241.551L61.1877 242.457L54.9987 239.737Z" fill="url(#paint14_linear_39_98771)"/>
<path d="M310.148 269.428L310.15 269.429C311.838 270.403 312.487 271.562 312.488 272.544C312.489 273.525 311.844 274.684 310.163 275.657L310.16 275.659L264.002 302.633C264.002 302.634 264.001 302.634 264 302.634C262.315 303.612 260.059 304.125 257.755 304.125C255.451 304.125 253.194 303.611 251.509 302.633L251.069 303.391L251.509 302.633L205.111 275.714C203.421 274.733 202.773 273.573 202.773 272.592C202.773 271.611 203.421 270.451 205.111 269.47L205.114 269.469L251.258 242.508C251.258 242.508 251.258 242.508 251.259 242.507C252.944 241.53 255.201 241.017 257.504 241.017C259.808 241.017 262.066 241.53 263.751 242.508L264.19 241.751L263.751 242.508L310.148 269.428Z" stroke="#0077FF" stroke-width="1.75077"/>
<g filter="url(#filter18_f_39_98771)">
<path d="M310.148 269.428L310.15 269.429C311.838 270.403 312.487 271.562 312.488 272.544C312.489 273.525 311.844 274.684 310.163 275.657L310.16 275.659L264.002 302.633C264.002 302.634 264.001 302.634 264 302.634C262.315 303.612 260.059 304.125 257.755 304.125C255.451 304.125 253.194 303.611 251.509 302.633L251.069 303.391L251.509 302.633L205.111 275.714C203.421 274.733 202.773 273.573 202.773 272.592C202.773 271.611 203.421 270.451 205.111 269.47L205.114 269.469L251.258 242.508C251.258 242.508 251.258 242.508 251.259 242.507C252.944 241.53 255.201 241.017 257.504 241.017C259.808 241.017 262.066 241.53 263.751 242.508L264.19 241.751L263.751 242.508L310.148 269.428Z" stroke="#0077FF" stroke-width="1.75077"/>
</g>
<path opacity="0.4" d="M255.255 255.115L224.269 237.129C223.008 236.405 223.174 235.124 224.615 234.275L254.881 216.706C256.336 215.857 258.538 215.774 259.799 216.498L290.771 234.47C292.032 235.194 291.866 236.474 290.425 237.324L260.159 254.906C258.704 255.755 256.516 255.839 255.255 255.115Z" fill="#1F204A"/>
<path d="M217.666 255.424C218.237 255.753 218.654 256.136 218.916 256.572C219.179 257.005 219.31 257.47 219.31 257.966C219.31 258.19 219.281 258.387 219.222 258.559C219.164 258.728 219.068 258.853 218.935 258.935C218.803 259.017 218.628 259.042 218.408 259.008C218.188 258.972 217.916 258.861 217.593 258.675L217.191 258.442L217.191 260.26L216.252 259.718L216.252 254.608L217.666 255.424ZM217.618 256.284L217.191 256.037L217.191 257.554L217.5 257.733C217.675 257.834 217.827 257.895 217.957 257.916C218.086 257.937 218.186 257.911 218.256 257.837C218.327 257.764 218.362 257.637 218.362 257.458C218.362 257.206 218.302 256.985 218.181 256.794C218.06 256.6 217.872 256.43 217.618 256.284ZM224.163 261.721C224.163 262.115 224.121 262.449 224.036 262.724C223.951 262.997 223.822 263.2 223.649 263.332C223.477 263.467 223.259 263.52 222.995 263.493C222.73 263.464 222.417 263.346 222.056 263.137C221.695 262.929 221.382 262.686 221.118 262.41C220.853 262.132 220.634 261.826 220.461 261.493C220.289 261.161 220.161 260.808 220.076 260.436C219.991 260.063 219.949 259.678 219.949 259.282C219.949 258.753 220.024 258.336 220.173 258.031C220.324 257.724 220.556 257.553 220.869 257.517C221.182 257.48 221.58 257.602 222.062 257.88C222.543 258.157 222.937 258.493 223.246 258.888C223.557 259.284 223.787 259.722 223.936 260.202C224.088 260.683 224.163 261.19 224.163 261.721ZM220.933 259.857C220.933 260.213 220.971 260.543 221.048 260.846C221.127 261.148 221.249 261.416 221.414 261.652C221.58 261.885 221.794 262.077 222.056 262.228C222.323 262.382 222.539 262.438 222.704 262.396C222.87 262.352 222.99 262.223 223.064 262.01C223.141 261.795 223.179 261.51 223.179 261.153C223.179 260.617 223.093 260.145 222.919 259.738C222.745 259.33 222.46 259.011 222.062 258.782C221.798 258.629 221.582 258.574 221.414 258.618C221.249 258.66 221.127 258.787 221.048 259C220.971 259.213 220.933 259.498 220.933 259.857ZM228.635 261.753L227.264 264.576C227.141 264.831 227.009 265.036 226.87 265.191C226.731 265.344 226.554 265.421 226.34 265.424C226.126 265.424 225.846 265.324 225.499 265.123C225.39 265.061 225.272 264.983 225.144 264.891C225.017 264.801 224.899 264.708 224.79 264.61L224.79 263.68C224.891 263.782 225 263.878 225.117 263.967C225.236 264.054 225.348 264.128 225.453 264.188C225.59 264.268 225.701 264.305 225.786 264.3C225.871 264.295 225.939 264.262 225.989 264.2C226.04 264.139 226.082 264.062 226.116 263.97L224.584 259.415L225.577 259.988L226.404 262.678C226.422 262.735 226.445 262.811 226.474 262.907C226.504 263.001 226.533 263.097 226.561 263.195C226.592 263.292 226.615 263.375 226.631 263.445L226.664 263.464C226.68 263.416 226.702 263.358 226.728 263.291C226.756 263.224 226.785 263.156 226.816 263.087C226.846 263.016 226.873 262.952 226.897 262.896L227.666 261.194L228.635 261.753ZM230.9 268.17L229.961 267.629L229.961 263.42L228.759 262.726L228.759 261.825L232.102 263.753L232.102 264.655L230.9 263.961L230.9 268.17ZM235.333 270.728L232.783 269.257L232.783 264.146L235.333 265.617L235.333 266.505L233.722 265.576L233.722 266.698L235.221 267.562L235.221 268.45L233.722 267.586L233.722 268.903L235.333 269.833L235.333 270.728ZM237.673 266.968C238.244 267.297 238.661 267.68 238.923 268.115C239.186 268.549 239.317 269.014 239.317 269.51C239.317 269.734 239.288 269.931 239.229 270.103C239.171 270.272 239.075 270.397 238.942 270.478C238.81 270.561 238.635 270.586 238.415 270.552C238.195 270.516 237.923 270.405 237.6 270.218L237.198 269.986L237.198 271.804L236.259 271.262L236.259 266.152L237.673 266.968ZM237.624 267.827L237.198 267.581L237.198 269.098L237.506 269.276C237.682 269.378 237.834 269.439 237.964 269.46C238.093 269.481 238.193 269.454 238.263 269.381C238.334 269.308 238.369 269.181 238.369 269.002C238.369 268.75 238.309 268.529 238.188 268.338C238.067 268.144 237.879 267.974 237.624 267.827Z" fill="white"/>
<path d="M313.169 258.336L313.156 236.146L285.258 239.891L264.369 227.765C260.699 225.635 254.77 225.635 251.099 227.765L247.844 229.84L202.549 235.909V258.35C202.549 258.364 202.549 258.378 202.549 258.392V258.503H202.563C202.618 259.854 203.518 261.204 205.291 262.234L251.349 288.949C255.019 291.079 260.948 291.079 264.619 288.949L310.427 262.178C312.2 261.148 313.1 259.812 313.156 258.461H313.183V258.336H313.169Z" fill="url(#paint15_linear_39_98771)"/>
<path d="M310.412 232.137L264.369 205.422C260.698 203.292 254.77 203.292 251.099 205.422L205.305 232.179C201.634 234.309 201.634 237.747 205.305 239.877L251.348 266.592C255.019 268.722 260.948 268.722 264.618 266.592L310.426 239.821C314.083 237.705 314.083 234.253 310.412 232.137Z" fill="url(#paint16_radial_39_98771)"/>
<path d="M310.391 238.447L310.391 238.447C311.922 237.56 312.798 236.441 313.058 235.287L313.144 235.288C313.481 236.928 312.592 238.614 310.449 239.859L310.391 238.447ZM310.391 238.447L264.597 265.217L310.391 238.447ZM264.641 266.629L310.449 239.859L264.597 265.217C262.77 266.277 260.378 266.809 257.984 266.809C255.59 266.809 253.198 266.277 251.371 265.217L205.328 238.502L205.328 238.502C203.797 237.615 202.921 236.497 202.675 235.357L202.59 235.357C202.238 236.997 203.141 238.684 205.284 239.928L205.284 239.928L251.327 266.629C253.171 267.699 255.579 268.233 257.984 268.233C260.39 268.233 262.798 267.699 264.641 266.629L264.641 266.629Z" fill="white" stroke="white" stroke-width="0.0875384"/>
<path d="M270.811 272.523L268.622 273.789V271.256L270.811 269.989V272.523Z" fill="#0077FF"/>
<path d="M275.368 269.877L273.18 271.144V268.611L275.368 267.344V269.877Z" fill="#0077FF"/>
<path d="M279.925 267.233L277.75 268.5V265.966L279.925 264.699V267.233Z" fill="#0077FF"/>
<path d="M276.199 274.514L274.01 275.781V273.247L276.199 271.994V274.514Z" fill="#0077FF"/>
<path d="M280.216 272.188L278.028 273.455V270.921L280.216 269.654V272.188Z" fill="#0077FF"/>
<path d="M294.553 258.742L292.378 260.009V257.475L294.553 256.208V258.742Z" fill="#0077FF"/>
<path d="M307.117 251.446L304.942 252.713V250.194L307.117 248.927V251.446Z" fill="#0077FF"/>
<path d="M284.482 264.587L282.308 265.84V263.321L284.482 262.054V264.587Z" fill="#0077FF"/>
<g filter="url(#filter19_f_39_98771)">
<path d="M270.811 272.523L268.622 273.789V271.256L270.811 269.989V272.523Z" fill="#0077FF"/>
<path d="M275.368 269.877L273.18 271.144V268.611L275.368 267.344V269.877Z" fill="#0077FF"/>
<path d="M279.925 267.233L277.75 268.5V265.966L279.925 264.699V267.233Z" fill="#0077FF"/>
<path d="M276.199 274.514L274.01 275.781V273.247L276.199 271.994V274.514Z" fill="#0077FF"/>
<path d="M280.216 272.188L278.028 273.455V270.921L280.216 269.654V272.188Z" fill="#0077FF"/>
<path d="M294.553 258.742L292.378 260.009V257.475L294.553 256.208V258.742Z" fill="#0077FF"/>
<path d="M307.117 251.446L304.942 252.713V250.194L307.117 248.927V251.446Z" fill="#0077FF"/>
<path d="M284.482 264.587L282.308 265.84V263.321L284.482 262.054V264.587Z" fill="#0077FF"/>
</g>
<path d="M210.876 248.823C210.7 248.721 210.544 248.671 210.407 248.672C210.272 248.672 210.159 248.719 210.066 248.814C209.975 248.91 209.905 249.05 209.858 249.233C209.81 249.416 209.786 249.638 209.786 249.901C209.786 250.256 209.824 250.58 209.899 250.875C209.977 251.169 210.095 251.428 210.256 251.653C210.416 251.876 210.623 252.06 210.876 252.207C211.052 252.308 211.229 252.387 211.405 252.443C211.583 252.5 211.776 252.546 211.984 252.582L211.984 253.473C211.792 253.454 211.603 253.41 211.417 253.341C211.231 253.275 211.022 253.175 210.79 253.041C210.343 252.783 209.975 252.465 209.685 252.085C209.398 251.705 209.186 251.283 209.047 250.819C208.908 250.352 208.839 249.862 208.839 249.348C208.839 248.968 208.884 248.647 208.973 248.383C209.062 248.119 209.193 247.921 209.365 247.789C209.537 247.658 209.75 247.603 210.003 247.623C210.257 247.644 210.548 247.749 210.876 247.938C211.092 248.063 211.308 248.219 211.524 248.408C211.741 248.595 211.949 248.801 212.147 249.025L211.85 249.717C211.688 249.534 211.525 249.363 211.36 249.201C211.196 249.04 211.035 248.914 210.876 248.823ZM216.444 251.223L216.444 254.466C216.444 254.811 216.378 255.085 216.245 255.287C216.115 255.489 215.916 255.593 215.648 255.601C215.383 255.61 215.049 255.499 214.645 255.265C214.071 254.934 213.633 254.513 213.332 254.001C213.031 253.489 212.881 252.954 212.881 252.396L212.881 249.167L213.798 249.696L213.798 252.765C213.798 253.178 213.872 253.511 214.018 253.762C214.165 254.014 214.381 254.222 214.668 254.388C214.87 254.504 215.034 254.559 215.158 254.551C215.285 254.544 215.378 254.474 215.438 254.341C215.497 254.209 215.527 254.013 215.527 253.755L215.527 250.693L216.444 251.223ZM220.07 256.935C220.07 257.233 220.008 257.455 219.883 257.602C219.758 257.75 219.576 257.814 219.337 257.794C219.099 257.776 218.81 257.669 218.469 257.472C218.319 257.386 218.172 257.289 218.027 257.183C217.884 257.078 217.747 256.965 217.614 256.845C217.484 256.724 217.359 256.596 217.24 256.461L217.24 255.474C217.446 255.698 217.66 255.916 217.882 256.129C218.103 256.341 218.323 256.51 218.541 256.636C218.691 256.723 218.812 256.769 218.903 256.776C218.996 256.784 219.063 256.76 219.105 256.704C219.147 256.648 219.167 256.569 219.167 256.466C219.167 256.34 219.131 256.212 219.057 256.08C218.984 255.949 218.883 255.807 218.755 255.655C218.628 255.504 218.484 255.338 218.324 255.156C218.223 255.043 218.113 254.914 217.994 254.767C217.876 254.619 217.763 254.457 217.656 254.281C217.549 254.105 217.461 253.916 217.392 253.713C217.324 253.51 217.291 253.294 217.291 253.065C217.291 252.766 217.35 252.544 217.469 252.4C217.588 252.256 217.757 252.192 217.977 252.206C218.198 252.22 218.46 252.314 218.761 252.487C218.986 252.618 219.201 252.772 219.405 252.952C219.611 253.13 219.826 253.341 220.049 253.584L219.752 254.239C219.552 254.03 219.373 253.855 219.215 253.713C219.056 253.569 218.895 253.45 218.731 253.355C218.616 253.288 218.518 253.254 218.437 253.25C218.356 253.245 218.294 253.269 218.253 253.322C218.211 253.374 218.19 253.45 218.19 253.55C218.19 253.669 218.22 253.787 218.279 253.903C218.341 254.019 218.432 254.149 218.553 254.294C218.675 254.44 218.828 254.616 219.01 254.822C219.232 255.071 219.421 255.307 219.577 255.53C219.736 255.752 219.857 255.976 219.942 256.203C220.028 256.429 220.07 256.673 220.07 256.935ZM222.532 259.748L221.611 259.217L221.611 255.089L220.432 254.409L220.432 253.524L223.711 255.416L223.711 256.3L222.532 255.62L222.532 259.748ZM228.32 260.574C228.32 260.96 228.278 261.288 228.195 261.558C228.112 261.826 227.985 262.024 227.815 262.155C227.646 262.286 227.433 262.339 227.173 262.313C226.914 262.284 226.607 262.168 226.253 261.963C225.898 261.759 225.592 261.521 225.332 261.25C225.073 260.977 224.858 260.677 224.688 260.351C224.52 260.025 224.394 259.679 224.311 259.314C224.228 258.948 224.186 258.571 224.186 258.182C224.186 257.663 224.259 257.254 224.406 256.955C224.554 256.654 224.782 256.486 225.089 256.451C225.396 256.415 225.786 256.534 226.259 256.807C226.73 257.079 227.117 257.408 227.42 257.796C227.725 258.184 227.95 258.614 228.097 259.085C228.245 259.557 228.32 260.053 228.32 260.574ZM225.151 258.746C225.151 259.096 225.189 259.419 225.264 259.716C225.341 260.012 225.461 260.276 225.623 260.506C225.786 260.735 225.995 260.923 226.253 261.072C226.514 261.223 226.726 261.277 226.888 261.236C227.051 261.193 227.168 261.066 227.242 260.857C227.317 260.647 227.354 260.367 227.354 260.017C227.354 259.492 227.269 259.029 227.099 258.629C226.929 258.229 226.649 257.916 226.259 257.691C225.999 257.542 225.788 257.488 225.623 257.53C225.461 257.572 225.341 257.697 225.264 257.906C225.189 258.114 225.151 258.394 225.151 258.746ZM231.058 264.667L230.012 260.131L229.986 260.116C229.989 260.212 229.995 260.357 230.003 260.551C230.013 260.745 230.022 260.95 230.03 261.167C230.038 261.384 230.042 261.578 230.042 261.75L230.042 264.081L229.219 263.606L229.219 258.594L230.473 259.317L231.5 263.743L231.518 263.753L232.608 260.549L233.861 261.272L233.861 266.284L233.003 265.789L233.003 263.417C233.003 263.259 233.005 263.079 233.009 262.875C233.014 262.673 233.021 262.481 233.029 262.301C233.037 262.118 233.043 261.981 233.047 261.889L233.02 261.874L231.901 265.154L231.058 264.667ZM237.457 268.359L234.957 266.917L234.957 261.904L237.457 263.347L237.457 264.218L235.877 263.306L235.877 264.407L237.347 265.255L237.347 266.126L235.877 265.278L235.877 266.57L237.457 267.482L237.457 268.359ZM239.631 264.601C240.025 264.829 240.349 265.071 240.605 265.328C240.862 265.586 241.053 265.862 241.178 266.156C241.303 266.449 241.365 266.765 241.365 267.104C241.365 267.332 241.327 267.51 241.252 267.638C241.177 267.766 241.078 267.854 240.955 267.903C240.832 267.951 240.7 267.971 240.557 267.964L241.834 270.885L240.813 270.296L239.776 267.774L239.286 267.492L239.286 269.415L238.366 268.884L238.366 263.871L239.631 264.601ZM239.565 265.434L239.286 265.273L239.286 266.628L239.583 266.799C239.888 266.975 240.106 267.042 240.237 267.001C240.369 266.959 240.435 266.823 240.435 266.595C240.435 266.357 240.364 266.147 240.222 265.964C240.081 265.782 239.862 265.606 239.565 265.434ZM243.058 266.579L242.936 268.319L242.351 267.981L242.229 266.101L243.058 266.579ZM246.565 272.223C246.565 272.52 246.502 272.742 246.378 272.889C246.253 273.037 246.071 273.101 245.831 273.082C245.594 273.063 245.305 272.956 244.964 272.76C244.814 272.673 244.666 272.576 244.522 272.47C244.379 272.365 244.241 272.252 244.109 272.132C243.978 272.011 243.853 271.883 243.735 271.748L243.735 270.761C243.941 270.985 244.154 271.203 244.376 271.416C244.598 271.628 244.818 271.797 245.035 271.923C245.186 272.01 245.307 272.057 245.398 272.063C245.491 272.071 245.558 272.047 245.6 271.991C245.641 271.935 245.662 271.856 245.662 271.753C245.662 271.627 245.625 271.499 245.552 271.367C245.479 271.236 245.378 271.094 245.249 270.942C245.122 270.792 244.979 270.625 244.819 270.444C244.718 270.331 244.608 270.201 244.489 270.055C244.37 269.906 244.257 269.744 244.15 269.568C244.044 269.392 243.955 269.203 243.886 269.001C243.819 268.797 243.785 268.581 243.785 268.353C243.785 268.053 243.845 267.831 243.963 267.687C244.082 267.543 244.251 267.479 244.471 267.494C244.693 267.507 244.954 267.601 245.255 267.775C245.481 267.905 245.696 268.06 245.899 268.239C246.105 268.417 246.32 268.628 246.544 268.871L246.247 269.526C246.047 269.317 245.868 269.142 245.709 269C245.551 268.856 245.39 268.737 245.225 268.642C245.111 268.576 245.013 268.541 244.931 268.537C244.85 268.532 244.789 268.556 244.747 268.609C244.706 268.661 244.685 268.737 244.685 268.837C244.685 268.956 244.715 269.074 244.774 269.191C244.835 269.306 244.926 269.436 245.047 269.581C245.17 269.728 245.322 269.904 245.505 270.109C245.726 270.358 245.915 270.594 246.072 270.817C246.23 271.039 246.352 271.263 246.437 271.491C246.522 271.716 246.565 271.96 246.565 272.223ZM216.717 265.393L215.547 264.718L213.659 259.836L213.632 259.821C213.64 259.983 213.647 260.146 213.653 260.309C213.659 260.473 213.665 260.636 213.671 260.8C213.677 260.961 213.683 261.123 213.688 261.286L213.688 263.645L212.866 263.171L212.866 258.158L214.027 258.828L215.913 263.67L215.933 263.682C215.93 263.525 215.925 263.367 215.919 263.211C215.913 263.054 215.907 262.898 215.901 262.741C215.897 262.586 215.893 262.43 215.889 262.275L215.889 259.902L216.717 260.38L216.717 265.393ZM220.314 267.468L217.813 266.025L217.813 261.013L220.314 262.455L220.314 263.326L218.734 262.415L218.734 263.515L220.204 264.363L220.204 265.234L218.734 264.386L218.734 265.679L220.314 266.59L220.314 267.468ZM222.897 268.959L221.977 268.427L221.977 264.3L220.798 263.619L220.798 262.735L224.076 264.626L224.076 265.511L222.897 264.831L222.897 268.959ZM230.078 268.089L228.973 272.464L227.925 271.859L227.337 268.887C227.325 268.83 227.309 268.744 227.289 268.63C227.269 268.516 227.249 268.392 227.227 268.258C227.205 268.122 227.185 267.995 227.167 267.877C227.152 267.759 227.141 267.665 227.135 267.598C227.129 267.659 227.117 267.737 227.099 267.835C227.083 267.933 227.064 268.036 227.043 268.145C227.023 268.255 227.003 268.356 226.983 268.45C226.963 268.544 226.948 268.615 226.936 268.663L226.351 270.951L225.305 270.348L224.198 264.697L225.104 265.219L225.659 268.276C225.675 268.367 225.692 268.475 225.712 268.601C225.734 268.728 225.755 268.86 225.775 268.997C225.796 269.133 225.815 269.264 225.831 269.39C225.849 269.514 225.862 269.621 225.87 269.71C225.88 269.629 225.892 269.536 225.908 269.431C225.924 269.323 225.941 269.215 225.959 269.107C225.979 268.997 225.998 268.897 226.018 268.805C226.038 268.714 226.056 268.641 226.072 268.586L226.704 266.143L227.574 266.645L228.207 269.818C228.221 269.887 228.236 269.98 228.254 270.095C228.274 270.21 228.294 270.333 228.314 270.466C228.333 270.598 228.351 270.727 228.367 270.853C228.385 270.978 228.398 271.084 228.406 271.174C228.42 271.067 228.438 270.94 228.462 270.791C228.488 270.642 228.515 270.494 228.542 270.347C228.572 270.202 228.598 270.081 228.62 269.984L229.172 267.567L230.078 268.089ZM234.565 273.178C234.565 273.564 234.523 273.892 234.44 274.162C234.357 274.429 234.23 274.628 234.06 274.758C233.892 274.89 233.678 274.942 233.418 274.916C233.159 274.888 232.852 274.771 232.498 274.567C232.143 274.362 231.837 274.124 231.577 273.854C231.318 273.581 231.103 273.281 230.933 272.954C230.765 272.628 230.639 272.283 230.556 271.917C230.473 271.551 230.431 271.174 230.431 270.786C230.431 270.267 230.504 269.858 230.651 269.558C230.799 269.258 231.027 269.089 231.334 269.054C231.641 269.018 232.031 269.137 232.504 269.41C232.975 269.682 233.362 270.012 233.665 270.399C233.97 270.787 234.195 271.217 234.342 271.688C234.49 272.16 234.565 272.656 234.565 273.178ZM231.396 271.349C231.396 271.699 231.434 272.022 231.509 272.32C231.586 272.615 231.706 272.879 231.868 273.11C232.031 273.338 232.24 273.527 232.498 273.675C232.759 273.826 232.971 273.881 233.133 273.84C233.296 273.796 233.413 273.67 233.487 273.461C233.562 273.25 233.599 272.97 233.599 272.621C233.599 272.095 233.514 271.632 233.344 271.232C233.174 270.832 232.894 270.52 232.504 270.295C232.244 270.145 232.033 270.091 231.868 270.134C231.706 270.175 231.586 270.3 231.509 270.509C231.434 270.717 231.396 270.997 231.396 271.349ZM236.729 271.927C237.123 272.155 237.448 272.397 237.703 272.654C237.961 272.912 238.152 273.188 238.277 273.482C238.401 273.775 238.464 274.091 238.464 274.43C238.464 274.658 238.426 274.836 238.351 274.964C238.276 275.092 238.177 275.18 238.054 275.228C237.931 275.277 237.798 275.297 237.656 275.29L238.933 278.211L237.911 277.622L236.875 275.1L236.385 274.818L236.385 276.741L235.464 276.21L235.464 271.197L236.729 271.927ZM236.664 272.76L236.385 272.599L236.385 273.954L236.682 274.125C236.987 274.301 237.205 274.368 237.335 274.327C237.468 274.285 237.534 274.149 237.534 273.921C237.534 273.683 237.463 273.473 237.32 273.29C237.18 273.108 236.961 272.932 236.664 272.76ZM242.971 280.541L241.926 279.938L240.789 277.17L240.4 277.268L240.4 279.057L239.479 278.526L239.479 273.514L240.4 274.045L240.4 276.339C240.461 276.276 240.522 276.212 240.581 276.148C240.64 276.084 240.701 276.021 240.762 275.958L241.938 274.933L242.96 275.522L241.445 276.866L242.971 280.541Z" fill="white"/>
<path opacity="0.4" d="M255.187 255.115L224.201 237.129C222.94 236.405 223.107 235.124 224.547 234.275L254.813 216.706C256.268 215.857 258.47 215.774 259.731 216.498L290.703 234.47C291.964 235.194 291.798 236.474 290.357 237.324L260.091 254.906C258.637 255.755 256.448 255.839 255.187 255.115Z" fill="#1F204A"/>
<path d="M313.102 216.736L313.088 194.546L285.191 198.29L264.302 186.165C260.631 184.035 254.703 184.035 251.032 186.165L247.777 188.239L202.481 194.309V216.75C202.481 216.764 202.481 216.778 202.481 216.792V216.903H202.495C202.551 218.253 203.451 219.604 205.224 220.634L251.281 247.348C254.952 249.478 260.881 249.478 264.551 247.348L310.359 220.578C312.132 219.548 313.033 218.211 313.088 216.861H313.116V216.736H313.102Z" fill="url(#paint17_linear_39_98771)"/>
<path d="M310.345 190.312L264.302 163.597C260.631 161.468 254.703 161.468 251.032 163.597L205.238 190.354C201.567 192.484 201.567 195.922 205.238 198.052L251.281 224.767C254.952 226.897 260.881 226.897 264.551 224.767L310.359 197.997C314.016 195.881 314.016 192.428 310.345 190.312Z" fill="url(#paint18_radial_39_98771)"/>
<path d="M310.323 196.622L310.324 196.622C311.854 195.735 312.73 194.616 312.99 193.462L313.076 193.463C313.413 195.102 312.524 196.789 310.381 198.034L310.323 196.622ZM310.323 196.622L264.529 223.392L310.323 196.622ZM264.574 224.804L310.381 198.034L264.529 223.392C262.702 224.452 260.311 224.983 257.916 224.983C255.522 224.983 253.131 224.452 251.303 223.392L205.26 196.677L205.26 196.677C203.729 195.79 202.853 194.672 202.607 193.532L202.522 193.532C202.17 195.172 203.073 196.859 205.216 198.103L205.216 198.103L251.259 224.804C253.103 225.874 255.511 226.407 257.916 226.407C260.322 226.407 262.73 225.874 264.573 224.804L264.574 224.804Z" fill="white" stroke="white" stroke-width="0.0875384"/>
<path d="M270.743 230.696L268.555 231.963V229.429L270.743 228.162V230.696Z" fill="#0077FF"/>
<path d="M275.301 228.05L273.112 229.317V226.783L275.301 225.517V228.05Z" fill="#0077FF"/>
<path d="M279.858 225.405L277.683 226.672V224.138L279.858 222.872V225.405Z" fill="#0077FF"/>
<path d="M276.132 232.687L273.944 233.954V231.42L276.132 230.167V232.687Z" fill="#0077FF"/>
<path d="M280.149 230.361L277.96 231.628V229.094L280.149 227.828V230.361Z" fill="#0077FF"/>
<path d="M294.486 216.915L292.311 218.182V215.648L294.486 214.381V216.915Z" fill="#0077FF"/>
<path d="M307.049 209.619L304.874 210.886V208.366L307.049 207.099V209.619Z" fill="#0077FF"/>
<path d="M284.415 222.76L282.24 224.013V221.493L284.415 220.227V222.76Z" fill="#0077FF"/>
<g filter="url(#filter20_f_39_98771)">
<path d="M270.743 230.696L268.555 231.963V229.429L270.743 228.162V230.696Z" fill="#0077FF"/>
<path d="M275.301 228.05L273.112 229.317V226.783L275.301 225.516V228.05Z" fill="#0077FF"/>
<path d="M279.858 225.405L277.683 226.672V224.138L279.858 222.872V225.405Z" fill="#0077FF"/>
<path d="M276.132 232.687L273.944 233.954V231.42L276.132 230.167V232.687Z" fill="#0077FF"/>
<path d="M280.149 230.361L277.96 231.628V229.094L280.149 227.828V230.361Z" fill="#0077FF"/>
<path d="M294.486 216.915L292.311 218.182V215.648L294.486 214.381V216.915Z" fill="#0077FF"/>
<path d="M307.049 209.619L304.874 210.886V208.366L307.049 207.099V209.619Z" fill="#0077FF"/>
<path d="M284.415 222.76L282.24 224.013V221.493L284.415 220.227V222.76Z" fill="#0077FF"/>
</g>
<path d="M245.206 230.925L247.395 232.192V229.659L245.206 228.392V230.925Z" fill="#0077FF"/>
<path d="M240.649 228.505L242.837 229.772V227.238L240.649 225.971V228.505Z" fill="#0077FF"/>
<path d="M235.801 230.591L237.99 231.858V229.324L235.801 228.057V230.591Z" fill="#0077FF"/>
<path d="M239.818 232.917L242.006 234.184V231.65L239.818 230.397V232.917Z" fill="#0077FF"/>
<path d="M216.488 219.537L218.676 220.803V218.27L216.488 217.003V219.537Z" fill="#0077FF"/>
<path d="M236.092 225.635L238.267 226.902V224.368L236.092 223.102V225.635Z" fill="#0077FF"/>
<path d="M230.426 227.337L232.614 228.604V226.071L230.426 224.818V227.337Z" fill="#0077FF"/>
<path d="M226.408 225.011L228.597 226.278V223.745L226.408 222.478V225.011Z" fill="#0077FF"/>
<path d="M221.464 217.145L223.639 218.412V215.878L221.464 214.611V217.145Z" fill="#0077FF"/>
<path d="M208.9 209.849L211.075 211.115V208.596L208.9 207.329V209.849Z" fill="#0077FF"/>
<path d="M231.534 222.99L233.709 224.243V221.724L231.534 220.457V222.99Z" fill="#0077FF"/>
<g filter="url(#filter21_f_39_98771)">
<path d="M245.206 230.925L247.395 232.192V229.659L245.206 228.392V230.925Z" fill="#0077FF"/>
<path d="M240.649 228.505L242.837 229.772V227.238L240.649 225.971V228.505Z" fill="#0077FF"/>
<path d="M235.801 230.591L237.99 231.858V229.324L235.801 228.057V230.591Z" fill="#0077FF"/>
<path d="M239.818 232.917L242.006 234.184V231.65L239.818 230.397V232.917Z" fill="#0077FF"/>
<path d="M216.488 219.537L218.676 220.803V218.27L216.488 217.003V219.537Z" fill="#0077FF"/>
<path d="M236.092 225.635L238.267 226.902V224.368L236.092 223.102V225.635Z" fill="#0077FF"/>
<path d="M230.426 227.337L232.614 228.604V226.071L230.426 224.818V227.337Z" fill="#0077FF"/>
<path d="M226.408 225.011L228.597 226.278V223.745L226.408 222.478V225.011Z" fill="#0077FF"/>
<path d="M221.464 217.145L223.639 218.412V215.878L221.464 214.611V217.145Z" fill="#0077FF"/>
<path d="M208.9 209.849L211.075 211.115V208.596L208.9 207.329V209.849Z" fill="#0077FF"/>
<path d="M231.534 222.99L233.709 224.243V221.724L231.534 220.457V222.99Z" fill="#0077FF"/>
</g>
<path opacity="0.4" d="M271.203 186.036C263.787 181.754 251.77 181.754 244.354 186.036C236.938 190.317 236.938 197.256 244.354 201.537C251.77 205.819 263.787 205.819 271.203 201.537C278.619 197.256 278.619 190.317 271.203 186.036ZM266.006 189.036C268.605 190.536 268.605 193.036 266.006 194.537C263.354 196.068 259.077 196.037 256.479 194.537C253.827 193.005 253.827 190.567 256.479 189.036C259.077 187.536 263.354 187.505 266.006 189.036ZM247.385 199.787C244.191 197.943 242.73 195.474 243.109 193.068C246.032 192.568 249.388 192.943 251.716 194.287C251.824 194.349 251.878 194.443 251.986 194.568C252.473 195.099 253.069 195.568 253.881 196.037C254.639 196.474 255.505 196.849 256.371 197.099C256.587 197.162 256.75 197.193 256.912 197.287C259.186 198.599 259.835 200.537 258.969 202.225C254.801 202.444 250.525 201.6 247.385 199.787Z" fill="url(#paint19_linear_39_98771)"/>
<defs>
<filter id="filter0_f_39_98771" x="85.3249" y="117.557" width="134.35" height="195.886" filterUnits="userSpaceOnUse" color-interpolation-filters="sRGB">
<feFlood flood-opacity="0" result="BackgroundImageFix"/>
<feBlend mode="normal" in="SourceGraphic" in2="BackgroundImageFix" result="shape"/>
<feGaussianBlur stdDeviation="4.00259" result="effect1_foregroundBlur_39_98771"/>
</filter>
<filter id="filter1_f_39_98771" x="84.9899" y="327.194" width="357.02" height="19.6232" filterUnits="userSpaceOnUse" color-interpolation-filters="sRGB">
<feFlood flood-opacity="0" result="BackgroundImageFix"/>
<feBlend mode="normal" in="SourceGraphic" in2="BackgroundImageFix" result="shape"/>
<feGaussianBlur stdDeviation="4.00259" result="effect1_foregroundBlur_39_98771"/>
</filter>
<filter id="filter2_f_39_98771" x="263.404" y="118.454" width="179.191" height="194.091" filterUnits="userSpaceOnUse" color-interpolation-filters="sRGB">
<feFlood flood-opacity="0" result="BackgroundImageFix"/>
<feBlend mode="normal" in="SourceGraphic" in2="BackgroundImageFix" result="shape"/>
<feGaussianBlur stdDeviation="4.00259" result="effect1_foregroundBlur_39_98771"/>
</filter>
<filter id="filter3_f_39_98771" x="277.802" y="281.218" width="137.396" height="47.5646" filterUnits="userSpaceOnUse" color-interpolation-filters="sRGB">
<feFlood flood-opacity="0" result="BackgroundImageFix"/>
<feBlend mode="normal" in="SourceGraphic" in2="BackgroundImageFix" result="shape"/>
<feGaussianBlur stdDeviation="4.00259" result="effect1_foregroundBlur_39_98771"/>
</filter>
<filter id="filter4_f_39_98771" x="234.2" y="133.899" width="29.6002" height="116.201" filterUnits="userSpaceOnUse" color-interpolation-filters="sRGB">
<feFlood flood-opacity="0" result="BackgroundImageFix"/>
<feBlend mode="normal" in="SourceGraphic" in2="BackgroundImageFix" result="shape"/>
<feGaussianBlur stdDeviation="4.00259" result="effect1_foregroundBlur_39_98771"/>
</filter>
<filter id="filter5_f_39_98771" x="107.781" y="280.223" width="128.437" height="48.5533" filterUnits="userSpaceOnUse" color-interpolation-filters="sRGB">
<feFlood flood-opacity="0" result="BackgroundImageFix"/>
<feBlend mode="normal" in="SourceGraphic" in2="BackgroundImageFix" result="shape"/>
<feGaussianBlur stdDeviation="4.00259" result="effect1_foregroundBlur_39_98771"/>
</filter>
<filter id="filter6_f_39_98771" x="180.597" y="72.3056" width="123.137" height="76.5304" filterUnits="userSpaceOnUse" color-interpolation-filters="sRGB">
<feFlood flood-opacity="0" result="BackgroundImageFix"/>
<feBlend mode="normal" in="SourceGraphic" in2="BackgroundImageFix" result="shape"/>
<feGaussianBlur stdDeviation="2.91793" result="effect1_foregroundBlur_39_98771"/>
</filter>
<filter id="filter7_f_39_98771" x="251.406" y="84.5891" width="43.1628" height="31.5211" filterUnits="userSpaceOnUse" color-interpolation-filters="sRGB">
<feFlood flood-opacity="0" result="BackgroundImageFix"/>
<feBlend mode="normal" in="SourceGraphic" in2="BackgroundImageFix" result="shape"/>
<feGaussianBlur stdDeviation="1.16717" result="effect1_foregroundBlur_39_98771"/>
</filter>
<filter id="filter8_f_39_98771" x="251.339" y="42.7631" width="43.1628" height="31.5211" filterUnits="userSpaceOnUse" color-interpolation-filters="sRGB">
<feFlood flood-opacity="0" result="BackgroundImageFix"/>
<feBlend mode="normal" in="SourceGraphic" in2="BackgroundImageFix" result="shape"/>
<feGaussianBlur stdDeviation="1.16717" result="effect1_foregroundBlur_39_98771"/>
</filter>
<filter id="filter9_f_39_98771" x="191.685" y="42.9951" width="43.1628" height="31.5229" filterUnits="userSpaceOnUse" color-interpolation-filters="sRGB">
<feFlood flood-opacity="0" result="BackgroundImageFix"/>
<feBlend mode="normal" in="SourceGraphic" in2="BackgroundImageFix" result="shape"/>
<feGaussianBlur stdDeviation="1.16717" result="effect1_foregroundBlur_39_98771"/>
</filter>
<filter id="filter10_f_39_98771" x="400.295" y="282.306" width="123.137" height="76.5304" filterUnits="userSpaceOnUse" color-interpolation-filters="sRGB">
<feFlood flood-opacity="0" result="BackgroundImageFix"/>
<feBlend mode="normal" in="SourceGraphic" in2="BackgroundImageFix" result="shape"/>
<feGaussianBlur stdDeviation="2.91793" result="effect1_foregroundBlur_39_98771"/>
</filter>
<filter id="filter11_f_39_98771" x="471.104" y="294.59" width="43.1628" height="31.521" filterUnits="userSpaceOnUse" color-interpolation-filters="sRGB">
<feFlood flood-opacity="0" result="BackgroundImageFix"/>
<feBlend mode="normal" in="SourceGraphic" in2="BackgroundImageFix" result="shape"/>
<feGaussianBlur stdDeviation="1.16717" result="effect1_foregroundBlur_39_98771"/>
</filter>
<filter id="filter12_f_39_98771" x="471.037" y="252.764" width="43.1628" height="31.521" filterUnits="userSpaceOnUse" color-interpolation-filters="sRGB">
<feFlood flood-opacity="0" result="BackgroundImageFix"/>
<feBlend mode="normal" in="SourceGraphic" in2="BackgroundImageFix" result="shape"/>
<feGaussianBlur stdDeviation="1.16717" result="effect1_foregroundBlur_39_98771"/>
</filter>
<filter id="filter13_f_39_98771" x="411.383" y="252.995" width="43.1623" height="31.5224" filterUnits="userSpaceOnUse" color-interpolation-filters="sRGB">
<feFlood flood-opacity="0" result="BackgroundImageFix"/>
<feBlend mode="normal" in="SourceGraphic" in2="BackgroundImageFix" result="shape"/>
<feGaussianBlur stdDeviation="1.16717" result="effect1_foregroundBlur_39_98771"/>
</filter>
<filter id="filter14_f_39_98771" x="0.15729" y="282.39" width="123.281" height="76.6202" filterUnits="userSpaceOnUse" color-interpolation-filters="sRGB">
<feFlood flood-opacity="0" result="BackgroundImageFix"/>
<feBlend mode="normal" in="SourceGraphic" in2="BackgroundImageFix" result="shape"/>
<feGaussianBlur stdDeviation="2.92136" result="effect1_foregroundBlur_39_98771"/>
</filter>
<filter id="filter15_f_39_98771" x="71.0496" y="294.689" width="43.2137" height="31.558" filterUnits="userSpaceOnUse" color-interpolation-filters="sRGB">
<feFlood flood-opacity="0" result="BackgroundImageFix"/>
<feBlend mode="normal" in="SourceGraphic" in2="BackgroundImageFix" result="shape"/>
<feGaussianBlur stdDeviation="1.16854" result="effect1_foregroundBlur_39_98771"/>
</filter>
<filter id="filter16_f_39_98771" x="70.9823" y="252.814" width="43.2132" height="31.558" filterUnits="userSpaceOnUse" color-interpolation-filters="sRGB">
<feFlood flood-opacity="0" result="BackgroundImageFix"/>
<feBlend mode="normal" in="SourceGraphic" in2="BackgroundImageFix" result="shape"/>
<feGaussianBlur stdDeviation="1.16854" result="effect1_foregroundBlur_39_98771"/>
</filter>
<filter id="filter17_f_39_98771" x="11.2572" y="253.045" width="43.2137" height="31.5597" filterUnits="userSpaceOnUse" color-interpolation-filters="sRGB">
<feFlood flood-opacity="0" result="BackgroundImageFix"/>
<feBlend mode="normal" in="SourceGraphic" in2="BackgroundImageFix" result="shape"/>
<feGaussianBlur stdDeviation="1.16854" result="effect1_foregroundBlur_39_98771"/>
</filter>
<filter id="filter18_f_39_98771" x="196.062" y="234.305" width="123.137" height="76.5307" filterUnits="userSpaceOnUse" color-interpolation-filters="sRGB">
<feFlood flood-opacity="0" result="BackgroundImageFix"/>
<feBlend mode="normal" in="SourceGraphic" in2="BackgroundImageFix" result="shape"/>
<feGaussianBlur stdDeviation="2.91795" result="effect1_foregroundBlur_39_98771"/>
</filter>
<filter id="filter19_f_39_98771" x="266.288" y="246.592" width="43.1633" height="31.523" filterUnits="userSpaceOnUse" color-interpolation-filters="sRGB">
<feFlood flood-opacity="0" result="BackgroundImageFix"/>
<feBlend mode="normal" in="SourceGraphic" in2="BackgroundImageFix" result="shape"/>
<feGaussianBlur stdDeviation="1.16718" result="effect1_foregroundBlur_39_98771"/>
</filter>
<filter id="filter20_f_39_98771" x="266.22" y="204.765" width="43.1629" height="31.5237" filterUnits="userSpaceOnUse" color-interpolation-filters="sRGB">
<feFlood flood-opacity="0" result="BackgroundImageFix"/>
<feBlend mode="normal" in="SourceGraphic" in2="BackgroundImageFix" result="shape"/>
<feGaussianBlur stdDeviation="1.16718" result="effect1_foregroundBlur_39_98771"/>
</filter>
<filter id="filter21_f_39_98771" x="206.566" y="204.995" width="43.1633" height="31.5239" filterUnits="userSpaceOnUse" color-interpolation-filters="sRGB">
<feFlood flood-opacity="0" result="BackgroundImageFix"/>
<feBlend mode="normal" in="SourceGraphic" in2="BackgroundImageFix" result="shape"/>
<feGaussianBlur stdDeviation="1.16718" result="effect1_foregroundBlur_39_98771"/>
</filter>
<linearGradient id="paint0_linear_39_98771" x1="181.022" y1="96.3592" x2="259.02" y2="96.3592" gradientUnits="userSpaceOnUse">
<stop stop-color="#0077FF"/>
<stop offset="1" stop-color="#171D7B"/>
</linearGradient>
<radialGradient id="paint1_radial_39_98771" cx="0" cy="0" r="1" gradientUnits="userSpaceOnUse" gradientTransform="translate(167.191 37.5787) scale(174.186 175.058)">
<stop stop-color="#0077FF"/>
<stop offset="1" stop-color="#171D7B"/>
</radialGradient>
<linearGradient id="paint2_linear_39_98771" x1="180.954" y1="54.7593" x2="258.953" y2="54.7593" gradientUnits="userSpaceOnUse">
<stop stop-color="#0077FF"/>
<stop offset="1" stop-color="#171D7B"/>
</linearGradient>
<radialGradient id="paint3_radial_39_98771" cx="0" cy="0" r="1" gradientUnits="userSpaceOnUse" gradientTransform="translate(167.124 -4.24662) scale(174.186 175.058)">
<stop stop-color="#0096FF"/>
<stop offset="0.0001" stop-color="#0077FF"/>
<stop offset="1" stop-color="#171D7B"/>
</radialGradient>
<linearGradient id="paint4_linear_39_98771" x1="297.794" y1="32.1381" x2="215.728" y2="79.5194" gradientUnits="userSpaceOnUse">
<stop stop-color="white"/>
<stop offset="1" stop-color="white" stop-opacity="0.1"/>
</linearGradient>
<linearGradient id="paint5_linear_39_98771" x1="400.72" y1="306.359" x2="478.718" y2="306.359" gradientUnits="userSpaceOnUse">
<stop stop-color="#0077FF"/>
<stop offset="1" stop-color="#171D7B"/>
</linearGradient>
<radialGradient id="paint6_radial_39_98771" cx="0" cy="0" r="1" gradientUnits="userSpaceOnUse" gradientTransform="translate(386.889 247.579) scale(174.186 175.058)">
<stop stop-color="#0077FF"/>
<stop offset="1" stop-color="#171D7B"/>
</radialGradient>
<linearGradient id="paint7_linear_39_98771" x1="400.652" y1="264.76" x2="478.651" y2="264.76" gradientUnits="userSpaceOnUse">
<stop stop-color="#0077FF"/>
<stop offset="1" stop-color="#171D7B"/>
</linearGradient>
<radialGradient id="paint8_radial_39_98771" cx="0" cy="0" r="1" gradientUnits="userSpaceOnUse" gradientTransform="translate(386.821 205.753) scale(174.186 175.058)">
<stop stop-color="#0096FF"/>
<stop offset="0.0001" stop-color="#0077FF"/>
<stop offset="1" stop-color="#171D7B"/>
</radialGradient>
<linearGradient id="paint9_linear_39_98771" x1="517.492" y1="242.138" x2="435.425" y2="289.519" gradientUnits="userSpaceOnUse">
<stop stop-color="white"/>
<stop offset="1" stop-color="white" stop-opacity="0.1"/>
</linearGradient>
<linearGradient id="paint10_linear_39_98771" x1="0.582605" y1="306.473" x2="78.6724" y2="306.473" gradientUnits="userSpaceOnUse">
<stop stop-color="#0077FF"/>
<stop offset="1" stop-color="#171D7B"/>
</linearGradient>
<radialGradient id="paint11_radial_39_98771" cx="0" cy="0" r="1" gradientUnits="userSpaceOnUse" gradientTransform="translate(-13.264 247.623) scale(174.391 175.263)">
<stop stop-color="#0077FF"/>
<stop offset="1" stop-color="#171D7B"/>
</radialGradient>
<linearGradient id="paint12_linear_39_98771" x1="0.514732" y1="264.823" x2="78.6046" y2="264.823" gradientUnits="userSpaceOnUse">
<stop stop-color="#0077FF"/>
<stop offset="1" stop-color="#171D7B"/>
</linearGradient>
<radialGradient id="paint13_radial_39_98771" cx="0" cy="0" r="1" gradientUnits="userSpaceOnUse" gradientTransform="translate(-13.3324 205.748) scale(174.391 175.263)">
<stop stop-color="#0096FF"/>
<stop offset="0.0001" stop-color="#0077FF"/>
<stop offset="1" stop-color="#171D7B"/>
</radialGradient>
<linearGradient id="paint14_linear_39_98771" x1="117.492" y1="242.176" x2="35.3286" y2="289.613" gradientUnits="userSpaceOnUse">
<stop stop-color="white"/>
<stop offset="1" stop-color="white" stop-opacity="0.1"/>
</linearGradient>
<linearGradient id="paint15_linear_39_98771" x1="195.903" y1="258.359" x2="273.902" y2="258.359" gradientUnits="userSpaceOnUse">
<stop stop-color="#0077FF"/>
<stop offset="1" stop-color="#171D7B"/>
</linearGradient>
<radialGradient id="paint16_radial_39_98771" cx="0" cy="0" r="1" gradientUnits="userSpaceOnUse" gradientTransform="translate(182.071 199.579) scale(174.187 175.059)">
<stop stop-color="#0077FF"/>
<stop offset="1" stop-color="#171D7B"/>
</radialGradient>
<linearGradient id="paint17_linear_39_98771" x1="195.835" y1="216.759" x2="273.834" y2="216.759" gradientUnits="userSpaceOnUse">
<stop stop-color="#0077FF"/>
<stop offset="1" stop-color="#171D7B"/>
</linearGradient>
<radialGradient id="paint18_radial_39_98771" cx="0" cy="0" r="1" gradientUnits="userSpaceOnUse" gradientTransform="translate(182.005 157.753) scale(174.187 175.059)">
<stop stop-color="#0096FF"/>
<stop offset="0.0001" stop-color="#0077FF"/>
<stop offset="1" stop-color="#171D7B"/>
</radialGradient>
<linearGradient id="paint19_linear_39_98771" x1="310.154" y1="193.905" x2="230.056" y2="240.149" gradientUnits="userSpaceOnUse">
<stop stop-color="white"/>
<stop offset="1" stop-color="white" stop-opacity="0.1"/>
</linearGradient>
</defs>
</svg>
