<svg version="1.2" xmlns="http://www.w3.org/2000/svg" viewBox="0 0 514 360" width="524" height="360">
	<title>t4-svg</title>
	<defs>
		<linearGradient id="g1" x1="96.5" y1="294.5" x2="205" y2="127" gradientUnits="userSpaceOnUse">
			<stop offset="0" stop-color="#03ff00"/>
			<stop offset=".41" stop-color="#0077ff"/>
		</linearGradient>
		<filter x="-50%" y="-50%" width="200%" height="200%" id="f1"> <feGaussianBlur stdDeviation="4"/> </filter>
		<filter x="-50%" y="-50%" width="200%" height="200%" id="f2"> <feGaussianBlur stdDeviation="2.9"/> </filter>
		<linearGradient id="g2" x1="176" y1="96.4" x2="254" y2="96.4" gradientUnits="userSpaceOnUse">
			<stop offset="0" stop-color="#0077ff"/>
			<stop offset="1" stop-color="#171d7b"/>
		</linearGradient>
		<radialGradient id="g3" cx="162.2" cy="37.6" r="174.2" gradientUnits="userSpaceOnUse">
			<stop offset="0" stop-color="#0077ff"/>
			<stop offset="1" stop-color="#171d7b"/>
		</radialGradient>
		<filter x="-50%" y="-50%" width="200%" height="200%" id="f3"> <feGaussianBlur stdDeviation="1.2"/> </filter>
		<linearGradient id="g4" x1="176" y1="54.8" x2="254" y2="54.8" gradientUnits="userSpaceOnUse">
			<stop offset="0" stop-color="#0077ff"/>
			<stop offset="1" stop-color="#171d7b"/>
		</linearGradient>
		<radialGradient id="g5" cx="162.1" cy="-4.2" r="174.2" gradientUnits="userSpaceOnUse">
			<stop offset="0" stop-color="#0077ff"/>
			<stop offset="1" stop-color="#171d7b"/>
		</radialGradient>
		<linearGradient id="g6" x1="292.8" y1="32.1" x2="210.7" y2="79.5" gradientUnits="userSpaceOnUse">
			<stop offset="0" stop-color="#ffffff" stop-opacity="1"/>
			<stop offset="1" stop-color="#ffffff" stop-opacity=".1"/>
		</linearGradient>
		<linearGradient id="g7" x1="395.7" y1="306.4" x2="473.7" y2="306.4" gradientUnits="userSpaceOnUse">
			<stop offset="0" stop-color="#adadad"/>
			<stop offset="1" stop-color="#565656"/>
		</linearGradient>
		<radialGradient id="g8" cx="381.9" cy="247.6" r="174.2" gradientUnits="userSpaceOnUse">
			<stop offset="0" stop-color="#adadad"/>
			<stop offset="1" stop-color="#565656"/>
		</radialGradient>
		<linearGradient id="g9" x1="395.7" y1="264.8" x2="473.7" y2="264.8" gradientUnits="userSpaceOnUse">
			<stop offset="0" stop-color="#adadad"/>
			<stop offset="1" stop-color="#565656"/>
		</linearGradient>
		<radialGradient id="g10" cx="381.8" cy="205.8" r="174.2" gradientUnits="userSpaceOnUse">
			<stop offset="0" stop-color="#adadad"/>
			<stop offset="1" stop-color="#565656"/>
		</radialGradient>
		<linearGradient id="g11" x1="512.5" y1="242.1" x2="430.4" y2="289.5" gradientUnits="userSpaceOnUse">
			<stop offset="0" stop-color="#ffffff" stop-opacity="1"/>
			<stop offset="1" stop-color="#ffffff" stop-opacity=".1"/>
		</linearGradient>
		<linearGradient id="g12" x1="-4.4" y1="306.5" x2="73.7" y2="306.5" gradientUnits="userSpaceOnUse">
			<stop offset="0" stop-color="#05c305"/>
			<stop offset="1" stop-color="#099617"/>
		</linearGradient>
		<radialGradient id="g13" cx="-18.3" cy="247.6" r="174.4" gradientUnits="userSpaceOnUse">
			<stop offset="0" stop-color="#06bc08"/>
			<stop offset="1" stop-color="#08a213"/>
		</radialGradient>
		<linearGradient id="g14" x1="-4.5" y1="264.8" x2="73.6" y2="264.8" gradientUnits="userSpaceOnUse">
			<stop offset="0" stop-color="#06bc08"/>
			<stop offset="1" stop-color="#08a212"/>
		</linearGradient>
		<radialGradient id="g15" cx="-18.3" cy="205.7" r="174.4" gradientUnits="userSpaceOnUse">
			<stop offset="0" stop-color="#06bc08"/>
			<stop offset="1" stop-color="#08a312"/>
		</radialGradient>
		<linearGradient id="g16" x1="112.5" y1="242.2" x2="30.3" y2="289.6" gradientUnits="userSpaceOnUse">
			<stop offset="0" stop-color="#ffffff" stop-opacity="1"/>
			<stop offset="1" stop-color="#ffffff" stop-opacity=".1"/>
		</linearGradient>
		<linearGradient id="g17" x1="216.9" y1="217.5" x2="188.6" y2="271.8" gradientUnits="userSpaceOnUse">
			<stop offset=".609" stop-color="#0077ff"/>
			<stop offset="1" stop-color="#03ff00"/>
		</linearGradient>
		<linearGradient id="g18" x1="222" y1="288.5" x2="280.5" y2="251" gradientUnits="userSpaceOnUse">
			<stop offset="0" stop-color="#03ff00"/>
			<stop offset=".764" stop-color="#0077ff"/>
		</linearGradient>
		<linearGradient id="g19" x1="190.9" y1="258.4" x2="268.9" y2="258.4" gradientUnits="userSpaceOnUse">
			<stop offset="0" stop-color="#0077ff"/>
			<stop offset="1" stop-color="#171d7b"/>
		</linearGradient>
		<radialGradient id="g20" cx="177.1" cy="199.6" r="174.2" gradientUnits="userSpaceOnUse">
			<stop offset="0" stop-color="#0077ff"/>
			<stop offset="1" stop-color="#171d7b"/>
		</radialGradient>
		<linearGradient id="g21" x1="190.8" y1="216.8" x2="268.8" y2="216.8" gradientUnits="userSpaceOnUse">
			<stop offset="0" stop-color="#0077ff"/>
			<stop offset="1" stop-color="#171d7b"/>
		</linearGradient>
		<radialGradient id="g22" cx="177" cy="157.8" r="174.2" gradientUnits="userSpaceOnUse">
			<stop offset="0" stop-color="#0077ff"/>
			<stop offset="1" stop-color="#171d7b"/>
		</radialGradient>
		<linearGradient id="g23" x1="305.2" y1="193.9" x2="225.1" y2="240.1" gradientUnits="userSpaceOnUse">
			<stop offset="0" stop-color="#ffffff" stop-opacity="1"/>
			<stop offset="1" stop-color="#ffffff" stop-opacity=".1"/>
		</linearGradient>
	</defs>
	<style>
		.s0 { fill: none;stroke: url(#g1);stroke-width: 1.6 } 
		.s1 { filter: url(#f1);fill: none;stroke: #0077ff;stroke-width: 1.6 } 
		.s2 { fill: none;stroke: #707070;stroke-linecap: round;stroke-width: 1.6;stroke-dasharray: 3.2 } 
		.s3 { fill: none;stroke: #707070;stroke-width: 1.6;stroke-dasharray: 3.20208 } 
		.s4 { fill: none;stroke: #0077ff;stroke-width: 1.6 } 
		.s5 { fill: none;stroke: #03ff00;stroke-width: 1.6 } 
		.s6 { filter: url(#f1);fill: none;stroke: #03ff00;stroke-width: 1.6 } 
		.s7 { fill: none;stroke: #0077ff;stroke-width: 1.8 } 
		.s8 { filter: url(#f2);fill: none;stroke: #0077ff;stroke-width: 1.8 } 
		.s9 { fill: url(#g2) } 
		.s10 { fill: url(#g3) } 
		.s11 { fill: #ffffff;stroke: #ffffff;stroke-width: .4 } 
		.s12 { fill: #0077ff } 
		.s13 { filter: url(#f3);fill: #0077ff } 
		.s14 { fill: #ffffff } 
		.s15 { opacity: .4;fill: #1f204a } 
		.s16 { fill: url(#g4) } 
		.s17 { fill: url(#g5) } 
		.s18 { opacity: .4;fill: url(#g6) } 
		.s19 { fill: none;stroke: #707070;stroke-width: 1.8 } 
		.s20 { fill: url(#g7) } 
		.s21 { fill: url(#g8) } 
		.s22 { opacity: .4;fill: #232329 } 
		.s23 { fill: url(#g9) } 
		.s24 { fill: url(#g10) } 
		.s25 { opacity: .4;fill: url(#g11) } 
		.s26 { opacity: .7;fill: #f03737 } 
		.s27 { fill: none;stroke: #ffffff;stroke-width: 3.7 } 
		.s28 { fill: none;stroke: #03ff00;stroke-width: 1.8 } 
		.s29 { filter: url(#f2);fill: none;stroke: #03ff00;stroke-width: 1.8 } 
		.s30 { fill: url(#g12) } 
		.s31 { fill: url(#g13) } 
		.s32 { fill: #03ff00 } 
		.s33 { filter: url(#f3);fill: #03ff00 } 
		.s34 { fill: url(#g14) } 
		.s35 { fill: url(#g15) } 
		.s36 { opacity: .4;fill: url(#g16) } 
		.s37 { fill: none;stroke: url(#g17);stroke-width: 1.8 } 
		.s38 { filter: url(#f2);fill: none;stroke: url(#g18);stroke-width: 1.8 } 
		.s39 { fill: url(#g19) } 
		.s40 { fill: url(#g20) } 
		.s41 { fill: url(#g21) } 
		.s42 { fill: url(#g22) } 
		.s43 { opacity: .4;fill: url(#g23) } 
	</style>
	<path id="Layer" class="s0" d="m89 305l117-179"/>
	<g id="Layer">
		<path id="Layer" class="s1" d="m89 305l117-179"/>
	</g>
	<path id="Layer" class="s2" d="m88 336l341 2"/>
	<path id="Layer" class="s3" d="m267 127l162 177"/>
	<path id="Layer" class="s3" d="m281 290l121 30"/>
	<path id="Layer" class="s4" d="m250 242l-12-100"/>
	<g id="Layer">
		<path id="Layer" class="s1" d="m250 242l-12-100"/>
	</g>
	<path id="Layer" class="s5" d="m111 320l112-31"/>
	<g id="Layer">
		<path id="Layer" class="s6" d="m111 320l112-31"/>
	</g>
	<path id="Layer" class="s7" d="m289.7 107.4c1.7 1 2.3 2.2 2.3 3.1 0 1-0.6 2.2-2.3 3.2l-46.2 26.9q0 0 0 0c-1.6 1-3.9 1.5-6.2 1.5-2.3 0-4.6-0.5-6.3-1.5l-0.4 0.8 0.4-0.8-46.4-26.9c-1.6-1-2.3-2.1-2.3-3.1 0-1 0.7-2.1 2.3-3.1l46.2-27q0 0 0 0c1.7-1 3.9-1.5 6.2-1.5 2.3 0 4.6 0.5 6.3 1.5l0.4-0.7-0.4 0.7z"/>
	<g id="Layer">
		<path id="Layer" class="s8" d="m289.7 107.4c1.7 1 2.3 2.2 2.3 3.1 0 1-0.6 2.2-2.3 3.2l-46.2 26.9q0 0 0 0c-1.6 1-3.9 1.5-6.2 1.5-2.3 0-4.6-0.5-6.3-1.5l-0.4 0.8 0.4-0.8-46.4-26.9c-1.6-1-2.3-2.1-2.3-3.1 0-1 0.7-2.1 2.3-3.1l46.2-27q0 0 0 0c1.7-1 3.9-1.5 6.2-1.5 2.3 0 4.6 0.5 6.3 1.5l0.4-0.7-0.4 0.7z"/>
	</g>
	<path id="Layer" class="s9" d="m293.3 96.3v-22.2l-27.9 3.8-20.9-12.1c-3.7-2.2-9.6-2.2-13.3 0l-3.2 2-45.3 6.1v22.4q0 0.1 0 0.1v0.1c0 1.4 0.9 2.7 2.7 3.7l46.1 26.7c3.6 2.2 9.6 2.2 13.2 0l45.8-26.7c1.8-1.1 2.7-2.4 2.8-3.7v-0.2z"/>
	<path id="Layer" class="s10" d="m290.5 70.1l-46-26.7c-3.7-2.1-9.6-2.1-13.3 0l-45.8 26.8c-3.6 2.1-3.6 5.5 0 7.7l46.1 26.7c3.6 2.1 9.6 2.1 13.2 0l45.8-26.8c3.7-2.1 3.7-5.5 0-7.7z"/>
	<path id="Layer" fill-rule="evenodd" class="s11" d="m290.6 77.9c2.1-1.3 3-3 2.7-4.6h-0.1c-0.3 1.1-1.2 2.3-2.7 3.1zm-45.8 26.8l45.8-26.8-45.8 25.4c-1.9 1.1-4.3 1.6-6.7 1.6-2.3 0-4.7-0.5-6.6-1.6l-46-26.7c-1.5-0.9-2.4-2-2.7-3.2h-0.1c-0.3 1.7 0.6 3.4 2.7 4.6l46.1 26.7c1.8 1.1 4.2 1.6 6.6 1.6 2.4 0 4.9-0.5 6.7-1.6zm45.8-28.2l-45.8 26.8z"/>
	<path id="Layer" class="s12" d="m250.9 110.5l-2.2 1.3v-2.5l2.2-1.3z"/>
	<path id="Layer" class="s12" d="m255.5 107.9l-2.2 1.2v-2.5l2.2-1.3z"/>
	<path id="Layer" class="s12" d="m260 105.2l-2.1 1.3v-2.5l2.1-1.3z"/>
	<path id="Layer" class="s12" d="m256.3 112.5l-2.2 1.3v-2.6l2.2-1.2z"/>
	<path id="Layer" class="s12" d="m260.3 110.2l-2.2 1.3v-2.6l2.2-1.2z"/>
	<path id="Layer" class="s12" d="m274.7 96.7l-2.2 1.3v-2.5l2.2-1.3z"/>
	<path id="Layer" class="s12" d="m287.2 89.4l-2.1 1.3v-2.5l2.1-1.3z"/>
	<path id="Layer" class="s12" d="m264.6 102.6l-2.2 1.2v-2.5l2.2-1.2z"/>
	<g id="Layer">
		<path id="Layer" class="s13" d="m250.9 110.5l-2.2 1.3v-2.5l2.2-1.3z"/>
		<path id="Layer" class="s13" d="m255.5 107.9l-2.2 1.2v-2.5l2.2-1.3z"/>
		<path id="Layer" class="s13" d="m260 105.2l-2.1 1.3v-2.5l2.1-1.3z"/>
		<path id="Layer" class="s13" d="m256.3 112.5l-2.2 1.3v-2.6l2.2-1.2z"/>
		<path id="Layer" class="s13" d="m260.3 110.2l-2.2 1.3v-2.6l2.2-1.2z"/>
		<path id="Layer" class="s13" d="m274.7 96.7l-2.2 1.3v-2.5l2.2-1.3z"/>
		<path id="Layer" class="s13" d="m287.2 89.4l-2.1 1.3v-2.5l2.1-1.3z"/>
		<path id="Layer" class="s13" d="m264.6 102.6l-2.2 1.2v-2.5l2.2-1.2z"/>
	</g>
	<path id="Layer" fill-rule="evenodd" class="s14" d="m205.2 95.7q0 0.9-0.3 1.3-0.3 0.4-0.8 0.4-0.5 0-1.3-0.5l-1.2-0.7v-5l1.4 0.8q0.6 0.4 1.1 1 0.5 0.5 0.8 1.2 0.3 0.7 0.3 1.5zm-1-0.5q0-0.5-0.1-1-0.1-0.4-0.4-0.7-0.3-0.4-0.7-0.6l-0.5-0.3v3.3l0.4 0.2q0.7 0.4 1 0.2 0.3-0.3 0.3-1.1zm5.5 3.2q0 0.8-0.3 1.2-0.2 0.4-0.8 0.4-0.5 0-1.3-0.5l-1.2-0.7v-5l1.4 0.8q0.7 0.4 1.2 1 0.5 0.5 0.7 1.2 0.3 0.7 0.3 1.6zm-0.9-0.6q0-0.5-0.2-1-0.1-0.4-0.4-0.7-0.3-0.4-0.7-0.6l-0.5-0.3v3.3l0.4 0.2q0.7 0.4 1 0.2 0.4-0.2 0.4-1.1zm3.5 1.8l1.7 1v2.6q-0.3-0.1-0.7-0.2-0.4-0.2-0.8-0.4-0.7-0.4-1.1-1-0.5-0.5-0.7-1.2-0.3-0.7-0.3-1.6 0-0.8 0.3-1.2 0.3-0.4 0.8-0.5 0.5 0 1.2 0.4 0.3 0.2 0.7 0.5 0.3 0.3 0.6 0.6l-0.3 0.7q-0.2-0.3-0.5-0.5-0.2-0.2-0.5-0.4-0.4-0.2-0.7-0.2-0.3 0.1-0.5 0.4-0.1 0.3-0.1 0.8 0 0.5 0.1 0.9 0.1 0.5 0.4 0.8 0.2 0.4 0.6 0.6 0.2 0.1 0.3 0.2 0.2 0 0.3 0.1v-1.1l-0.8-0.4zm-15.5 2.9l-1.2-0.7-1.9-4.9q0 0.2 0 0.5 0 0.2 0 0.4 0 0.3 0.1 0.5v2.4l-0.9-0.5v-5l1.2 0.7 1.9 4.8q0-0.2 0-0.4 0-0.3 0-0.5 0-0.2 0-0.5v-2.4l0.8 0.5zm3.6 2.1l-2.5-1.4v-5.1l2.5 1.5v0.8l-1.6-0.9v1.1l1.5 0.9v0.9l-1.5-0.9v1.3l1.6 0.9zm2.6 1.5l-0.9-0.5v-4.2l-1.2-0.6v-0.9l3.3 1.9v0.9l-1.2-0.7zm7.2-0.9l-1.1 4.4-1.1-0.6-0.5-3q-0.1-0.1-0.1-0.3 0-0.1-0.1-0.3 0-0.2 0-0.4 0-0.2 0-0.3-0.1 0.1-0.1 0.2 0 0.2 0 0.4-0.1 0.1-0.1 0.3 0 0.1 0 0.2l-0.6 2.3-1.1-0.6-1.1-5.7 0.9 0.5 0.6 3.1q0 0.1 0 0.3 0.1 0.2 0.1 0.4 0 0.2 0 0.4 0.1 0.2 0.1 0.3 0-0.1 0-0.2 0-0.2 0.1-0.4 0-0.1 0-0.3 0.1-0.1 0.1-0.2l0.6-2.4 0.9 0.5 0.6 3.1q0 0.1 0.1 0.3 0 0.2 0 0.4 0.1 0.2 0.1 0.4 0 0.2 0 0.3 0-0.2 0.1-0.4 0-0.2 0.1-0.4 0-0.2 0-0.4l0.6-2.4zm4.5 5.1q0 0.6-0.1 1-0.1 0.4-0.4 0.6-0.3 0.2-0.6 0.1-0.4 0-1-0.3-0.5-0.3-0.9-0.7-0.4-0.4-0.6-0.9-0.3-0.5-0.4-1.1-0.1-0.5-0.1-1.1 0-0.8 0.2-1.2 0.2-0.5 0.7-0.6 0.4 0 1.1 0.4 0.7 0.4 1.2 1 0.5 0.6 0.7 1.3 0.2 0.7 0.2 1.5zm-3.2-1.8q0 0.5 0.1 0.9 0.1 0.5 0.4 0.8 0.2 0.4 0.6 0.6 0.4 0.2 0.7 0.2 0.2-0.1 0.3-0.4 0.1-0.3 0.1-0.9 0-0.8-0.2-1.4-0.3-0.6-0.9-0.9-0.4-0.2-0.6-0.2-0.3 0.1-0.4 0.4-0.1 0.3-0.1 0.9zm5.4 0.5q0.6 0.4 1 0.8 0.3 0.3 0.5 0.8 0.2 0.4 0.2 0.9 0 0.4-0.1 0.6-0.1 0.2-0.3 0.2-0.2 0.1-0.4 0.1l1.3 2.9-1-0.6-1.1-2.5-0.5-0.3v2l-0.9-0.6v-5zm-0.1 0.8l-0.2-0.1v1.3l0.3 0.2q0.4 0.3 0.6 0.2 0.2-0.1 0.2-0.4 0-0.4-0.2-0.6-0.2-0.3-0.7-0.6zm6.4 7.8l-1.1-0.6-1.1-2.7-0.4 0.1v1.8l-0.9-0.6v-5l0.9 0.5v2.3q0.1-0.1 0.2-0.2 0.1-0.1 0.2-0.2l1.1-1 1.1 0.6-1.6 1.4z"/>
	<path id="Layer" class="s15" d="m235.3 93.1l-31-18c-1.2-0.7-1.1-2 0.4-2.8l30.2-17.6c1.5-0.8 3.7-0.9 4.9-0.2l31 18c1.3 0.7 1.1 2-0.3 2.8l-30.3 17.6c-1.4 0.9-3.6 0.9-4.9 0.2z"/>
	<path id="Layer" class="s16" d="m293.2 54.7v-22.2l-27.9 3.8-20.9-12.1c-3.6-2.2-9.6-2.2-13.2 0l-3.3 2-45.3 6.1v22.5q0 0 0 0v0.1c0.1 1.4 1 2.7 2.7 3.7l46.1 26.7c3.7 2.2 9.6 2.2 13.3 0l45.8-26.7c1.8-1.1 2.7-2.4 2.7-3.7v-0.2z"/>
	<path id="Layer" class="s17" d="m290.5 28.3l-46.1-26.7c-3.6-2.1-9.6-2.1-13.2 0l-45.8 26.8c-3.7 2.1-3.7 5.5 0 7.7l46 26.7c3.7 2.1 9.6 2.1 13.3 0l45.8-26.8c3.6-2.1 3.6-5.6 0-7.7z"/>
	<path id="Layer" fill-rule="evenodd" class="s11" d="m290.5 36c2.1-1.2 3-2.9 2.7-4.5h-0.1c-0.3 1.1-1.1 2.2-2.7 3.1zm-45.8 26.8l45.8-26.8-45.8 25.4c-1.8 1-4.2 1.6-6.6 1.6-2.4 0-4.8-0.6-6.6-1.6l-46.1-26.7c-1.5-0.9-2.4-2-2.6-3.2h-0.1c-0.4 1.7 0.5 3.3 2.7 4.6l46 26.7c1.9 1.1 4.3 1.6 6.7 1.6 2.4 0 4.8-0.5 6.6-1.6zm45.8-28.2l-45.8 26.8z"/>
	<path id="Layer" class="s12" d="m250.9 68.7l-2.2 1.3v-2.6l2.2-1.2z"/>
	<path id="Layer" class="s12" d="m255.4 66l-2.2 1.3v-2.5l2.2-1.3z"/>
	<path id="Layer" class="s12" d="m260 63.4l-2.2 1.3v-2.6l2.2-1.2z"/>
	<path id="Layer" class="s12" d="m256.3 70.7l-2.2 1.2v-2.5l2.2-1.2z"/>
	<path id="Layer" class="s12" d="m260.3 68.4l-2.2 1.2v-2.5l2.2-1.3z"/>
	<path id="Layer" class="s12" d="m274.6 54.9l-2.2 1.3v-2.6l2.2-1.2z"/>
	<path id="Layer" class="s12" d="m287.2 47.6l-2.2 1.3v-2.5l2.2-1.3z"/>
	<path id="Layer" class="s12" d="m264.5 60.8l-2.1 1.2v-2.5l2.1-1.3z"/>
	<g id="Layer">
		<path id="Layer" class="s13" d="m250.9 68.7l-2.2 1.3v-2.6l2.2-1.2z"/>
		<path id="Layer" class="s13" d="m255.4 66l-2.2 1.3v-2.5l2.2-1.3z"/>
		<path id="Layer" class="s13" d="m260 63.4l-2.2 1.3v-2.6l2.2-1.2z"/>
		<path id="Layer" class="s13" d="m256.3 70.7l-2.2 1.2v-2.5l2.2-1.2z"/>
		<path id="Layer" class="s13" d="m260.3 68.4l-2.2 1.2v-2.5l2.2-1.3z"/>
		<path id="Layer" class="s13" d="m274.6 54.9l-2.2 1.3v-2.6l2.2-1.2z"/>
		<path id="Layer" class="s13" d="m287.2 47.6l-2.2 1.3v-2.5l2.2-1.3z"/>
		<path id="Layer" class="s13" d="m264.5 60.8l-2.1 1.2v-2.5l2.1-1.3z"/>
	</g>
	<path id="Layer" class="s12" d="m225.3 68.9l2.2 1.3v-2.5l-2.2-1.3z"/>
	<path id="Layer" class="s12" d="m220.8 66.5l2.2 1.3v-2.6l-2.2-1.2z"/>
	<path id="Layer" class="s12" d="m215.9 68.6l2.2 1.3v-2.6l-2.2-1.2z"/>
	<path id="Layer" class="s12" d="m219.9 70.9l2.2 1.3v-2.5l-2.2-1.3z"/>
	<path id="Layer" class="s12" d="m196.6 57.5l2.2 1.3v-2.5l-2.2-1.3z"/>
	<path id="Layer" class="s12" d="m216.2 63.6l2.2 1.3v-2.5l-2.2-1.3z"/>
	<path id="Layer" class="s12" d="m210.5 65.3l2.2 1.3v-2.5l-2.2-1.3z"/>
	<path id="Layer" class="s12" d="m206.5 63l2.2 1.3v-2.6l-2.2-1.2z"/>
	<path id="Layer" class="s12" d="m201.6 55.1l2.2 1.3v-2.5l-2.2-1.3z"/>
	<path id="Layer" class="s12" d="m189 47.8l2.2 1.3v-2.5l-2.2-1.3z"/>
	<path id="Layer" class="s12" d="m211.7 61l2.1 1.2v-2.5l-2.1-1.2z"/>
	<g id="Layer">
		<path id="Layer" class="s13" d="m225.3 68.9l2.2 1.3v-2.5l-2.2-1.3z"/>
		<path id="Layer" class="s13" d="m220.8 66.5l2.2 1.3v-2.6l-2.2-1.2z"/>
		<path id="Layer" class="s13" d="m215.9 68.6l2.2 1.3v-2.6l-2.2-1.2z"/>
		<path id="Layer" class="s13" d="m219.9 70.9l2.2 1.3v-2.5l-2.2-1.3z"/>
		<path id="Layer" class="s13" d="m196.6 57.5l2.2 1.3v-2.5l-2.2-1.3z"/>
		<path id="Layer" class="s13" d="m216.2 63.6l2.2 1.3v-2.5l-2.2-1.3z"/>
		<path id="Layer" class="s13" d="m210.5 65.3l2.2 1.3v-2.5l-2.2-1.3z"/>
		<path id="Layer" class="s13" d="m206.5 63l2.2 1.3v-2.6l-2.2-1.2z"/>
		<path id="Layer" class="s13" d="m201.6 55.1l2.2 1.3v-2.5l-2.2-1.3z"/>
		<path id="Layer" class="s13" d="m189 47.8l2.2 1.3v-2.5l-2.2-1.3z"/>
		<path id="Layer" class="s13" d="m211.7 61l2.1 1.2v-2.5l-2.1-1.2z"/>
	</g>
	<path id="Layer" fill-rule="evenodd" class="s18" d="m254.5 22.3c-0.3 4.6 1.8 9.7 6.4 13.3-12 6.2-32 10.2-40.3 6.3-6.8-4.8 0.1-16.4 10.9-23.3 6.2 2.7 14.8 3.8 23 3.7zm-24.1 7.4l-1.1 0.6 5.7 3-1.7 0.9-6-3.4-1.6 0.9 12.6 7.2 1.6-0.9-0.7-0.4 8.8-5.1-1.4-5.7-9.7-0.9-0.9 0.5 8.6 1.3-1.7 1-8-1.6-1 0.6 7.4 2-1.4 0.8-7.2-2.1-1.1 0.6 6.5 2.5-1.5 0.9z"/>
	<path id="Layer" class="s19" d="m509.4 317.4c1.7 1 2.3 2.2 2.3 3.1 0 1-0.6 2.2-2.3 3.2l-46.2 26.9q0 0 0 0c-1.7 1-3.9 1.5-6.2 1.5-2.3 0-4.6-0.5-6.3-1.5l-46.4-26.9c-1.6-1-2.3-2.1-2.3-3.1 0-1 0.7-2.1 2.3-3.1l46.2-27c1.7-1 3.9-1.5 6.2-1.5 2.3 0 4.6 0.5 6.3 1.5z"/>
	<path id="Layer" class="s20" d="m513 306.3v-22.2l-27.9 3.8-20.9-12.1c-3.7-2.2-9.6-2.2-13.3 0l-3.2 2-45.3 6.1v22.5q0 0 0 0v0.1c0 1.4 0.9 2.7 2.7 3.7l46.1 26.7c3.6 2.2 9.6 2.2 13.2 0l45.8-26.7c1.8-1.1 2.7-2.4 2.8-3.7v-0.2z"/>
	<path id="Layer" class="s21" d="m510.2 280.1l-46-26.7c-3.7-2.1-9.6-2.1-13.3 0l-45.8 26.8c-3.6 2.1-3.6 5.5 0 7.7l46.1 26.7c3.6 2.1 9.6 2.1 13.2 0l45.8-26.8c3.7-2.1 3.7-5.5 0-7.7z"/>
	<path id="Layer" fill-rule="evenodd" class="s11" d="m510.3 287.9c2.1-1.3 3-3 2.7-4.6h-0.1c-0.3 1.1-1.2 2.3-2.7 3.1zm-45.8 26.8l45.8-26.8-45.8 25.4c-1.9 1.1-4.3 1.6-6.7 1.6-2.4 0-4.7-0.5-6.6-1.6l-46-26.7c-1.5-0.9-2.4-2-2.7-3.2h-0.1c-0.3 1.7 0.6 3.4 2.7 4.6l46.1 26.7c1.8 1.1 4.2 1.6 6.6 1.6 2.4 0 4.9-0.5 6.7-1.6zm45.7-28.2l-45.7 26.8z"/>
	<path id="Layer" fill-rule="evenodd" class="s14" d="m424.9 305.8q0 0.8-0.3 1.2-0.3 0.4-0.8 0.4-0.5 0-1.3-0.5l-1.2-0.7v-5l1.3 0.8q0.7 0.4 1.2 1 0.5 0.5 0.8 1.2 0.3 0.7 0.3 1.5zm-1-0.5q0-0.5-0.1-1-0.1-0.4-0.4-0.7-0.3-0.4-0.7-0.6l-0.5-0.3v3.3l0.4 0.2q0.7 0.4 1 0.2 0.3-0.3 0.3-1.1zm5.5 3.2q0 0.8-0.3 1.2-0.2 0.4-0.8 0.4-0.5 0-1.3-0.5l-1.2-0.7v-5l1.4 0.8q0.7 0.4 1.2 1 0.5 0.5 0.7 1.2 0.3 0.7 0.3 1.6zm-0.9-0.6q0-0.5-0.2-1-0.1-0.4-0.4-0.7-0.3-0.4-0.7-0.6l-0.5-0.3v3.3l0.4 0.2q0.7 0.4 1 0.2 0.4-0.2 0.4-1.1zm3.5 1.8l1.7 1v2.6q-0.3-0.1-0.7-0.2-0.4-0.2-0.8-0.4-0.7-0.4-1.2-1-0.4-0.5-0.6-1.2-0.3-0.8-0.3-1.6 0-0.8 0.3-1.2 0.3-0.4 0.8-0.5 0.5 0 1.2 0.4 0.3 0.2 0.7 0.5 0.3 0.3 0.6 0.6l-0.3 0.7q-0.2-0.3-0.5-0.5-0.2-0.2-0.5-0.4-0.4-0.2-0.7-0.2-0.3 0.1-0.5 0.4-0.1 0.3-0.1 0.8 0 0.5 0.1 0.9 0.1 0.5 0.4 0.8 0.2 0.4 0.6 0.6 0.2 0.1 0.3 0.2 0.2 0 0.3 0.1v-1.1l-0.8-0.4zm-15.5 2.9l-1.2-0.7-1.9-4.9q0 0.2 0 0.5 0 0.2 0 0.4 0 0.3 0.1 0.5v2.4l-0.9-0.5v-5l1.2 0.7 1.9 4.8q0-0.2 0-0.4 0-0.3 0-0.5 0-0.2 0-0.5v-2.4l0.8 0.5zm3.6 2.1l-2.5-1.4v-5.1l2.5 1.5v0.8l-1.6-0.9v1.1l1.5 0.9v0.9l-1.5-0.9v1.3l1.6 0.9zm2.6 1.5l-0.9-0.5v-4.2l-1.2-0.6v-0.9l3.3 1.9v0.9l-1.2-0.7zm7.2-0.9l-1.1 4.4-1.1-0.6-0.5-3q-0.1-0.1-0.1-0.3 0-0.1-0.1-0.3 0-0.2 0-0.4 0-0.2 0-0.3-0.1 0.1-0.1 0.2 0 0.2 0 0.4-0.1 0.1-0.1 0.3 0 0.1 0 0.2l-0.6 2.3-1.1-0.6-1.1-5.7 0.9 0.5 0.6 3.1q0 0.1 0 0.3 0.1 0.2 0.1 0.4 0 0.2 0 0.4 0.1 0.2 0.1 0.3 0-0.1 0-0.2 0-0.2 0.1-0.4 0-0.1 0-0.3 0.1-0.1 0.1-0.2l0.6-2.4 0.9 0.5 0.6 3.1q0 0.1 0.1 0.3 0 0.2 0 0.4 0.1 0.2 0.1 0.4 0 0.2 0 0.3 0-0.2 0.1-0.4 0-0.2 0.1-0.4 0-0.2 0-0.4l0.6-2.4zm4.5 5.1q0 0.6-0.1 1-0.2 0.4-0.4 0.6-0.3 0.2-0.7 0.1-0.3 0-0.9-0.3-0.5-0.3-0.9-0.7-0.4-0.4-0.6-0.9-0.3-0.5-0.4-1.1-0.2-0.5-0.2-1.1 0-0.8 0.3-1.2 0.2-0.5 0.7-0.6 0.4 0 1.1 0.4 0.7 0.4 1.2 1 0.5 0.6 0.7 1.3 0.2 0.7 0.2 1.5zm-3.2-1.8q0 0.5 0.1 0.9 0.1 0.5 0.4 0.8 0.2 0.4 0.6 0.6 0.4 0.2 0.7 0.2 0.2-0.1 0.3-0.4 0.1-0.3 0.1-0.9 0-0.8-0.2-1.4-0.3-0.6-0.9-0.9-0.4-0.2-0.6-0.2-0.3 0.1-0.4 0.4-0.1 0.3-0.1 0.9zm5.4 0.5q0.6 0.4 0.9 0.8 0.4 0.3 0.6 0.8 0.2 0.4 0.2 0.9 0 0.4-0.1 0.6-0.1 0.2-0.3 0.2-0.2 0.1-0.4 0.1l1.3 2.9-1-0.6-1.1-2.5-0.5-0.3v2l-0.9-0.6v-5zm-0.1 0.8l-0.2-0.1v1.3l0.3 0.2q0.4 0.3 0.6 0.2 0.2-0.1 0.2-0.4 0-0.4-0.2-0.6-0.2-0.3-0.7-0.6zm6.4 7.8l-1.1-0.6-1.1-2.7-0.4 0.1v1.8l-0.9-0.6v-5l0.9 0.5v2.3q0.1-0.1 0.2-0.2 0.1-0.1 0.1-0.2l1.2-1 1.1 0.6-1.6 1.4z"/>
	<path id="Layer" class="s22" d="m455 303.1l-31-18c-1.2-0.7-1.1-2 0.4-2.8l30.2-17.6c1.5-0.8 3.7-0.9 4.9-0.2l31 18c1.3 0.7 1.1 2-0.3 2.8l-30.3 17.6c-1.4 0.9-3.6 0.9-4.9 0.2z"/>
	<path id="Layer" class="s23" d="m512.9 264.7v-22.2l-27.9 3.8-20.9-12.1c-3.7-2.2-9.6-2.2-13.3 0l-3.2 2-45.3 6.1v22.5q0 0 0 0v0.1c0.1 1.4 1 2.7 2.7 3.7l46.1 26.7c3.7 2.2 9.6 2.2 13.3 0l45.8-26.7c1.7-1.1 2.6-2.4 2.7-3.7v-0.2z"/>
	<path id="Layer" class="s24" d="m510.2 238.3l-46.1-26.7c-3.7-2.1-9.6-2.1-13.3 0l-45.7 26.8c-3.7 2.1-3.7 5.5 0 7.7l46 26.7c3.7 2.1 9.6 2.1 13.3 0l45.8-26.8c3.6-2.1 3.6-5.6 0-7.7z"/>
	<path id="Layer" fill-rule="evenodd" class="s11" d="m510.2 246c2.1-1.2 3-2.9 2.7-4.5h-0.1c-0.3 1.1-1.1 2.2-2.7 3.1zm-45.8 26.8l45.8-26.8-45.8 25.4c-1.8 1-4.2 1.6-6.6 1.6-2.4 0-4.8-0.6-6.6-1.6l-46.1-26.7c-1.5-0.9-2.4-2-2.6-3.2h-0.1c-0.4 1.7 0.5 3.3 2.7 4.6l46 26.7c1.9 1.1 4.3 1.6 6.7 1.6 2.4 0 4.8-0.5 6.6-1.6zm45.8-28.2l-45.8 26.8z"/>
	<path id="Layer" fill-rule="evenodd" class="s25" d="m474.2 232.3c-0.3 4.6 1.8 9.7 6.4 13.3-12 6.2-32 10.2-40.3 6.3-6.8-4.8 0.1-16.4 10.9-23.3 6.2 2.7 14.8 3.8 23 3.7zm-24.1 7.4l-1.1 0.6 5.7 3-1.7 0.9-6-3.4-1.6 0.9 12.6 7.2 1.6-0.9-0.7-0.4 8.8-5.1-1.4-5.7-9.7-0.9-0.9 0.5 8.6 1.3-1.7 1-8-1.6-1 0.6 7.4 2-1.4 0.8-7.2-2.1-1.1 0.6 6.5 2.5-1.5 0.9z"/>
	<path id="Layer" class="s26" d="m449 291.1c0-6.1-4.3-13.5-9.6-16.6l-39.8-23c-5.3-3-9.6-0.5-9.6 5.6v41.5c0 6.2 4.3 13.6 9.6 16.6l39.8 23c5.3 3.1 9.6 0.6 9.6-5.5z"/>
	<g id="Layer">
		<path id="Layer" class="s27" d="m420.6 278.2c-1.4-3.5-4.8-5.4-6.1-3.5l-14.9 21.2c-1.4 1.9 0.3 6.3 3 7.8l29.8 17.2c2.7 1.6 4.4-0.8 3.1-4.3z"/>
		<path id="Layer" class="s14" d="m416.1 298.2l2.8 1.7 0.6-12.9-4-2.4zm3.5 6.7q0-1.1-0.5-2-0.6-0.9-1.6-1.5-0.9-0.6-1.5-0.3-0.5 0.3-0.5 1.4 0 1.1 0.5 2 0.6 1 1.5 1.5 1 0.6 1.6 0.3 0.5-0.3 0.5-1.4z"/>
	</g>
	<path id="Layer" class="s28" d="m109.4 317.6c1.7 0.9 2.3 2.1 2.3 3.1 0 1-0.6 2.1-2.3 3.1l-46.2 27q0 0 0 0c-1.7 1-4 1.5-6.3 1.5-2.3 0-4.5-0.5-6.2-1.5l-0.5 0.8 0.5-0.8-46.5-27c-1.7-0.9-2.3-2.1-2.3-3.1 0-1 0.6-2.1 2.3-3.1l46.2-27q0 0 0 0c1.7-1 4-1.5 6.3-1.5 2.3 0 4.5 0.5 6.2 1.5l0.5-0.8-0.5 0.8z"/>
	<g id="Layer">
		<path id="Layer" class="s29" d="m109.4 317.6c1.7 0.9 2.3 2.1 2.3 3.1 0 1-0.6 2.1-2.3 3.1l-46.2 27q0 0 0 0c-1.7 1-4 1.5-6.3 1.5-2.3 0-4.5-0.5-6.2-1.5l-0.5 0.8 0.5-0.8-46.5-27c-1.7-0.9-2.3-2.1-2.3-3.1 0-1 0.6-2.1 2.3-3.1l46.2-27q0 0 0 0c1.7-1 4-1.5 6.3-1.5 2.3 0 4.5 0.5 6.2 1.5l0.5-0.8-0.5 0.8z"/>
	</g>
	<path id="Layer" class="s30" d="m113 306.4v-22.2l-28 3.8-20.9-12.2c-3.6-2.1-9.6-2.1-13.3 0l-3.2 2.1-45.4 6.1v22.5q0 0 0 0v0.1c0.1 1.4 1 2.7 2.8 3.8l46.1 26.7c3.7 2.1 9.6 2.1 13.3 0l45.8-26.8c1.8-1 2.7-2.4 2.8-3.7v-0.2z"/>
	<path id="Layer" class="s31" d="m110.2 280.2l-46.1-26.7c-3.6-2.2-9.6-2.2-13.3 0l-45.8 26.8c-3.7 2.1-3.7 5.5 0 7.7l46.1 26.7c3.7 2.1 9.6 2.1 13.3 0l45.8-26.8c3.7-2.1 3.7-5.6 0-7.7z"/>
	<path id="Layer" class="s11" d="m110.2 286.5l-45.8 26.8c-1.9 1.1-4.3 1.6-6.7 1.6-2.4 0-4.8-0.5-6.6-1.6l-46.1-26.7c-1.5-0.9-2.4-2-2.6-3.2h-0.1c-0.4 1.7 0.5 3.4 2.7 4.6l46.1 26.8c1.8 1 4.2 1.6 6.6 1.6 2.4 0 4.9-0.6 6.7-1.6l45.9-26.9c2.1-1.2 3-2.9 2.7-4.5h-0.1c-0.3 1.1-1.2 2.2-2.7 3.1z"/>
	<path id="Layer" class="s32" d="m70.6 320.7l-2.2 1.2v-2.5l2.2-1.3z"/>
	<path id="Layer" class="s32" d="m75.1 318l-2.2 1.3v-2.6l2.2-1.2z"/>
	<path id="Layer" class="s32" d="m79.7 315.4l-2.2 1.2v-2.5l2.2-1.3z"/>
	<path id="Layer" class="s32" d="m76 322.6l-2.2 1.3v-2.5l2.2-1.3z"/>
	<path id="Layer" class="s32" d="m80 320.3l-2.2 1.3v-2.6l2.2-1.2z"/>
	<path id="Layer" class="s32" d="m94.3 306.9l-2.1 1.2v-2.5l2.1-1.3z"/>
	<path id="Layer" class="s32" d="m106.9 299.5l-2.2 1.3v-2.5l2.2-1.3z"/>
	<path id="Layer" class="s32" d="m84.3 312.7l-2.2 1.3v-2.6l2.2-1.2z"/>
	<g id="Layer">
		<path id="Layer" class="s33" d="m70.6 320.7l-2.2 1.2v-2.5l2.2-1.3z"/>
		<path id="Layer" class="s33" d="m75.1 318l-2.2 1.3v-2.6l2.2-1.2z"/>
		<path id="Layer" class="s33" d="m79.7 315.4l-2.2 1.2v-2.5l2.2-1.3z"/>
		<path id="Layer" class="s33" d="m76 322.6l-2.2 1.3v-2.5l2.2-1.3z"/>
		<path id="Layer" class="s33" d="m80 320.3l-2.2 1.3v-2.6l2.2-1.2z"/>
		<path id="Layer" class="s33" d="m94.3 306.9l-2.1 1.2v-2.5l2.1-1.3z"/>
		<path id="Layer" class="s33" d="m106.9 299.5l-2.2 1.3v-2.5l2.2-1.3z"/>
		<path id="Layer" class="s33" d="m84.3 312.7l-2.2 1.3v-2.6l2.2-1.2z"/>
	</g>
	<path id="Layer" fill-rule="evenodd" class="s14" d="m24.8 305.9q0 0.8-0.3 1.2-0.3 0.4-0.8 0.4-0.5 0-1.3-0.5l-1.2-0.7v-5l1.3 0.8q0.7 0.4 1.2 1 0.5 0.5 0.8 1.2 0.3 0.7 0.3 1.6zm-1-0.6q0-0.5-0.1-1-0.2-0.4-0.4-0.7-0.3-0.4-0.7-0.6l-0.5-0.3v3.3l0.4 0.2q0.7 0.4 1 0.2 0.3-0.2 0.3-1.1zm5.5 3.2q0 0.8-0.3 1.2-0.2 0.4-0.8 0.4-0.5 0-1.3-0.4l-1.2-0.8v-5l1.4 0.8q0.7 0.4 1.2 1 0.5 0.5 0.7 1.2 0.3 0.8 0.3 1.6zm-0.9-0.6q0-0.5-0.2-1-0.1-0.4-0.4-0.7-0.3-0.4-0.7-0.6l-0.5-0.3v3.3l0.4 0.2q0.7 0.4 1 0.2 0.4-0.2 0.4-1.1zm3.5 1.8l1.7 1v2.6q-0.3-0.1-0.7-0.2-0.4-0.1-0.8-0.4-0.7-0.4-1.1-1-0.5-0.5-0.7-1.2-0.3-0.7-0.3-1.6 0-0.8 0.3-1.2 0.3-0.4 0.8-0.5 0.5 0 1.2 0.4 0.4 0.2 0.7 0.5 0.3 0.3 0.6 0.6l-0.3 0.7q-0.2-0.3-0.5-0.5-0.2-0.2-0.5-0.4-0.4-0.2-0.7-0.2-0.3 0.1-0.5 0.4-0.1 0.3-0.1 0.8 0 0.5 0.1 0.9 0.1 0.5 0.4 0.8 0.2 0.4 0.6 0.6 0.2 0.1 0.3 0.2 0.2 0.1 0.3 0.1v-1.1l-0.8-0.4zm-15.5 2.9l-1.2-0.7-1.9-4.9q0 0.2 0 0.4 0 0.3 0 0.5 0 0.3 0 0.5v2.4l-0.8-0.5v-5l1.2 0.7 1.9 4.8q0-0.2 0-0.4 0-0.3 0-0.5 0-0.2 0-0.5v-2.4l0.8 0.5zm3.6 2.1l-2.5-1.4v-5.1l2.5 1.5v0.8l-1.6-0.9v1.1l1.5 0.9v0.9l-1.5-0.9v1.3l1.6 0.9zm2.6 1.5l-0.9-0.5v-4.2l-1.2-0.6v-0.9l3.3 1.9v0.9l-1.2-0.7zm7.2-0.9l-1.1 4.4-1.1-0.6-0.5-3q-0.1-0.1-0.1-0.3 0-0.1-0.1-0.3 0-0.2 0-0.4 0-0.2-0.1-0.3 0 0.1 0 0.2 0 0.2 0 0.4-0.1 0.1-0.1 0.3 0 0.1-0.1 0.2l-0.5 2.3-1.1-0.6-1.1-5.7 0.9 0.5 0.6 3.1q0 0.1 0 0.3 0.1 0.2 0.1 0.4 0 0.2 0 0.4 0.1 0.2 0.1 0.3 0-0.1 0-0.3 0-0.1 0.1-0.3 0-0.1 0-0.3 0.1-0.1 0.1-0.2l0.6-2.5 0.9 0.5 0.6 3.2q0 0.1 0.1 0.3 0 0.2 0 0.4 0.1 0.2 0.1 0.4 0 0.2 0 0.3 0-0.2 0.1-0.4 0-0.2 0.1-0.4 0-0.3 0-0.4l0.6-2.4zm4.5 5.1q0 0.6-0.1 1-0.1 0.4-0.4 0.6-0.3 0.2-0.6 0.1-0.4 0-1-0.3-0.5-0.3-0.9-0.7-0.4-0.4-0.6-0.9-0.3-0.5-0.4-1.1-0.1-0.5-0.1-1.1 0-0.8 0.2-1.2 0.2-0.5 0.7-0.6 0.4 0 1.1 0.4 0.7 0.4 1.2 1 0.5 0.6 0.7 1.3 0.2 0.7 0.2 1.5zm-3.2-1.8q0 0.5 0.1 0.9 0.2 0.5 0.4 0.8 0.2 0.4 0.6 0.6 0.4 0.2 0.7 0.2 0.2-0.1 0.3-0.4 0.1-0.3 0.1-0.9 0-0.8-0.2-1.4-0.3-0.6-0.9-0.9-0.4-0.2-0.6-0.2-0.2 0.1-0.4 0.4-0.1 0.3-0.1 0.9zm5.4 0.5q0.6 0.4 1 0.8 0.3 0.3 0.5 0.8 0.2 0.4 0.2 0.9 0 0.4-0.1 0.6-0.1 0.2-0.3 0.2-0.2 0.1-0.4 0.1l1.3 2.9-1-0.5-1.1-2.6-0.5-0.3v2l-0.9-0.6v-5zm-0.1 0.8l-0.2-0.1v1.3l0.3 0.2q0.4 0.3 0.6 0.2 0.2-0.1 0.2-0.4 0-0.4-0.2-0.6-0.2-0.3-0.7-0.6zm6.4 7.9l-1.1-0.7-1.1-2.7-0.4 0.1v1.8l-0.9-0.6v-5l0.9 0.5v2.3q0.1-0.1 0.2-0.2 0.1-0.1 0.2-0.2l1.1-1 1.1 0.6-1.6 1.4z"/>
	<path id="Layer" class="s15" d="m54.9 303.2l-31-18c-1.2-0.7-1.1-2 0.4-2.8l30.3-17.6c1.4-0.9 3.6-1 4.9-0.2l31 18c1.3 0.7 1.1 2-0.4 2.8l-30.3 17.6c-1.4 0.9-3.6 0.9-4.9 0.2z"/>
	<path id="Layer" class="s34" d="m112.9 264.8v-22.2l-27.9 3.7-20.9-12.1c-3.7-2.1-9.6-2.1-13.3 0l-3.3 2.1-45.3 6v22.5q0 0 0 0.1v0.1c0 1.3 0.9 2.7 2.7 3.7l46.1 26.7c3.7 2.2 9.6 2.2 13.3 0l45.9-26.8c1.7-1 2.6-2.3 2.7-3.7v-0.1z"/>
	<path id="Layer" class="s35" d="m110.2 238.3l-46.1-26.7c-3.7-2.1-9.6-2.1-13.3 0l-45.9 26.8c-3.6 2.1-3.6 5.6 0 7.7l46.1 26.7c3.7 2.2 9.6 2.2 13.3 0l45.9-26.8c3.6-2.1 3.6-5.5 0-7.7z"/>
	<path id="Layer" class="s11" d="m110.1 244.7l-45.8 26.8c-1.8 1-4.2 1.6-6.6 1.6-2.4 0-4.8-0.6-6.7-1.6l-46-26.8c-1.6-0.9-2.5-2-2.7-3.1h-0.1c-0.3 1.6 0.6 3.3 2.7 4.5l46.1 26.8c1.8 1 4.3 1.6 6.7 1.6 2.4 0 4.8-0.6 6.6-1.6l45.9-26.8c2.1-1.3 3-3 2.7-4.6h-0.1c-0.3 1.2-1.1 2.3-2.7 3.2z"/>
	<path id="Layer" class="s32" d="m70.5 278.8l-2.2 1.2v-2.5l2.2-1.3z"/>
	<path id="Layer" class="s32" d="m75.1 276.1l-2.2 1.3v-2.5l2.2-1.3z"/>
	<path id="Layer" class="s32" d="m79.6 273.5l-2.1 1.2v-2.5l2.1-1.3z"/>
	<path id="Layer" class="s32" d="m75.9 280.8l-2.2 1.2v-2.5l2.2-1.3z"/>
	<path id="Layer" class="s32" d="m79.9 278.4l-2.2 1.3v-2.5l2.2-1.3z"/>
	<path id="Layer" class="s32" d="m94.3 265l-2.2 1.2v-2.5l2.2-1.3z"/>
	<path id="Layer" class="s32" d="m106.9 257.7l-2.2 1.2v-2.5l2.2-1.2z"/>
	<path id="Layer" class="s32" d="m84.2 270.8l-2.2 1.3v-2.5l2.2-1.3z"/>
	<g id="Layer">
		<path id="Layer" class="s33" d="m70.5 278.8l-2.2 1.2v-2.5l2.2-1.3z"/>
		<path id="Layer" class="s33" d="m75.1 276.1l-2.2 1.3v-2.5l2.2-1.3z"/>
		<path id="Layer" class="s33" d="m79.6 273.5l-2.1 1.2v-2.5l2.1-1.3z"/>
		<path id="Layer" class="s33" d="m75.9 280.8l-2.2 1.2v-2.5l2.2-1.3z"/>
		<path id="Layer" class="s33" d="m79.9 278.4l-2.2 1.3v-2.5l2.2-1.3z"/>
		<path id="Layer" class="s33" d="m94.3 265l-2.2 1.2v-2.5l2.2-1.3z"/>
		<path id="Layer" class="s33" d="m106.9 257.7l-2.2 1.2v-2.5l2.2-1.2z"/>
		<path id="Layer" class="s33" d="m84.2 270.8l-2.2 1.3v-2.5l2.2-1.3z"/>
	</g>
	<path id="Layer" class="s32" d="m44.9 279l2.2 1.3v-2.6l-2.2-1.2z"/>
	<path id="Layer" class="s32" d="m40.4 276.6l2.2 1.3v-2.6l-2.2-1.3z"/>
	<path id="Layer" class="s32" d="m35.5 278.7l2.2 1.2v-2.5l-2.2-1.3z"/>
	<path id="Layer" class="s32" d="m39.5 281l2.2 1.3v-2.6l-2.2-1.2z"/>
	<path id="Layer" class="s32" d="m16.2 267.6l2.2 1.3v-2.6l-2.2-1.2z"/>
	<path id="Layer" class="s32" d="m35.8 273.7l2.2 1.3v-2.6l-2.2-1.2z"/>
	<path id="Layer" class="s32" d="m30.1 275.4l2.2 1.3v-2.6l-2.2-1.2z"/>
	<path id="Layer" class="s32" d="m26.1 273.1l2.2 1.3v-2.6l-2.2-1.2z"/>
	<path id="Layer" class="s32" d="m21.2 265.2l2.1 1.3v-2.6l-2.1-1.2z"/>
	<path id="Layer" class="s32" d="m8.6 257.9l2.2 1.3v-2.5l-2.2-1.3z"/>
	<path id="Layer" class="s32" d="m31.3 271.1l2.1 1.2v-2.5l-2.1-1.3z"/>
	<g id="Layer">
		<path id="Layer" class="s33" d="m44.9 279l2.2 1.3v-2.6l-2.2-1.2z"/>
		<path id="Layer" class="s33" d="m40.4 276.6l2.2 1.3v-2.6l-2.2-1.3z"/>
		<path id="Layer" class="s33" d="m35.5 278.7l2.2 1.2v-2.5l-2.2-1.3z"/>
		<path id="Layer" class="s33" d="m39.5 281l2.2 1.3v-2.6l-2.2-1.2z"/>
		<path id="Layer" class="s33" d="m16.2 267.6l2.2 1.3v-2.6l-2.2-1.2z"/>
		<path id="Layer" class="s33" d="m35.8 273.7l2.2 1.3v-2.6l-2.2-1.2z"/>
		<path id="Layer" class="s33" d="m30.1 275.4l2.2 1.3v-2.6l-2.2-1.2z"/>
		<path id="Layer" class="s33" d="m26.1 273.1l2.2 1.3v-2.6l-2.2-1.2z"/>
		<path id="Layer" class="s33" d="m21.2 265.2l2.1 1.3v-2.6l-2.1-1.2z"/>
		<path id="Layer" class="s33" d="m8.6 257.9l2.2 1.3v-2.5l-2.2-1.3z"/>
		<path id="Layer" class="s33" d="m31.3 271.1l2.1 1.2v-2.5l-2.1-1.3z"/>
	</g>
	<path id="Layer" fill-rule="evenodd" class="s36" d="m74.2 232.3c-0.4 4.6 1.8 9.8 6.3 13.4-11.9 6.2-32 10.2-40.3 6.2-6.8-4.8 0.1-16.3 10.9-23.2 6.2 2.6 14.8 3.8 23.1 3.6zm-24.2 7.4l-1.1 0.7 5.7 2.9-1.6 1-6.1-3.5-1.6 0.9 12.6 7.3 1.6-0.9-0.7-0.5 8.9-5.1-1.4-5.7-9.8-0.8-0.8 0.5 8.6 1.3-1.8 1-7.9-1.7-1.1 0.6 7.4 2-1.4 0.8-7.2-2.1-1.1 0.6 6.6 2.6-1.6 0.9z"/>
	<path id="Layer" class="s37" d="m305.1 269.4c1.7 1 2.4 2.2 2.4 3.1 0 1-0.7 2.2-2.3 3.2l-46.2 26.9q0 0 0 0c-1.7 1-3.9 1.5-6.2 1.5-2.3 0-4.6-0.5-6.3-1.5l-0.4 0.8 0.4-0.8-46.4-26.9c-1.7-1-2.3-2.1-2.3-3.1 0-1 0.6-2.1 2.3-3.1l46.2-27q0 0 0 0c1.6-1 3.9-1.5 6.2-1.5 2.3 0 4.6 0.5 6.3 1.5l0.4-0.7-0.4 0.7z"/>
	<g id="Layer">
		<path id="Layer" class="s38" d="m305.1 269.4c1.7 1 2.4 2.2 2.4 3.1 0 1-0.7 2.2-2.3 3.2l-46.2 26.9q0 0 0 0c-1.7 1-3.9 1.5-6.2 1.5-2.3 0-4.6-0.5-6.3-1.5l-0.4 0.8 0.4-0.8-46.4-26.9c-1.7-1-2.3-2.1-2.3-3.1 0-1 0.6-2.1 2.3-3.1l46.2-27q0 0 0 0c1.6-1 3.9-1.5 6.2-1.5 2.3 0 4.6 0.5 6.3 1.5l0.4-0.7-0.4 0.7z"/>
	</g>
	<path id="Layer" class="s15" d="m250.3 255.1l-31-18c-1.3-0.7-1.1-2 0.3-2.8l30.3-17.6c1.4-0.8 3.6-0.9 4.9-0.2l31 18c1.2 0.7 1.1 2-0.4 2.8l-30.2 17.6c-1.5 0.9-3.7 0.9-4.9 0.2z"/>
	<path id="Layer" fill-rule="evenodd" class="s14" d="m212.7 255.4q0.8 0.5 1.2 1.2 0.4 0.6 0.4 1.4 0 0.3-0.1 0.6-0.1 0.2-0.3 0.3-0.2 0.2-0.5 0.1-0.3 0-0.8-0.3l-0.4-0.3v1.9l-0.9-0.6v-5.1zm-0.1 0.9l-0.4-0.3v1.5l0.3 0.2q0.2 0.2 0.4 0.2 0.2 0 0.3-0.1 0.1-0.1 0.1-0.4 0-0.3-0.1-0.6-0.2-0.3-0.6-0.5zm6.5 5.4q0 0.6-0.1 1-0.1 0.4-0.4 0.6-0.2 0.2-0.6 0.2-0.4-0.1-1-0.4-0.5-0.3-0.9-0.7-0.4-0.4-0.7-0.9-0.2-0.5-0.3-1.1-0.2-0.5-0.2-1.1 0-0.8 0.3-1.3 0.2-0.4 0.7-0.5 0.4-0.1 1.1 0.4 0.8 0.4 1.2 1 0.5 0.6 0.7 1.3 0.2 0.7 0.2 1.5zm-3.2-1.9q0 0.6 0.1 1 0.2 0.5 0.4 0.8 0.2 0.4 0.6 0.6 0.4 0.2 0.7 0.2 0.2-0.1 0.4-0.4 0.1-0.3 0.1-0.9 0-0.8-0.3-1.4-0.3-0.6-0.9-0.9-0.3-0.3-0.6-0.2-0.2 0.1-0.4 0.4-0.1 0.3-0.1 0.8zm7.7 1.9l-1.3 2.9q-0.2 0.3-0.4 0.6-0.3 0.2-0.6 0.2-0.3 0-0.8-0.3-0.2-0.1-0.4-0.2-0.2-0.2-0.3-0.3v-0.9q0.1 0.1 0.3 0.3 0.2 0.1 0.3 0.2 0.2 0.1 0.4 0.1 0.1 0 0.2-0.1 0.1-0.1 0.1-0.2l-1.5-4.6 1 0.6 0.8 2.7q0 0 0.1 0.2 0 0.1 0 0.3 0.1 0.1 0.1 0.2h0.1q0 0 0-0.1 0.1-0.1 0.1-0.2 0-0.1 0.1-0.2l0.8-1.7zm2.2 6.4l-0.9-0.5v-4.3l-1.2-0.6v-0.9l3.3 1.9v0.9l-1.2-0.7zm4.5 2.5l-2.6-1.4v-5.1l2.6 1.4v0.9l-1.7-0.9v1.1l1.5 0.9v0.9l-1.5-0.9v1.3l1.7 0.9zm2.3-3.7q0.8 0.5 1.2 1.1 0.4 0.7 0.4 1.4 0 0.4-0.1 0.6 0 0.3-0.2 0.4-0.2 0.1-0.6 0.1-0.3-0.1-0.8-0.4l-0.4-0.2v1.8l-0.9-0.5v-5.1zm-0.1 0.8l-0.4-0.2v1.5l0.3 0.2q0.3 0.1 0.5 0.2 0.2 0 0.3-0.1 0.1-0.1 0.1-0.4 0-0.4-0.2-0.7-0.2-0.2-0.6-0.5z"/>
	<path id="Layer" class="s39" d="m308.2 258.3v-22.2l-27.9 3.8-20.9-12.1c-3.7-2.2-9.6-2.2-13.3 0l-3.3 2-45.3 6.1v22.5q0 0 0 0v0.1h0.1c0 1.4 0.9 2.7 2.7 3.7l46 26.7c3.7 2.2 9.6 2.2 13.3 0l45.8-26.7c1.8-1.1 2.7-2.4 2.8-3.7v-0.2z"/>
	<path id="Layer" class="s40" d="m305.4 232.1l-46-26.7c-3.7-2.1-9.6-2.1-13.3 0l-45.8 26.8c-3.7 2.1-3.7 5.5 0 7.7l46 26.7c3.7 2.1 9.6 2.1 13.3 0l45.8-26.8c3.7-2.1 3.7-5.5 0-7.7z"/>
	<path id="Layer" fill-rule="evenodd" class="s11" d="m305.4 239.9c2.2-1.3 3.1-3 2.7-4.6-0.3 1.1-1.2 2.3-2.7 3.1zm-45.8 26.8l45.8-26.8-45.9 25.4c-1.8 1.1-4.2 1.6-6.6 1.6-2.4 0-4.8-0.5-6.6-1.6l-46-26.7c-1.6-0.9-2.4-2-2.7-3.2h-0.1c-0.3 1.7 0.6 3.4 2.7 4.6l46.1 26.7c1.8 1.1 4.2 1.6 6.6 1.6 2.4 0 4.8-0.5 6.7-1.6zm45.7-28.2l-45.8 26.8z"/>
	<path id="Layer" class="s12" d="m265.8 272.5l-2.2 1.3v-2.5l2.2-1.3z"/>
	<path id="Layer" class="s12" d="m270.4 269.9l-2.2 1.2v-2.5l2.2-1.3z"/>
	<path id="Layer" class="s12" d="m274.9 267.2l-2.1 1.3v-2.5l2.1-1.3z"/>
	<path id="Layer" class="s12" d="m271.2 274.5l-2.2 1.3v-2.6l2.2-1.2z"/>
	<path id="Layer" class="s12" d="m275.2 272.2l-2.2 1.3v-2.6l2.2-1.2z"/>
	<path id="Layer" class="s12" d="m289.6 258.7l-2.2 1.3v-2.5l2.2-1.3z"/>
	<path id="Layer" class="s12" d="m302.1 251.4l-2.2 1.3v-2.5l2.2-1.3z"/>
	<path id="Layer" class="s12" d="m279.5 264.6l-2.2 1.2v-2.5l2.2-1.2z"/>
	<g id="Layer">
		<path id="Layer" class="s13" d="m265.8 272.5l-2.2 1.3v-2.5l2.2-1.3z"/>
		<path id="Layer" class="s13" d="m270.4 269.9l-2.2 1.2v-2.5l2.2-1.3z"/>
		<path id="Layer" class="s13" d="m274.9 267.2l-2.1 1.3v-2.5l2.1-1.3z"/>
		<path id="Layer" class="s13" d="m271.2 274.5l-2.2 1.3v-2.6l2.2-1.2z"/>
		<path id="Layer" class="s13" d="m275.2 272.2l-2.2 1.3v-2.6l2.2-1.2z"/>
		<path id="Layer" class="s13" d="m289.6 258.7l-2.2 1.3v-2.5l2.2-1.3z"/>
		<path id="Layer" class="s13" d="m302.1 251.4l-2.2 1.3v-2.5l2.2-1.3z"/>
		<path id="Layer" class="s13" d="m279.5 264.6l-2.2 1.2v-2.5l2.2-1.2z"/>
	</g>
	<path id="Layer" fill-rule="evenodd" class="s14" d="m205.9 248.8q-0.3-0.1-0.5-0.1-0.2 0-0.3 0.1-0.2 0.2-0.2 0.4-0.1 0.3-0.1 0.7 0 0.5 0.1 1 0.1 0.4 0.4 0.8 0.2 0.3 0.6 0.5 0.2 0.2 0.5 0.2 0.3 0.1 0.6 0.2v0.9q-0.3-0.1-0.6-0.2-0.3-0.1-0.6-0.3-0.7-0.3-1.1-0.9-0.4-0.6-0.7-1.3-0.2-0.7-0.2-1.5 0-0.5 0.2-0.9 0.1-0.4 0.4-0.6 0.2-0.2 0.6-0.2 0.4 0.1 0.9 0.3 0.3 0.2 0.6 0.5 0.4 0.3 0.6 0.6l-0.3 0.7q-0.2-0.3-0.4-0.5-0.3-0.2-0.5-0.4zm5.5 2.4v3.3q0 0.5-0.2 0.8-0.2 0.3-0.6 0.3-0.3 0-1-0.3-0.8-0.5-1.3-1.3-0.4-0.8-0.4-1.6v-3.2l0.9 0.5v3.1q0 0.6 0.2 1 0.2 0.3 0.7 0.6 0.3 0.2 0.5 0.2 0.1-0.1 0.2-0.3 0.1-0.2 0.1-0.5v-3.1zm3.7 5.7q0 0.5-0.2 0.7-0.2 0.2-0.6 0.2-0.3-0.1-0.8-0.4-0.3-0.1-0.5-0.2-0.2-0.2-0.4-0.4-0.2-0.2-0.4-0.4v-1q0.3 0.4 0.7 0.7 0.3 0.3 0.6 0.5 0.2 0.1 0.4 0.1 0.1 0.1 0.2 0 0-0.1 0-0.3 0-0.2-0.1-0.4-0.1-0.1-0.3-0.4-0.2-0.2-0.4-0.5-0.1-0.1-0.3-0.4-0.2-0.2-0.4-0.4-0.1-0.3-0.2-0.6-0.1-0.3-0.1-0.7 0-0.4 0.2-0.6 0.1-0.2 0.5-0.2 0.3 0 0.7 0.3 0.4 0.2 0.7 0.4 0.3 0.3 0.6 0.7l-0.3 0.6q-0.3-0.3-0.5-0.5-0.2-0.2-0.5-0.4-0.2-0.1-0.3-0.1-0.1 0-0.2 0.1 0 0.1 0 0.2 0 0.2 0.1 0.4 0.1 0.1 0.2 0.4 0.2 0.2 0.5 0.5 0.3 0.4 0.6 0.7 0.2 0.3 0.3 0.7 0.2 0.3 0.2 0.7zm2.4 2.8l-0.9-0.5v-4.1l-1.2-0.7v-0.9l3.3 1.9v0.9l-1.2-0.7zm5.8 0.8q0 0.6-0.1 1-0.1 0.4-0.4 0.6-0.3 0.2-0.6 0.2-0.4-0.1-1-0.4-0.5-0.3-0.9-0.7-0.4-0.4-0.6-0.9-0.3-0.5-0.4-1-0.1-0.6-0.1-1.2 0-0.8 0.2-1.2 0.2-0.5 0.7-0.5 0.4-0.1 1.1 0.3 0.7 0.5 1.2 1 0.5 0.6 0.7 1.3 0.2 0.7 0.2 1.5zm-3.2-1.8q0 0.5 0.1 1 0.2 0.4 0.4 0.7 0.2 0.4 0.6 0.6 0.4 0.2 0.7 0.2 0.2-0.1 0.3-0.4 0.1-0.3 0.1-0.8 0-0.8-0.2-1.4-0.3-0.6-0.9-1-0.3-0.2-0.6-0.1-0.2 0-0.4 0.3-0.1 0.4-0.1 0.9zm5.9 5.9l-1-4.5q0 0.1 0 0.4 0 0.3 0 0.6 0 0.3 0 0.6v2.3l-0.8-0.5v-5l1.3 0.8 1 4.4 1.1-3.2 1.2 0.7v5l-0.8-0.5v-2.3q0-0.3 0-0.6 0-0.3 0-0.6 0-0.2 0-0.4l-1.1 3.3zm6.4 3.7l-2.5-1.5v-5l2.5 1.5v0.8l-1.6-0.9v1.1l1.5 0.9v0.9l-1.5-0.9v1.3l1.6 0.9zm2.2-3.7q0.5 0.3 0.9 0.7 0.4 0.4 0.6 0.8 0.2 0.4 0.2 1 0 0.3-0.1 0.5-0.1 0.2-0.3 0.3-0.2 0-0.4 0l1.3 2.9-1.1-0.6-1-2.5-0.5-0.3v2l-0.9-0.6v-5zm-0.1 0.9l-0.3-0.2v1.4l0.3 0.1q0.5 0.3 0.7 0.2 0.2 0 0.2-0.4 0-0.3-0.2-0.6-0.2-0.3-0.7-0.5zm3.5 1.1l-0.1 1.7-0.6-0.3-0.1-1.9zm3.5 5.7q0 0.4-0.2 0.6-0.2 0.3-0.5 0.2-0.4 0-0.9-0.3-0.2-0.1-0.4-0.3-0.3-0.1-0.5-0.3-0.2-0.2-0.3-0.4v-1q0.3 0.3 0.6 0.7 0.3 0.3 0.7 0.5 0.2 0.1 0.3 0.1 0.2 0 0.2-0.1 0.1 0 0.1-0.2 0-0.2-0.1-0.4-0.1-0.2-0.3-0.4-0.2-0.2-0.4-0.5-0.2-0.2-0.4-0.4-0.2-0.2-0.3-0.5-0.2-0.3-0.3-0.6-0.1-0.3-0.1-0.6 0-0.5 0.2-0.7 0.2-0.2 0.5-0.2 0.3 0.1 0.8 0.3 0.3 0.2 0.6 0.5 0.3 0.3 0.7 0.6l-0.3 0.7q-0.3-0.3-0.6-0.6-0.2-0.2-0.4-0.3-0.2-0.1-0.3-0.1-0.2 0-0.2 0.1-0.1 0-0.1 0.2 0 0.2 0.1 0.3 0.1 0.2 0.3 0.4 0.2 0.2 0.4 0.6 0.4 0.3 0.6 0.7 0.2 0.3 0.4 0.6 0.1 0.4 0.1 0.8zm-29.8-6.9l-1.2-0.6-1.9-4.9q0 0.2 0 0.5 0 0.2 0 0.4 0 0.3 0 0.5v2.4l-0.8-0.5v-5l1.2 0.7 1.8 4.8h0.1q0-0.2 0-0.4-0.1-0.3-0.1-0.5 0-0.2 0-0.5v-2.4l0.9 0.5zm3.5 2.1l-2.5-1.4v-5.1l2.5 1.5v0.9l-1.5-1v1.1l1.4 0.9v0.9l-1.4-0.9v1.3l1.5 0.9zm2.6 1.5l-0.9-0.5v-4.1l-1.2-0.7v-0.9l3.3 1.9v0.9l-1.2-0.7zm7.2-0.9l-1.1 4.4-1-0.6-0.6-3q0-0.1-0.1-0.2 0-0.2 0-0.4-0.1-0.2-0.1-0.4 0-0.2 0-0.3 0 0.1-0.1 0.3 0 0.1 0 0.3-0.1 0.1-0.1 0.3 0 0.1 0 0.2l-0.6 2.3-1.1-0.6-1.1-5.7 0.9 0.5 0.6 3.1q0 0.1 0 0.3 0.1 0.2 0.1 0.4 0 0.2 0.1 0.4 0 0.2 0 0.3 0-0.1 0-0.2 0.1-0.2 0.1-0.4 0-0.1 0.1-0.3 0-0.1 0-0.2l0.6-2.4 0.9 0.5 0.6 3.1q0.1 0.1 0.1 0.3 0 0.2 0 0.4 0.1 0.2 0.1 0.4 0 0.2 0 0.3 0.1-0.2 0.1-0.4 0-0.2 0.1-0.4 0-0.2 0.1-0.4l0.5-2.4zm4.5 5.1q0 0.6-0.1 1-0.2 0.4-0.4 0.6-0.3 0.2-0.7 0.1-0.3 0-0.9-0.3-0.5-0.3-0.9-0.7-0.4-0.5-0.6-0.9-0.3-0.5-0.4-1.1-0.1-0.5-0.1-1.1 0-0.8 0.2-1.2 0.2-0.5 0.7-0.5 0.4-0.1 1.1 0.3 0.7 0.4 1.2 1 0.4 0.6 0.7 1.3 0.2 0.7 0.2 1.5zm-3.2-1.8q0 0.5 0.1 0.9 0.2 0.5 0.4 0.8 0.2 0.4 0.6 0.6 0.4 0.2 0.7 0.1 0.2 0 0.3-0.3 0.1-0.4 0.1-0.9 0-0.8-0.2-1.4-0.3-0.6-0.9-0.9-0.4-0.2-0.6-0.2-0.2 0.1-0.4 0.4-0.1 0.3-0.1 0.9zm5.4 0.5q0.5 0.4 0.9 0.8 0.4 0.3 0.6 0.8 0.2 0.4 0.2 0.9 0 0.4-0.1 0.6-0.1 0.2-0.3 0.2-0.2 0.1-0.4 0.1l1.3 2.9-1.1-0.6-1-2.5-0.5-0.3v1.9l-0.9-0.5v-5zm-0.1 0.8l-0.3-0.1v1.3l0.3 0.2q0.5 0.3 0.7 0.2 0.2-0.1 0.2-0.4 0-0.4-0.2-0.6-0.2-0.3-0.7-0.6zm6.3 7.8l-1-0.6-1.1-2.8-0.4 0.1v1.8l-1-0.5v-5l1 0.5v2.3q0.1-0.1 0.1-0.2 0.1-0.1 0.2-0.2l1.2-1 1 0.6-1.5 1.3z"/>
	<path id="Layer" class="s15" d="m250.2 255.1l-31-18c-1.3-0.7-1.1-2 0.3-2.8l30.3-17.6c1.5-0.8 3.7-0.9 4.9-0.2l31 18c1.3 0.7 1.1 2-0.3 2.8l-30.3 17.6c-1.5 0.9-3.7 0.9-4.9 0.2z"/>
	<path id="Layer" class="s41" d="m308.1 216.7v-22.2l-27.9 3.8-20.9-12.1c-3.7-2.2-9.6-2.2-13.3 0l-3.2 2-45.3 6.1v22.5q0 0 0 0v0.1c0 1.4 1 2.7 2.7 3.7l46.1 26.7c3.7 2.2 9.6 2.2 13.3 0l45.8-26.7c1.7-1.1 2.6-2.4 2.7-3.7v-0.2z"/>
	<path id="Layer" class="s42" d="m305.3 190.3l-46-26.7c-3.7-2.1-9.6-2.1-13.3 0l-45.8 26.8c-3.6 2.1-3.6 5.5 0 7.7l46.1 26.7c3.7 2.1 9.6 2.1 13.3 0l45.8-26.8c3.6-2.1 3.6-5.6-0.1-7.7z"/>
	<path id="Layer" fill-rule="evenodd" class="s11" d="m305.4 198c2.1-1.2 3-2.9 2.7-4.5h-0.1c-0.3 1.1-1.1 2.2-2.7 3.1zm-45.8 26.8l45.8-26.8-45.8 25.4c-1.9 1-4.2 1.6-6.6 1.6-2.4 0-4.8-0.6-6.7-1.6l-46-26.7c-1.5-0.9-2.4-2-2.7-3.2-0.4 1.7 0.5 3.3 2.7 4.6l46 26.7c1.8 1.1 4.3 1.6 6.7 1.6 2.4 0 4.8-0.5 6.6-1.6zm45.8-28.2l-45.8 26.8z"/>
	<path id="Layer" class="s12" d="m265.7 230.7l-2.1 1.3v-2.6l2.1-1.2z"/>
	<path id="Layer" class="s12" d="m270.3 228.1l-2.2 1.2v-2.5l2.2-1.3z"/>
	<path id="Layer" class="s12" d="m274.9 225.4l-2.2 1.3v-2.6l2.2-1.2z"/>
	<path id="Layer" class="s12" d="m271.1 232.7l-2.2 1.3v-2.6l2.2-1.2z"/>
	<path id="Layer" class="s12" d="m275.1 230.4l-2.1 1.2v-2.5l2.1-1.3z"/>
	<path id="Layer" class="s12" d="m289.5 216.9l-2.2 1.3v-2.6l2.2-1.2z"/>
	<path id="Layer" class="s12" d="m302 209.6l-2.1 1.3v-2.5l2.1-1.3z"/>
	<path id="Layer" class="s12" d="m279.4 222.8l-2.2 1.2v-2.5l2.2-1.3z"/>
	<g id="Layer">
		<path id="Layer" class="s13" d="m265.7 230.7l-2.1 1.3v-2.6l2.1-1.2z"/>
		<path id="Layer" class="s13" d="m270.3 228.1l-2.2 1.2v-2.5l2.2-1.3z"/>
		<path id="Layer" class="s13" d="m274.9 225.4l-2.2 1.3v-2.6l2.2-1.2z"/>
		<path id="Layer" class="s13" d="m271.1 232.7l-2.2 1.3v-2.6l2.2-1.2z"/>
		<path id="Layer" class="s13" d="m275.1 230.4l-2.1 1.2v-2.5l2.1-1.3z"/>
		<path id="Layer" class="s13" d="m289.5 216.9l-2.2 1.3v-2.6l2.2-1.2z"/>
		<path id="Layer" class="s13" d="m302 209.6l-2.1 1.3v-2.5l2.1-1.3z"/>
		<path id="Layer" class="s13" d="m279.4 222.8l-2.2 1.2v-2.5l2.2-1.3z"/>
	</g>
	<path id="Layer" class="s12" d="m240.2 230.9l2.2 1.3v-2.5l-2.2-1.3z"/>
	<path id="Layer" class="s12" d="m235.6 228.5l2.2 1.3v-2.6l-2.2-1.2z"/>
	<path id="Layer" class="s12" d="m230.8 230.6l2.2 1.3v-2.6l-2.2-1.2z"/>
	<path id="Layer" class="s12" d="m234.8 232.9l2.2 1.3v-2.5l-2.2-1.3z"/>
	<path id="Layer" class="s12" d="m211.5 219.5l2.2 1.3v-2.5l-2.2-1.3z"/>
	<path id="Layer" class="s12" d="m231.1 225.6l2.2 1.3v-2.5l-2.2-1.3z"/>
	<path id="Layer" class="s12" d="m225.4 227.3l2.2 1.3v-2.5l-2.2-1.3z"/>
	<path id="Layer" class="s12" d="m221.4 225l2.2 1.3v-2.6l-2.2-1.2z"/>
	<path id="Layer" class="s12" d="m216.5 217.1l2.1 1.3v-2.5l-2.1-1.3z"/>
	<path id="Layer" class="s12" d="m203.9 209.8l2.2 1.3v-2.5l-2.2-1.3z"/>
	<path id="Layer" class="s12" d="m226.5 223l2.2 1.2v-2.5l-2.2-1.2z"/>
	<g id="Layer">
		<path id="Layer" class="s13" d="m240.2 230.9l2.2 1.3v-2.5l-2.2-1.3z"/>
		<path id="Layer" class="s13" d="m235.6 228.5l2.2 1.3v-2.6l-2.2-1.2z"/>
		<path id="Layer" class="s13" d="m230.8 230.6l2.2 1.3v-2.6l-2.2-1.2z"/>
		<path id="Layer" class="s13" d="m234.8 232.9l2.2 1.3v-2.5l-2.2-1.3z"/>
		<path id="Layer" class="s13" d="m211.5 219.5l2.2 1.3v-2.5l-2.2-1.3z"/>
		<path id="Layer" class="s13" d="m231.1 225.6l2.2 1.3v-2.5l-2.2-1.3z"/>
		<path id="Layer" class="s13" d="m225.4 227.3l2.2 1.3v-2.5l-2.2-1.3z"/>
		<path id="Layer" class="s13" d="m221.4 225l2.2 1.3v-2.6l-2.2-1.2z"/>
		<path id="Layer" class="s13" d="m216.5 217.1l2.1 1.3v-2.5l-2.1-1.3z"/>
		<path id="Layer" class="s13" d="m203.9 209.8l2.2 1.3v-2.5l-2.2-1.3z"/>
		<path id="Layer" class="s13" d="m226.5 223l2.2 1.2v-2.5l-2.2-1.2z"/>
	</g>
	<path id="Layer" fill-rule="evenodd" class="s43" d="m266.2 201.5c-7.4 4.3-19.4 4.3-26.8 0-7.5-4.2-7.5-11.2 0-15.5 7.4-4.2 19.4-4.2 26.8 0 7.4 4.3 7.4 11.3 0 15.5zm-14.7-12.5c-2.7 1.6-2.7 4 0 5.5 2.6 1.5 6.9 1.6 9.5 0 2.6-1.5 2.6-4 0-5.5-2.6-1.5-6.9-1.5-9.5 0zm2.5 13.2c0.8-1.7 0.2-3.6-2.1-4.9-0.1-0.1-0.3-0.1-0.5-0.2-0.9-0.3-1.8-0.6-2.5-1.1-0.8-0.4-1.4-0.9-1.9-1.4-0.1-0.2-0.2-0.3-0.3-0.3-2.3-1.4-5.7-1.7-8.6-1.2-0.4 2.4 1.1 4.8 4.3 6.7 3.1 1.8 7.4 2.6 11.6 2.4z"/>
</svg>