<svg width="422" height="330" viewBox="0 0 422 330" fill="none" xmlns="http://www.w3.org/2000/svg">
<path opacity="0.2" d="M305.126 265.256C278.787 291.438 243.064 306.147 205.815 306.147C168.566 306.147 132.843 291.438 106.504 265.256C80.1655 239.074 65.3688 203.564 65.3688 166.538C65.3688 129.512 80.1655 94.0023 106.504 67.8205C132.843 41.6386 168.566 26.9295 205.815 26.9295C243.064 26.9295 278.787 41.6386 305.126 67.8205C331.465 94.0023 346.261 129.512 346.261 166.538C346.261 203.564 331.465 239.074 305.126 265.256L305.126 265.256Z" stroke="#3399E0" stroke-width="0.476687"/>
<circle opacity="0.6" cx="65.131" cy="44.277" r="4.18704" fill="white"/>
<circle cx="368.272" cy="297.174" r="4.18704" fill="white"/>
<circle cx="8.1868" cy="210.921" r="4.18704" fill="white"/>
<circle opacity="0.37" cx="339.801" cy="34.2279" r="2.51223" fill="white"/>
<circle cx="415.168" cy="91.1716" r="2.51223" fill="white"/>
<circle opacity="0.6" cx="71.83" cy="306.386" r="2.51223" fill="white"/>
<g filter="url(#filter0_f_39_99751)">
<circle opacity="0.6" cx="65.131" cy="44.277" r="4.18704" fill="white"/>
<circle cx="368.272" cy="297.174" r="4.18704" fill="white"/>
<circle cx="8.1868" cy="210.921" r="4.18704" fill="white"/>
<circle opacity="0.37" cx="339.801" cy="34.2279" r="2.51223" fill="white"/>
<circle cx="415.168" cy="91.1716" r="2.51223" fill="white"/>
<circle opacity="0.6" cx="71.83" cy="306.386" r="2.51223" fill="white"/>
</g>
<path opacity="0.25" d="M292.997 255.844C270.981 277.86 241.121 290.229 209.986 290.229C178.851 290.229 148.991 277.86 126.975 255.844C104.959 233.829 92.5904 203.968 92.5904 172.833C92.5904 141.698 104.959 111.838 126.975 89.8219C148.991 67.8059 178.851 55.4375 209.986 55.4375C241.121 55.4375 270.981 67.8059 292.997 89.8219C315.013 111.838 327.382 141.698 327.382 172.833C327.382 203.968 315.013 233.829 292.997 255.844L292.997 255.844Z" stroke="white" stroke-width="0.271414"/>
<g filter="url(#filter1_d_39_99751)">
<path fill-rule="evenodd" clip-rule="evenodd" d="M211.795 321C125.994 320.868 56.5432 250.903 56.6899 164.751C56.822 78.583 126.493 8.8681 212.294 9.00019C298.094 9.13228 367.53 79.0966 367.398 165.235C367.252 251.402 297.581 321.132 211.795 321Z" fill="url(#paint0_linear_39_99751)"/>
</g>
<path d="M316.088 223.188C315.23 224.898 314.801 225.944 313.179 227.393C312.058 228.391 309.769 228.581 309.173 230.054C308.529 231.622 310.15 232.928 309.578 234.259C309.006 235.542 307.503 236.92 307.79 238.25C308.362 240.959 310.937 246.161 313.632 241.196C315.588 237.585 317.305 232.572 317.305 228.462C317.591 228.509 317.877 228.605 318.163 228.723C318.115 227.345 317.877 223.402 316.088 223.188C317.805 223.378 315.874 223.592 316.088 223.188Z" fill="url(#paint1_linear_39_99751)"/>
<path d="M360.301 195.32C360.301 197.149 362.4 196.936 362.972 195.605C363.83 193.633 361.851 192.683 360.993 191.234C361.017 192.659 360.301 193.918 360.301 195.32Z" fill="url(#paint2_linear_39_99751)"/>
<path d="M328.322 81.3543C328.346 81.4018 328.393 81.4493 328.417 81.5206C327.034 81.5206 325.222 81.1642 324.101 81.1642C322.146 81.1642 322.956 78.7647 320.572 79.4061C318.473 78.147 322.122 74.5833 323.6 74.2032C323.505 72.944 322.193 73.2054 323.767 72.0888C324.483 71.5899 325.985 70.6633 325.293 69.5942C324.816 68.8577 330.937 66.6977 331.843 66.0325C331.915 65.985 331.986 65.9375 332.058 65.89C332.916 66.8878 333.751 67.9094 334.586 68.9309C332.01 70.6653 327.487 72.5639 326.056 75.5812C324.363 79.1686 326.987 79.0498 328.298 81.3068V81.3305C328.322 81.3543 328.322 81.3543 328.322 81.3543Z" fill="url(#paint3_linear_39_99751)"/>
<path d="M328.203 81.2356C328.298 81.3544 328.632 81.6632 328.203 81.2356V81.2356Z" fill="url(#paint4_linear_39_99751)"/>
<path d="M346.063 85.7868C346.111 85.9294 346.134 86.0481 346.158 86.1907C346.397 87.4261 340.019 85.1371 339.614 84.9471C338.326 84.2819 333.723 82.2387 332.603 83.7117C332.245 84.1868 333.676 87.3228 331.935 86.8952C331.243 86.7289 330.79 85.7311 330.051 85.7311C328.382 85.7311 326.784 86.8239 325.115 87.014C322.396 87.3228 322.086 85.351 319.129 86.8477C317.03 87.9405 315.051 89.7699 312.762 90.4351C310.162 91.2191 311.927 87.4416 310.949 86.3488C310.425 85.7311 309.757 86.9427 309.59 87.2753C308.422 89.4373 309.328 89.5323 309.328 91.2666C309.328 93.2623 305.441 91.3379 304.535 93.1435C303.247 95.8043 301.577 96.2557 298.716 95.0441C298.883 95.6856 298.573 96.422 298.716 97.0635C295.973 96.8022 296.379 93.9988 295.186 92.2644C297.69 92.2644 300.791 93.4286 303.175 92.5258C305.679 91.5992 305.369 89.5561 303.223 88.3682C300.218 86.7051 296.45 85.5173 293.231 84.3294C291.132 83.5454 288.7 84.068 287.007 82.7139C287.937 82.3812 288.605 82.5951 289.01 81.5022C288.152 81.0508 286.983 80.1005 286.482 81.4547C286.005 81.2409 285.838 80.837 285.981 80.2906C284.646 81.1221 284.598 82.1437 283.811 80.7895C283.048 81.1934 282.667 82.405 281.641 82.31C282.023 81.8586 282.357 81.3834 282.619 80.8845C281.951 81.3359 277.897 80.4331 277.897 81.2884C278.016 81.6448 278.279 81.8586 278.66 81.9061C277.73 82.405 276.824 82.2387 276.228 83.3078V82.4525C275.202 82.5 275.202 83.6166 274.368 83.8067V83.2128C273.581 83.2128 272.865 83.4028 272.198 83.8067C272.317 83.9493 272.46 84.0918 272.579 84.2106C271.673 84.7333 271.101 84.068 270.409 85.1134C270.695 85.0659 270.958 85.1134 271.22 85.2322C269.527 86.0874 270.147 86.9902 268.501 85.0659C268.001 85.5648 267.047 85.5648 266.88 86.3725C267.118 86.4438 267.381 86.5151 267.643 86.5388C267.261 86.7051 266.904 86.919 266.617 87.2278C267.714 87.2278 268.573 86.5388 269.598 86.325C268.907 89.2235 265.425 89.6273 264.257 92.2169C263.136 94.6877 261.395 97.5862 258.486 98.3227C258.891 98.4177 259.296 98.5365 259.702 98.679C258.104 98.489 255.362 100.461 254.503 101.696C253.668 102.932 253.239 102.243 253.43 104.191C253.478 105.022 253.74 105.759 254.241 106.424C253.883 106.804 253.621 107.232 253.43 107.731C253.859 107.517 254.289 107.446 254.742 107.493C254.265 108.586 253.549 108.942 254.909 109.774C257.412 111.294 259.583 108.966 260.966 106.97C262.349 108.942 263.112 111.96 263.875 114.407C264.304 115.785 264.9 117.044 266.212 115.476C267.142 114.383 268.168 114.834 269.074 113.931C270.862 112.15 269.026 112.316 269.551 110.273C269.98 108.681 272.842 108.705 272.842 106.875C272.842 104.951 270.171 105.497 270.171 103.454C270.171 102.124 270.934 100.39 272.245 99.7719C273.533 99.1304 275.369 98.4177 276.228 97.2298C277.039 96.1132 275.942 94.7115 277.373 93.8562C278.517 93.1672 281.188 93.0009 282.166 94.1175C283.334 95.448 279.948 96.8022 279.233 97.6574C278.207 98.8928 275.989 99.6531 275.989 100.936C275.989 101.506 276.323 102.599 276.943 102.837C276.49 103.573 275.799 103.906 276.562 104.88C277.516 106.091 279.567 106.519 280.973 106.115C282.214 105.759 285.648 105.996 286.339 104.618C286.864 105.117 287.293 105.711 287.603 106.377C285.171 107.992 283.048 106.543 280.592 107.541C277.325 108.847 282.786 111.009 280.377 112.078C278.517 112.91 277.969 109.156 276.419 112.672C275.393 115.001 275.536 117.994 272.436 117.994C272.436 115.191 264.686 121.391 265.354 117.994C263.78 117.804 259.75 120.132 259.75 116.759C259.75 115.428 261.467 115.143 261.467 114.169C261.467 113.789 260.417 112.957 260.823 111.508C259.511 112.435 257.579 112.672 257.579 114.668C257.579 116.141 258.939 117.424 258.939 118.921C258.939 119.847 254.288 120.37 253.597 120.964C251.785 122.579 252.166 125.05 248.899 125.05C248.279 127.497 245.87 128.566 243.772 127.473C244.058 128.139 244.273 129.184 243.533 129.374C243.438 129.398 237.762 129.089 240.004 130.586C240.791 131.108 241.793 131.227 242.675 131.488C243.629 131.678 243.152 132.748 243.796 133.294C244.917 134.221 245.394 135.765 244.511 137.499C243.533 139.423 242.389 138.711 240.29 138.711C239.169 138.711 236.499 138.806 235.521 138.331C232.683 136.929 233.708 142.013 233.613 142.773C233.422 143.866 232.707 145.482 232.707 146.503C232.707 147.335 233.518 147.073 233.518 148.214C233.518 151.017 235.33 148.143 236.785 149.568C237.667 150.4 237.476 151.635 239.074 150.875C239.98 150.423 241.506 149.663 242.627 150.019C243.462 149.687 246.848 147.287 246.014 146.384C244.106 144.365 249.471 142.346 250.163 141.775C251.093 140.991 250.044 140.184 250.401 139.851C250.401 137.594 253.835 139.162 254.789 139.162C257.293 139.162 259.106 134.862 261.133 138.521C262.349 140.706 264.209 142.132 266.474 143.106C267.19 143.415 270.719 147.501 268.096 147.501C268.096 148.689 270.362 146.052 270.362 146.099C270.362 145.41 268.74 144.769 269.789 144.056C270.791 143.367 271.339 144.436 272.198 144.579C272.484 142.559 268.907 143.13 268.907 141.205C265.521 141.205 267.118 138.663 264.614 137.832C261.991 136.953 264.209 135.076 265.163 134.482C265.473 134.791 265.115 135.836 265.831 135.836C267.214 136.644 266.784 134.91 267.548 136.763C268.239 138.378 270.528 139.115 271.935 139.804C274.296 140.968 274.225 147.881 277.396 147.501C276.633 148.808 277.063 150.138 278.97 149.924C278.708 149.806 278.708 147.881 278.66 147.501C279.328 148.19 280.115 148.451 280.926 147.976C280.091 147.073 279.495 145.886 278.923 145.22C277.253 143.272 279.257 144.579 280.067 144.579C280.902 141.253 284.837 144.911 287.245 142.536C286.745 141.775 285.576 141.443 285.576 140.374C285.576 139.257 287.007 138.782 287.007 137.808C287.007 136.002 288.151 135.052 289.153 133.959C292.229 130.633 293.994 140.279 298.12 135.123C293.016 135.123 299.312 132.486 300.91 131.892C299.073 132.938 301.411 134.434 298.477 135.171C298.859 136.097 307.11 140.706 305.798 141.562C305.131 141.847 297.857 144.27 297.857 141.728C296.021 141.728 294.447 140.184 292.468 141.419C292.229 141.562 288.008 142.845 287.627 142.702C287.722 142.916 287.841 143.106 288.008 143.272C286.745 143.914 284.67 143.225 283.668 144.436C283.048 145.149 285.051 145.41 283.263 147.216C283.811 147.477 286.768 149.734 285.838 150.019C286.673 149.877 287.293 150.114 287.985 150.59C289.439 151.659 289.344 149.782 290.584 149.782C292.134 149.782 292.42 151.611 294.233 150.851C295.663 150.257 296.26 150.233 297.619 149.734C297.213 150.946 297.977 152.704 297.237 153.821C296.283 155.27 294.781 157.551 295.258 159.19C295.019 159.19 291.609 158.596 291.037 158.596C287.985 158.596 286.172 159.499 283.001 158.453C281.927 158.097 278.493 158.097 278.493 156.315C277.086 155.983 274.463 156.505 274.463 158.335C273.533 159.594 273.915 160.9 271.292 159.594C269.479 158.691 268.287 156.767 266.284 156.22C264.686 155.769 263.064 156.577 261.943 154.866C260.966 153.393 262.23 150.756 262.325 149.378C261.085 149.592 260.25 148.285 259.058 149.14C258.557 149.52 255.028 149.924 254.384 149.924C252.428 149.924 251.236 149.449 249.138 150.067C247.325 150.59 244.559 152.704 242.77 152.704C241.411 152.704 238.526 151.136 237.929 152.086C237.023 153.559 235.616 154.913 234.305 156.363C232.588 158.263 233.136 159.285 232.397 161.518C231.61 164.06 228.486 163.395 227.198 165.129C224.956 168.218 221.809 172.803 222.906 176.581C223.526 178.719 223.549 180.548 222.524 182.544C221.856 183.827 220.998 183.518 221.809 184.848C222.119 185.371 222.309 186.701 222.309 187.295C223.216 189.291 226.459 191.096 227.747 193.448C229.559 196.751 233.828 200.148 237.691 198.77C239.933 197.986 241.029 199.032 243.128 199.032C244.583 199.032 246.991 197.25 248.446 196.798C252.762 195.492 253.12 199.269 256.936 199.269C258.557 199.269 259.726 199.934 260.465 201.384C259.893 201.835 259.654 203.997 259.964 204.662C255.934 206.943 263.207 212.027 263.589 214.45C264.042 217.349 266.951 221.388 265.282 224.262C264.447 225.688 263.112 226.709 262.73 228.396C262.087 231.104 263.422 233.765 264.805 235.998C267.023 239.562 266.451 243.387 268.549 247.141C269.479 248.78 270.505 250.372 271.602 251.892C272.079 252.558 272.603 253.318 272.174 254.149C271.482 255.48 272.579 255.646 272.579 257.285C273.438 256.858 274.344 258.307 275.799 257.879C277.253 257.475 279.185 255.884 280.735 256.786C283.001 258.093 287.245 254.387 288.438 252.7C289.272 251.512 293.994 246.119 292.945 244.741C291.943 243.411 294.233 241.938 295.711 241.843C297.213 241.748 297.07 238.636 296.641 237.638C296.164 236.569 294.757 235.547 295.926 234.359C296.808 233.48 297.643 232.221 298.835 231.532C300.099 230.819 306.395 228.515 303.771 225.973C303.771 224.31 304.725 220.865 303.628 219.629C302.341 218.156 302.388 216.683 302.102 214.83C301.768 212.502 303.151 212.36 303.676 210.459C304.725 206.753 307.921 205.304 310.854 203.284C314.145 201.027 316.863 196.513 318.461 192.878C319.081 191.453 319.844 189.671 319.105 188.198C317.007 188.721 314.717 189.956 312.523 189.647C310.449 189.362 310.21 191.595 308.493 189.22C307.802 188.839 307.635 188.364 308.016 187.747C307.635 186.321 307.229 187.129 306.347 186.084C305.369 184.943 305.178 184.254 303.771 183.47C301.601 182.282 302.484 179.835 300.6 178.481C299.145 177.436 299.121 176.747 299.121 175.131C299.121 173.753 298.096 173.207 297.5 171.972C296.546 170.047 295.83 168.075 294.709 166.103C293.875 164.654 292.182 162.754 292.301 161.019C293.136 161.851 293.732 164.084 295.091 164.274C295.353 163.442 295.759 162.635 295.997 161.779C295.735 163.371 298.477 169.667 299.765 169.786C300.934 169.881 301.816 171.9 301.816 172.946C301.816 175.464 303.485 175.464 304.225 177.269C304.845 178.814 306.49 179.622 307.086 181.047C307.563 182.116 306.991 183.518 307.468 184.753C308.875 188.602 309.781 186.036 312.523 186.036C314.026 186.036 320.727 183.09 320.727 182.52C320.727 181.261 323.541 180.904 324.352 180.738C325.305 180.548 326.927 178.98 327.499 178.053C327.905 177.412 332.77 172.851 331.339 172.233C330.289 171.781 330.075 170.807 328.811 170.356C327.142 169.738 326.307 168.384 326.689 166.65C325.186 167.766 324.471 169.548 322.491 169.952C318.867 170.712 319.94 168.978 319.439 166.84C319.129 167.149 318.771 167.458 318.437 167.743C318.27 166.175 316.22 165.319 315.504 163.799C314.026 160.663 316.72 159.119 318.676 161.993C319.773 163.609 321.013 165.367 323.135 166.056C324.757 166.507 325.544 165.296 326.736 165.296C327.857 165.296 327.714 166.745 328.286 167.291C328.859 167.814 330.552 167.766 331.22 167.838C333.127 168.123 334.725 168.337 336.633 168.265C337.014 167.885 340.687 167.766 341.188 167.909C341.927 168.147 342.142 169.358 342.499 169.928C343.549 171.52 345.051 171.378 346.649 171.781C345.933 172.47 345.48 172.233 344.717 172.732C345.528 173.54 346.911 176.082 348.437 174.775C349.224 174.11 349.248 173.159 350.083 172.684C350.083 177.032 350.56 181.57 353.064 185.632C354.804 188.222 356.474 197.582 359.359 190.74C359.55 190.336 360.504 190.241 360.599 190.004C360.79 189.41 360.289 188.507 360.504 187.77C360.981 186.107 360.599 185.11 360.599 183.47C360.599 182.282 362.922 181.355 363.866 180.833C365.011 180.2 365.441 179.678 366.701 179.678C367.011 175.781 367.961 168.265 367.121 152.42C365.021 131.452 360.443 109.259 346.063 85.7868ZM319.057 137.594C319.057 137.618 319.081 137.642 319.105 137.665C319.081 137.689 319.105 137.713 319.129 137.737C319.201 137.855 319.272 137.974 319.344 138.093C320.202 139.328 321.418 140.303 321.418 141.966C322.73 141.324 323.994 141.015 323.994 143.13C323.469 143.011 322.229 143.011 321.848 143.486C320.798 144.721 323.231 144.888 323.231 146.503C323.231 149.307 323.755 149.948 320.202 149.948C318.795 149.948 318.891 148.95 317.841 148.713C315.647 148.309 317.126 147.454 315.695 146.361C315.552 146.266 315.48 146.099 315.457 145.886C315.6 146.028 316.005 146.028 316.172 146.004C316.697 145.292 316.697 144.009 317.579 143.581C314.836 142.061 312.428 136.786 313.954 134.126C314.526 133.128 317.436 132.344 318.533 132.154C321.371 131.678 322.682 132.676 324.137 134.886C323.111 135.694 320.655 134.933 319.248 135.575C317.293 136.478 318.294 136.335 319.057 137.594ZM315.409 145.719V145.553C315.433 145.577 315.433 145.577 315.457 145.6C315.433 145.648 315.409 145.672 315.409 145.719Z" fill="url(#paint5_linear_39_99751)"/>
<path d="M262.289 56.7651C263.195 56.7651 264.793 61.8255 266.486 58.6419C266.987 57.7154 268.37 58.7607 269.324 58.6182C268.919 58.9508 265.318 60.1387 265.318 60.3763C265.318 61.8255 268.633 60.6851 269.515 61.2791C268.275 61.5879 267.226 61.4454 265.986 61.6354C265.986 62.8946 267.416 63.5598 268.37 64.0112C271.137 65.3416 269.539 63.441 271.399 62.0393C272.281 61.3503 272.329 60.9702 272.854 59.8298C273.927 57.5253 274.523 58.6657 276.144 58.8558C275.238 58.7607 275.167 59.0696 275.882 59.7823C276.717 61.1128 275.858 60.3525 275.691 61.778C277.337 61.9205 277.599 61.3028 277.957 62.7758C279.125 62.3957 279.96 61.4454 281.152 61.0652C280.198 59.6873 277.695 58.737 276.717 58.4994C277.933 58.4994 274.451 56.6938 273.879 56.5038C272.305 55.9573 272.782 54.912 271.16 55.7435C271.16 53.1064 267.416 52.8688 268.871 56.6938C267.941 56.3612 267.965 55.3634 267.345 54.7457C266.367 53.7954 265.079 55.4584 266.081 55.9811C265.246 55.1496 264.221 55.8385 265.318 54.5319C264.412 54.3656 263.029 54.033 262.146 54.5794C261.288 55.1496 260.572 56.7651 262.289 56.7651Z" fill="url(#paint6_linear_39_99751)"/>
<path d="M272.305 54.0329C272.21 55.007 275.62 54.7456 276.454 54.7456C275.739 55.0307 274.928 54.9357 274.189 55.0545C274.38 56.48 276.788 55.7435 277.718 55.8623C279.221 58.4043 283.227 55.1733 284.706 54.1992C283.489 51.7522 281.009 53.3439 279.245 53.3439C279.197 52.9163 279.197 52.5124 279.245 52.0848C278.267 52.2511 277.885 53.534 276.812 53.0588C275.691 52.5837 275.214 52.0848 273.951 52.2511C274.046 52.4174 274.117 52.5837 274.213 52.75C273.307 52.9163 272.639 52.9638 271.59 52.845C271.614 53.3439 271.876 53.7478 272.305 54.0329C272.21 55.197 271.9 53.7241 272.305 54.0329Z" fill="url(#paint7_linear_39_99751)"/>
<path d="M262.742 59.5208C262.408 58.4517 261.717 58.2142 261.073 57.4302C260.334 57.9053 261.788 59.2833 262.742 59.5208Z" fill="url(#paint8_linear_39_99751)"/>
<path d="M261.193 57.3589C261.097 57.6456 261.121 57.3828 261.193 57.3589V57.3589Z" fill="url(#paint9_linear_39_99751)"/>
<path d="M261.025 57.3589C261.049 57.3828 261.169 57.5261 261.025 57.3589V57.3589Z" fill="url(#paint10_linear_39_99751)"/>
<path d="M231.669 122.811C231.669 124.973 236.367 123.049 237.035 122.408C237.154 122.289 237.774 117.537 237.798 117.608C236.391 114.211 233.959 118.297 233.458 118.464C232.933 118.654 231.383 118.773 232.456 119.794C233.863 121.172 231.669 121.196 231.669 122.811Z" fill="url(#paint11_linear_39_99751)"/>
<path d="M236.2 111.242C236.82 111.099 237.154 110.719 237.154 110.077C236.582 110.077 235.366 111.242 236.2 111.242Z" fill="url(#paint12_linear_39_99751)"/>
<path d="M237.822 112.691C237.297 114.116 238.68 114.187 238.013 115.755C238.156 115.755 238.275 115.755 238.418 115.755C238.227 115.518 238.227 115.256 238.418 114.995C240.564 116.421 237.44 117.466 241.208 117.466C240.684 118.487 243.951 120.436 239.801 120.436C239.801 121.196 239.73 123.714 239.038 123.714C239.754 123.714 241.304 124.379 241.876 123.548C241.876 124.569 239.038 125.116 238.49 126.731C239.134 126.708 239.587 126.375 240.254 126.328C240.254 124.997 242.138 125.805 242.878 125.662C244.237 125.401 247.671 125.805 248.029 124.213C247.671 124.189 247.337 124.142 247.027 124.023C247.456 123.31 248.649 122.978 248.649 122.004C248.649 121.101 247.528 120.816 246.932 121.243C247.027 121.172 247.099 121.101 247.194 121.053C246.073 121.6 246.86 119.77 245.906 118.678C244.547 117.086 243.378 115.66 241.566 115.114C241.876 113.95 243.545 113.047 243.331 111.645C242.949 111.645 240.469 111.883 240.35 111.645C239.682 110.647 242.091 110.481 241.28 109.673C239.277 107.678 237.893 112.192 237.822 112.192C238.299 112.192 236.487 111.645 236.653 111.74C236.773 112.382 237.154 112.714 237.822 112.691Z" fill="url(#paint13_linear_39_99751)"/>
<path d="M239.563 118.393C239.444 118.583 239.324 118.796 239.205 119.01C239.396 119.01 239.587 119.01 239.754 119.01C239.992 118.511 239.921 118.298 239.563 118.393Z" fill="url(#paint14_linear_39_99751)"/>
<path d="M226.471 95.324C226.423 94.54 223.943 92.9957 224.992 92.2592C222.727 92.2592 222.989 91.9742 221.32 92.5206C220.127 92.9007 217.099 93.5184 216.193 92.6156C215.429 93.6609 214.547 93.756 214.213 91.8078C213.736 91.7603 212.21 92.5681 211.9 92.6631C212.043 93.3996 214.213 93.8748 214.666 94.1836C213.856 94.4687 212.902 94.635 212.043 94.635C212.759 94.8726 213.474 94.9439 214.213 94.8251C214.07 95.6091 214.166 96.1555 213.498 96.5831C215.692 96.5831 217.814 98.3887 220.27 98.3887C222.178 98.3887 225.493 97.0345 226.471 95.324Z" fill="url(#paint15_linear_39_99751)"/>
<path d="M139.262 176.456C135.804 175.031 127.648 168.426 124.238 174.152C125.049 173.938 125.621 173.439 126.479 173.154C128.268 172.536 127.696 173.653 128.721 173.653C131.273 173.653 132.799 174.983 134.921 175.958C134.516 176.1 134.349 176.361 134.421 176.718C135.541 176.694 138.451 177.834 139.262 176.456C138.904 177.05 138.904 176.29 139.262 176.456Z" fill="url(#paint16_linear_39_99751)"/>
<path d="M126.789 173.843C126.694 174.152 126.336 174.318 126.336 174.651C126.336 175.292 126.813 173.582 126.789 173.843Z" fill="url(#paint17_linear_39_99751)"/>
<path d="M133.848 179.212C133.848 180.472 135.756 179.759 136.328 179.664C135.828 179.189 135.708 179.07 135.971 179.307C135.708 179.236 133.848 178.476 133.848 179.212Z" fill="url(#paint18_linear_39_99751)"/>
<path d="M149.778 179.117C149.778 179.854 151.567 179.925 151.853 179.379C151.734 179.117 149.778 178.357 149.778 179.117Z" fill="url(#paint19_linear_39_99751)"/>
<path d="M139.381 178.903C139.429 179.283 139.619 179.569 139.977 179.711C139.977 178.214 143.173 180.115 143.506 180.115C144.031 180.115 144.532 179.473 145.176 179.473C146.106 179.473 146.869 178.903 147.966 179.07C147.56 178.642 147.107 178.262 146.607 177.953C146.678 178.024 146.773 178.096 146.845 178.167C146.416 177.953 140.883 175.862 140.883 177.05C140.883 176.931 142.219 178.998 141.885 178.666C141.336 178.951 139.834 178.903 139.381 178.903C139.476 178.903 139.381 179.212 139.381 178.903Z" fill="url(#paint20_linear_39_99751)"/>
<path d="M157.624 191.447C157.624 191.685 158.673 190.996 158.673 190.45C158.029 190.378 157.624 190.735 157.624 191.447Z" fill="url(#paint21_linear_39_99751)"/>
<path d="M174.341 205.655C172.147 205.655 174.865 210.264 176.559 207.27C177.155 206.201 175.247 205.655 174.341 205.655Z" fill="url(#paint22_linear_39_99751)"/>
<path d="M140.239 273.34C140.478 273.174 141.527 270.466 140.287 270.466C139.691 270.466 139.238 273.174 140.239 273.34Z" fill="url(#paint23_linear_39_99751)"/>
<path d="M154.929 133.93C155.287 134.215 155.668 134.382 156.002 134.31C155.645 134.192 155.287 134.097 154.929 133.93Z" fill="url(#paint24_linear_39_99751)"/>
<path d="M195.374 213.186C195.35 213.186 195.326 213.162 195.279 213.162C195.255 213.162 195.231 213.138 195.231 213.138C195.183 213.138 195.136 213.114 195.112 213.114C195.088 213.091 195.064 213.091 195.064 213.091C193.705 212.758 193.037 213.091 191.797 212.022C190.628 211 189.675 209.622 187.838 209.86C185.883 210.121 184.19 208.862 182.473 209.812C182.473 207.912 180.541 207.341 178.848 206.819C176.63 206.13 176.916 209.123 175.557 209.123C174.842 209.123 173.983 207.793 173.244 207.413C171.169 206.605 174.174 204.609 174.794 203.825C174.794 203.184 172.767 200.048 172.314 199.668C171.074 198.694 170.358 198.385 169.047 197.862C167.807 197.387 166.447 197.506 165.136 197.292C163.49 197.054 162.823 195.89 161.797 194.845C160.533 193.538 155.168 191.685 156.813 190.426C155.239 190.046 154.762 190.64 153.522 191.091C152.187 191.542 151.781 190.687 150.589 190.687C148.133 190.687 147.441 188.668 145.223 188.525C145.51 188.882 145.82 189.214 146.201 189.476C142.719 188.763 144.77 192.825 143.84 192.825C141.742 192.825 143.959 189.024 143.959 188.62C143.959 187.551 140.549 189.428 139.882 189.642C137.449 190.355 136.567 192.897 134.85 194.156C135.708 193.253 133.109 192.16 132.346 192.16C130.844 192.16 129.293 194.156 128.173 192.374C127.41 191.186 125.883 191.471 125.883 189.666C125.883 188.454 125.883 187.385 126.098 186.221C126.79 182.538 123.546 182.847 120.589 183.108C117.155 183.394 119.302 181.445 119.302 178.951C119.707 179.212 119.421 178.975 119.707 179.307C120.47 178.024 120.923 176.1 121.162 174.627C119.588 174.627 117.394 173.795 116.249 175.411C114.89 177.335 115.653 178.856 113.244 178.856C112.457 178.856 110.669 180.091 110.049 179.307C109.381 178.499 108.165 177.597 107.378 176.789C106.376 175.791 105.613 174.247 105.613 172.821C105.613 170.612 105.184 164.435 107.521 163.603C108.761 163.081 111.003 160.919 112.386 161.727C112.887 162.035 116.988 162.843 117.489 162.582C117.108 162.083 117.06 161.56 117.37 160.99C117.155 161.133 116.917 161.133 116.678 160.99C117.895 160.562 119.492 161.228 120.279 160.776C121.233 160.23 122.115 160.943 122.879 161.441C124.119 162.273 123.785 161.085 124.81 161.085C126.384 161.085 128.697 170.517 130.438 168.593C132.704 166.098 127.791 161.584 129.365 158.543C130.963 155.407 134.921 155.455 136.829 152.96C136.018 151.677 137.115 152.651 136.328 151.273C137.592 151.273 136.09 147.852 136.424 146.973C136.448 147.021 137.068 149.491 137.187 149.491C138.522 149.491 138.045 146.997 137.902 146.474C138.713 146.64 139.142 146.094 139.715 144.977C140.215 143.932 139.476 144.74 139.476 143.861C139.476 143.338 141.766 143.433 142.147 143.314C141.766 143.029 140.859 143.267 140.382 143.314C141.909 142.317 144.556 142.483 145.796 141.699C143.864 142.103 144.58 139.323 145.82 138.373C146.94 137.47 150.112 137.422 149.587 135.902C151.257 136.757 152.115 134.88 153.308 134.785C153.188 135.427 153.427 135.664 154.071 135.546C150.494 135.854 151.567 139.442 152.664 138.468C153.284 137.921 158.172 135.926 158.172 135.403C158.172 134.762 157.147 134.595 156.026 134.31C156.026 134.31 156.026 134.31 156.002 134.31C155.668 134.382 155.287 134.215 154.929 133.93C154.929 133.93 154.929 133.93 154.905 133.93C153.785 133.479 152.902 132.695 153.26 130.913C152.854 130.842 152.425 130.794 151.996 130.77C152.449 130.176 156.122 128.371 152.64 128.323C150.255 128.299 148.92 129.82 146.75 130.105C147.346 128.893 150.78 126.47 152.163 126.28C154.5 125.995 158.435 127.492 160.462 125.971C161.893 124.902 164.707 124.403 165.78 123.073C166.757 121.861 164.85 119.937 164.73 118.678C164.087 119.034 159.985 121.03 159.436 119.984C160.199 119.58 165.804 117.846 162.274 117.513C161.106 117.418 159.341 116.872 159.341 115.399C158.792 114.995 157.648 114.615 156.909 114.045C159.15 112.762 156.122 111.384 155.668 110.315C155.025 108.866 154.905 107.773 153.475 106.585C152.258 105.611 150.994 110.22 148.967 110.22C146.869 110.22 146.153 107.06 145.939 105.587C145.867 105.017 142.624 103.306 142.123 102.926C139.786 101.168 138.713 102.166 135.947 101.287C131.631 99.909 134.826 103.615 133.3 104.589C132.632 104.993 135.541 107.725 132.394 108.961C134.301 112.168 137.521 117.038 131.273 118.274C132.441 118.868 132.537 120.293 132.656 121.41C132.847 122.954 132.251 122.645 132.131 123.976C130.462 123.976 131.487 125.425 129.627 123.714C127.624 121.932 127.958 120.768 127.576 118.393C127.171 115.945 123.737 117.015 122.044 116.017C120.446 115.066 118.705 114.401 116.964 113.736C116.488 113.475 116.011 113.213 115.51 112.976C114.27 112.406 113.96 113.498 112.839 113.498C112.839 110.885 111.957 109.507 109.643 109.959C110.025 108.866 109.548 107.488 109.763 106.324C110.073 104.589 111.408 103.449 112.243 101.976C113.197 100.313 114.007 101.406 115.2 100.432C116.559 99.3151 113.197 98.7924 112.815 98.5786C112.815 98.5786 113.22 98.3173 113.53 98.3648C114.317 98.5073 115.081 98.6974 115.844 98.9587C116.988 99.3151 116.154 97.8896 116.869 97.8896C118.562 97.3432 119.135 97.1531 120.661 96.0128C120.732 94.3022 117.37 95.3951 116.464 93.6132C117.871 93.8033 119.135 95.2288 120.613 94.4685C120.947 94.2785 122.378 92.2591 121.71 92.0215C122.569 92.0927 122.974 92.9955 123.809 92.9955C124.667 92.9955 125.526 91.9264 125.573 91.9264C126.813 91.8789 126.98 92.3541 128.316 90.9999C129.699 89.5744 128.006 89.5982 127.72 88.244C127.505 87.1274 128.983 87.3174 128.817 86.3196C128.626 85.0605 128.173 85.7019 127.29 84.9179C126.67 84.3953 122.95 83.1123 122.95 84.9417C123.141 85.4168 123.403 85.8682 123.689 86.2959C123.689 86.8661 122.521 86.8423 122.282 87.3175C121.519 88.9092 120.351 91.9027 118.801 88.8142C118.061 87.2937 120.375 87.1511 118.085 85.5119C116.559 84.4428 116.941 87.46 115.605 87.46C115.605 86.2246 114.007 85.6307 114.961 84.8942C114.174 84.419 113.054 84.9179 112.434 84.1339C114.246 83.0886 112.767 81.0692 111.623 79.6675C109.691 77.3392 108.69 79.62 107.593 79.905C107.092 80.0476 106.829 83.5162 107.545 83.8251C109.071 84.4428 111.265 84.514 109.906 86.7948C113.125 85.013 107.163 91.0949 107.426 89.3131C108.046 85.4168 103.515 89.028 102.942 89.028C100.105 89.0518 94.262 89.6695 93.1173 86.0583C91.9726 86.3671 90.3272 86.1296 89.3971 86.9848C88.2048 88.1015 91.2334 87.6976 92.2826 87.3175C91.4957 87.9352 89.3971 90.3347 90.2318 90.691C88.8963 90.501 87.9186 88.7192 86.0347 88.7192C84.7946 88.7192 79.6436 89.9546 79.6436 88.3865C79.6436 87.8639 81.2176 88.1014 81.5037 87.8164C80.5021 86.4384 78.9006 86.2958 77.7559 86.3196C70.7687 97.8183 65.7884 110.315 61.9729 123.524C62.3067 124.665 62.5929 125.781 64.0476 125.781C64.3337 126.874 66.0984 126.209 66.48 127.444C67.0046 129.155 71.2971 128.442 68.9124 131.364C68.3162 130.319 65.8361 130.081 67.0046 131.792C68.4116 133.859 67.5293 135.237 67.1 137.517C66.6469 139.893 66.7423 147.757 70.1286 148.232C69.8663 150.323 71.7979 151.416 72.1079 153.316C72.2987 154.599 76.7104 155.383 77.5451 157.046C77.8313 157.403 80.8121 165.171 81.9091 165.29C81.6468 165.338 81.3368 165.361 81.0268 165.314C82.1476 166.953 84.8185 166.597 84.8185 169.21C84.8185 169.852 87.6563 172.608 88.1094 172.608C88.5386 172.608 85.7962 167.571 85.3193 166.953C84.3892 165.742 84.1031 164.079 83.0538 163.057C82.2191 162.202 79.5006 160.159 80.7406 158.567C81.456 159.042 82.2191 159.375 83.0538 159.565C83.34 160.159 83.5784 160.729 83.8169 161.323C84.7469 162.249 85.2477 163.817 86.297 164.863C86.9409 164.221 89.5402 168.854 90.0887 169.139C91.5434 169.923 92.9265 171.467 93.785 172.821C95.0012 174.722 94.4289 174.865 94.4289 176.694C94.4289 178.927 99.2937 179.545 100.51 180.804C101.869 182.182 105.494 182.277 107.187 183.251C108.356 183.916 108.666 182.42 109.691 182.42C111.289 182.42 112.243 183.869 113.292 184.772C114.556 185.864 116.416 185.864 117.871 186.648C118.586 187.052 119.301 187.076 120.017 186.72C120.565 187.052 120.852 187.884 121.472 188.454C122.569 189.428 123.284 192.517 123.952 191.542C125.025 191.542 130.486 197.577 131.034 194.916C129.913 194.441 132.155 192.564 133.037 193.514C133.801 194.346 133.443 195.011 134.206 195.866C135.756 197.601 134.969 201.141 133.586 202.115C132.06 203.184 131.392 205.369 130.653 206.629C129.532 208.482 129.913 208.838 131.44 209.812C130.939 211.832 128.244 211.855 129.723 214.469C130.08 215.063 131.44 216.892 131.941 217.391C133.538 218.888 136.376 224.091 136.376 226.49C136.4 229.27 143.316 230.41 144.77 232.429C146.63 234.995 145.271 238.654 145.271 241.505C145.271 244.308 143.769 246.969 143.769 249.701C143.769 252.386 143.649 255.379 143.173 258.04C142.696 260.582 140.335 262.317 140.835 265.286C141.05 266.617 141.002 265.975 140.478 267.638C140.359 268.018 140.001 270.513 140.979 270.513C141.456 270.513 141.622 269.943 142.195 269.943C142.219 272.651 141.122 275.526 140.525 278.163C139.715 278.163 139.405 276.476 138.713 277.807C138.522 278.163 139.071 279.161 139.095 279.256C139.905 280.824 138.26 280.753 138.26 282.131C138.26 283.271 138.618 285.504 139.023 286.573C139.023 287.619 140.382 287.524 140.382 288.64C140.382 289.686 139.476 289.852 139.476 290.588C139.476 292.964 145.51 292.988 146.297 294.793C147.012 296.504 152.211 295.886 153.117 294.58C149.635 292.917 149.23 291.325 147.274 288.474C146.44 287.262 147.393 285.433 148.705 285.124C149.921 284.863 149.731 282.986 150.851 282.297C154.619 279.992 147.894 279.208 150.184 276.666C151.519 275.217 152.354 276.5 152.854 274.243C152.974 273.507 153.308 272.865 153.832 272.319C153.451 272.224 153.26 271.962 153.26 271.558C153.737 271.558 155.096 272.58 155.096 271.368C155.096 270.489 153.88 271.44 153.451 270.846C150.589 266.831 156.813 270.537 156.813 268.446C156.813 262.911 160.509 266.997 163.371 264.17C163.991 263.528 165.947 261.628 164.516 260.725C164.349 260.63 162.465 257.945 162.465 257.755C162.465 258.278 168.594 258.872 169.643 257.232C171.193 254.738 173.148 252.695 174.508 250.153C175.891 248.228 176.249 247.824 176.511 245.425C176.511 242.455 180.136 240.816 182.425 239.581C183.832 238.939 185.334 239.652 186.622 238.583C187.29 238.013 187.504 236.73 188.005 235.993C189.317 234.021 190.676 230.719 190.676 228.319C190.676 226.585 189.746 225.326 191.463 224.138C192.369 223.52 192.989 222.356 193.681 221.501C194.849 220.075 198.808 214.445 195.374 213.186ZM148.681 131.839L148.705 131.887C148.729 131.911 148.729 131.934 148.729 131.934C148.753 131.982 148.777 132.053 148.8 132.124C148.729 131.982 148.634 131.839 148.61 131.721C148.634 131.744 148.657 131.792 148.681 131.839Z" fill="url(#paint25_linear_39_99751)"/>
<path d="M133.395 169.139C133.276 169.614 133.443 169.947 133.896 170.089C134.898 170.113 133.395 168.783 133.395 169.139Z" fill="url(#paint26_linear_39_99751)"/>
<path d="M133.348 166.264C133.038 166.288 132.823 166.431 132.656 166.668C134.659 166.668 134.063 166.264 133.348 166.264Z" fill="url(#paint27_linear_39_99751)"/>
<path d="M134.921 166.882C134.874 167.025 135.017 167.334 135.184 167.286L134.921 166.882Z" fill="url(#paint28_linear_39_99751)"/>
<path d="M141.026 174.888C141.074 174.888 140.502 174.532 140.025 175.197C140.382 175.221 140.716 175.102 141.026 174.888Z" fill="url(#paint29_linear_39_99751)"/>
<path d="M98.6737 84.0388C97.1475 84.0388 99.0075 85.4405 99.2937 85.6544C98.6737 86.9373 96.1697 86.7235 95.1204 86.3196C92.4496 85.2742 90.041 85.0129 87.2986 86.961C86.6309 87.0561 82.6245 87.4362 82.2668 86.7235C81.5991 85.3455 79.3098 85.8239 78.0459 85.6101C78.5944 84.6836 79.1667 83.7808 79.7629 82.9017C80.6214 82.8542 81.456 82.878 82.2668 82.8067C81.6468 82.4503 80.9314 82.3078 80.1921 82.2603C81.4083 80.3834 82.6722 78.5303 83.9838 76.7247C84.7708 77.5325 87.1078 77.3867 86.5593 75.7236C87.9663 75.5336 89.3494 76.3889 89.4925 77.8856C89.6117 79.1448 91.138 79.4298 90.4941 77.8381C90.2079 77.1254 88.8486 74.4645 90.5895 74.4645C91.3526 74.4645 91.9488 75.0109 91.9488 73.9656C91.9488 72.3501 96.4559 73.0865 94.9535 74.8921C93.6181 76.4601 94.572 77.4342 95.2874 79.1923C96.4559 82.162 98.3398 81.7819 100.701 83.635C100.081 84.0626 99.4129 84.1814 98.6737 84.0388Z" fill="url(#paint30_linear_39_99751)"/>
<path d="M66.8623 79.1932C66.8623 79.1932 66.8381 79.169 66.8139 79.1449H66.8381C66.8381 79.169 66.8623 79.169 66.8623 79.1932Z" fill="url(#paint31_linear_39_99751)"/>
<path d="M105.971 76.3889C105.971 75.0348 105.589 75.4149 104.254 75.5812C108.523 70.1644 99.9614 74.6309 99.9614 74.227C99.9614 75.2961 101.583 74.2983 101.583 75.89C101.583 76.9354 99.1268 75.6525 98.5545 75.6525C98.6021 76.7691 103.92 80.5465 104.612 79.715C105.208 78.931 109.548 77.268 105.971 76.3889C106.162 76.4365 105.971 75.89 105.971 76.3889Z" fill="url(#paint32_linear_39_99751)"/>
<path d="M96.0028 64.9141C95.7881 64.9141 95.5974 64.9141 95.4066 64.9141C95.4066 65.9832 95.9312 66.7909 96.9328 67.3374C98.4829 68.1926 101.154 66.6484 102.585 67.5987C102.012 68.1689 100.963 68.2877 100.963 69.3568C100.963 69.8794 102.322 69.6181 102.585 69.6181C104.898 69.6181 104.373 69.0954 104.874 67.2186C105.494 64.8903 101.726 64.0588 99.8183 64.8903C100.248 66.4108 101.678 64.7715 101.583 66.6959C100.462 66.6959 99.9137 65.5793 98.7929 65.5793C99.5083 66.6246 97.1951 65.413 99.7945 67.0285C98.1013 67.5037 97.5767 64.9141 96.0028 64.9141Z" fill="url(#paint33_linear_39_99751)"/>
<path d="M103.825 85.5595C103.419 85.4645 103.038 85.5358 102.704 85.8209C102.704 86.4386 107.116 87.6264 107.759 87.0325C108.809 86.0822 107.521 85.3695 106.591 84.6567C104.516 83.065 105.255 85.0844 103.825 85.5595C104.445 85.3457 103.634 85.607 103.825 85.5595Z" fill="url(#paint34_linear_39_99751)"/>
<path d="M110.669 72.1126C110.597 72.1126 108.499 72.9916 109.31 73.3717C106.949 73.0629 108.904 76.6978 108.904 78.147C110.025 78.2896 110.883 77.6719 111.074 76.484C110.86 76.484 110.645 76.484 110.407 76.484C110.693 75.5574 111.05 76.1276 111.813 76.1276C113.22 76.1276 113.96 75.1298 114.699 74.1082C115.176 73.3242 115.414 73.6806 115.605 72.6828C113.936 72.7065 112.338 72.1126 110.669 72.1126Z" fill="url(#paint35_linear_39_99751)"/>
<path d="M94.4766 69.5467C94.9774 67.3847 97.7675 69.1666 94.4766 69.5467C94.6912 68.6914 94.882 69.4992 94.4766 69.5467Z" fill="url(#paint36_linear_39_99751)"/>
<path d="M117.632 70.3544C119.635 71.0909 121.567 71.1146 123.999 71.1146C125.12 71.1146 125.549 70.2118 126.36 70.9721C127.481 71.9937 131.13 71.1146 131.273 69.4516C131.058 69.4753 130.82 69.4753 130.605 69.4041C130.677 69.0002 130.891 68.8339 131.273 68.8576C129.89 66.3393 125.645 67.5985 123.57 68.2637C122.425 68.6438 116.011 68.5725 116.964 67.5985C116.177 66.9808 114.985 67.7885 114.699 66.4344C115.367 66.5056 116.082 66.3156 116.726 66.4344C115.677 64.9376 113.674 65.3177 112.433 65.3177C111.122 65.3177 110.359 64.1299 109.214 63.7497C108.117 63.3696 105.327 63.8685 107.354 64.9851C108.117 65.4128 109.262 66.078 110.168 66.078C110.931 65.294 111.503 65.4128 111.885 66.4106C112.267 67.0283 112.72 67.5985 113.197 68.1449C111.336 69.0239 115.796 72.6351 117.632 70.3544Z" fill="url(#paint37_linear_39_99751)"/>
<path d="M111.17 69.3329C111.17 66.7908 106.877 67.8361 106.877 69.5942C108.189 70.2119 111.17 72.1838 111.17 69.3329Z" fill="url(#paint38_linear_39_99751)"/>
<path d="M111.313 62.0393C111.313 61.8255 111.313 61.6116 111.313 61.3741C110.144 61.6116 108.356 61.0177 107.378 61.968C107.855 62.0868 111.313 63.1084 111.313 62.0393Z" fill="url(#paint39_linear_39_99751)"/>
<path d="M106.019 60.2814C105.756 60.3527 105.589 60.519 105.518 60.7803C105.518 60.9229 111.79 61.0179 107.569 58.9035C105.208 57.7393 103.276 57.5493 106.019 60.2814C105.852 60.3289 105.399 59.6637 106.019 60.2814Z" fill="url(#paint40_linear_39_99751)"/>
<path d="M104.111 54.4367H104.135C104.54 54.698 104.492 55.0306 103.491 55.2207C103.443 55.1969 103.395 55.1969 103.372 55.1732L104.111 54.4367Z" fill="url(#paint41_linear_39_99751)"/>
<path d="M109.906 54.2467C109.095 54.2467 108.451 53.7953 107.64 53.7478C107.807 55.3158 109.333 55.3633 110.573 55.3633C110.287 55.7672 109.119 55.8147 109.476 56.3849C109.906 57.0501 110.526 55.791 111.098 56.5512C111.337 56.8601 114.508 56.5987 115.176 56.765C114.198 56.9789 113.149 56.8601 112.171 57.1214C110.096 57.6678 112.6 59.0458 113.602 59.0458C112.1 60.5425 116.178 60.9226 116.178 59.1408C116.726 59.5922 117.322 59.8773 117.99 60.0436C118.443 59.711 118.109 59.7585 118.896 59.3784C118.515 58.3806 117.799 58.6657 118.848 57.6203C119.445 59.7823 121.281 57.0977 122.688 56.9789C125.287 56.7413 119.898 54.6744 119.898 55.3396C119.898 54.3893 120.112 52.8688 118.491 52.9638C119.111 55.197 117.942 52.845 117.227 52.5599C115.486 51.871 115.295 52.9163 114.27 50.9682C113.65 49.7565 111.527 49.8278 110.407 49.7328C110.717 50.3505 111.217 50.7068 111.933 50.7781C110.979 50.6356 109.977 50.7543 109.143 51.2295C109.143 52.4174 110.693 51.7047 111.217 52.0373C110.383 52.9163 105.685 52.3699 110.359 53.7953C110.263 54.0092 110.096 54.1517 109.906 54.2467Z" fill="url(#paint42_linear_39_99751)"/>
<path d="M128.34 97.5332C127.696 97.0105 124.906 93.7082 123.952 95.0149C123.642 94.5635 123.379 94.1121 123.189 93.6132C121.805 93.7557 121.519 95.5613 121.519 96.6304C121.281 97.2006 120.303 98.4597 120.255 99.0537C120.971 98.9111 121.71 98.9111 122.425 99.0537C122.163 99.5526 122.282 99.8852 122.783 100.052C123.642 100.052 125.573 98.9111 125.573 97.7708C127.529 98.436 128.244 99.909 130.534 98.4835C129.842 98.1034 129.103 97.7945 128.34 97.5332C129.15 98.1509 128.101 97.3431 128.34 97.5332Z" fill="url(#paint43_linear_39_99751)"/>
<path d="M137.95 89.2418C137.95 87.8638 135.804 87.3649 135.041 88.434C133.562 90.5722 137.95 90.9286 137.95 89.2418Z" fill="url(#paint44_linear_39_99751)"/>
<path d="M126.575 100.408C126.432 101.216 125.502 101.382 125.454 102.309C126.384 102.19 127.433 101.311 127.982 100.598C127.553 100.36 127.076 100.289 126.575 100.408C127.6 100.36 126.527 100.717 126.575 100.408Z" fill="url(#paint45_linear_39_99751)"/>
<path d="M132.036 76.1513C133.181 76.1513 134.278 76.0087 135.422 76.0087C137.831 76.0087 133.848 73.6329 132.894 73.6329C132.251 73.6329 129.508 72.4926 129.508 73.9893C129.508 74.9871 131.13 76.1513 132.036 76.1513Z" fill="url(#paint46_linear_39_99751)"/>
<path d="M130.867 103.33C131.487 103.33 132.346 102.071 131.13 101.834C129.794 101.596 130.033 103.33 130.867 103.33Z" fill="url(#paint47_linear_39_99751)"/>
<path d="M140.12 88.8854C139.929 88.624 138.451 87.4837 138.451 88.6003C138.451 89.2417 139.834 88.9566 140.12 88.8854C139.977 88.6715 139.476 89.0279 140.12 88.8854Z" fill="url(#paint48_linear_39_99751)"/>
<path d="M133.061 85.1556C132.465 85.1556 131.297 86.3197 131.893 86.3197C132.489 86.3197 132.894 85.7495 133.061 85.1556Z" fill="url(#paint49_linear_39_99751)"/>
<path d="M143.912 80.5228C144.126 79.3112 141.98 79.525 141.312 79.525C139.381 79.525 139.166 77.957 137.855 77.0067C135.112 75.1061 132.322 77.5056 129.866 77.5056C129.89 77.5056 129.723 73.6331 127.839 73.6331C126.313 73.6331 122.426 73.9182 122.426 76.1514C122.426 77.0305 123.427 77.3393 122.545 78.1708C121.853 78.836 121.424 78.4322 121.424 77.6719C120.065 75.7 122.497 75.0823 123.189 73.6331C121.615 73.6331 120.971 72.8016 119.23 73.6806C117.561 74.5359 117.561 75.6763 116.511 76.9117C113.936 80.0002 119.349 79.9051 119.635 81.1643C118.896 80.9505 118.133 80.903 117.37 81.0218C117.656 83.0887 120.398 82.3284 121.639 83.1837C123.522 84.4904 127.839 83.3263 130.128 83.5401C129.699 86.4148 132.322 82.7798 132.918 82.7798C134.063 82.7798 135.899 84.7992 136.662 85.5595C135.112 85.8208 135.327 87.3413 136.662 86.5098C137.974 85.702 139.5 87.1275 140.406 87.959C143.721 91 137.545 92.663 139.882 94.0647C138.761 94.825 133.419 94.2785 133.419 96.1316C133.419 98.4837 136.448 96.7969 137.115 96.7969C138.832 96.7969 139.214 96.488 140.883 97.6997C143.506 99.624 144.866 101.049 148.681 101.881C149.087 101.976 151.018 103.52 151.018 102.332C151.018 100.646 148.228 99.9091 147.322 98.8163C148.872 98.7925 150.565 100.265 152.163 100.693C154.571 101.358 152.592 97.4858 152.64 96.6543C150.541 96.1316 147.608 94.3023 149.349 92.7818C148.991 92.9244 148.657 92.9006 148.347 92.6868C149.254 92.6868 149.039 91.7602 150.279 92.3304C151.4 92.8293 151.877 94.0885 152.735 94.8962C153.808 95.8703 155.072 95.799 155.072 94.1598C156.098 94.1598 156.265 93.6846 156.193 92.9006C159.627 92.9006 155.907 89.7883 154.524 90.2397C152.783 90.7862 152.831 88.8856 151.448 88.3866C150.351 87.9828 149.683 87.0562 148.61 86.4623C149.015 85.8683 149.587 85.4882 150.279 85.2981C149.969 84.6567 148.538 84.7992 148.014 84.7517C148.49 84.2766 149.087 84.039 149.778 84.039C149.134 82.5185 148.395 83.4213 147.513 82.8273C147.513 82.5422 147.513 82.2572 147.513 81.9721C146.13 81.782 145.152 80.9267 143.912 80.5228C145.271 80.9742 144.079 79.6676 143.912 80.5228Z" fill="url(#paint50_linear_39_99751)"/>
<path d="M133.157 99.5051C133.658 99.909 133.824 99.909 134.325 99.5051C133.705 99.1963 133.658 98.8399 133.157 99.5051Z" fill="url(#paint51_linear_39_99751)"/>
<path d="M124.715 93.3521C124.667 93.7084 125.073 94.1123 125.716 94.1598C125.359 93.7084 125.359 93.067 124.715 93.3521Z" fill="url(#paint52_linear_39_99751)"/>
<path d="M115.462 48.6876C115.963 48.64 116.488 48.6876 116.988 48.6876C116.44 48.8539 115.963 49.139 115.581 49.5428C117.084 50.3744 117.895 48.7826 119.516 49.139C118.395 49.4716 116.941 49.4003 116.392 50.707C117.179 50.6832 117.966 50.6832 118.777 50.707C118.252 50.7545 117.799 50.9445 117.418 51.2534C118.276 52.3462 120.232 52.5601 121.305 51.7998C122.354 51.8949 122.521 52.7976 123.999 52.7976C126.408 52.7976 128.912 51.9661 131.32 51.5385C130.08 53.0827 128.363 52.9402 126.623 52.9402C124.858 52.9402 127.648 54.7933 127.886 55.0071C125.645 55.2447 124.19 52.0374 121.305 53.2015C121.352 53.6292 121.615 53.843 122.068 53.7955C119.421 53.7955 122.02 54.9596 122.902 55.3397C126.074 56.6464 122.902 57.6205 121.472 58.0719C120.088 58.5232 119.349 61.2316 120.923 60.1388C121.877 59.4973 123.499 61.7543 124.238 62.4908C122.831 62.467 116.13 59.7824 120.613 63.0847C119.755 63.6787 118.562 63.3936 117.632 63.845C117.131 64.0825 116.392 65.508 117.418 65.508C119.874 65.508 122.998 65.508 125.836 65.508C127.457 65.508 129.293 66.4346 130.677 66.1732C132.775 65.7693 135.16 63.4173 131.845 64.1063C131.845 62.277 134.278 63.2273 133.61 60.994C134.373 60.994 135.112 60.994 135.875 60.994C136.853 60.994 137.497 59.1172 138.427 58.6896C138.093 58.0956 137.616 57.6917 136.972 57.4779C137.783 57.5729 138.546 57.668 138.427 56.5751C137.95 56.6226 137.473 56.5276 137.02 56.5751C139.5 54.5557 142.195 56.1237 144.556 53.7004C147.036 51.1346 150.923 51.491 153.331 49.0677C152.425 49.0202 150.279 49.6379 149.54 48.9014C151.805 47.8085 154.667 48.5213 156.718 46.977C158.769 45.5278 157.123 45.7654 155.263 45.2427C154.333 44.9814 153.88 43.4371 152.688 43.7697C151.424 44.1261 150.136 44.5062 148.872 44.8626C149.23 44.7675 149.54 44.6012 149.778 44.3161C148.3 42.8432 142.457 43.1045 140.263 43.1045C139.047 43.1045 139.142 44.4349 137.735 43.6509C136.71 43.0807 136.448 43.6984 135.494 43.6984C133.801 43.6984 132.131 43.6984 130.438 43.6984C129.365 43.6984 129.127 44.4587 128.101 44.4587C127.1 44.4587 126.408 45.0289 125.955 45.8604C125.216 47.2621 124.5 46.1692 123.046 45.7654C121.4 45.314 120.756 47.1196 119.206 47.1196C117.823 47.1196 114.031 47.1908 113.602 48.9727C114.365 49.1865 114.747 48.9251 115.462 48.6876Z" fill="url(#paint53_linear_39_99751)"/>
<path d="M214.166 82.8273C213.116 82.4709 208.609 82.8986 208.609 81.1643C210.302 80.8317 209.229 80.3327 209.229 79.2636C209.921 79.6913 210.684 79.0974 211.399 79.9051C212.162 80.8079 212.544 81.7582 213.927 81.7582C218.1 81.7582 211.876 76.9354 211.089 76.3415C211.542 76.6978 209.468 75.0585 210.231 74.8447C211.352 74.8447 211.781 76.3415 212.902 76.8879C214.094 77.4818 215.072 75.9851 214.189 75.0585C213.474 74.2983 212.067 74.5596 211.662 73.4193C212.949 73.5143 213.259 74.7497 214.356 74.1082C216.193 73.0391 216.216 73.7281 216.216 71.8988C217.075 71.8037 218.148 71.4236 218.482 70.5446C217.194 70.1169 215.191 68.8815 218.077 68.8815C217.79 68.5489 217.766 67.0522 217.504 66.5058C217.361 66.1969 214.309 64.0112 216.693 64.0112C217.409 64.0112 220.223 64.5814 220.223 63.251C220.223 61.4929 216.789 62.4907 218.959 61.184C217.647 60.1625 216.67 60.8039 215.429 60.2337C215.835 59.5685 215.596 58.5945 216.288 58.0718C217.242 57.3828 218.243 57.0502 218.339 55.7198C218.41 54.7695 221.344 54.7695 220.604 53.2965C221.582 53.0827 222.87 53.0114 222.87 51.681C222.536 51.9898 222.178 51.9898 221.821 51.681C222.798 51.681 229.046 49.2577 227.83 48.0698C225.779 46.0504 224.253 47.4046 221.987 47.4046C220.867 47.4046 220.294 48.545 219.078 48.3549C218.077 48.1886 217.075 48.2599 216.073 48.2599C213.617 48.2599 212.878 51.8948 210.517 52.5362C210.97 51.0395 213.927 49.7328 213.927 48.1648C213.927 44.2448 208.037 49.519 206.725 49.519C206.749 49.519 208.561 47.262 208.633 47.0007C205.891 45.9316 200.787 48.83 198.403 47.0007C200.549 46.8819 214.118 47.4996 214.547 44.3874C212.568 43.9122 210.851 44.3161 208.967 43.3183C206.94 42.2492 204.937 40.9662 202.576 40.9662C200.358 40.7524 198.021 40.9662 195.779 40.9662C192.703 40.9662 189.293 41.9641 186.241 42.368C186.241 42.558 186.241 42.7718 186.241 42.9619C185.454 43.0094 184.977 42.8193 184.19 42.7006C182.043 42.368 179.754 42.7006 177.799 43.6271C178.109 43.9122 178.442 44.1498 178.8 44.3874C175.605 45.1001 177.441 45.9078 179.659 47.0007C177.751 47.0007 170.621 43.5083 171.98 47.0007C170.907 47.0245 169.381 46.7631 168.784 45.7415C168.57 46.8819 168.522 45.2664 168.522 47.262C167.473 47.262 167.425 45.7415 166.4 45.7415C164.73 45.7415 163.013 46.7394 161.344 46.9769C160.176 47.1432 159.079 47.4996 157.91 47.6422C156.598 47.8085 157.29 49.2577 156.622 49.9229C155.788 50.7307 154.929 49.5903 153.832 50.3743C152.568 51.3008 151.066 52.0373 149.564 52.5125C146.416 53.1064 151.686 54.1993 152.354 54.2706C152.354 58.1193 148.967 56.5275 146.678 57.2878C146.034 57.5016 140.43 59.1409 141.575 60.1387C142.576 61.0177 145.08 61.9681 146.416 61.9681C148.013 62.0156 149.11 61.089 150.708 61.4691C150.04 63.9162 143.84 61.5404 143.483 63.9875C144.699 64.4389 145.939 64.3438 147.274 64.8427C147.036 65.2229 146.678 65.4842 146.273 65.6505C146.869 66.387 150.994 67.5986 149.707 66.292C150.899 65.8168 151.972 66.9097 153.045 66.1732C154.238 65.3654 156.837 65.8643 158.029 66.1969C161.392 67.0997 165.994 71.1385 165.994 74.9398C165.994 76.1039 168.093 75.605 166.447 77.5293C164.42 79.9051 169.381 78.4084 169.667 78.5747C170.287 78.9548 172.576 81.2118 172.409 81.6869C172.075 82.6135 168.951 80.8317 168.045 81.188C168.284 82.8986 172.29 82.9699 173.506 83.35C173.22 84.1102 172.838 84.8467 172.409 85.5357C171.384 87.6264 172.218 86.0584 170.573 86.8899C169.643 87.8402 168.26 89.4319 168.546 90.9287C168.88 90.6911 169.214 90.6911 169.547 90.9287C169.047 92.6155 169.166 92.9718 170.334 94.3973C170.883 95.0625 170.668 96.1554 171.241 96.7256C172.075 97.1532 172.385 95.9653 173.101 96.8681C170.883 99.0776 175.342 102.641 176.892 104.019C178.299 105.278 179.516 103.259 180.827 105.587C181.233 106.3 183.689 106.728 184.094 106.252C185.048 105.112 185.334 102.95 185.382 101.596C185.454 99.4577 187.791 99.6715 187.791 97.9847C187.791 96.9869 186.622 95.3951 188.196 94.6349C188.959 94.2548 189.818 94.2072 190.581 93.8746C191.439 93.4945 191.415 92.5205 192.25 92.1878C192.107 94.1597 194.706 92.7343 195.922 92.2354C197.687 91.5226 198.498 88.8855 200.143 87.7927C201.312 87.0087 204.46 86.9374 205.843 86.6998C208.466 86.3197 212.067 84.5141 214.166 82.8273C213.426 83.445 213.116 82.4947 214.166 82.8273Z" fill="url(#paint54_linear_39_99751)"/>
<path d="M168.188 85.0605C169.071 85.1555 171.169 85.2743 171.312 84.0627C170.168 83.7063 169.571 82.3046 168.284 82.3046C166.71 82.2809 166.996 84.918 168.188 85.0605Z" fill="url(#paint55_linear_39_99751)"/>
<path d="M219.34 68.1926C217.862 69.6893 220.127 69.428 221.105 68.8578C220.151 68.4539 220.318 68.5252 219.34 68.1926Z" fill="url(#paint56_linear_39_99751)"/>
<path d="M166.066 124.427C166.066 122.883 162.036 129.274 161.463 129.559C161.606 129.963 160.819 131.578 161.463 131.578C163.347 131.578 165.136 131.578 166.972 131.578C166.686 131.768 166.495 132.053 166.424 132.386C166.424 133.075 168.331 130.818 168.188 131.032C169.548 132.41 170.001 134.263 170.001 130.842C168.594 131.768 169.452 130.058 169.5 129.582C168.474 129.582 168.999 129.06 168.999 128.062C168.212 128.537 166.71 128.11 166.018 128.014C166.09 127.658 166.137 127.611 166.28 127.302C165.565 126.565 165.303 127.302 164.707 127.444C164.802 126.28 166.066 125.639 166.066 124.427Z" fill="url(#paint57_linear_39_99751)"/>
<path d="M129.603 121.909C130.772 121.909 128.053 121.054 128.125 121.054C128.459 121.624 128.745 121.909 129.603 121.909Z" fill="url(#paint58_linear_39_99751)"/>
<path d="M63.9522 128.371C65.2638 129.179 66.5039 130.272 68.1493 130.224C67.7439 128.537 63.1414 125.235 61.3767 126.09C61.7106 126.114 61.9967 126.233 62.3306 126.304C61.9252 127.444 62.9029 127.872 64.453 127.872C64.2384 127.967 64.0714 128.133 63.9522 128.371C64.763 128.87 64.0476 128.015 63.9522 128.371Z" fill="url(#paint59_linear_39_99751)"/>
<path d="M267.75 147.828C267.321 147.733 263.792 148.042 263.792 148.185C263.792 148.589 266.82 150.133 267.226 150.133C267.297 150.109 267.631 148.208 267.75 147.828Z" fill="url(#paint60_linear_39_99751)"/>
<path d="M259.213 142.198C259.642 141.342 259.451 140.463 259.451 139.632C259.046 139.703 258.784 140.226 258.283 140.226C258.569 140.677 258.569 142.079 259.213 142.198C259.356 141.913 258.712 142.103 259.213 142.198Z" fill="url(#paint61_linear_39_99751)"/>
<path d="M258.45 144.265C258.45 147.187 260.143 146.165 259.976 143.885C259.928 143.338 259.69 142.554 258.998 142.554C257.472 142.554 258.45 143.671 258.45 144.265Z" fill="url(#paint62_linear_39_99751)"/>
<path d="M250.866 145.381C250.866 144.574 250.27 144.954 249.793 145.191C249.889 145.263 250.866 146.094 250.866 145.381Z" fill="url(#paint63_linear_39_99751)"/>
<path d="M261.598 116.872C261.598 116.017 261.073 115.684 260.286 115.851C260.501 116.611 261.002 117.157 261.455 117.419C261.526 117.252 261.574 117.086 261.598 116.872Z" fill="url(#paint64_linear_39_99751)"/>
<path d="M262.194 117.395C262.122 117.086 262.003 117.11 261.836 117.442C263.052 118.654 264.197 115.756 263.887 115.019C263.148 113.285 260.453 116.231 262.909 116.753C262.814 117.086 262.575 117.3 262.194 117.395Z" fill="url(#paint65_linear_39_99751)"/>
<path d="M273.068 110.719C272.424 110.766 271.399 111.954 271.9 112.643C272.377 112.026 272.71 111.432 273.068 110.719C272.949 110.933 272.162 110.79 273.068 110.719Z" fill="url(#paint66_linear_39_99751)"/>
<path d="M277.623 110.481C278.553 110.481 278.386 109.602 278.696 109.127C279.316 108.177 277.146 107.915 278.219 109.317C277.528 109.412 276.431 110.481 277.623 110.481Z" fill="url(#paint67_linear_39_99751)"/>
<path d="M283.418 152.675C282.369 152.342 281.319 152.247 280.246 152.366C280.938 152.77 282.655 153.103 283.418 152.675C282.774 153.031 282.559 152.438 283.418 152.675Z" fill="url(#paint68_linear_39_99751)"/>
<path d="M295.365 151.772C294.364 151.939 293.362 152.342 292.432 152.77C292.432 154.124 295.222 152.414 295.365 151.772C295.246 152.271 294.483 151.915 295.365 151.772Z" fill="url(#paint69_linear_39_99751)"/>
<path d="M315.278 84.5616C314.92 84.5616 314.348 85.9158 314.848 86.2009C315.731 86.7236 316.923 85.8445 317.662 85.4644C318.211 83.8251 315.659 84.5616 315.278 84.5616Z" fill="url(#paint70_linear_39_99751)"/>
<path d="M329.777 82.4471C329.777 83.3261 332.209 84.1576 332.209 83.4449C332.209 82.5421 329.777 81.4018 329.777 82.4471Z" fill="url(#paint71_linear_39_99751)"/>
<path d="M157.171 128.513C156.026 127.848 155.048 126.969 153.594 127.302C154.142 127.729 156.479 129.654 157.171 128.513C157.004 128.751 156.098 127.896 157.171 128.513Z" fill="url(#paint72_linear_39_99751)"/>
<path d="M156.646 133.526C156.527 134.025 156.288 134.239 156.026 134.31C156.026 134.31 156.026 134.31 156.002 134.31C155.668 134.382 155.287 134.215 154.929 133.93C154.929 133.93 154.929 133.93 154.905 133.93C154.405 133.55 153.999 133.004 153.999 132.79C153.999 132.766 153.999 132.742 154.023 132.719C154.452 133.598 155.788 133.716 156.646 133.526Z" fill="url(#paint73_linear_39_99751)"/>
<path d="M159.842 134.405C159.722 134.286 159.317 134.049 159.222 133.954C159.317 134.049 159.102 132.837 159.079 132.79C155.883 133.811 159.842 136.163 159.842 134.405Z" fill="url(#paint74_linear_39_99751)"/>
<path d="M141.147 116.142C165.18 106.309 236.852 105.881 269.469 127.258" stroke="#66CCFF" stroke-width="1.6" stroke-linejoin="round" stroke-dasharray="3.2 3.2"/>
<path d="M267.3 126.583C279.837 112.746 303.365 96.9628 325.381 96.1481" stroke="#66CCFF" stroke-width="1.6" stroke-linejoin="round" stroke-dasharray="3.2 3.2"/>
<path d="M266.116 125.169C283.022 128.19 306.223 139.151 316.251 156.656" stroke="#66CCFF" stroke-width="1.6" stroke-linejoin="round" stroke-dasharray="3.2 3.2"/>
<path d="M105.082 149.064C138.778 133.513 196.719 119.479 268.631 126.686" stroke="#66CCFF" stroke-width="1.6" stroke-linejoin="round" stroke-dasharray="3.2 3.2"/>
<path d="M171.671 205.677C189.703 159.129 244.639 128.515 267.793 128.515" stroke="#66CCFF" stroke-width="1.6" stroke-linejoin="round" stroke-dasharray="3.2 3.2"/>
<path d="M74.3807 247.194C85.2839 264.807 117.994 258.936 154.477 226.646" stroke="#66CCFF" stroke-width="1.6" stroke-linecap="round" stroke-dasharray="3.2 3.2"/>
<path d="M91.1549 268.581C102.897 281.581 130.574 268.581 158.671 231.678" stroke="#66CCFF" stroke-width="1.6" stroke-linecap="round" stroke-dasharray="3.2 3.2"/>
<path d="M61.4279 219.98C69.767 246.775 128.477 237.968 150.702 219.98" stroke="#66CCFF" stroke-width="1.6" stroke-linecap="round" stroke-dasharray="3.2 3.2"/>
<path d="M357.953 227.903C366.34 207.354 349.566 185.967 321.868 171.232" stroke="#66CCFF" stroke-width="1.6" stroke-linecap="round" stroke-dasharray="3.2 3.2"/>
<path d="M367.18 198.969C368.857 188.484 341.599 167.256 327.214 167.257" stroke="#66CCFF" stroke-width="1.6" stroke-linecap="round" stroke-dasharray="3.2 3.2"/>
<path d="M341.599 256.838C359.212 237.548 344.115 202.741 316.438 173.849" stroke="#66CCFF" stroke-width="1.6" stroke-linecap="round" stroke-dasharray="3.2 3.2"/>
<path d="M360.05 116.354C353.76 105.032 337.824 103.624 332.924 103.625" stroke="#66CCFF" stroke-width="1.6" stroke-linecap="round" stroke-dasharray="3.2 3.2"/>
<path d="M355.437 103.775C352.083 99.5801 344.115 96.2261 336.2 97.8253" stroke="#66CCFF" stroke-width="1.6" stroke-linecap="round" stroke-dasharray="3.2 3.2"/>
<path d="M366.341 139.839C364.624 120.51 338.663 108.217 329.018 108.217" stroke="#66CCFF" stroke-width="1.6" stroke-linecap="round" stroke-dasharray="3.2 3.2"/>
<path d="M53.9207 169.613C53.0819 160.807 67.7594 149.484 81.9728 151.231" stroke="#66CCFF" stroke-width="1.6" stroke-linecap="round" stroke-dasharray="3.2 3.2"/>
<path d="M52.6631 155.355C56.0179 146.549 71.534 141.936 79.968 145.163" stroke="#66CCFF" stroke-width="1.6" stroke-linecap="round" stroke-dasharray="3.2 3.2"/>
<path d="M56.0179 190.161C54.3405 171.29 71.5341 156.79 85.6826 156.79" stroke="#66CCFF" stroke-width="1.6" stroke-linecap="round" stroke-dasharray="3.2 3.2"/>
<path d="M63.5659 107.968C73.6304 91.1942 107.179 93.7102 126.402 106.163" stroke="#66CCFF" stroke-width="1.6" stroke-linecap="round" stroke-dasharray="3.2 3.2"/>
<path d="M71.1146 91.1939C83.2759 76.5165 111.792 82.8067 128.308 100.443" stroke="#66CCFF" stroke-width="1.6" stroke-linecap="round" stroke-dasharray="3.2 3.2"/>
<path d="M57.2755 129.355C59.3725 115.936 84.9531 101.678 127.308 111.743" stroke="#66CCFF" stroke-width="1.6" stroke-linecap="round" stroke-dasharray="3.2 3.2"/>
<g filter="url(#filter2_f_39_99751)">
<path fill-rule="evenodd" clip-rule="evenodd" d="M165.951 232.003C157.54 231.225 150.208 215.908 149.572 202.99C155.563 202.084 161.49 198.317 165.951 193.516C170.158 198.255 176.339 202.084 182.33 202.99C181.694 215.908 174.43 231.225 165.951 232.003Z" fill="white"/>
<path d="M165.951 231.866C163.892 231.672 161.888 230.59 160.025 228.859C158.159 227.124 156.443 224.747 154.965 221.985C152.03 216.496 150.05 209.511 149.714 203.105C155.657 202.169 161.516 198.449 165.949 193.717C170.142 198.392 176.245 202.168 182.188 203.105C181.853 209.511 179.889 216.497 176.962 221.985C175.489 224.747 173.775 227.124 171.906 228.858C170.04 230.589 168.027 231.672 165.951 231.866Z" stroke="white" stroke-width="0.271414"/>
</g>
<path d="M165.951 231.775C163.921 231.582 161.938 230.512 160.087 228.792C158.23 227.067 156.519 224.698 155.045 221.942C152.128 216.488 150.156 209.552 149.808 203.182C155.719 202.225 161.533 198.538 165.947 193.851C170.13 198.483 176.182 202.225 182.093 203.182C181.746 209.552 179.791 216.489 176.882 221.942C175.412 224.698 173.704 227.067 171.844 228.792C169.99 230.512 167.998 231.581 165.951 231.775Z" fill="url(#paint75_linear_39_99751)" stroke="white" stroke-width="0.452777"/>
<path fill-rule="evenodd" clip-rule="evenodd" d="M160.744 214.917V213.859L165.648 213.171V211.741L160.744 212.802V211.744L165.648 210.104V208.833L160.744 210.629V209.676L165.648 207.293V205.703L160.744 208.619V207.826L165.804 204.012L170.916 207.931V216.137H171.537V217.619H160.176V216.137H165.648V214.602L160.744 214.917Z" fill="white"/>
<g filter="url(#filter3_f_39_99751)">
<path fill-rule="evenodd" clip-rule="evenodd" d="M144.203 132.197C135.792 131.419 128.46 116.102 127.823 103.184C133.815 102.278 139.741 98.5114 144.203 93.7103C148.41 98.4492 154.591 102.278 160.582 103.184C159.946 116.102 152.682 131.419 144.203 132.197Z" fill="white"/>
<path d="M144.203 132.06C142.144 131.867 140.14 130.784 138.277 129.053C136.411 127.319 134.694 124.941 133.217 122.179C130.281 116.69 128.301 109.705 127.965 103.3C133.908 102.363 139.767 98.6436 144.2 93.9116C148.393 98.5858 154.496 102.363 160.44 103.3C160.104 109.705 158.141 116.691 155.214 122.179C153.741 124.941 152.027 127.319 150.157 129.053C148.292 130.784 146.279 131.867 144.203 132.06Z" stroke="white" stroke-width="0.271414"/>
</g>
<path d="M144.203 131.969C142.173 131.776 140.19 130.706 138.339 128.986C136.482 127.261 134.771 124.892 133.297 122.136C130.38 116.683 128.408 109.746 128.06 103.376C133.971 102.42 139.785 98.7319 144.199 94.0456C148.382 98.6768 154.434 102.419 160.345 103.376C159.998 109.747 158.042 116.683 155.134 122.137C153.664 124.892 151.955 127.261 150.096 128.986C148.242 130.706 146.25 131.776 144.203 131.969Z" fill="url(#paint76_linear_39_99751)" stroke="white" stroke-width="0.452777"/>
<path fill-rule="evenodd" clip-rule="evenodd" d="M138.995 115.111V114.054L143.899 113.365V111.935L138.995 112.996V111.939L143.899 110.298V109.027L138.995 110.823V109.871L143.899 107.487V105.897L138.995 108.813V108.02L144.055 104.206L149.167 108.125V116.332H149.788V117.813H138.427V116.332H143.899V114.796L138.995 115.111Z" fill="white"/>
<g filter="url(#filter4_f_39_99751)">
<path fill-rule="evenodd" clip-rule="evenodd" d="M313.034 176.648C304.623 175.87 297.291 160.553 296.655 147.635C302.646 146.729 308.573 142.962 313.034 138.161C317.242 142.9 323.422 146.729 329.413 147.635C328.777 160.553 321.513 175.87 313.034 176.648Z" fill="white"/>
<path d="M313.034 176.512C310.975 176.318 308.971 175.235 307.108 173.504C305.242 171.77 303.526 169.392 302.049 166.63C299.113 161.142 297.133 154.156 296.797 147.751C302.74 146.814 308.599 143.095 313.032 138.363C317.225 143.037 323.328 146.814 329.271 147.751C328.936 154.157 326.972 161.142 324.045 166.63C322.572 169.392 320.858 171.77 318.989 173.504C317.123 175.235 315.11 176.318 313.034 176.512Z" stroke="white" stroke-width="0.271414"/>
</g>
<path d="M313.034 176.42C311.004 176.227 309.021 175.158 307.17 173.437C305.313 171.712 303.602 169.343 302.129 166.588C299.211 161.134 297.239 154.197 296.892 147.827C302.802 146.871 308.616 143.183 313.03 138.497C317.213 143.128 323.265 146.87 329.177 147.827C328.829 154.198 326.874 161.134 323.965 166.588C322.495 169.343 320.787 171.712 318.927 173.437C317.073 175.157 315.081 176.227 313.034 176.42Z" fill="url(#paint77_linear_39_99751)" stroke="white" stroke-width="0.452777"/>
<path fill-rule="evenodd" clip-rule="evenodd" d="M307.827 159.562V158.504L312.731 157.816V156.386L307.827 157.447V156.389L312.731 154.749V153.478L307.827 155.274V154.321L312.731 151.938V150.348L307.827 153.264V152.471L312.887 148.657L317.999 152.576V160.782H318.62V162.264H307.259V160.782H312.731V159.247L307.827 159.562Z" fill="white"/>
<path d="M266.381 131.929L266.381 131.929C266.158 132.11 265.835 132.11 265.612 131.929L265.612 131.929C263.992 130.616 258.88 126.095 254.175 119.852C249.466 113.603 245.19 105.662 245.19 97.5027C245.19 86.793 255.002 77.9635 265.996 78.0014L265.997 78.0014C276.989 77.9635 286.803 86.793 286.803 97.5027C286.803 105.662 282.527 113.603 277.818 119.852C273.113 126.095 268 130.616 266.381 131.929Z" fill="url(#paint78_linear_39_99751)" stroke="white" stroke-width="0.452777"/>
<circle cx="266.142" cy="99.2243" r="14.2993" fill="white"/>
<path fill-rule="evenodd" clip-rule="evenodd" d="M261.075 94.7547C261.075 91.7927 263.478 89.3925 266.445 89.3925C269.41 89.3925 271.815 91.7928 271.815 94.7547C271.815 96.709 270.77 98.4191 269.203 99.3563L269.202 99.3568C268.397 99.8398 267.455 100.117 266.445 100.117C265.435 100.117 264.493 99.8398 263.687 99.3568L263.687 99.3563C262.12 98.4191 261.075 96.709 261.075 94.7547ZM266.445 87.6051C262.49 87.6051 259.285 90.8056 259.285 94.7547C259.285 96.4663 259.887 98.037 260.89 99.267C258.43 99.6024 256.599 101.823 256.599 104.413V105.869C256.599 107.081 257.538 108.16 258.811 108.16H274.08C275.352 108.16 276.29 107.08 276.29 105.869V104.413C276.29 101.823 274.459 99.602 272 99.2669C273.003 98.0369 273.605 96.4663 273.605 94.7547C273.605 90.8054 270.398 87.6051 266.445 87.6051ZM262.976 101.011H261.538C259.85 101.011 258.389 102.481 258.389 104.413V105.869C258.389 106.2 258.629 106.373 258.811 106.373H274.08C274.26 106.373 274.5 106.2 274.5 105.869V104.413C274.5 102.481 273.039 101.011 271.353 101.011H269.913C269.682 101.139 269.443 101.254 269.197 101.357C268.352 101.734 267.422 101.943 266.445 101.943C265.475 101.943 264.55 101.736 263.708 101.363C263.457 101.259 263.213 101.142 262.976 101.011Z" fill="#0077FF"/>
<g filter="url(#filter5_f_39_99751)">
<path fill-rule="evenodd" clip-rule="evenodd" d="M97.1652 160.713C88.7541 159.936 81.4222 144.619 80.786 131.701C86.7772 130.795 92.704 127.028 97.1652 122.227C101.373 126.966 107.553 130.795 113.544 131.701C112.908 144.619 105.644 159.936 97.1652 160.713Z" fill="white"/>
<path d="M97.1652 160.577C95.1063 160.383 93.1021 159.3 91.2393 157.569C89.3733 155.835 87.6568 153.457 86.1797 150.696C83.2438 145.207 81.2638 138.222 80.9278 131.816C86.8709 130.879 92.7297 127.16 97.163 122.428C101.356 127.102 107.459 130.879 113.403 131.816C113.067 138.222 111.104 145.207 108.176 150.696C106.703 153.457 104.989 155.835 103.12 157.569C101.254 159.3 99.2414 160.383 97.1652 160.577Z" stroke="white" stroke-width="0.271414"/>
</g>
<path d="M97.1653 160.486C95.1356 160.292 93.1522 159.223 91.3011 157.503C89.4444 155.777 87.7336 153.409 86.2596 150.653C83.3424 145.199 81.3705 138.263 81.0227 131.893C86.9334 130.936 92.7472 127.248 97.1615 122.562C101.344 127.193 107.396 130.936 113.308 131.893C112.96 138.263 111.005 145.199 108.096 150.653C106.627 153.409 104.918 155.777 103.058 157.503C101.204 159.223 99.2122 160.292 97.1653 160.486Z" fill="url(#paint79_linear_39_99751)" stroke="white" stroke-width="0.452777"/>
<path fill-rule="evenodd" clip-rule="evenodd" d="M91.9583 143.627V142.57L96.8626 141.882V140.451L91.9583 141.512V140.455L96.8626 138.815V137.543L91.9583 139.339V138.387L96.8626 136.004V134.414L91.9583 137.329V136.536L97.0179 132.723L102.13 136.641V144.848H102.752V146.329H91.3903V144.848H96.8626V143.312L91.9583 143.627Z" fill="white"/>
<g filter="url(#filter6_f_39_99751)">
<path fill-rule="evenodd" clip-rule="evenodd" d="M319.754 113.746C311.343 112.968 304.011 97.6513 303.375 84.733C309.366 83.8272 315.292 80.0602 319.754 75.2592C323.961 79.998 330.142 83.8272 336.133 84.733C335.497 97.6513 328.233 112.968 319.754 113.746Z" fill="white"/>
<path d="M319.754 113.609C317.695 113.415 315.691 112.333 313.828 110.602C311.962 108.867 310.245 106.49 308.768 103.728C305.832 98.2393 303.852 91.2541 303.516 84.8485C309.459 83.9118 315.318 80.1925 319.751 75.4605C323.944 80.1346 330.047 83.9114 335.991 84.8485C335.655 91.2543 333.692 98.2396 330.765 103.728C329.292 106.49 327.578 108.867 325.708 110.601C323.843 112.332 321.83 113.415 319.754 113.609Z" stroke="white" stroke-width="0.271414"/>
</g>
<path d="M319.754 113.518C317.724 113.325 315.741 112.255 313.89 110.535C312.033 108.81 310.322 106.441 308.848 103.685C305.931 98.2314 303.959 91.2951 303.611 84.9251C309.522 83.9685 315.336 80.2808 319.75 75.5944C323.933 80.2257 329.985 83.9679 335.896 84.9251C335.549 91.2954 333.593 98.2318 330.685 103.686C329.215 106.441 327.506 108.81 325.647 110.535C323.793 112.255 321.801 113.325 319.754 113.518Z" fill="url(#paint80_linear_39_99751)" stroke="white" stroke-width="0.452777"/>
<path fill-rule="evenodd" clip-rule="evenodd" d="M314.546 96.6599V95.6025L319.451 94.9144V93.4838L314.546 94.5451V93.4876L319.451 91.8471V90.5759L314.546 92.3719V91.4195L319.451 89.0364V87.4464L314.546 90.3621V89.569L319.606 85.7554L324.719 89.674V97.8805H325.34V99.3617H313.978V97.8805H319.451V96.345L314.546 96.6599Z" fill="white"/>
<defs>
<filter id="filter0_f_39_99751" x="0.186261" y="27.9022" width="421.307" height="284.809" filterUnits="userSpaceOnUse" color-interpolation-filters="sRGB">
<feFlood flood-opacity="0" result="BackgroundImageFix"/>
<feBlend mode="normal" in="SourceGraphic" in2="BackgroundImageFix" result="shape"/>
<feGaussianBlur stdDeviation="1.90675" result="effect1_foregroundBlur_39_99751"/>
</filter>
<filter id="filter1_d_39_99751" x="48.5397" y="0.850014" width="327.009" height="328.3" filterUnits="userSpaceOnUse" color-interpolation-filters="sRGB">
<feFlood flood-opacity="0" result="BackgroundImageFix"/>
<feColorMatrix in="SourceAlpha" type="matrix" values="0 0 0 0 0 0 0 0 0 0 0 0 0 0 0 0 0 0 127 0" result="hardAlpha"/>
<feOffset/>
<feGaussianBlur stdDeviation="4.07499"/>
<feComposite in2="hardAlpha" operator="out"/>
<feColorMatrix type="matrix" values="0 0 0 0 0 0 0 0 0 0.466667 0 0 0 0 1 0 0 0 0.33 0"/>
<feBlend mode="normal" in2="BackgroundImageFix" result="effect1_dropShadow_39_99751"/>
<feBlend mode="normal" in="SourceGraphic" in2="effect1_dropShadow_39_99751" result="shape"/>
</filter>
<filter id="filter2_f_39_99751" x="148.666" y="192.611" width="34.5694" height="40.2974" filterUnits="userSpaceOnUse" color-interpolation-filters="sRGB">
<feFlood flood-opacity="0" result="BackgroundImageFix"/>
<feBlend mode="normal" in="SourceGraphic" in2="BackgroundImageFix" result="shape"/>
<feGaussianBlur stdDeviation="0.452777" result="effect1_foregroundBlur_39_99751"/>
</filter>
<filter id="filter3_f_39_99751" x="126.195" y="92.0818" width="36.0153" height="41.7434" filterUnits="userSpaceOnUse" color-interpolation-filters="sRGB">
<feFlood flood-opacity="0" result="BackgroundImageFix"/>
<feBlend mode="normal" in="SourceGraphic" in2="BackgroundImageFix" result="shape"/>
<feGaussianBlur stdDeviation="0.814243" result="effect1_foregroundBlur_39_99751"/>
</filter>
<filter id="filter4_f_39_99751" x="295.026" y="136.533" width="36.0153" height="41.7433" filterUnits="userSpaceOnUse" color-interpolation-filters="sRGB">
<feFlood flood-opacity="0" result="BackgroundImageFix"/>
<feBlend mode="normal" in="SourceGraphic" in2="BackgroundImageFix" result="shape"/>
<feGaussianBlur stdDeviation="0.814243" result="effect1_foregroundBlur_39_99751"/>
</filter>
<filter id="filter5_f_39_99751" x="79.1575" y="120.598" width="36.0153" height="41.7433" filterUnits="userSpaceOnUse" color-interpolation-filters="sRGB">
<feFlood flood-opacity="0" result="BackgroundImageFix"/>
<feBlend mode="normal" in="SourceGraphic" in2="BackgroundImageFix" result="shape"/>
<feGaussianBlur stdDeviation="0.814243" result="effect1_foregroundBlur_39_99751"/>
</filter>
<filter id="filter6_f_39_99751" x="301.746" y="73.6307" width="36.0153" height="41.7434" filterUnits="userSpaceOnUse" color-interpolation-filters="sRGB">
<feFlood flood-opacity="0" result="BackgroundImageFix"/>
<feBlend mode="normal" in="SourceGraphic" in2="BackgroundImageFix" result="shape"/>
<feGaussianBlur stdDeviation="0.814243" result="effect1_foregroundBlur_39_99751"/>
</filter>
<linearGradient id="paint0_linear_39_99751" x1="89.5748" y1="58.8055" x2="325.019" y2="299.683" gradientUnits="userSpaceOnUse">
<stop stop-color="#062881"/>
<stop offset="1" stop-color="#000712"/>
</linearGradient>
<linearGradient id="paint1_linear_39_99751" x1="358.072" y1="241.727" x2="98.116" y2="90.9346" gradientUnits="userSpaceOnUse">
<stop stop-color="#03123A"/>
<stop offset="1" stop-color="#0066DA"/>
</linearGradient>
<linearGradient id="paint2_linear_39_99751" x1="358.072" y1="241.727" x2="98.116" y2="90.9346" gradientUnits="userSpaceOnUse">
<stop stop-color="#03123A"/>
<stop offset="1" stop-color="#0066DA"/>
</linearGradient>
<linearGradient id="paint3_linear_39_99751" x1="358.072" y1="241.727" x2="98.116" y2="90.9346" gradientUnits="userSpaceOnUse">
<stop stop-color="#03123A"/>
<stop offset="1" stop-color="#0066DA"/>
</linearGradient>
<linearGradient id="paint4_linear_39_99751" x1="358.072" y1="241.727" x2="98.116" y2="90.9346" gradientUnits="userSpaceOnUse">
<stop stop-color="#03123A"/>
<stop offset="1" stop-color="#0066DA"/>
</linearGradient>
<linearGradient id="paint5_linear_39_99751" x1="358.072" y1="241.727" x2="98.116" y2="90.9346" gradientUnits="userSpaceOnUse">
<stop stop-color="#03123A"/>
<stop offset="1" stop-color="#0066DA"/>
</linearGradient>
<linearGradient id="paint6_linear_39_99751" x1="358.072" y1="241.727" x2="98.116" y2="90.9346" gradientUnits="userSpaceOnUse">
<stop stop-color="#03123A"/>
<stop offset="1" stop-color="#0066DA"/>
</linearGradient>
<linearGradient id="paint7_linear_39_99751" x1="358.072" y1="241.727" x2="98.116" y2="90.9346" gradientUnits="userSpaceOnUse">
<stop stop-color="#03123A"/>
<stop offset="1" stop-color="#0066DA"/>
</linearGradient>
<linearGradient id="paint8_linear_39_99751" x1="358.072" y1="241.727" x2="98.116" y2="90.9346" gradientUnits="userSpaceOnUse">
<stop stop-color="#03123A"/>
<stop offset="1" stop-color="#0066DA"/>
</linearGradient>
<linearGradient id="paint9_linear_39_99751" x1="358.072" y1="241.727" x2="98.116" y2="90.9346" gradientUnits="userSpaceOnUse">
<stop stop-color="#03123A"/>
<stop offset="1" stop-color="#0066DA"/>
</linearGradient>
<linearGradient id="paint10_linear_39_99751" x1="358.072" y1="241.727" x2="98.116" y2="90.9346" gradientUnits="userSpaceOnUse">
<stop stop-color="#03123A"/>
<stop offset="1" stop-color="#0066DA"/>
</linearGradient>
<linearGradient id="paint11_linear_39_99751" x1="358.072" y1="241.727" x2="98.116" y2="90.9346" gradientUnits="userSpaceOnUse">
<stop stop-color="#03123A"/>
<stop offset="1" stop-color="#0066DA"/>
</linearGradient>
<linearGradient id="paint12_linear_39_99751" x1="358.072" y1="241.727" x2="98.116" y2="90.9346" gradientUnits="userSpaceOnUse">
<stop stop-color="#03123A"/>
<stop offset="1" stop-color="#0066DA"/>
</linearGradient>
<linearGradient id="paint13_linear_39_99751" x1="358.072" y1="241.727" x2="98.116" y2="90.9346" gradientUnits="userSpaceOnUse">
<stop stop-color="#03123A"/>
<stop offset="1" stop-color="#0066DA"/>
</linearGradient>
<linearGradient id="paint14_linear_39_99751" x1="358.072" y1="241.727" x2="98.116" y2="90.9346" gradientUnits="userSpaceOnUse">
<stop stop-color="#03123A"/>
<stop offset="1" stop-color="#0066DA"/>
</linearGradient>
<linearGradient id="paint15_linear_39_99751" x1="358.072" y1="241.727" x2="98.116" y2="90.9346" gradientUnits="userSpaceOnUse">
<stop stop-color="#03123A"/>
<stop offset="1" stop-color="#0066DA"/>
</linearGradient>
<linearGradient id="paint16_linear_39_99751" x1="358.072" y1="241.727" x2="98.116" y2="90.9346" gradientUnits="userSpaceOnUse">
<stop stop-color="#03123A"/>
<stop offset="1" stop-color="#0066DA"/>
</linearGradient>
<linearGradient id="paint17_linear_39_99751" x1="358.072" y1="241.727" x2="98.116" y2="90.9346" gradientUnits="userSpaceOnUse">
<stop stop-color="#03123A"/>
<stop offset="1" stop-color="#0066DA"/>
</linearGradient>
<linearGradient id="paint18_linear_39_99751" x1="358.072" y1="241.727" x2="98.116" y2="90.9346" gradientUnits="userSpaceOnUse">
<stop stop-color="#03123A"/>
<stop offset="1" stop-color="#0066DA"/>
</linearGradient>
<linearGradient id="paint19_linear_39_99751" x1="358.072" y1="241.727" x2="98.116" y2="90.9346" gradientUnits="userSpaceOnUse">
<stop stop-color="#03123A"/>
<stop offset="1" stop-color="#0066DA"/>
</linearGradient>
<linearGradient id="paint20_linear_39_99751" x1="358.072" y1="241.727" x2="98.116" y2="90.9346" gradientUnits="userSpaceOnUse">
<stop stop-color="#03123A"/>
<stop offset="1" stop-color="#0066DA"/>
</linearGradient>
<linearGradient id="paint21_linear_39_99751" x1="358.072" y1="241.727" x2="98.116" y2="90.9346" gradientUnits="userSpaceOnUse">
<stop stop-color="#03123A"/>
<stop offset="1" stop-color="#0066DA"/>
</linearGradient>
<linearGradient id="paint22_linear_39_99751" x1="358.072" y1="241.727" x2="98.116" y2="90.9346" gradientUnits="userSpaceOnUse">
<stop stop-color="#03123A"/>
<stop offset="1" stop-color="#0066DA"/>
</linearGradient>
<linearGradient id="paint23_linear_39_99751" x1="358.072" y1="241.727" x2="98.116" y2="90.9346" gradientUnits="userSpaceOnUse">
<stop stop-color="#03123A"/>
<stop offset="1" stop-color="#0066DA"/>
</linearGradient>
<linearGradient id="paint24_linear_39_99751" x1="358.072" y1="241.727" x2="98.116" y2="90.9346" gradientUnits="userSpaceOnUse">
<stop stop-color="#03123A"/>
<stop offset="1" stop-color="#0066DA"/>
</linearGradient>
<linearGradient id="paint25_linear_39_99751" x1="358.072" y1="241.727" x2="98.116" y2="90.9346" gradientUnits="userSpaceOnUse">
<stop stop-color="#03123A"/>
<stop offset="1" stop-color="#0066DA"/>
</linearGradient>
<linearGradient id="paint26_linear_39_99751" x1="358.072" y1="241.727" x2="98.116" y2="90.9346" gradientUnits="userSpaceOnUse">
<stop stop-color="#03123A"/>
<stop offset="1" stop-color="#0066DA"/>
</linearGradient>
<linearGradient id="paint27_linear_39_99751" x1="358.072" y1="241.727" x2="98.116" y2="90.9346" gradientUnits="userSpaceOnUse">
<stop stop-color="#03123A"/>
<stop offset="1" stop-color="#0066DA"/>
</linearGradient>
<linearGradient id="paint28_linear_39_99751" x1="358.072" y1="241.727" x2="98.116" y2="90.9346" gradientUnits="userSpaceOnUse">
<stop stop-color="#03123A"/>
<stop offset="1" stop-color="#0066DA"/>
</linearGradient>
<linearGradient id="paint29_linear_39_99751" x1="358.072" y1="241.727" x2="98.116" y2="90.9346" gradientUnits="userSpaceOnUse">
<stop stop-color="#03123A"/>
<stop offset="1" stop-color="#0066DA"/>
</linearGradient>
<linearGradient id="paint30_linear_39_99751" x1="358.072" y1="241.727" x2="98.116" y2="90.9346" gradientUnits="userSpaceOnUse">
<stop stop-color="#03123A"/>
<stop offset="1" stop-color="#0066DA"/>
</linearGradient>
<linearGradient id="paint31_linear_39_99751" x1="358.072" y1="241.727" x2="98.116" y2="90.9346" gradientUnits="userSpaceOnUse">
<stop stop-color="#03123A"/>
<stop offset="1" stop-color="#0066DA"/>
</linearGradient>
<linearGradient id="paint32_linear_39_99751" x1="358.072" y1="241.727" x2="98.116" y2="90.9346" gradientUnits="userSpaceOnUse">
<stop stop-color="#03123A"/>
<stop offset="1" stop-color="#0066DA"/>
</linearGradient>
<linearGradient id="paint33_linear_39_99751" x1="358.072" y1="241.727" x2="98.116" y2="90.9346" gradientUnits="userSpaceOnUse">
<stop stop-color="#03123A"/>
<stop offset="1" stop-color="#0066DA"/>
</linearGradient>
<linearGradient id="paint34_linear_39_99751" x1="358.072" y1="241.727" x2="98.116" y2="90.9346" gradientUnits="userSpaceOnUse">
<stop stop-color="#03123A"/>
<stop offset="1" stop-color="#0066DA"/>
</linearGradient>
<linearGradient id="paint35_linear_39_99751" x1="358.072" y1="241.727" x2="98.116" y2="90.9346" gradientUnits="userSpaceOnUse">
<stop stop-color="#03123A"/>
<stop offset="1" stop-color="#0066DA"/>
</linearGradient>
<linearGradient id="paint36_linear_39_99751" x1="358.072" y1="241.727" x2="98.116" y2="90.9346" gradientUnits="userSpaceOnUse">
<stop stop-color="#03123A"/>
<stop offset="1" stop-color="#0066DA"/>
</linearGradient>
<linearGradient id="paint37_linear_39_99751" x1="358.072" y1="241.727" x2="98.116" y2="90.9346" gradientUnits="userSpaceOnUse">
<stop stop-color="#03123A"/>
<stop offset="1" stop-color="#0066DA"/>
</linearGradient>
<linearGradient id="paint38_linear_39_99751" x1="358.072" y1="241.727" x2="98.116" y2="90.9346" gradientUnits="userSpaceOnUse">
<stop stop-color="#03123A"/>
<stop offset="1" stop-color="#0066DA"/>
</linearGradient>
<linearGradient id="paint39_linear_39_99751" x1="358.072" y1="241.727" x2="98.116" y2="90.9346" gradientUnits="userSpaceOnUse">
<stop stop-color="#03123A"/>
<stop offset="1" stop-color="#0066DA"/>
</linearGradient>
<linearGradient id="paint40_linear_39_99751" x1="358.072" y1="241.727" x2="98.116" y2="90.9346" gradientUnits="userSpaceOnUse">
<stop stop-color="#03123A"/>
<stop offset="1" stop-color="#0066DA"/>
</linearGradient>
<linearGradient id="paint41_linear_39_99751" x1="358.072" y1="241.727" x2="98.116" y2="90.9346" gradientUnits="userSpaceOnUse">
<stop stop-color="#03123A"/>
<stop offset="1" stop-color="#0066DA"/>
</linearGradient>
<linearGradient id="paint42_linear_39_99751" x1="358.072" y1="241.727" x2="98.116" y2="90.9346" gradientUnits="userSpaceOnUse">
<stop stop-color="#03123A"/>
<stop offset="1" stop-color="#0066DA"/>
</linearGradient>
<linearGradient id="paint43_linear_39_99751" x1="358.072" y1="241.727" x2="98.116" y2="90.9346" gradientUnits="userSpaceOnUse">
<stop stop-color="#03123A"/>
<stop offset="1" stop-color="#0066DA"/>
</linearGradient>
<linearGradient id="paint44_linear_39_99751" x1="358.072" y1="241.727" x2="98.116" y2="90.9346" gradientUnits="userSpaceOnUse">
<stop stop-color="#03123A"/>
<stop offset="1" stop-color="#0066DA"/>
</linearGradient>
<linearGradient id="paint45_linear_39_99751" x1="358.072" y1="241.727" x2="98.116" y2="90.9346" gradientUnits="userSpaceOnUse">
<stop stop-color="#03123A"/>
<stop offset="1" stop-color="#0066DA"/>
</linearGradient>
<linearGradient id="paint46_linear_39_99751" x1="358.072" y1="241.727" x2="98.116" y2="90.9346" gradientUnits="userSpaceOnUse">
<stop stop-color="#03123A"/>
<stop offset="1" stop-color="#0066DA"/>
</linearGradient>
<linearGradient id="paint47_linear_39_99751" x1="358.072" y1="241.727" x2="98.116" y2="90.9346" gradientUnits="userSpaceOnUse">
<stop stop-color="#03123A"/>
<stop offset="1" stop-color="#0066DA"/>
</linearGradient>
<linearGradient id="paint48_linear_39_99751" x1="358.072" y1="241.727" x2="98.116" y2="90.9346" gradientUnits="userSpaceOnUse">
<stop stop-color="#03123A"/>
<stop offset="1" stop-color="#0066DA"/>
</linearGradient>
<linearGradient id="paint49_linear_39_99751" x1="358.072" y1="241.727" x2="98.116" y2="90.9346" gradientUnits="userSpaceOnUse">
<stop stop-color="#03123A"/>
<stop offset="1" stop-color="#0066DA"/>
</linearGradient>
<linearGradient id="paint50_linear_39_99751" x1="358.072" y1="241.727" x2="98.116" y2="90.9346" gradientUnits="userSpaceOnUse">
<stop stop-color="#03123A"/>
<stop offset="1" stop-color="#0066DA"/>
</linearGradient>
<linearGradient id="paint51_linear_39_99751" x1="358.072" y1="241.727" x2="98.116" y2="90.9346" gradientUnits="userSpaceOnUse">
<stop stop-color="#03123A"/>
<stop offset="1" stop-color="#0066DA"/>
</linearGradient>
<linearGradient id="paint52_linear_39_99751" x1="358.072" y1="241.727" x2="98.116" y2="90.9346" gradientUnits="userSpaceOnUse">
<stop stop-color="#03123A"/>
<stop offset="1" stop-color="#0066DA"/>
</linearGradient>
<linearGradient id="paint53_linear_39_99751" x1="358.072" y1="241.727" x2="98.116" y2="90.9346" gradientUnits="userSpaceOnUse">
<stop stop-color="#03123A"/>
<stop offset="1" stop-color="#0066DA"/>
</linearGradient>
<linearGradient id="paint54_linear_39_99751" x1="358.072" y1="241.727" x2="98.116" y2="90.9346" gradientUnits="userSpaceOnUse">
<stop stop-color="#03123A"/>
<stop offset="1" stop-color="#0066DA"/>
</linearGradient>
<linearGradient id="paint55_linear_39_99751" x1="358.072" y1="241.727" x2="98.116" y2="90.9346" gradientUnits="userSpaceOnUse">
<stop stop-color="#03123A"/>
<stop offset="1" stop-color="#0066DA"/>
</linearGradient>
<linearGradient id="paint56_linear_39_99751" x1="358.072" y1="241.727" x2="98.116" y2="90.9346" gradientUnits="userSpaceOnUse">
<stop stop-color="#03123A"/>
<stop offset="1" stop-color="#0066DA"/>
</linearGradient>
<linearGradient id="paint57_linear_39_99751" x1="358.072" y1="241.727" x2="98.116" y2="90.9346" gradientUnits="userSpaceOnUse">
<stop stop-color="#03123A"/>
<stop offset="1" stop-color="#0066DA"/>
</linearGradient>
<linearGradient id="paint58_linear_39_99751" x1="358.072" y1="241.727" x2="98.116" y2="90.9346" gradientUnits="userSpaceOnUse">
<stop stop-color="#03123A"/>
<stop offset="1" stop-color="#0066DA"/>
</linearGradient>
<linearGradient id="paint59_linear_39_99751" x1="358.072" y1="241.727" x2="98.116" y2="90.9346" gradientUnits="userSpaceOnUse">
<stop stop-color="#03123A"/>
<stop offset="1" stop-color="#0066DA"/>
</linearGradient>
<linearGradient id="paint60_linear_39_99751" x1="358.072" y1="241.727" x2="98.116" y2="90.9346" gradientUnits="userSpaceOnUse">
<stop stop-color="#03123A"/>
<stop offset="1" stop-color="#0066DA"/>
</linearGradient>
<linearGradient id="paint61_linear_39_99751" x1="358.072" y1="241.727" x2="98.116" y2="90.9346" gradientUnits="userSpaceOnUse">
<stop stop-color="#03123A"/>
<stop offset="1" stop-color="#0066DA"/>
</linearGradient>
<linearGradient id="paint62_linear_39_99751" x1="358.072" y1="241.727" x2="98.116" y2="90.9346" gradientUnits="userSpaceOnUse">
<stop stop-color="#03123A"/>
<stop offset="1" stop-color="#0066DA"/>
</linearGradient>
<linearGradient id="paint63_linear_39_99751" x1="358.072" y1="241.727" x2="98.116" y2="90.9346" gradientUnits="userSpaceOnUse">
<stop stop-color="#03123A"/>
<stop offset="1" stop-color="#0066DA"/>
</linearGradient>
<linearGradient id="paint64_linear_39_99751" x1="358.072" y1="241.727" x2="98.116" y2="90.9346" gradientUnits="userSpaceOnUse">
<stop stop-color="#03123A"/>
<stop offset="1" stop-color="#0066DA"/>
</linearGradient>
<linearGradient id="paint65_linear_39_99751" x1="358.072" y1="241.727" x2="98.116" y2="90.9346" gradientUnits="userSpaceOnUse">
<stop stop-color="#03123A"/>
<stop offset="1" stop-color="#0066DA"/>
</linearGradient>
<linearGradient id="paint66_linear_39_99751" x1="358.072" y1="241.727" x2="98.116" y2="90.9346" gradientUnits="userSpaceOnUse">
<stop stop-color="#03123A"/>
<stop offset="1" stop-color="#0066DA"/>
</linearGradient>
<linearGradient id="paint67_linear_39_99751" x1="358.072" y1="241.727" x2="98.116" y2="90.9346" gradientUnits="userSpaceOnUse">
<stop stop-color="#03123A"/>
<stop offset="1" stop-color="#0066DA"/>
</linearGradient>
<linearGradient id="paint68_linear_39_99751" x1="358.072" y1="241.727" x2="98.116" y2="90.9346" gradientUnits="userSpaceOnUse">
<stop stop-color="#03123A"/>
<stop offset="1" stop-color="#0066DA"/>
</linearGradient>
<linearGradient id="paint69_linear_39_99751" x1="358.072" y1="241.727" x2="98.116" y2="90.9346" gradientUnits="userSpaceOnUse">
<stop stop-color="#03123A"/>
<stop offset="1" stop-color="#0066DA"/>
</linearGradient>
<linearGradient id="paint70_linear_39_99751" x1="358.072" y1="241.727" x2="98.116" y2="90.9346" gradientUnits="userSpaceOnUse">
<stop stop-color="#03123A"/>
<stop offset="1" stop-color="#0066DA"/>
</linearGradient>
<linearGradient id="paint71_linear_39_99751" x1="358.072" y1="241.727" x2="98.116" y2="90.9346" gradientUnits="userSpaceOnUse">
<stop stop-color="#03123A"/>
<stop offset="1" stop-color="#0066DA"/>
</linearGradient>
<linearGradient id="paint72_linear_39_99751" x1="358.072" y1="241.727" x2="98.116" y2="90.9346" gradientUnits="userSpaceOnUse">
<stop stop-color="#03123A"/>
<stop offset="1" stop-color="#0066DA"/>
</linearGradient>
<linearGradient id="paint73_linear_39_99751" x1="358.072" y1="241.727" x2="98.116" y2="90.9346" gradientUnits="userSpaceOnUse">
<stop stop-color="#03123A"/>
<stop offset="1" stop-color="#0066DA"/>
</linearGradient>
<linearGradient id="paint74_linear_39_99751" x1="358.072" y1="241.727" x2="98.116" y2="90.9346" gradientUnits="userSpaceOnUse">
<stop stop-color="#03123A"/>
<stop offset="1" stop-color="#0066DA"/>
</linearGradient>
<linearGradient id="paint75_linear_39_99751" x1="165.926" y1="232.113" x2="158.998" y2="193.37" gradientUnits="userSpaceOnUse">
<stop offset="0.148958" stop-color="#171D7B"/>
<stop offset="0.836458" stop-color="#026CF0"/>
</linearGradient>
<linearGradient id="paint76_linear_39_99751" x1="144.178" y1="132.308" x2="137.25" y2="93.5644" gradientUnits="userSpaceOnUse">
<stop offset="0.148958" stop-color="#171D7B"/>
<stop offset="0.836458" stop-color="#026CF0"/>
</linearGradient>
<linearGradient id="paint77_linear_39_99751" x1="313.009" y1="176.759" x2="306.082" y2="138.015" gradientUnits="userSpaceOnUse">
<stop offset="0.148958" stop-color="#171D7B"/>
<stop offset="0.836458" stop-color="#026CF0"/>
</linearGradient>
<linearGradient id="paint78_linear_39_99751" x1="265.964" y1="132.448" x2="255.212" y2="77.9342" gradientUnits="userSpaceOnUse">
<stop offset="0.148958" stop-color="#171D7B"/>
<stop offset="0.836458" stop-color="#026CF0"/>
</linearGradient>
<linearGradient id="paint79_linear_39_99751" x1="97.1402" y1="160.824" x2="90.2126" y2="122.081" gradientUnits="userSpaceOnUse">
<stop offset="0.148958" stop-color="#171D7B"/>
<stop offset="0.836458" stop-color="#026CF0"/>
</linearGradient>
<linearGradient id="paint80_linear_39_99751" x1="319.729" y1="113.856" x2="312.801" y2="75.1132" gradientUnits="userSpaceOnUse">
<stop offset="0.148958" stop-color="#171D7B"/>
<stop offset="0.836458" stop-color="#026CF0"/>
</linearGradient>
</defs>
</svg>
